<?xml version="1.0" standalone="no"?>
<!DOCTYPE svg PUBLIC "-//W3C//DTD SVG 20010904//EN"
 "http://www.w3.org/TR/2001/REC-SVG-20010904/DTD/svg10.dtd">
<svg version="1.0" xmlns="http://www.w3.org/2000/svg"
 width="1280.000000pt" height="1227.000000pt" viewBox="0 0 1280.000000 1227.000000"
 preserveAspectRatio="xMidYMid meet">
<metadata>
Created by potrace 1.15, written by Peter Selinger 2001-2017
</metadata>
<g transform="translate(0.000000,1227.000000) scale(0.100000,-0.100000)"
fill="#000000" stroke="none">
<path d="M6535 12264 c-22 -2 -103 -8 -180 -14 -1800 -140 -3357 -973 -4509
-2414 -49 -61 -92 -112 -95 -113 -3 -2 -40 25 -81 60 -68 57 -149 145 -369
400 -40 47 -109 116 -152 154 -48 41 -82 78 -85 93 -10 48 -30 75 -69 93 -33
15 -50 35 -92 107 -106 178 -199 250 -333 258 -97 6 -118 -5 -207 -104 -37
-43 -123 -137 -190 -210 -156 -170 -168 -192 -168 -309 1 -76 5 -99 28 -148
41 -90 169 -214 412 -402 105 -81 259 -221 545 -495 113 -108 235 -224 271
-257 l66 -61 -43 -30 c-53 -38 -86 -89 -136 -211 -108 -266 -307 -957 -382
-1332 -142 -701 -148 -1567 -15 -2284 151 -817 556 -1762 1065 -2485 558 -794
1334 -1455 2243 -1909 696 -349 1380 -548 2151 -628 235 -24 790 -24 1030 1
1064 107 1796 352 2661 891 1180 736 1989 1698 2476 2945 220 564 343 1108
404 1790 17 178 17 803 1 995 -65 775 -264 1466 -632 2195 -326 644 -738 1216
-1229 1708 -280 281 -523 480 -671 551 -50 24 -91 53 -125 88 -37 39 -91 76
-210 142 -88 49 -209 117 -270 151 -60 35 -189 102 -286 151 -711 355 -1295
526 -2079 609 -182 19 -642 34 -745 24z m585 -124 c380 -27 885 -119 1289
-237 l53 -15 -4 -42 c-3 -23 -18 -73 -33 -112 -17 -41 -28 -90 -29 -121 0 -29
-4 -53 -8 -53 -4 0 -56 7 -115 16 -170 25 -218 55 -230 143 l-5 39 -37 -13
c-20 -7 -57 -23 -83 -34 -45 -21 -50 -21 -107 -6 -155 40 -405 66 -831 85
-124 6 -285 15 -357 22 l-133 11 0 153 0 153 33 6 c88 15 415 17 597 5z m-769
-21 c49 -22 49 -22 42 -58 -13 -59 -7 -183 11 -225 9 -21 16 -41 16 -45 0 -3
-33 -6 -74 -5 -51 0 -82 5 -99 17 -24 16 -28 15 -72 -4 -51 -23 -121 -27 -155
-9 -18 10 -26 7 -59 -23 -35 -32 -43 -34 -129 -41 -209 -16 -503 -79 -696
-150 -50 -19 -104 -36 -121 -39 -16 -3 -40 -8 -52 -12 -18 -6 -23 -3 -23 9 0
14 -6 12 -34 -9 -49 -38 -130 -66 -206 -72 l-66 -6 -12 40 c-7 22 -12 58 -13
79 0 38 0 39 -16 17 -23 -34 -46 -28 -71 16 -30 53 -28 71 16 115 49 52 154
100 282 132 58 14 195 50 305 79 355 95 663 163 765 170 52 3 136 14 185 25
125 26 214 25 276 -1z m2349 -317 c478 -147 897 -364 1373 -711 107 -78 117
-88 112 -111 -14 -58 -57 -111 -131 -163 -107 -74 -107 -74 -162 -24 -61 56
-134 101 -375 231 -281 151 -449 259 -516 330 -18 19 -35 26 -61 26 -61 0
-181 36 -296 88 -60 27 -120 53 -132 57 -27 8 -28 -4 14 188 15 70 32 127 38
127 6 0 67 -17 136 -38z m-2213 -120 c25 -16 35 -66 28 -149 -7 -90 6 -156 30
-147 19 8 33 49 45 133 13 91 34 137 73 157 l30 16 -7 -59 c-3 -32 -9 -93 -12
-135 l-7 -78 30 0 c17 0 36 7 43 15 7 8 16 60 20 115 8 105 23 140 60 140 39
0 55 -37 60 -145 3 -57 8 -106 11 -110 15 -14 49 51 64 123 24 113 25 114 43
108 10 -3 34 -11 55 -18 l39 -13 -5 -55 c-3 -30 -9 -75 -12 -100 -6 -38 -4
-48 14 -64 21 -19 21 -19 35 15 7 19 19 58 26 87 14 62 48 116 75 120 19 3 20
-3 17 -113 -3 -98 -1 -115 12 -115 21 0 41 34 61 105 26 89 40 112 80 125 19
6 38 9 43 7 8 -6 -2 -192 -13 -226 -6 -19 -2 -21 29 -21 43 0 51 13 67 108
l12 70 43 4 c24 2 44 0 44 -3 0 -3 -6 -73 -14 -155 -33 -339 -41 -547 -41
-1079 0 -531 8 -733 41 -1069 19 -197 21 -182 -28 -199 -56 -20 -198 -45 -198
-36 0 5 18 23 40 40 46 37 40 49 -28 49 -64 0 -143 -32 -267 -110 -113 -70
-215 -123 -224 -115 -7 7 45 45 133 98 82 49 136 93 136 110 0 5 -22 7 -50 5
-67 -7 -178 -63 -262 -132 -37 -31 -72 -56 -78 -56 -25 0 -5 33 52 83 35 31
60 58 58 61 -11 10 -131 -24 -193 -55 -78 -40 -151 -89 -300 -203 -95 -72
-120 -87 -127 -76 -6 8 -10 20 -10 25 0 6 -18 39 -40 75 -22 36 -40 72 -40 80
0 8 -16 35 -36 60 -33 41 -35 48 -29 90 4 25 18 80 31 123 14 42 28 99 31 126
5 45 10 52 88 120 117 102 264 256 309 324 105 160 132 343 76 520 -17 55 -19
74 -10 105 17 64 12 124 -16 181 -15 29 -35 58 -45 64 -14 9 -19 24 -19 56 0
29 -11 68 -32 112 l-31 67 -66 -54 c-41 -34 -130 -87 -241 -144 -98 -49 -204
-110 -238 -134 -104 -77 -168 -177 -185 -290 l-6 -39 22 22 c13 11 45 59 72
106 77 132 83 101 10 -45 -65 -128 -83 -191 -100 -331 -8 -74 -19 -137 -24
-142 -19 -19 -32 55 -20 114 6 32 8 66 4 76 -12 30 -31 -41 -60 -224 -28 -183
-41 -248 -54 -271 -5 -8 -39 -24 -77 -37 -83 -26 -144 -63 -174 -105 l-22 -31
44 7 c76 10 149 34 263 86 60 27 116 52 123 55 8 3 10 0 6 -10 -3 -9 -1 -24 4
-34 9 -16 12 -14 29 15 31 57 38 63 71 64 43 1 47 -5 33 -52 -9 -30 -26 -50
-71 -85 -63 -48 -92 -54 -99 -20 -2 11 -7 30 -12 43 -8 22 -10 22 -38 7 -22
-11 -33 -27 -42 -58 -9 -35 -23 -73 -36 -98 -5 -8 108 -4 135 6 19 6 22 4 22
-17 0 -31 -30 -59 -102 -92 -61 -29 -108 -75 -108 -107 0 -27 12 -24 45 11 34
36 71 40 81 8 9 -31 -35 -67 -161 -130 -55 -28 -108 -57 -118 -66 -23 -20 -29
-12 -14 18 7 14 35 36 62 50 81 41 71 68 -12 30 -41 -18 -218 -178 -208 -188
2 -2 21 10 41 27 41 36 58 36 62 -1 2 -17 -5 -33 -24 -49 -15 -13 -40 -36 -55
-51 -28 -25 -29 -26 -39 -7 -14 24 -31 24 -81 -2 l-41 -20 4 42 c3 38 0 44
-20 49 l-24 5 20 26 c11 14 59 47 106 73 47 27 86 52 86 57 0 5 -11 16 -24 25
-23 14 -32 14 -110 -2 -47 -10 -89 -15 -93 -11 -9 10 44 55 74 63 34 9 17 24
-27 24 -30 0 -38 3 -34 14 7 17 44 33 101 41 38 6 41 5 36 -14 -5 -18 -2 -19
25 -12 16 5 39 14 52 21 13 7 40 10 62 7 36 -5 39 -3 36 16 -2 12 -17 31 -35
42 -28 18 -32 25 -33 65 0 59 -22 90 -61 90 -18 0 -28 -4 -24 -10 3 -5 18 -10
31 -10 33 0 27 -22 -10 -35 -19 -6 -36 -5 -59 4 -94 39 -131 49 -158 41 -25
-7 -28 -5 -34 20 -8 36 -36 61 -111 98 -33 17 -66 37 -73 46 -12 14 -16 14
-42 0 -25 -12 -55 -14 -177 -8 -110 5 -154 4 -171 -6 -13 -6 -21 -8 -19 -3 2
4 18 37 36 73 28 57 32 75 32 145 -1 72 -2 78 -15 61 -8 -11 -33 -76 -54 -145
-28 -87 -50 -138 -71 -163 -34 -41 -56 -48 -62 -20 -3 14 -7 11 -23 -13 -16
-25 -134 -184 -155 -208 -13 -15 -38 5 -45 36 l-7 32 -19 -40 c-10 -22 -19
-49 -19 -60 0 -12 -9 -38 -20 -60 -24 -47 -24 -45 -4 -45 9 0 21 14 27 30 13
35 30 34 36 -1 2 -19 -9 -34 -49 -70 -33 -29 -50 -51 -45 -58 5 -9 12 -8 26 4
17 16 18 16 24 -8 12 -45 -27 -110 -94 -163 -56 -44 -61 -50 -61 -87 0 -56
-51 -107 -108 -107 l-41 0 11 30 c5 17 39 62 74 100 35 39 64 75 64 80 0 18
-23 11 -51 -16 -17 -16 -34 -24 -44 -21 -14 6 -14 10 0 43 8 20 15 38 15 40 0
10 -38 2 -59 -12 -21 -15 -23 -23 -19 -86 l3 -70 -39 -13 c-59 -21 -109 -77
-176 -201 -34 -63 -65 -114 -68 -114 -3 0 -14 7 -24 17 -36 32 -18 86 59 180
22 27 30 44 23 48 -15 9 -47 -21 -78 -74 -22 -38 -27 -41 -33 -25 -16 41 -9
110 17 162 32 65 119 146 148 138 12 -3 31 -6 44 -6 33 0 28 -28 -15 -72 -31
-31 -34 -38 -20 -44 29 -11 63 21 77 72 16 56 48 95 144 173 59 49 73 66 82
102 7 24 15 55 19 68 6 18 5 23 -6 19 -13 -4 -51 -54 -152 -202 -25 -37 -42
-53 -52 -50 -21 8 -19 18 11 54 37 43 21 50 -38 17 -51 -29 -67 -26 -68 10 0
19 50 73 103 108 48 32 49 34 28 47 -35 21 -27 61 19 98 39 31 40 33 40 97 0
59 3 68 34 106 41 51 82 131 129 253 19 49 48 117 65 149 34 68 99 148 113
139 15 -9 10 -49 -11 -95 -26 -59 -26 -82 1 -49 29 35 65 108 106 214 55 146
115 268 125 254 13 -22 9 -58 -22 -182 -32 -127 -36 -156 -21 -156 27 0 41 34
40 93 -1 42 6 82 21 122 81 219 82 255 17 411 -26 60 -50 126 -54 147 -8 36
-17 16 -172 -375 -194 -488 -299 -729 -424 -971 -84 -161 -93 -175 -100 -150
-21 74 -20 453 4 934 13 269 27 489 31 489 16 0 26 -40 33 -135 9 -123 16
-139 41 -100 16 25 20 56 24 200 5 164 7 172 34 218 32 56 51 66 74 43 14 -13
18 -41 21 -141 1 -69 6 -125 10 -125 4 0 18 11 31 26 22 23 25 36 31 157 6
122 20 187 40 187 21 0 30 -49 28 -165 -1 -69 1 -128 5 -132 3 -3 17 6 30 20
15 16 31 24 40 21 14 -5 16 11 16 127 0 146 9 196 41 225 17 16 22 16 29 4 12
-19 12 -90 0 -164 -9 -55 -1 -128 15 -144 11 -11 44 36 54 76 6 21 15 79 21
130 19 152 48 208 87 169 16 -15 18 -34 15 -142 -2 -69 0 -125 3 -125 3 0 19
7 35 15 47 24 62 66 69 195 4 66 13 128 22 145 14 30 75 69 91 59 11 -7 10
-117 -1 -185 -24 -140 -24 -139 5 -139 15 0 37 12 53 28 30 30 42 78 60 241 5
51 12 96 15 99 11 11 36 -22 47 -61 8 -29 8 -66 0 -133 -15 -126 -14 -174 2
-174 16 0 39 24 56 58 7 12 18 87 26 166 14 145 35 224 56 210 9 -5 9 -36 3
-118 -10 -132 -9 -222 4 -256 l9 -25 16 36 c15 36 31 126 42 234 12 118 53
215 91 215 12 0 14 -26 12 -168 -3 -146 -1 -171 15 -194 18 -29 40 -29 53 0 5
9 11 91 14 180 l5 164 28 24 c15 13 39 24 51 24 l24 0 -19 -37 c-22 -43 -23
-102 -6 -246 l12 -98 23 21 c34 32 42 61 57 202 13 121 25 168 44 168 13 0 49
-83 67 -153 23 -92 47 -1210 30 -1389 -9 -90 4 -104 33 -35 15 34 21 92 31
302 13 279 8 348 -30 412 -14 25 -17 39 -10 56 5 12 14 54 20 92 6 39 18 80
26 93 12 19 15 80 17 357 1 184 3 335 5 335 2 0 10 -17 19 -37 10 -25 17 -81
21 -163 2 -69 7 -130 11 -136 10 -19 50 2 61 32 6 15 12 91 13 169 2 125 4
146 21 164 16 17 22 19 34 8 32 -26 45 -82 50 -209 5 -126 5 -128 28 -128 58
0 75 60 64 224 -10 148 -11 146 68 146 l65 0 -7 -52 c-3 -29 -9 -105 -13 -168
l-6 -115 24 16 c40 27 49 56 49 174 0 121 16 171 58 186 21 8 22 7 22 -64 0
-90 22 -184 60 -261 17 -33 30 -67 30 -76 0 -35 -53 -120 -124 -199 -41 -45
-84 -101 -95 -125 l-21 -42 25 -51 c28 -60 38 -68 56 -47 10 12 9 25 -4 68
-10 29 -17 60 -17 69 0 9 33 41 74 71 121 90 168 163 170 266 l1 55 -40 0
c-31 0 -39 4 -36 15 2 8 9 70 16 138 13 130 28 166 69 160 33 -5 46 -45 46
-143 0 -49 3 -100 6 -113 8 -29 31 -25 56 9 16 21 22 52 29 160 4 74 8 135 9
137 1 5 56 1 67 -6z m-2030 -120 c31 -53 72 -111 90 -129 l34 -32 -34 -15
c-19 -7 -45 -17 -58 -21 -59 -18 -282 -138 -484 -260 -268 -161 -354 -209
-362 -201 -3 3 19 45 49 93 52 83 83 151 74 160 -2 3 -18 -3 -35 -12 -59 -30
-120 -141 -136 -247 -7 -47 -7 -47 -98 -99 -98 -55 -180 -113 -211 -148 -11
-11 -24 -21 -29 -21 -24 0 -159 94 -197 137 -22 25 -40 49 -40 53 0 5 30 37
68 73 268 257 617 482 1032 665 153 68 263 110 273 105 4 -2 33 -48 64 -101z
m3380 13 c27 -19 40 -58 53 -165 10 -83 29 -128 59 -138 11 -4 12 20 6 127
l-7 131 30 0 c38 0 78 -32 91 -73 5 -17 13 -63 16 -102 l7 -70 23 27 c15 17
24 45 29 85 14 125 48 116 72 -19 8 -46 22 -94 32 -107 20 -28 49 -48 56 -40
3 3 -2 41 -11 86 -16 75 -16 82 0 106 14 21 21 25 40 18 30 -11 44 -42 56
-136 8 -57 17 -86 33 -102 45 -48 60 -22 45 79 -15 98 8 140 57 105 15 -11 20
-34 25 -115 7 -98 19 -132 46 -132 20 0 25 24 25 114 0 101 10 116 56 81 18
-14 42 -25 53 -25 26 0 26 -6 0 -75 -25 -68 -22 -95 14 -115 26 -14 29 -14 43
4 8 12 14 43 14 77 0 32 4 60 8 63 5 3 38 -9 73 -27 45 -22 68 -41 79 -63 14
-29 20 -32 95 -42 98 -13 174 -40 252 -91 120 -77 250 -244 239 -306 -30 -173
-32 -815 -5 -1265 7 -107 12 -268 13 -357 l1 -161 -30 -44 c-17 -23 -39 -44
-48 -46 -15 -3 -17 6 -17 63 0 62 -1 66 -17 54 -26 -22 -41 -70 -49 -152 -7
-84 3 -99 29 -46 l15 32 16 -25 c9 -14 26 -51 37 -83 26 -73 27 -128 12 -640
-7 -249 -9 -728 -5 -1269 l5 -869 -63 6 c-40 5 -108 25 -184 56 -142 56 -191
66 -249 49 -65 -20 -106 -69 -161 -196 l-49 -112 -36 0 c-62 0 -149 28 -277
89 -67 32 -145 66 -172 75 -39 13 -52 23 -57 43 -11 47 -6 157 10 202 19 54
19 61 0 61 -41 0 -77 -131 -56 -205 6 -21 9 -40 8 -41 -1 -1 -30 2 -65 7 -50
7 -284 88 -300 104 -2 1 18 31 44 66 33 42 60 67 86 77 38 15 38 15 38 72 0
81 24 153 73 212 54 66 72 73 63 24 -5 -27 -4 -36 7 -36 12 0 31 34 52 95 7
19 7 19 18 -3 8 -17 6 -42 -6 -100 -18 -84 -22 -132 -9 -132 5 0 14 23 21 50
7 28 35 109 62 181 76 200 93 270 93 379 0 77 -3 103 -20 135 -18 35 -20 53
-16 138 3 61 1 97 -6 97 -5 0 -20 -24 -33 -52 -20 -45 -24 -68 -23 -153 0 -67
6 -114 17 -144 17 -42 16 -44 -9 -94 -53 -106 -163 -234 -291 -339 -31 -25
-33 -30 -33 -95 -1 -120 -29 -193 -64 -163 -23 18 -20 69 8 147 48 134 43 188
-8 100 -30 -50 -41 -103 -55 -248 -10 -103 -25 -159 -43 -159 -4 0 -8 2 -8 4
0 2 -4 26 -10 55 -7 37 -5 84 5 168 20 158 20 204 0 196 -38 -14 -49 -62 -50
-223 -2 -211 -12 -240 -59 -176 -19 25 -22 46 -26 204 l-5 177 -19 -40 c-15
-31 -20 -71 -24 -172 -4 -130 -5 -133 -27 -133 -49 0 -48 -2 -47 533 1 276 8
659 17 852 32 736 35 837 35 1062 l0 232 135 76 c123 69 255 171 255 196 0 27
-166 -21 -326 -94 -126 -58 -221 -93 -230 -84 -9 9 59 45 146 77 46 17 90 35
96 41 9 7 7 25 -10 72 -19 58 -20 78 -17 297 9 484 7 621 -11 685 -15 54 -15
68 -3 133 29 151 39 316 26 428 -6 57 -18 122 -26 144 -12 34 -12 47 0 87 22
77 34 175 50 393 18 243 22 268 44 273 36 10 88 6 108 -8z m2533 -700 c289
-172 466 -340 983 -936 l57 -66 -77 -74 c-43 -41 -105 -101 -137 -133 l-60
-59 -43 47 c-23 26 -78 93 -121 149 -197 255 -452 503 -780 760 -123 97 -119
88 -83 172 21 48 138 195 155 195 7 0 54 -25 106 -55z m-9733 -85 c76 -43 106
-99 101 -185 -3 -58 -1 -65 15 -65 12 0 23 12 30 30 6 17 16 29 22 27 18 -6
17 -46 -5 -93 -23 -54 -16 -67 34 -57 l29 6 -6 -46 c-6 -45 -6 -47 18 -47 19
0 30 9 42 34 14 30 19 33 36 25 15 -9 18 -18 13 -47 -19 -122 -19 -122 -1
-122 9 0 30 11 47 25 16 14 34 25 39 25 24 0 96 -83 146 -169 106 -181 146
-222 240 -246 37 -9 71 -39 236 -201 105 -104 302 -284 436 -399 134 -116 249
-214 255 -220 6 -5 45 -48 86 -95 105 -120 193 -210 205 -210 41 0 85 -24 107
-58 42 -62 80 -93 235 -189 181 -113 253 -169 299 -233 26 -36 84 -84 217
-178 216 -153 422 -290 529 -352 43 -25 78 -52 78 -60 0 -8 12 -33 25 -55 30
-49 31 -65 4 -65 -13 0 -23 10 -30 29 -6 16 -17 32 -26 35 -16 7 -16 -1 4
-136 6 -47 -7 -49 -40 -7 -29 37 -57 34 -57 -6 0 -33 21 -73 55 -105 14 -13
36 -40 47 -58 18 -30 22 -32 35 -19 9 9 19 48 24 97 4 45 15 93 24 106 29 45
95 54 95 13 0 -11 7 -84 15 -163 15 -142 40 -242 75 -303 11 -18 15 -33 9 -33
-21 0 -109 51 -189 111 -105 77 -177 111 -227 107 l-38 -3 33 -21 c27 -17 30
-23 17 -28 -26 -10 -29 -9 -101 44 -37 27 -73 51 -79 54 -7 2 -6 7 1 15 8 9
18 8 42 -6 38 -22 51 -11 31 25 -11 21 -29 30 -79 43 -90 23 -99 28 -106 55
-6 23 -10 24 -83 24 -73 0 -79 2 -106 30 -43 45 -144 109 -302 193 -158 84
-210 118 -265 171 -39 38 -47 55 -25 57 27 3 42 -4 85 -37 81 -62 64 -35 -25
40 -140 117 -323 308 -323 337 0 16 16 40 45 69 36 35 42 47 34 62 -5 10 -19
18 -30 18 -30 0 -89 -62 -89 -94 0 -14 -2 -26 -4 -26 -3 0 -35 19 -71 41 -43
28 -65 47 -63 58 2 9 26 27 53 41 59 30 68 64 24 89 -30 17 -27 18 -124 -59
-90 -71 -117 -41 -39 42 33 36 43 53 36 60 -8 8 -28 1 -71 -26 -45 -27 -66
-35 -86 -30 -32 8 -32 26 2 56 61 52 62 48 -55 126 -137 90 -248 185 -320 273
-31 38 -58 65 -60 59 -8 -23 51 -100 125 -165 91 -79 148 -145 169 -193 8 -19
13 -36 11 -38 -1 -2 -47 22 -102 53 -114 63 -187 128 -212 188 -17 41 -18 42
-50 32 -27 -9 -36 -7 -53 8 -40 36 -17 85 40 85 13 0 19 4 14 11 -4 7 -32 9
-83 5 -84 -7 -104 0 -99 35 2 20 9 24 38 24 l35 0 -47 62 c-26 34 -77 117
-114 183 -38 66 -71 120 -75 120 -12 0 -21 -77 -14 -112 4 -18 18 -57 31 -85
13 -29 36 -78 50 -110 l25 -56 -125 118 c-105 98 -206 217 -206 244 0 3 -28
15 -62 25 -47 15 -74 32 -122 77 -50 48 -58 60 -46 69 26 17 73 11 163 -21 88
-30 88 -30 125 -12 59 29 53 46 -26 66 -102 26 -181 78 -325 216 -143 136
-217 189 -301 215 -31 10 -56 24 -56 30 0 7 -13 33 -30 57 -48 72 -39 95 63
153 50 29 70 61 65 105 -3 23 -7 26 -38 23 -19 -2 -59 -15 -88 -30 -49 -24
-53 -28 -48 -54 19 -90 19 -88 1 -88 -9 0 -30 -13 -46 -29 -26 -26 -29 -36
-29 -91 l0 -61 -31 18 c-61 36 -108 84 -120 122 -16 55 11 108 104 208 87 93
107 127 107 180 0 63 -14 67 -34 10 -27 -76 -63 -122 -171 -222 -97 -88 -97
-89 -91 -128 7 -44 34 -100 100 -206 25 -41 43 -77 40 -80 -10 -10 -81 79
-115 142 -16 31 -41 89 -54 128 l-25 72 118 151 c141 182 325 376 356 376 11
0 44 -14 73 -30z m2293 -24 c0 -24 50 -76 94 -98 65 -32 103 -65 114 -97 11
-30 9 -32 -111 -137 -388 -339 -666 -638 -859 -924 -39 -58 -75 -109 -79 -114
-7 -8 -269 217 -269 232 0 14 189 259 274 357 48 55 239 256 424 447 322 331
339 347 375 347 26 1 37 -3 37 -13z m6795 -97 c375 -208 730 -503 1071 -889
177 -201 456 -553 481 -607 52 -113 55 -245 11 -538 l-31 -210 -5 -775 c-3
-617 0 -861 13 -1195 20 -479 17 -560 -26 -775 -27 -136 -30 -168 -25 -260 3
-58 9 -171 12 -252 l7 -148 -24 0 c-45 0 -95 20 -163 65 -38 25 -81 45 -95 45
-25 0 -27 4 -39 76 -24 153 -97 252 -233 317 -97 46 -395 153 -634 227 -104
33 -237 75 -295 94 -58 20 -122 38 -144 41 l-38 6 6 52 c3 29 10 117 16 197
10 153 4 233 -25 310 -31 83 -31 241 1 440 28 171 29 185 29 575 0 387 8 541
27 578 10 19 53 23 64 5 4 -6 7 -31 5 -55 -2 -45 11 -56 29 -24 17 32 12 56
-20 97 -75 98 -88 123 -101 209 -13 90 -8 430 11 690 6 93 6 225 0 395 -6 140
-10 489 -9 775 1 286 -2 537 -6 558 -6 28 -4 37 7 37 7 0 63 -27 123 -61z
m-3369 -114 c-12 -119 -65 -250 -186 -460 -32 -55 -71 -126 -86 -158 -16 -31
-32 -57 -36 -57 -21 0 -18 52 6 112 26 64 34 118 18 118 -10 0 -34 -52 -57
-127 -17 -55 -54 -103 -80 -103 -8 0 -15 2 -15 4 0 3 27 78 61 168 77 206 142
344 207 439 68 97 77 109 91 109 17 0 13 -19 -9 -47 -22 -28 -26 -53 -10 -53
10 0 23 19 62 89 29 52 42 39 34 -34z m-2924 9 c39 -67 47 -269 14 -348 -8
-19 -24 -40 -36 -49 l-23 -16 34 -8 34 -9 2 -150 c5 -320 23 -646 44 -789 l21
-146 -39 -42 c-52 -57 -93 -118 -136 -202 -35 -70 -90 -235 -103 -307 -5 -33
-10 -38 -33 -38 -43 0 -104 42 -141 98 -26 38 -58 67 -125 110 -165 107 -502
392 -497 420 2 9 7 134 11 277 6 183 13 271 23 298 35 96 51 25 43 -195 -4
-110 -3 -178 3 -182 16 -10 61 51 68 91 4 20 1 107 -6 193 -7 86 -10 173 -6
194 7 36 44 86 64 86 5 0 12 -64 16 -142 3 -79 10 -158 14 -177 l7 -34 15 29
c9 20 16 88 21 214 7 183 14 240 29 240 15 0 20 -33 20 -146 0 -63 2 -114 4
-114 18 0 39 17 52 42 12 22 14 60 12 171 -2 149 3 176 42 197 20 10 20 7 20
-175 0 -160 2 -185 15 -185 25 0 62 44 74 86 6 22 11 107 11 189 0 123 3 156
18 184 36 73 42 54 42 -143 0 -102 4 -186 9 -186 20 0 60 43 76 82 14 33 19
86 25 228 7 190 16 238 54 269 15 13 19 13 27 0 10 -16 10 -24 12 -199 1 -70
7 -133 13 -144 10 -17 12 -16 32 9 31 39 39 80 51 257 13 198 30 236 73 162z
m2659 -75 c-11 -30 -46 -117 -79 -194 -63 -149 -96 -238 -108 -295 -7 -34 -8
-34 -15 -10 -12 44 -10 144 6 204 21 80 83 197 152 283 31 40 58 71 60 69 2
-1 -6 -27 -16 -57z m364 -71 c-22 -87 -83 -213 -163 -332 -65 -98 -67 -100
-70 -68 -4 40 38 136 67 151 16 9 21 21 21 56 0 54 23 108 88 208 28 43 55 88
59 100 16 44 15 -51 -2 -115z m143 1 c4 -37 -196 -429 -300 -584 -98 -147
-195 -268 -209 -259 -15 9 -10 63 11 104 11 21 43 58 71 82 40 34 60 62 94
134 23 51 79 147 123 215 84 132 131 219 152 284 17 53 19 57 38 53 10 -2 18
-14 20 -29z m-6111 -414 c24 -7 35 -28 27 -50 -12 -30 -84 11 -84 47 0 14 5
18 18 14 9 -2 27 -7 39 -11z m161 -94 c43 -22 77 -53 113 -101 42 -57 43 -70
8 -70 -25 0 -45 14 -100 66 -52 51 -76 67 -99 68 -35 1 -39 19 -8 40 29 21 41
20 86 -3z m5777 -43 c-19 -64 -103 -178 -115 -157 -14 21 8 69 55 125 49 57
71 69 60 32z m-5888 -49 c33 -12 43 -26 43 -57 l0 -23 -42 23 c-28 15 -44 31
-46 46 -4 25 4 27 45 11z m5587 -21 c-3 -13 -25 -43 -47 -68 -22 -25 -42 -47
-43 -49 -2 -2 -10 -1 -19 3 -14 5 -14 8 0 35 8 17 15 39 15 51 0 12 4 18 11
15 12 -8 69 14 69 26 0 5 5 9 11 9 6 0 8 -9 3 -22z m5492 -239 c246 -361 388
-606 492 -849 80 -188 80 -185 53 -214 -31 -33 -122 -80 -205 -105 -37 -12
-71 -21 -75 -21 -4 0 -18 30 -31 68 -30 87 -135 308 -201 425 -44 77 -310 513
-356 584 l-14 22 38 -20 38 -20 3 27 c4 34 -16 82 -39 95 -38 20 -76 -29 -46
-60 10 -11 7 -12 -13 -6 -78 24 -87 38 -37 63 15 7 35 31 46 57 11 25 32 57
48 71 24 23 136 84 155 84 3 0 68 -91 144 -201z m-10741 185 c20 -8 55 -75 55
-106 0 -33 -11 -68 -21 -68 -20 0 -95 160 -82 174 8 8 27 8 48 0z m-177 -16
c18 -18 16 -98 -2 -98 -22 0 -46 40 -46 77 0 25 4 33 18 33 10 0 23 -5 30 -12z
m133 -140 c15 -28 3 -68 -21 -68 -28 0 -50 38 -50 88 l0 43 30 -21 c17 -12 35
-30 41 -42z m1553 -135 c-11 -113 -11 -231 -1 -264 7 -20 5 -28 -9 -33 -37
-14 -44 10 -44 150 0 118 -2 136 -19 153 -18 18 -18 19 6 50 16 20 33 31 50
31 l26 0 -9 -87z m-1444 25 c16 -13 44 -34 64 -48 19 -14 70 -69 112 -122 59
-75 98 -112 170 -163 51 -37 107 -83 124 -102 31 -35 55 -82 46 -90 -10 -11
-105 65 -171 136 -148 159 -232 237 -293 270 -64 35 -102 80 -102 120 0 27 15
27 50 -1z m1322 -104 c1 -16 1 -60 0 -98 -2 -68 -2 -69 -22 -51 -39 35 -44
122 -11 184 11 20 15 22 22 9 5 -9 9 -28 11 -44z m2298 -34 c-14 -11 -38 -23
-55 -27 -21 -5 10 -10 100 -14 142 -7 208 -16 200 -30 -3 -4 -12 -6 -20 -2
-17 6 -20 -14 -6 -50 10 -27 -1 -53 -18 -42 -7 4 -29 28 -49 54 -45 57 -51 56
-201 -13 -93 -44 -181 -69 -181 -51 0 4 16 25 35 48 19 22 35 44 35 49 0 16
-26 7 -60 -20 -42 -34 -65 -43 -85 -36 -17 7 84 88 155 125 37 19 156 41 170
31 3 -2 -6 -12 -20 -22z m1306 -35 c7 -17 -12 -69 -30 -84 -7 -6 -18 -6 -25
-1 -11 6 -11 16 5 54 19 46 40 59 50 31z m-706 -103 c0 -14 -30 -36 -92 -69
-49 -26 -58 -28 -61 -14 -6 27 13 68 36 79 26 13 117 16 117 4z m-220 -42 c11
-11 20 -29 20 -40 0 -18 -7 -20 -65 -20 -36 0 -65 2 -65 5 0 17 26 55 44 63
31 16 44 14 66 -8z m-277 -22 c41 -21 46 -44 23 -108 l-13 -35 -13 45 c-6 25
-16 53 -22 63 -9 18 -11 18 -29 1 -10 -9 -19 -23 -19 -31 0 -18 -4 -17 -50 12
-100 63 9 110 123 53z m-259 -121 c9 -7 27 -30 39 -52 21 -38 26 -40 77 -45
45 -4 55 -8 54 -22 -3 -30 30 -21 84 22 59 47 92 53 92 15 0 -34 -37 -70 -101
-100 l-52 -24 38 -7 c54 -10 180 10 340 55 77 22 142 38 144 36 4 -5 -110
-117 -188 -184 -46 -40 -65 -51 -74 -42 -8 8 -3 19 18 41 25 26 26 30 9 30
-10 0 -48 -9 -84 -21 -36 -12 -71 -23 -77 -25 -8 -2 -13 -22 -13 -56 0 -29 -5
-70 -11 -91 -8 -30 -16 -39 -40 -44 -35 -7 -35 -11 -6 -69 22 -44 23 -45 63
-40 22 3 69 19 105 36 49 23 78 30 123 30 52 0 57 -2 45 -16 -10 -13 -10 -17
2 -25 13 -9 127 -4 177 8 15 4 22 1 22 -10 0 -22 -12 -28 -114 -52 l-91 -22
59 -18 c71 -21 142 -16 193 15 19 11 39 18 44 15 5 -3 16 -31 25 -61 21 -72
12 -119 -24 -138 l-27 -15 37 -15 c51 -22 71 -20 156 14 61 24 72 26 67 12 -3
-9 -9 -29 -12 -44 -3 -16 -11 -28 -17 -28 -33 0 -186 -22 -219 -32 -39 -12
-43 -24 -14 -42 12 -8 28 -5 62 12 50 24 60 15 18 -18 -25 -20 -36 -21 -100
-16 -40 4 -73 4 -73 1 0 -22 25 -45 55 -51 42 -8 44 -16 8 -42 -65 -46 -181
-72 -319 -72 -35 0 -64 -4 -64 -9 0 -14 60 -48 97 -56 37 -7 94 8 135 36 14
11 29 19 33 19 5 0 5 -31 1 -69 -6 -73 5 -101 41 -101 18 0 13 -20 -10 -34
-12 -8 -22 -7 -34 2 -78 55 -123 70 -108 35 4 -10 10 -30 13 -45 3 -23 1 -28
-16 -28 -27 0 -40 18 -53 78 -7 33 -16 52 -25 52 -16 0 -18 -8 -14 -67 2 -48
-3 -50 -55 -29 -24 10 -41 28 -58 63 -29 56 -62 90 -72 73 -3 -5 12 -33 34
-61 27 -33 41 -62 41 -80 0 -39 -16 -36 -41 6 -16 27 -28 35 -49 35 -31 0 -30
-3 -46 173 l-6 68 25 -6 c52 -13 170 37 164 70 -1 5 26 17 61 27 79 21 92 32
92 74 l0 34 52 0 c37 0 71 9 120 31 65 31 68 33 68 67 0 33 -33 102 -50 102
-21 0 -32 -32 -26 -74 l7 -44 -44 -21 c-24 -12 -58 -21 -75 -21 -27 0 -32 4
-32 23 0 31 18 47 52 47 62 0 18 41 -74 68 -52 15 -68 17 -72 7 -6 -17 3 -25
29 -25 26 0 45 -18 45 -42 0 -25 -27 -34 -61 -21 -36 14 -40 -6 -9 -37 11 -11
20 -22 20 -25 0 -3 -18 -8 -40 -11 -22 -4 -40 -9 -40 -12 0 -3 12 -18 26 -33
l27 -28 -24 -5 c-13 -3 -40 -7 -59 -8 -32 -3 -35 -6 -40 -37 -6 -44 -23 -49
-51 -17 -32 36 -52 34 -44 -4 l7 -30 -46 6 c-57 8 -80 -7 -72 -48 3 -15 2 -28
-3 -28 -15 0 -52 47 -60 76 l-8 29 -16 -31 c-25 -49 -44 -60 -66 -40 -11 10
-22 29 -26 43 -4 19 -9 23 -18 14 -29 -29 -114 13 -138 68 -15 34 -29 23 -29
-23 0 -46 60 -96 167 -141 51 -20 96 -37 100 -37 4 1 10 16 13 34 5 35 27 44
40 18 18 -34 90 -199 90 -204 0 -3 -13 -6 -30 -6 -34 0 -55 26 -65 83 -4 20
-11 40 -16 43 -18 11 -22 -31 -8 -85 19 -71 15 -94 -14 -85 -32 9 -40 19 -41
53 -1 39 -12 40 -21 1 -5 -25 -12 -30 -35 -30 -31 0 -48 16 -60 57 l-8 28 -7
-33 -8 -33 -29 28 c-75 71 -119 173 -123 283 -2 77 -4 79 -45 69 -12 -3 -14 4
-12 32 2 33 0 38 -29 48 l-32 11 6 82 c4 46 13 107 21 135 8 29 17 76 20 105
l7 53 -20 -23 c-10 -12 -22 -40 -25 -62 -3 -22 -9 -58 -12 -80 -6 -39 -37 -91
-48 -79 -10 10 42 216 67 265 32 63 57 85 98 86 27 1 46 14 101 67 46 45 70
77 74 99 4 22 12 32 25 32 25 0 69 21 69 33 0 5 -8 6 -17 2 -10 -4 -34 -9 -53
-12 l-35 -5 32 30 c48 45 51 72 18 155 -8 20 4 22 29 4z m-2861 -65 c17 -19
59 -133 52 -140 -2 -2 -17 4 -34 12 -37 20 -71 82 -71 131 0 31 2 34 18 26 9
-5 25 -18 35 -29z m9875 -12 c11 0 42 -38 83 -103 430 -664 693 -1515 759
-2462 16 -223 12 -407 -10 -557 -11 -73 -20 -163 -20 -200 0 -63 2 -69 30 -90
17 -12 30 -27 30 -34 0 -24 -21 -25 -39 -3 l-19 23 -6 -29 c-3 -17 -17 -109
-31 -205 -55 -377 -149 -715 -246 -888 -24 -43 -28 -57 -18 -68 18 -22 4 -126
-31 -229 -17 -49 -40 -125 -50 -169 -11 -43 -21 -80 -24 -83 -4 -4 -9 17 -21
88 -4 19 1 102 10 183 9 82 14 150 11 153 -11 12 -44 -132 -91 -393 -19 -110
-41 -219 -48 -244 l-14 -45 -12 30 c-39 95 -37 166 11 400 30 145 43 323 26
341 -5 4 -17 -1 -29 -12 -20 -18 -21 -27 -18 -128 3 -78 1 -110 -8 -113 -25
-9 -36 41 -35 167 0 101 -2 119 -10 95 -7 -19 -11 -124 -10 -285 1 -224 0
-253 -13 -236 -37 49 -64 218 -66 416 -1 63 -4 129 -8 145 -24 108 -58 -547
-46 -891 7 -209 1 -255 -41 -301 l-25 -28 8 120 c10 147 7 321 -5 354 -7 19
-11 1 -16 -77 -9 -137 -24 -176 -74 -198 -2 -1 4 -42 12 -90 23 -131 21 -246
-7 -314 -25 -61 -37 -68 -51 -28 -8 22 -5 40 13 84 l23 55 -22 16 c-23 16 -23
18 -16 165 7 155 0 183 -30 113 -17 -42 -18 -72 -2 -196 13 -105 4 -150 -33
-170 -18 -9 -19 -4 -14 133 3 79 7 256 10 393 3 138 10 287 15 333 12 91 54
237 72 248 8 5 9 1 4 -12 -4 -10 -2 -102 5 -204 12 -179 8 -262 -17 -385 l-7
-30 27 24 c38 36 49 88 41 205 -4 57 -2 158 5 231 7 72 13 207 15 302 l2 172
33 37 c60 68 74 116 74 239 0 91 -3 118 -21 157 -26 55 -85 123 -126 145 l-30
15 7 71 c54 577 58 710 66 2327 4 839 11 1536 15 1549 l8 24 14 -27 c7 -14 21
-26 31 -26z m-5684 -26 c-4 -14 -19 -56 -35 -92 -15 -37 -26 -68 -24 -71 11
-11 39 15 85 77 27 39 57 73 66 76 24 9 52 7 59 -5 11 -16 -51 -132 -93 -176
-42 -43 -118 -83 -156 -83 -23 0 -25 -4 -28 -57 -3 -53 -5 -57 -32 -64 -16 -5
-43 -21 -60 -37 -36 -34 -58 -43 -75 -33 -9 6 19 42 88 116 56 60 101 111 101
114 0 3 -7 14 -15 25 -12 15 -22 17 -57 12 -24 -4 -53 -14 -66 -22 -25 -16
-42 -11 -42 12 0 14 7 18 77 44 21 8 44 30 65 63 43 68 103 127 128 127 17 0
19 -4 14 -26z m314 -86 c-13 -23 -72 -94 -133 -156 l-110 -114 -10 49 c-10 48
-10 48 25 74 19 15 58 50 85 79 52 55 129 110 153 110 10 0 7 -11 -10 -42z
m721 6 c-18 -20 -80 -67 -136 -106 -56 -38 -116 -87 -132 -109 -32 -45 -46
-38 -35 18 11 57 72 110 204 175 63 31 119 57 124 57 6 1 -6 -15 -25 -35z
m-5089 -15 c7 -16 18 -29 24 -29 6 0 3 -7 -7 -15 -39 -29 -98 32 -67 70 16 19
36 9 50 -26z m5750 27 c0 -10 -102 -78 -157 -105 -69 -35 -145 -62 -152 -56
-8 8 42 56 85 81 23 14 79 38 125 54 87 30 99 33 99 26z m-909 -55 c-18 -14
-48 -40 -67 -58 -33 -30 -35 -31 -45 -11 -14 26 1 42 73 77 64 32 83 28 39 -8z
m418 23 c-7 -9 -46 -38 -86 -65 -52 -36 -74 -57 -79 -77 -25 -116 -74 -198
-146 -248 -55 -37 -108 -58 -108 -43 0 6 43 55 95 109 52 54 95 105 95 114 0
12 -10 16 -44 16 -24 0 -58 3 -76 6 l-32 7 38 24 c58 36 147 81 254 129 111
50 106 49 89 28z m624 -81 c-22 -161 -73 -847 -73 -986 0 -11 -11 -22 -28 -28
-43 -15 -53 -43 -62 -166 -8 -114 -21 -153 -40 -123 -6 8 -8 38 -5 65 3 28 1
56 -4 64 -14 21 -41 5 -41 -24 0 -14 -5 -25 -11 -25 -7 0 -9 11 -4 33 17 82
17 117 2 117 -40 0 -64 -66 -53 -143 4 -23 0 -89 -9 -147 -8 -58 -15 -130 -15
-161 0 -58 16 -119 31 -119 14 0 22 67 17 138 -3 37 -2 75 1 85 6 17 8 17 26
-3 17 -19 19 -35 17 -135 -2 -108 -1 -114 23 -143 23 -27 25 -38 26 -128 1
-55 4 -110 8 -124 22 -80 40 128 39 445 -1 253 7 336 43 420 12 28 13 25 22
-60 12 -121 14 -856 3 -1128 l-8 -219 -27 7 c-38 9 -74 37 -92 73 -16 31 -16
31 -34 12 -25 -28 -48 -25 -68 9 -28 48 -30 125 -8 274 28 183 27 274 -3 264
-20 -7 -34 -51 -45 -147 -8 -63 -20 -113 -37 -147 l-25 -52 26 -65 c16 -40 25
-80 23 -102 l-3 -36 -35 24 c-59 40 -66 78 -52 275 7 92 10 183 6 201 -6 29
-4 32 17 32 30 0 79 32 95 62 26 47 12 138 -21 138 -14 0 -45 -48 -45 -69 0
-5 -5 -22 -11 -38 -10 -27 -11 -27 -24 -9 -25 34 -28 103 -10 249 22 181 19
201 -20 122 -30 -60 -30 -60 -30 -240 1 -130 6 -204 18 -267 16 -78 16 -90 3
-122 -24 -56 -38 -45 -35 27 1 34 -1 163 -6 286 l-8 225 -23 -46 c-29 -58 -70
-180 -77 -233 -5 -35 -4 -38 7 -22 8 10 17 39 21 65 13 84 23 35 55 -273 11
-104 25 -207 31 -229 12 -44 3 -59 -32 -54 -20 2 -28 15 -45 67 -18 56 -29 71
-62 88 -2 0 -10 63 -18 140 -17 158 -31 252 -42 284 -18 48 -34 -71 -37 -266
-1 -104 -7 -201 -12 -214 l-10 -25 -19 29 c-15 23 -18 45 -16 128 1 54 -3 118
-9 140 -10 39 -12 40 -25 22 -10 -14 -14 -51 -14 -136 l0 -118 -31 11 c-35 12
-59 57 -59 109 l0 32 -22 -20 c-36 -32 -63 -43 -111 -43 -67 0 -129 23 -287
104 l-145 74 -6 94 c-4 52 -15 132 -24 177 -17 76 -20 82 -33 65 -11 -15 -12
-39 -7 -119 13 -172 6 -215 -29 -176 -10 11 -19 42 -22 77 -7 80 -13 104 -24
104 -16 0 -40 -57 -40 -94 l0 -35 -70 30 c-39 16 -91 30 -120 32 l-50 2 0 70
c0 110 -19 158 -74 190 -15 9 -13 22 24 145 30 98 43 160 47 228 5 69 9 92 20
92 17 0 87 -35 126 -63 70 -49 297 24 466 150 40 31 156 135 256 232 216 211
379 343 610 496 146 97 468 292 486 294 3 1 0 -43 -8 -96z m-458 46 c-59 -38
-107 -75 -238 -187 -54 -46 -101 -82 -104 -79 -13 14 32 111 73 156 50 56 120
94 222 122 95 25 103 23 47 -12z m-3115 -34 c0 -8 -14 -30 -31 -50 l-31 -35
31 0 c38 0 39 -7 2 -57 -34 -47 -101 -83 -155 -83 l-38 0 29 38 c16 20 44 61
62 89 52 83 131 142 131 98z m2143 -36 c-53 -95 -140 -158 -256 -183 l-28 -7
17 33 c31 59 114 137 187 173 38 19 78 35 89 35 18 0 17 -4 -9 -51z m-4277
-36 c89 -43 190 -125 232 -188 18 -27 32 -52 32 -57 0 -16 -21 3 -30 28 -8 19
-17 24 -47 24 -56 0 -129 47 -222 142 -44 45 -81 86 -81 91 0 12 35 0 116 -40z
m-433 8 c77 -33 137 -96 167 -176 16 -42 -23 -31 -75 22 -37 37 -48 44 -56 32
-13 -21 -13 -21 40 -78 51 -54 69 -98 45 -108 -29 -11 -65 29 -103 111 -28 61
-47 88 -70 102 -35 21 -36 23 -20 58 9 20 9 29 -1 41 -10 13 -9 15 8 15 11 0
41 -9 65 -19z m3977 -31 c-22 -22 -25 -36 -9 -46 6 -3 25 8 43 25 38 37 56 39
56 9 0 -27 -20 -59 -72 -117 -48 -52 -71 -55 -62 -6 6 33 4 35 -20 35 -26 0
-52 -32 -41 -50 3 -6 1 -10 -5 -10 -14 0 -29 40 -22 60 9 25 45 61 92 91 53
34 68 37 40 9z m805 -27 c-11 -46 -71 -98 -177 -153 -54 -29 -101 -50 -104
-48 -9 9 59 89 104 121 57 42 164 107 176 107 4 0 5 -12 1 -27z m-4907 -44
c10 -13 44 -68 75 -121 34 -57 73 -110 96 -128 l39 -31 -75 -172 c-104 -239
-155 -380 -198 -547 -22 -84 -55 -302 -55 -362 0 -45 -2 -48 -27 -49 -61 -4
-101 4 -165 31 -38 16 -84 32 -103 36 -43 8 -43 9 -11 157 29 131 56 212 92
276 23 40 26 59 28 151 2 77 9 121 25 165 27 76 132 295 142 295 4 0 29 -16
55 -35 60 -43 124 -78 131 -72 9 10 -28 55 -68 83 -68 47 -99 89 -99 135 l0
40 31 -18 c17 -10 58 -50 91 -90 55 -66 104 -110 113 -101 7 6 -27 53 -94 129
-94 107 -117 170 -90 247 10 29 13 30 30 19 10 -7 27 -24 37 -38z m5092 -40
c0 -31 -27 -82 -59 -113 -32 -31 -101 -47 -101 -24 0 24 50 92 93 125 49 38
67 41 67 12z m-2700 -39 c17 -33 26 -40 50 -40 29 0 30 -2 30 -45 0 -35 -4
-45 -16 -45 -9 0 -18 9 -21 20 -3 11 -7 20 -9 20 -2 0 -26 -9 -54 -20 -91 -36
-120 -20 -99 52 10 35 65 98 86 98 7 0 22 -18 33 -40z m2533 -17 c-11 -31 -33
-50 -78 -68 -51 -19 -53 -24 -25 -50 39 -36 21 -55 -54 -55 -23 0 -47 -5 -53
-11 -23 -23 -1 35 29 77 34 47 71 77 131 105 52 23 58 23 50 2z m-4308 -17
c17 -12 19 -25 17 -83 -3 -62 1 -77 33 -143 35 -72 36 -78 30 -153 -4 -43 -13
-102 -21 -130 -19 -63 -84 -207 -95 -207 -4 0 -21 11 -37 25 -37 31 -46 31
-60 3 -7 -17 -9 54 -7 262 2 157 4 289 5 293 0 5 5 5 10 2 6 -3 10 -26 10 -51
0 -63 28 -179 50 -206 l18 -23 7 38 c4 20 2 79 -4 131 -14 119 -14 185 0 225
12 35 17 37 44 17z m3778 -68 c-23 -26 -66 -48 -93 -48 -17 0 -21 5 -18 28 3
24 8 28 50 32 26 3 50 9 54 13 17 16 23 -7 7 -25z m6605 -163 c96 -255 197
-583 292 -950 23 -88 46 -173 51 -189 5 -16 8 -31 6 -32 -2 -2 -39 -14 -83
-27 -43 -13 -116 -38 -161 -55 -91 -34 -93 -33 -93 38 0 61 -37 264 -75 408
-36 134 -97 310 -224 641 -39 102 -69 186 -68 188 2 1 45 22 97 47 52 24 115
58 140 74 25 17 48 28 51 24 4 -4 34 -79 67 -167z m-10056 144 c107 -23 208
-88 393 -255 61 -54 126 -112 145 -127 l35 -28 -30 7 c-47 9 -173 71 -239 116
-50 34 -347 260 -380 290 -14 11 13 10 76 -3z m3586 -8 c2 -6 -12 -27 -32 -45
-38 -37 -38 -54 0 -29 34 22 58 10 49 -25 -9 -40 -45 -70 -91 -78 l-41 -6 -14
43 c-20 63 -43 59 -47 -8 -3 -44 -6 -53 -21 -53 -26 0 -42 23 -48 69 l-6 40
114 55 c116 55 130 59 137 37z m-4100 -109 c2 -78 0 -92 -13 -92 -23 0 -38 49
-31 107 7 64 15 85 30 80 7 -2 12 -39 14 -95z m4580 75 c2 -11 -10 -30 -34
-50 -20 -18 -51 -45 -67 -60 -36 -34 -44 -29 -28 20 25 81 118 146 129 90z
m145 -39 c16 -24 0 -64 -42 -108 -42 -45 -57 -49 -66 -20 -7 21 3 41 50 107
31 44 42 48 58 21z m-2566 -33 c26 -37 111 -340 98 -353 -8 -9 -104 30 -170
69 -38 22 -134 88 -213 147 l-142 107 34 11 c18 7 67 17 107 23 167 25 265 23
286 -4z m-1660 -33 c21 -11 91 -59 154 -106 63 -48 135 -96 161 -109 26 -12
47 -27 48 -33 0 -5 -16 -37 -36 -70 -99 -162 -108 -179 -112 -230 -5 -56 14
-106 47 -123 17 -10 19 -5 25 62 16 161 57 277 100 277 37 0 152 -38 166 -55
19 -23 5 -72 -60 -204 l-59 -121 19 -64 c11 -35 31 -75 44 -87 23 -23 24 -25
8 -42 -14 -16 -18 -48 -22 -186 -5 -165 -11 -193 -45 -221 -29 -24 -35 7 -35
205 0 105 -3 207 -7 229 l-6 38 -14 -33 c-40 -94 -57 -210 -57 -399 -1 -189
20 -450 35 -450 5 0 16 11 24 24 12 18 15 48 13 134 -2 96 0 113 16 131 20 22
51 28 61 12 3 -6 -4 -25 -15 -43 -11 -18 -20 -39 -20 -45 0 -23 16 -13 32 20
l16 32 16 -36 c8 -20 22 -81 31 -135 9 -54 23 -117 32 -139 15 -40 49 -85 65
-85 5 0 6 46 3 103 -36 650 -44 726 -96 914 -36 129 -36 127 43 273 58 107 53
104 102 71 22 -15 113 -69 201 -120 141 -82 288 -175 336 -213 15 -12 15 -22
3 -93 -20 -124 -16 -353 11 -643 13 -144 29 -369 36 -500 16 -330 6 -1334 -20
-1907 -11 -247 -22 -569 -26 -715 -7 -334 10 -1143 30 -1360 24 -268 17 -531
-16 -564 -15 -16 -39 59 -39 121 -2 158 -29 258 -62 225 -9 -9 -12 -44 -10
-118 3 -112 -5 -126 -44 -83 -16 18 -19 40 -22 150 -2 71 -8 129 -12 129 -12
0 -30 -67 -30 -113 0 -45 -15 -77 -35 -77 -13 0 -15 25 -15 151 0 116 -3 150
-12 147 -19 -6 -39 -53 -46 -106 l-7 -45 -30 25 c-29 26 -30 28 -27 109 2 82
-11 149 -29 149 -5 0 -9 -8 -9 -18 0 -10 -12 -47 -26 -83 -21 -50 -25 -76 -22
-121 l4 -57 -29 21 c-16 12 -39 42 -50 67 -18 42 -19 59 -14 198 4 96 3 153
-3 153 -5 0 -19 -18 -30 -40 -32 -62 -46 -50 -52 45 -2 28 -8 40 -18 40 -11 0
-17 -15 -20 -55 -9 -90 -20 -36 -22 115 -3 139 -3 140 -20 108 -12 -21 -19
-59 -20 -117 -2 -47 -6 -86 -10 -86 -4 0 -17 19 -30 43 -25 49 -36 185 -20
254 7 28 6 41 0 37 -22 -14 -39 -79 -45 -179 -7 -114 -13 -123 -48 -64 -17 29
-21 57 -25 199 -4 146 -6 161 -18 135 -7 -16 -17 -62 -22 -103 -4 -40 -11 -76
-15 -80 -10 -10 -55 45 -57 71 -1 12 -2 85 -3 162 0 133 -1 140 -20 140 -18 0
-20 -8 -23 -67 -2 -57 -6 -68 -21 -68 -15 0 -19 15 -29 103 -7 56 -12 117 -12
135 0 35 -19 43 -40 17 -9 -11 -11 -37 -8 -85 3 -39 2 -70 -2 -70 -4 0 -19 37
-34 82 -23 68 -34 145 -36 251 0 19 -22 3 -37 -28 -9 -19 -20 -35 -23 -35 -10
0 -28 67 -39 146 -6 39 -13 171 -16 295 -7 252 -15 341 -51 515 -28 140 -31
259 -9 379 31 170 37 356 29 915 -12 786 -7 998 27 1308 10 88 14 102 30 102
12 0 21 -10 25 -25 13 -53 19 -7 25 193 3 114 10 218 16 232 9 23 11 21 29
-30 20 -59 21 -97 13 -435 -3 -142 -1 -176 12 -204 16 -32 16 -33 22 -10 16
67 30 254 30 414 0 180 -11 290 -40 418 -13 60 -17 68 -36 65 -19 -3 -22 -10
-25 -58 -4 -67 -15 -82 -35 -44 -51 101 -63 228 -30 305 19 43 19 44 -1 94
-17 42 -20 74 -21 200 0 103 4 157 13 172 11 21 14 21 51 9 21 -8 56 -23 78
-34z m-599 -65 c2 -30 0 -62 -5 -72 -20 -35 -51 79 -44 160 1 5 11 0 23 -12
15 -15 23 -38 26 -76z m4190 1 c22 -22 12 -33 -40 -46 -29 -8 -59 -14 -67 -15
-25 -3 -23 22 3 48 27 27 83 34 104 13z m412 -61 c0 -23 -13 -43 -56 -86 -54
-54 -56 -55 -70 -36 -22 30 -9 64 48 122 57 57 78 57 78 0z m-136 34 c10 -16
-5 -40 -39 -60 l-34 -20 -15 24 c-21 32 -21 34 17 50 37 17 64 19 71 6z m-174
-36 c0 -9 -16 -25 -35 -36 -19 -12 -35 -27 -35 -35 0 -20 14 -17 35 6 10 11
26 20 37 20 39 0 12 -68 -43 -105 -39 -28 -54 -51 -39 -60 5 -3 29 13 55 35
25 22 55 40 66 40 19 0 18 -3 -11 -39 -45 -58 -129 -131 -150 -131 -11 0 -20
10 -23 28 -4 19 -20 38 -47 56 -22 15 -45 38 -50 52 -13 33 -13 32 13 36 23 3
25 16 12 74 l-7 31 45 0 c24 1 62 10 83 22 47 25 94 28 94 6z m-4311 -110 c12
-24 12 -45 1 -128 -8 -61 -10 -138 -6 -201 8 -126 -7 -159 -23 -51 -16 108
-15 418 2 413 6 -3 18 -17 26 -33z m2511 -62 c0 -9 12 -29 26 -44 47 -50 7
-83 -41 -34 -27 26 -32 64 -13 83 17 17 28 15 28 -5z m-2137 -1338 c1 -1234
-2 -1346 -48 -1770 -35 -321 -34 -474 5 -700 30 -174 31 -183 28 -470 -2 -242
-5 -290 -15 -270 -27 50 -43 157 -54 350 -7 110 -14 202 -16 205 -12 14 -23
-32 -18 -79 5 -47 4 -52 -9 -42 -48 40 -60 205 -31 441 8 69 15 140 15 159 0
30 -2 32 -17 20 -22 -19 -43 -71 -43 -108 0 -16 -9 -76 -20 -132 -58 -295 -52
-370 45 -564 38 -75 68 -149 71 -175 l6 -45 -23 35 c-46 72 -109 218 -133 311
-34 133 -45 219 -53 409 -6 183 3 329 48 754 16 153 27 281 25 284 -8 8 -36
-63 -46 -120 -6 -28 -10 -94 -10 -147 0 -58 -10 -155 -26 -246 -14 -82 -36
-213 -48 -290 -25 -157 -20 -163 -52 60 -24 172 -28 454 -10 736 9 140 16 273
15 295 l-1 39 -14 -50 c-35 -122 -56 -284 -61 -473 -3 -106 -8 -191 -10 -189
-7 8 -44 230 -60 362 -22 194 -22 583 0 724 10 57 19 106 21 108 2 2 20 -3 40
-11 26 -11 41 -26 52 -52 14 -33 13 -45 -6 -149 -12 -62 -20 -123 -18 -136 l3
-24 26 27 c15 17 39 69 61 134 l36 108 -38 55 c-52 76 -74 147 -68 219 3 31 8
66 12 77 5 12 -6 5 -27 -18 -19 -21 -45 -64 -56 -95 -12 -31 -31 -68 -42 -82
l-19 -25 -20 23 c-30 36 -34 86 -17 199 10 69 12 114 7 136 -9 29 -8 30 5 13
8 -11 18 -16 22 -12 5 4 7 221 5 482 -2 261 -1 474 3 474 18 0 35 -78 35 -162
1 -78 3 -90 13 -73 8 14 12 78 12 212 0 178 1 193 21 219 11 15 25 29 31 31 8
3 13 -152 16 -549 3 -304 9 -571 14 -593 l9 -40 14 75 c11 56 15 158 15 405 1
182 4 338 8 348 4 9 9 24 12 32 2 8 11 12 18 9 12 -4 15 17 19 113 3 91 9 128
25 163 l21 45 17 -40 c23 -52 17 -151 -20 -334 -34 -170 -33 -295 4 -354 26
-42 45 -50 31 -11 -16 41 -11 219 10 363 11 74 22 136 25 139 8 9 27 -52 38
-124 13 -90 -2 -174 -38 -202 -23 -18 -23 -20 -8 -63 18 -52 36 -285 27 -348
-8 -50 6 -53 40 -7 24 31 27 107 12 259 -9 85 -8 89 15 113 22 24 24 35 29
167 5 133 16 187 39 187 13 0 18 -19 26 -94 5 -47 11 -64 18 -57 7 7 5 62 -6
178 -22 218 -22 345 0 409 l17 49 9 -35 c5 -19 9 -555 10 -1195z m-569 1169
c3 -9 6 -77 6 -152 l0 -136 -22 21 c-28 28 -36 119 -18 215 12 67 22 83 34 52z
m3990 -183 c20 -32 -104 -246 -150 -257 -56 -14 -236 3 -317 30 -104 35 -279
124 -274 139 8 25 58 18 121 -17 56 -31 73 -36 130 -36 98 0 225 36 340 96 99
51 139 63 150 45z m-1039 -109 c6 -4 18 -17 28 -29 18 -20 18 -22 -3 -64 -15
-29 -20 -53 -17 -76 3 -18 2 -33 -3 -33 -18 0 -30 40 -30 102 0 35 -5 69 -11
75 -21 21 11 44 36 25z m158 -44 c9 -11 17 -29 17 -40 0 -15 -5 -18 -22 -13
-29 9 -58 42 -58 67 0 15 5 18 23 13 12 -4 30 -16 40 -27z m352 -112 c63 -30
115 -60 115 -66 0 -6 -5 -20 -10 -31 -24 -43 -108 -2 -96 47 8 29 -3 30 -65 9
l-45 -15 -52 50 c-28 27 -59 50 -67 50 -8 0 -15 5 -15 11 0 8 19 10 60 6 44
-4 88 -19 175 -61z m-320 12 c141 -34 313 -128 362 -198 13 -19 12 -20 -17
-20 -48 0 -97 28 -141 80 -38 45 -44 48 -102 54 -34 4 -80 12 -101 17 -39 10
-96 57 -96 78 0 11 8 10 95 -11z m-3201 -33 c4 -19 4 -76 0 -127 -7 -88 -8
-91 -20 -63 -14 33 -17 102 -8 182 7 58 18 61 28 8z m2272 -11 c27 -9 94 -46
149 -82 107 -69 189 -112 218 -112 22 0 22 -6 -3 -32 -39 -42 -63 -126 -64
-228 -1 -111 18 -185 64 -248 31 -44 76 -79 87 -68 9 8 -8 70 -51 192 -38 107
-53 199 -42 259 l7 37 57 -7 c31 -4 79 -16 107 -26 60 -22 277 -138 626 -334
140 -79 322 -180 404 -223 l149 -80 -2 -283 c-3 -319 -15 -511 -41 -644 l-17
-90 23 -34 c27 -40 39 -80 54 -176 18 -122 39 -188 71 -228 30 -38 30 -40 24
-118 -11 -119 -9 -525 4 -699 10 -146 55 -637 64 -707 4 -30 2 -33 -20 -33
-14 0 -43 9 -66 21 l-41 21 6 -36 c3 -20 26 -70 51 -111 49 -81 76 -150 76
-195 0 -16 -9 -74 -19 -129 -29 -150 -34 -225 -22 -346 17 -177 15 -270 -8
-362 -27 -105 -27 -229 -1 -410 23 -156 26 -285 9 -418 -10 -81 -8 -108 11
-239 28 -183 24 -265 -14 -330 -51 -87 -66 -72 -66 67 0 53 -4 97 -8 97 -19 0
-52 -43 -53 -68 -2 -36 -2 -28 6 -104 7 -76 -4 -88 -42 -46 -29 33 -34 51 -44
161 -4 54 -11 102 -14 107 -16 26 -25 -9 -25 -94 0 -104 -7 -119 -50 -104 -43
14 -54 53 -47 164 6 93 6 94 -16 94 -31 0 -47 -18 -47 -52 l0 -28 -40 20 c-26
13 -40 27 -40 40 0 28 -17 25 -49 -8 -23 -23 -29 -39 -35 -100 -6 -63 -10 -72
-27 -72 -13 0 -24 10 -30 29 -6 16 -17 32 -25 35 -18 7 -18 59 1 122 8 27 44
98 80 158 112 190 109 252 -20 421 -85 110 -84 105 -27 197 31 52 34 63 28
104 -7 54 -9 51 163 184 93 73 142 131 167 201 14 41 22 195 10 206 -11 11
-44 -82 -51 -144 -4 -34 -12 -68 -18 -77 -17 -20 -139 -120 -229 -185 -69 -51
-76 -59 -90 -110 -9 -31 -28 -85 -44 -121 -20 -49 -28 -82 -28 -130 0 -69 3
-76 87 -213 61 -99 61 -202 1 -285 -97 -133 -96 -131 -90 -202 4 -44 2 -73 -7
-90 -14 -28 -55 -39 -68 -18 -14 21 -10 85 6 125 17 41 20 109 5 118 -18 11
-58 -23 -70 -59 -6 -19 -14 -62 -18 -95 l-7 -61 -24 16 c-38 27 -51 74 -51
186 0 57 -4 109 -9 117 -17 27 -43 -36 -56 -137 -18 -134 -27 -151 -56 -115
-10 11 -15 62 -19 184 -5 173 -13 205 -42 172 -32 -37 -39 -84 -32 -212 l7
-123 -25 16 c-45 29 -52 63 -44 217 6 134 6 139 -13 139 -11 0 -26 -9 -35 -21
-13 -19 -12 -27 5 -77 29 -83 24 -121 -14 -106 -25 9 -46 76 -53 169 -3 50
-11 96 -17 103 -6 8 -32 24 -58 37 -26 13 -54 32 -63 41 -14 13 -19 14 -32 3
-35 -29 -47 -71 -41 -141 5 -64 5 -67 -12 -58 -27 14 -32 33 -40 152 -7 103
-13 129 -28 115 -3 -4 -10 -55 -14 -114 -10 -129 -16 -156 -32 -150 -20 6 -35
77 -36 162 -1 90 -16 158 -34 152 -27 -9 -36 -51 -30 -144 7 -102 -4 -120 -31
-53 -11 28 -16 72 -16 140 0 54 -4 101 -8 104 -22 13 -52 -26 -58 -76 -6 -46
-8 -49 -16 -27 -6 15 -5 61 3 124 12 109 9 202 -12 332 -11 67 -11 92 0 135
25 105 25 124 1 141 l-22 15 18 94 c28 154 30 515 4 848 -20 263 -28 710 -15
829 6 56 54 1783 56 1994 0 87 1 91 16 70 8 -13 19 -23 24 -23 18 0 20 108 5
205 -9 55 -18 110 -20 123 -2 14 1 21 8 19 6 -2 12 -25 14 -51 5 -82 22 -39
22 58 l0 92 -42 41 c-24 22 -52 45 -64 51 -20 10 -21 22 -28 219 -4 114 -10
238 -14 276 l-8 67 26 0 c15 0 49 -7 76 -16z m1825 -16 c7 -18 30 -49 51 -70
29 -29 35 -40 24 -44 -8 -3 -26 2 -40 11 -14 10 -33 15 -41 11 -11 -4 -15 2
-16 27 0 18 -4 41 -8 52 -9 21 -4 45 9 45 4 0 14 -14 21 -32z m-927 -18 c37
-12 141 -59 229 -104 l160 -81 3 -60 c1 -33 5 -76 9 -96 5 -26 3 -38 -9 -48
-9 -8 -16 -17 -16 -21 0 -12 66 -40 95 -40 25 0 25 1 11 22 -10 14 -16 44 -16
76 l0 54 33 -6 c85 -18 102 -19 90 -5 -7 7 -13 34 -13 60 0 26 -5 60 -10 75
-10 26 -10 26 12 12 74 -49 94 -175 40 -248 l-21 -28 28 -43 c33 -53 79 -94
189 -173 45 -33 81 -64 79 -70 -5 -17 -55 -19 -91 -5 -17 7 -57 30 -89 51 -71
48 -155 88 -184 88 -15 0 -23 6 -23 16 0 9 -8 23 -17 31 -16 13 -14 14 22 8
22 -3 48 -8 58 -11 9 -3 17 0 17 6 0 22 -95 53 -249 80 -86 15 -168 33 -182
40 -14 6 -34 29 -43 51 -12 26 -46 63 -101 109 -99 83 -105 90 -70 90 45 0 94
-30 147 -92 58 -66 97 -93 150 -102 78 -14 45 31 -39 54 -45 11 -56 32 -26 49
10 5 16 11 13 13 -50 37 -208 120 -262 137 -36 12 -38 14 -38 57 0 50 15 88
33 81 7 -2 43 -14 81 -27z m836 -69 c0 -15 -40 -60 -60 -66 -27 -9 -25 -46 4
-78 13 -14 48 -38 77 -53 81 -40 110 -64 126 -102 8 -19 12 -37 9 -39 -7 -7
-52 22 -88 55 -36 33 -46 22 -19 -21 14 -24 44 -47 94 -72 39 -21 84 -46 99
-57 20 -13 29 -15 34 -6 5 7 -10 27 -39 52 -30 26 -47 49 -47 64 0 33 21 28
95 -24 85 -57 110 -67 125 -49 9 11 2 18 -39 35 -44 19 -70 45 -57 57 2 3 195
-74 428 -170 232 -95 451 -184 485 -197 53 -21 64 -30 82 -67 l21 -43 77 0
c136 0 225 -35 448 -174 70 -44 123 -72 130 -67 34 27 69 18 204 -49 167 -84
289 -134 631 -260 474 -174 480 -177 497 -219 8 -20 23 -45 33 -56 18 -19 18
-23 -4 -120 -27 -119 -42 -167 -67 -217 l-19 -38 -39 16 c-35 14 -43 14 -67 1
-26 -14 -29 -13 -46 8 -10 13 -18 26 -18 30 0 12 70 35 109 35 31 0 44 6 60
26 25 31 28 74 6 74 -8 0 -29 -9 -47 -20 -31 -18 -88 -28 -88 -14 0 3 9 19 21
35 l20 29 -21 0 c-11 0 -43 -11 -70 -25 -82 -41 -116 -32 -98 28 21 69 -34 91
-96 36 -38 -33 -72 -36 -90 -7 -8 14 -5 23 19 48 l29 30 -25 0 c-13 0 -48 -9
-77 -20 -60 -23 -101 -25 -125 -7 -14 10 -15 18 -7 46 5 19 8 37 5 39 -2 2
-30 -12 -62 -32 -62 -38 -115 -47 -146 -23 -16 11 -16 14 -3 33 9 12 30 24 48
28 l33 7 -23 19 c-13 11 -50 25 -83 31 -33 7 -76 23 -95 36 -38 25 -54 22 -89
-17 -29 -33 -85 -55 -96 -38 -14 21 -11 32 22 76 17 24 29 45 26 48 -11 12
-60 -11 -101 -47 -44 -39 -77 -48 -106 -29 -12 8 -7 18 33 54 26 24 47 49 47
55 0 10 -50 26 -100 33 -19 2 -26 10 -28 32 l-4 28 -29 -28 c-23 -22 -40 -29
-89 -32 -54 -4 -60 -2 -60 14 0 32 16 45 59 51 46 6 48 9 24 35 -23 25 -70 23
-136 -8 -53 -24 -56 -27 -47 -50 13 -33 12 -47 -2 -67 -11 -15 -17 -16 -45 -5
-39 15 -38 17 18 131 34 67 37 77 21 77 -21 0 -56 -35 -101 -103 -21 -31 -39
-47 -49 -45 -27 5 -21 82 11 151 l27 57 -24 0 c-26 0 -74 -48 -101 -100 -8
-16 -24 -34 -34 -39 -15 -9 -20 -6 -25 12 -10 40 -6 92 9 114 13 18 13 26 3
43 -18 29 -46 25 -66 -11 -34 -61 -38 -65 -56 -50 -10 9 -16 29 -16 58 0 42
-2 45 -22 39 -106 -30 -184 -13 -378 84 -153 77 -225 100 -308 100 -48 0 -53
2 -47 18 23 56 19 60 -45 41 -21 -7 -50 -9 -64 -5 -34 8 -35 50 -2 90 l24 29
108 -55 c105 -53 211 -98 264 -112 20 -6 15 2 -27 42 -34 32 -90 68 -165 105
-62 31 -125 64 -139 73 -26 17 -28 16 -83 -14 -57 -33 -116 -41 -146 -22 -12
7 -13 13 -4 27 9 14 25 18 73 18 33 0 61 1 61 2 0 1 -26 21 -57 44 -32 23 -60
44 -62 45 -2 2 -1 11 3 20 6 15 8 15 32 -1 46 -30 47 -10 0 47 -66 81 -122
126 -183 145 -57 18 -64 32 -43 87 10 27 4 56 -11 56 -14 0 -39 -57 -39 -90 0
-34 -10 -38 -33 -12 -30 33 -30 72 2 176 17 54 31 105 31 112 0 10 13 14 40
14 22 0 40 -4 40 -9z m-1239 -70 c46 -30 116 -97 108 -105 -5 -6 -163 112
-167 125 -6 16 13 10 59 -20z m-3136 -16 c82 -14 153 -29 158 -34 5 -5 2 -52
-7 -107 -32 -204 -67 -617 -81 -959 -9 -210 -4 -198 -78 -223 -57 -20 -171
-41 -224 -42 l-23 0 0 365 0 365 28 11 c30 12 78 54 95 84 6 11 16 44 23 73
10 43 10 52 -1 52 -17 0 -58 -49 -74 -89 -17 -39 -26 -39 -40 0 -17 48 -13
101 15 244 14 72 26 167 27 212 2 68 5 82 17 78 8 -2 82 -16 165 -30z m3464
-128 c43 -20 49 -26 38 -39 -28 -35 -96 -28 -117 12 -9 16 -8 25 1 36 15 18
18 18 78 -9z m-3194 -79 c18 -61 19 -168 4 -290 -9 -68 -14 -86 -24 -78 -28
23 -38 99 -31 233 10 209 21 236 51 135z m11392 39 c4 -5 34 -411 43 -595 11
-227 13 -671 3 -775 -5 -57 -9 -67 -22 -62 -9 4 -70 10 -136 15 -135 9 -158
15 -150 39 2 9 9 111 14 228 12 255 0 560 -30 828 -12 105 -23 200 -23 213 -1
19 13 29 89 63 104 46 150 59 185 52 14 -2 26 -5 27 -6z m-7973 -109 c34 -17
102 -57 151 -88 92 -59 181 -106 225 -121 17 -6 10 -7 -25 -4 -59 6 -140 43
-255 115 -47 30 -119 74 -160 98 -70 41 -73 43 -36 37 22 -4 67 -20 100 -37z
m666 1 c19 -12 60 -40 90 -62 30 -23 57 -43 59 -44 2 -2 -4 -12 -14 -23 -18
-20 -18 -22 -2 -49 25 -42 21 -50 -17 -45 -76 9 -147 60 -166 120 -12 35 -6
124 8 124 4 0 23 -10 42 -21z m-4045 -726 c16 -161 15 -281 -4 -350 -7 -24
-11 -16 -32 67 -20 82 -24 119 -24 270 0 123 4 188 14 220 l14 45 8 -42 c4
-23 15 -118 24 -210z m4144 128 c21 -64 24 -255 7 -415 -8 -82 -18 -152 -22
-155 -12 -12 -43 41 -50 85 -3 25 -4 82 0 127 3 45 9 162 12 261 7 173 8 178
24 156 10 -13 23 -40 29 -59z m505 3 c9 -8 16 -29 16 -45 0 -26 -3 -29 -33
-29 -46 0 -77 24 -77 61 0 27 2 29 39 29 23 0 46 -7 55 -16z m-375 -45 c17
-16 25 -19 31 -9 12 19 18 1 36 -101 13 -74 15 -128 10 -254 -9 -225 -15 -277
-35 -273 -8 2 -20 20 -26 41 -14 49 -25 37 -25 -25 0 -41 -3 -48 -20 -48 -20
0 -20 7 -20 345 0 370 0 370 49 324z m526 -23 c50 -23 96 -69 81 -83 -3 -3
-33 2 -67 12 -62 19 -119 63 -119 92 0 19 27 13 105 -21z m-360 -32 c14 -14
29 -23 34 -20 15 9 20 -19 11 -59 -10 -44 -14 -49 -35 -41 -26 10 -38 56 -20
76 14 15 13 18 -5 35 -18 17 -26 35 -15 35 2 0 16 -11 30 -26z m221 -159 c-23
-134 -56 -519 -57 -665 0 -52 -4 -104 -8 -115 -16 -41 -35 25 -39 140 -4 99
-2 113 19 151 l23 43 -23 50 c-23 49 -24 51 -11 196 11 132 8 247 -6 298 -4
13 11 5 51 -25 50 -39 55 -46 51 -73z m464 65 c11 -18 0 -49 -21 -55 -18 -6
-92 26 -104 45 -3 6 4 15 17 20 29 12 98 6 108 -10z m-670 -178 c26 -109 38
-225 55 -562 15 -294 27 -419 47 -514 15 -75 22 -84 42 -54 22 34 36 116 36
217 1 85 1 86 19 64 10 -12 29 -64 41 -115 66 -279 83 -244 72 152 -5 167 18
171 38 8 14 -111 43 -177 63 -142 7 11 12 85 12 189 1 129 5 178 16 205 l16
35 18 -35 c21 -40 23 -145 5 -296 -5 -49 -10 -119 -10 -156 0 -73 17 -168 30
-168 8 0 11 13 31 157 6 45 17 90 24 100 13 17 14 16 24 -10 6 -16 11 -83 11
-150 0 -111 9 -163 23 -141 7 12 23 105 42 238 13 96 13 112 0 126 -41 46 -59
167 -34 238 9 27 14 30 30 22 10 -6 19 -17 19 -25 0 -8 4 -15 9 -15 11 0 21
99 22 214 0 50 4 141 9 201 4 61 7 112 5 113 -2 2 -11 -11 -21 -30 -12 -24
-19 -71 -25 -170 -5 -103 -11 -144 -25 -167 -36 -60 -66 -48 -55 23 11 77 7
141 -9 141 -12 0 -14 -11 -12 -50 2 -40 0 -47 -10 -37 -15 15 -18 198 -5 245
13 47 32 26 32 -36 0 -31 4 -59 7 -63 11 -10 18 34 21 136 2 108 15 123 61 73
14 -15 26 -23 26 -17 0 5 6 18 13 28 11 16 15 13 35 -23 46 -82 45 -215 -2
-476 -30 -162 -36 -215 -27 -239 7 -18 8 -18 24 5 9 13 17 41 17 63 0 23 4 36
9 30 20 -22 32 -114 41 -326 12 -269 19 -299 45 -207 30 107 30 220 1 449 -33
250 -41 368 -32 443 6 47 11 57 26 57 16 0 18 -5 14 -30 -4 -16 -4 -37 0 -46
5 -14 9 -14 22 -3 14 11 16 27 11 86 -4 50 -1 77 8 89 12 17 14 17 39 1 37
-25 34 -53 -20 -171 -32 -68 -48 -119 -52 -158 -4 -54 11 -238 25 -298 l6 -25
13 30 c7 17 13 68 14 118 0 80 2 90 25 112 13 14 31 25 39 25 13 0 13 4 0 28
-7 15 -17 60 -20 100 -6 60 -4 72 8 72 8 0 20 -10 25 -22 11 -23 11 -23 18 5
4 16 2 55 -5 87 -13 63 -7 114 13 107 7 -2 22 -18 35 -37 45 -67 17 -254 -52
-345 -22 -28 -26 -45 -26 -97 0 -35 -7 -144 -15 -243 -17 -211 -20 -445 -5
-445 6 0 19 9 30 20 16 16 20 33 20 95 0 41 4 75 9 75 18 0 36 -67 34 -129 -3
-75 4 -73 23 6 18 77 17 175 -2 336 -21 169 -15 238 35 421 24 88 41 171 41
203 0 63 15 69 55 21 26 -31 27 -36 23 -123 -4 -68 -14 -115 -40 -191 -30 -88
-33 -104 -22 -130 23 -53 25 -127 10 -267 -17 -150 -21 -334 -7 -355 5 -8 10
15 14 60 4 40 21 143 38 228 35 178 40 295 15 354 -15 37 -15 40 1 58 14 15
18 47 23 165 6 145 6 146 35 171 l29 25 9 -29 c22 -69 11 -360 -26 -659 -45
-364 -46 -375 -30 -375 19 0 28 21 33 85 l5 60 19 -28 c15 -22 21 -56 27 -150
9 -142 7 -127 18 -127 27 0 41 34 41 101 0 38 4 69 10 69 19 0 40 -60 40 -112
0 -83 16 -91 29 -14 9 49 9 93 0 179 -6 63 -8 132 -4 153 l8 39 12 -30 c7 -16
18 -95 24 -175 7 -80 17 -169 22 -197 9 -45 14 -53 32 -53 29 0 67 27 67 48 0
10 3 13 10 6 17 -17 27 -209 19 -358 -11 -189 -25 -335 -32 -343 -4 -3 -18 2
-31 11 -24 15 -26 15 -41 -6 -27 -39 -18 -108 35 -275 45 -139 51 -168 51
-245 0 -114 -20 -160 -105 -242 -127 -121 -328 -215 -463 -216 -33 0 -50 -7
-75 -29 l-33 -30 18 -34 c30 -55 148 -241 197 -309 76 -107 236 -258 314 -298
132 -67 149 -115 125 -340 -9 -79 -9 -141 0 -250 34 -422 35 -468 23 -608 -7
-75 -17 -158 -23 -184 l-11 -48 -121 0 c-67 0 -209 -7 -317 -16 -205 -17 -451
-14 -525 6 -22 6 -57 15 -77 21 -41 11 -51 36 -23 59 20 17 15 54 -7 58 -22 4
-53 -31 -66 -76 -22 -73 -24 -74 -142 -62 -104 10 -207 28 -224 37 -15 10 18
23 58 23 33 0 38 3 33 20 -7 27 9 25 45 -5 33 -28 50 -30 99 -14 43 15 75 44
88 80 16 46 -7 46 -51 0 -22 -22 -48 -41 -58 -41 -15 0 -16 6 -9 46 21 110
-44 112 -123 3 -27 -38 -38 -8 -21 58 16 61 11 89 -16 96 -27 7 -75 -17 -94
-46 -16 -25 -16 -26 11 -39 54 -26 37 -94 -33 -138 -42 -26 -57 -18 -75 35 -8
25 -8 56 0 115 6 45 9 84 7 86 -2 3 -11 2 -19 -1 -23 -9 -38 -50 -38 -101 0
-41 -2 -45 -22 -42 -13 2 -24 11 -26 23 -6 29 -22 45 -46 45 -21 0 -21 2 -18
187 3 140 -4 274 -24 526 -27 330 -27 345 -14 578 8 155 10 309 5 441 -8 230
1 326 42 440 20 58 27 98 30 194 6 137 -4 238 -50 534 l-32 205 2 445 c2 479
10 717 23 703 5 -4 14 -32 22 -62 9 -36 21 -59 36 -69 l24 -16 -9 50 c-17 105
-8 360 21 544 16 102 30 239 33 329 5 139 7 151 20 127 7 -14 22 -61 33 -104z
m336 83 c19 -46 17 -208 -4 -439 l-17 -180 -28 37 c-58 76 -70 121 -64 225 8
115 22 148 32 74 4 -28 4 -56 0 -62 -3 -5 -2 -10 3 -10 15 0 22 36 28 135 2
50 6 107 8 128 4 38 4 38 -16 20 -21 -18 -21 -18 -14 20 17 90 47 112 72 52z
m148 -24 c16 -18 16 -23 1 -81 -9 -34 -14 -69 -11 -76 3 -8 1 -14 -5 -14 -5 0
-12 7 -15 15 -12 31 -24 13 -24 -37 0 -48 -1 -51 -16 -37 -13 14 -14 33 -8
121 6 96 8 105 25 101 13 -4 19 0 19 11 0 21 13 20 34 -3z m3040 -34 c31 -32
39 -34 120 -41 163 -12 409 -73 706 -175 145 -49 529 -194 562 -212 16 -9 15
-15 -11 -87 -16 -42 -43 -108 -59 -147 -17 -38 -47 -128 -67 -200 -41 -147
-76 -218 -181 -372 -343 -504 -334 -483 -409 -923 -25 -146 -54 -316 -65 -379
-53 -301 -64 -416 -64 -686 0 -193 4 -278 15 -330 10 -48 12 -84 6 -115 -4
-25 -6 -112 -4 -195 8 -242 45 -351 167 -490 74 -85 113 -153 108 -188 -2 -12
-16 -28 -32 -36 -25 -12 -38 -11 -110 8 -107 28 -118 28 -110 -4 8 -31 -5 -32
-66 -4 -39 18 -63 21 -180 20 -74 -1 -175 -4 -225 -7 -339 -22 -778 95 -1310
350 -475 228 -849 499 -1112 805 l-63 74 72 39 c225 121 446 293 678 527 244
244 442 495 574 727 60 104 92 145 150 189 29 22 40 45 81 163 58 167 154 371
229 486 51 79 55 88 44 113 -6 16 -11 71 -11 123 1 80 7 117 41 235 22 77 55
196 72 265 43 171 84 311 121 414 l32 86 134 0 134 0 33 -33z m-2004 -132 l0
-35 -55 0 c-30 0 -55 4 -55 9 0 17 62 61 86 61 21 0 24 -5 24 -35z m-5899 -37
c1 -13 0 -27 -1 -33 -1 -5 -6 -176 -11 -380 -5 -203 -13 -383 -18 -400 -7 -24
-9 -10 -10 65 -1 52 -6 177 -12 278 -12 186 -4 324 23 444 12 50 27 64 29 26z
m-292 -176 c120 -636 157 -799 232 -1019 44 -131 60 -241 38 -259 -8 -6 -68
-21 -134 -32 -66 -12 -132 -24 -146 -28 -26 -6 -27 -4 -44 73 -9 43 -41 179
-71 303 -115 474 -173 778 -189 986 l-7 90 133 31 c74 17 139 32 144 32 6 1
25 -79 44 -177z m6609 92 c27 -19 29 -50 3 -59 -10 -3 -40 4 -67 16 l-49 21
24 19 c28 23 59 24 89 3z m-2248 -128 c12 -49 20 -112 20 -165 0 -102 -12
-402 -16 -398 -8 7 -35 197 -43 302 -10 130 -3 361 10 348 5 -5 18 -44 29 -87z
m1798 28 l50 -16 -19 -42 c-29 -64 -21 -187 13 -194 25 -5 74 44 96 96 l21 49
46 -11 46 -11 -5 -45 c-3 -25 -13 -153 -21 -285 -18 -291 -30 -398 -56 -535
-32 -165 -40 -155 -46 67 -5 159 8 302 33 367 6 14 2 17 -17 14 -16 -2 -31
-16 -44 -40 -11 -21 -23 -38 -27 -38 -10 0 -21 67 -15 93 3 12 17 51 32 85 20
49 25 72 20 103 -4 22 -12 39 -20 39 -49 0 -75 -45 -75 -130 0 -60 0 -60 -28
-58 -37 3 -51 -7 -71 -51 l-16 -36 -3 48 c-2 27 7 110 19 185 16 104 20 163
16 244 -2 59 -2 110 1 113 8 8 15 7 70 -11z m824 -96 c-5 -21 -42 -48 -68 -48
-13 0 -32 10 -44 22 -36 39 -29 43 52 41 46 -1 62 -5 60 -15z m4588 -15 c-1
-36 -33 -290 -49 -378 -45 -257 -101 -466 -275 -1025 -108 -344 -95 -316 -136
-312 -19 2 -62 21 -96 43 -33 21 -66 39 -72 39 -7 0 -12 4 -12 8 0 12 46 168
120 407 160 516 228 821 246 1103 8 120 7 118 128 110 39 -3 85 -2 101 2 43
11 45 11 45 3z m-4830 -114 c120 -34 216 -72 450 -174 91 -40 203 -86 250
-103 132 -47 120 -38 106 -80 -7 -20 -21 -80 -31 -132 -36 -196 -39 -205 -60
-205 -20 0 -22 5 -11 40 3 11 1 27 -4 35 -7 12 -12 11 -30 -5 -44 -39 -66
-103 -99 -280 -32 -166 -61 -252 -82 -239 -18 11 2 113 47 251 45 135 73 268
60 281 -11 10 -46 -37 -53 -70 -7 -33 -21 -45 -29 -24 -3 8 2 26 11 40 10 14
14 33 11 42 -6 15 -8 15 -25 0 -29 -26 -79 -126 -98 -197 -15 -54 -18 -99 -16
-280 l3 -215 -53 -85 c-70 -111 -192 -281 -286 -399 -77 -97 -378 -406 -387
-397 -11 11 -3 544 11 736 24 325 79 771 95 771 3 0 17 -44 31 -97 20 -81 24
-123 24 -240 0 -116 2 -139 13 -130 39 32 74 146 91 292 5 50 15 133 21 186 6
53 17 120 25 149 l14 52 -25 -23 c-32 -30 -50 -98 -64 -239 -6 -63 -13 -116
-15 -119 -11 -10 -19 13 -23 67 -3 42 5 94 28 190 17 72 30 137 28 144 -3 8
-14 3 -31 -14 -21 -21 -27 -37 -27 -68 0 -34 -3 -41 -17 -38 -21 4 -31 36 -32
109 -1 37 -6 61 -16 69 -20 17 -45 5 -45 -20 0 -35 -18 -13 -25 32 -4 23 -4
132 0 243 l7 202 77 -14 c42 -8 123 -28 181 -44z m-1811 -58 c0 -20 -4 -56 -7
-81 l-7 -45 -15 35 c-16 38 -18 89 -6 135 7 29 8 29 22 11 8 -11 14 -36 13
-55z m4752 -78 c32 -34 51 -68 42 -77 -12 -11 -53 -6 -78 10 -27 17 -58 86
-49 108 5 14 9 14 32 2 15 -8 39 -27 53 -43z m-2160 -33 c11 -6 19 -21 19 -36
0 -23 -3 -25 -36 -22 -40 3 -61 25 -51 52 7 18 39 21 68 6z m-1334 -193 c-3
-34 -20 -100 -36 -145 -17 -46 -31 -99 -31 -118 0 -19 -4 -34 -10 -34 -14 0
-13 273 2 321 10 36 14 39 46 39 l35 0 -6 -63z m3501 -167 c-92 -180 -103
-197 -106 -166 -4 46 40 175 84 243 34 53 100 123 117 123 5 0 -38 -90 -95
-200z m455 191 l28 -6 -110 -141 c-115 -148 -203 -237 -276 -280 -57 -33 -75
-27 -75 26 0 22 -4 40 -10 40 -5 0 -10 -10 -10 -22 0 -32 -15 -52 -33 -45 -13
5 -13 13 3 64 73 235 148 327 295 363 36 10 149 10 188 1z m-664 -139 c10 -20
-15 -142 -29 -142 -13 0 -30 60 -25 86 3 13 7 35 10 49 6 29 30 33 44 7z m696
-116 c-25 -48 -45 -101 -45 -118 0 -22 -11 -43 -41 -75 -42 -46 -97 -152 -120
-233 -7 -25 -13 -46 -14 -48 -1 -1 -15 4 -31 13 -16 8 -40 15 -54 15 -36 0
-50 18 -50 62 0 35 2 38 28 38 16 0 37 -9 47 -20 24 -26 35 -25 35 3 0 12 9
37 21 56 11 19 18 43 16 53 -4 13 9 32 42 63 26 24 68 83 96 131 45 82 103
159 111 151 2 -2 -16 -43 -41 -91z m-2935 -206 c0 -27 -11 -84 -25 -127 -14
-43 -25 -86 -25 -95 0 -30 -18 -20 -25 13 -9 39 -1 82 30 158 14 33 25 70 25
81 0 11 5 20 10 20 6 0 10 -22 10 -50z m3789 -50 c-9 -64 -14 -79 -22 -65 -10
19 -4 85 13 130 18 47 22 21 9 -65z m-839 36 c0 -24 -11 -45 -38 -77 -21 -24
-46 -55 -55 -69 l-17 -24 0 29 c0 32 89 187 102 179 4 -3 8 -20 8 -38z m-875
-26 c93 -114 99 -180 19 -204 -19 -6 -24 2 -47 66 -14 40 -29 84 -32 96 -8 26
2 92 13 92 4 -1 25 -23 47 -50z m444 21 c11 -7 11 -15 0 -45 l-13 -36 -28 27
c-22 21 -30 24 -42 14 -20 -17 -36 -6 -36 25 0 22 3 24 53 24 28 0 58 -4 66
-9z m-493 -188 c19 -32 24 -52 22 -88 l-3 -47 -27 21 c-30 24 -63 102 -73 176
l-7 50 31 -35 c17 -19 43 -54 57 -77z m-106 -33 c11 -6 26 -33 35 -62 8 -28
22 -59 31 -69 15 -17 15 -20 -5 -45 -12 -15 -21 -38 -21 -53 l-1 -26 -19 23
c-28 34 -50 115 -50 184 0 62 1 64 30 48z m498 -35 c17 -14 39 -25 50 -25 18
0 20 -10 26 -152 4 -83 5 -291 1 -462 -6 -263 -5 -325 9 -401 22 -127 21 -182
-7 -225 l-22 -35 -5 240 c-4 208 -6 231 -15 175 -6 -39 -9 -246 -7 -510 3
-485 -6 -628 -39 -580 -9 14 -8 40 7 173 5 43 2 62 -15 94 -37 73 -44 196 -35
558 12 425 9 612 -11 724 -11 65 -13 97 -5 110 5 11 15 42 21 70 7 32 18 55
30 61 26 15 24 29 -10 71 -17 20 -33 48 -36 62 -9 35 2 77 19 77 8 0 28 -11
44 -25z m-9310 -50 c11 -13 22 -49 26 -80 19 -164 284 -686 557 -1097 l97
-147 -63 -60 c-63 -58 -162 -116 -220 -127 -30 -5 -30 -5 -107 153 -43 87
-125 246 -184 353 -160 294 -275 520 -338 668 -54 125 -109 273 -103 277 1 2
43 14 92 28 50 15 108 33 130 41 60 22 91 20 113 -9z m9187 -788 c0 -436 4
-845 9 -909 l9 -117 -37 -21 c-28 -17 -36 -28 -36 -50 0 -22 5 -29 23 -32 20
-3 22 -9 24 -68 2 -44 0 -58 -6 -44 -9 20 -69 78 -89 85 -7 3 -5 44 3 119 20
170 34 478 40 890 8 483 35 963 54 944 3 -3 6 -362 6 -797z m341 694 c8 6 14
24 14 40 0 15 5 31 11 35 8 5 10 -1 6 -18 -31 -123 -40 -582 -24 -1290 l8
-368 -31 0 c-20 0 -44 -10 -62 -25 -16 -14 -34 -25 -39 -25 -5 0 -9 25 -9 55
0 55 13 73 25 35 15 -46 23 -12 31 118 13 206 8 747 -10 1107 -9 176 -16 343
-16 370 l1 50 41 -48 c32 -38 43 -45 54 -36z m-745 -37 c26 -43 25 -122 -6
-217 -37 -117 -38 -118 -69 -65 -31 53 -33 97 -10 195 10 42 13 84 9 111 l-7
44 32 -18 c17 -11 40 -33 51 -50z m845 -50 c0 -49 4 -102 8 -119 7 -29 8 -29
22 -11 10 14 14 50 14 123 0 57 4 103 8 103 5 0 17 -9 28 -21 30 -34 26 -131
-9 -198 -23 -46 -26 -58 -18 -94 18 -80 23 -263 12 -440 -13 -212 -21 -287
-31 -287 -4 0 -18 9 -31 19 -22 18 -24 26 -24 123 0 82 -3 102 -14 100 -10 -2
-12 5 -8 30 35 196 34 365 -2 440 -20 42 -21 49 -8 75 20 38 30 102 29 185 -1
50 2 68 11 65 8 -2 12 -33 13 -93z m-636 -137 c6 -73 13 -391 16 -707 2 -316
5 -694 7 -840 1 -199 -2 -282 -12 -335 -14 -68 -15 -69 -22 -35 -37 164 -63
680 -55 1060 5 222 27 854 36 1020 1 8 5 5 11 -8 5 -13 14 -83 19 -155z m1084
77 c12 -5 16 -21 16 -69 0 -34 9 -114 19 -176 30 -178 32 -201 22 -251 -9 -52
-51 -122 -64 -109 -9 9 -27 221 -21 233 2 3 5 90 5 192 0 102 2 186 4 186 2 0
10 -3 19 -6z m-1388 -200 c9 -13 17 -42 17 -63 0 -57 -23 -142 -41 -148 -26
-11 -52 34 -52 89 0 45 2 49 16 37 15 -12 16 -7 9 60 -7 72 -7 73 14 62 12 -7
28 -23 37 -37z m408 -59 c3 -8 -1 -33 -9 -56 -8 -23 -15 -50 -15 -61 0 -10 -4
-16 -10 -13 -5 3 -10 37 -10 76 0 61 2 69 19 69 10 0 21 -7 25 -15z m1407 -79
c1 -17 0 -85 0 -151 -1 -66 3 -126 8 -134 19 -29 34 34 42 169 4 74 10 147 14
163 15 59 43 17 52 -79 4 -41 11 -68 20 -71 18 -7 17 -74 -2 -119 -8 -20 -48
-84 -88 -142 -94 -137 -388 -608 -457 -732 -29 -52 -66 -114 -82 -137 l-29
-43 -57 36 c-100 62 -137 118 -113 170 23 51 61 39 61 -18 0 -16 4 -28 10 -28
17 0 30 39 38 112 5 55 11 73 22 73 10 0 14 -8 13 -22 -2 -13 -4 -33 -5 -44
-4 -32 17 -34 37 -3 11 17 21 64 28 130 l10 103 53 65 c33 41 91 142 154 266
55 110 104 200 108 200 17 -1 54 -42 61 -67 l8 -28 12 40 c6 22 14 85 17 140
3 55 10 129 16 164 l11 65 18 -23 c11 -13 19 -37 20 -55z m-197 -72 c-109
-278 -297 -591 -499 -833 -70 -84 -137 -151 -120 -121 5 8 70 110 143 225 301
470 403 638 476 784 21 40 40 71 42 68 3 -3 -16 -58 -42 -123z m-1452 66 c-2
-7 6 -144 17 -304 11 -160 23 -356 27 -436 6 -150 -8 -413 -30 -550 l-12 -75
-7 55 c-3 30 -16 190 -28 355 -31 427 -29 776 7 953 3 13 10 21 17 19 7 -2 11
-10 9 -17z m-253 -87 c27 -23 43 -133 19 -133 -28 0 -51 39 -56 95 -5 59 2 66
37 38z m480 -12 c11 -7 13 -55 9 -270 -4 -281 -15 -342 -37 -207 -12 75 -5
486 8 486 3 0 12 -4 20 -9z m-512 -170 c11 -26 13 -57 7 -130 -3 -53 -10 -104
-13 -114 -6 -17 -8 -17 -26 4 -17 17 -19 32 -16 83 2 33 4 95 5 138 1 64 3 74
15 65 8 -7 21 -27 28 -46z m178 -464 c9 -161 20 -336 25 -391 13 -128 13 -156
0 -136 -5 8 -10 28 -10 43 0 16 -4 26 -10 22 -6 -4 -10 -53 -10 -116 0 -61 -4
-109 -9 -109 -25 0 -41 47 -41 120 0 41 -4 81 -9 89 -18 28 -31 -2 -31 -72 -1
-54 -3 -68 -11 -54 -6 10 -10 97 -9 216 0 198 0 199 28 247 27 49 27 51 33
289 6 253 18 334 31 212 3 -37 14 -199 23 -360z m-8071 292 c14 -17 33 -56 41
-87 9 -31 22 -75 30 -96 l15 -39 -26 24 c-30 28 -80 128 -93 187 -11 50 -2 53
33 11z m9106 -244 c0 -24 -5 -56 -10 -71 -10 -26 -12 -26 -27 -11 -15 15 -15
22 -4 69 16 63 20 70 32 63 5 -4 9 -26 9 -50z m-375 -29 c9 -13 18 -46 22 -74
6 -56 -4 -162 -16 -162 -5 0 -11 46 -15 102 -4 56 -14 114 -22 130 -13 25 -13
28 1 28 8 0 22 -11 30 -24z m-320 -56 c6 -10 -28 -259 -43 -315 -7 -23 -10 -2
-15 81 -6 101 3 209 18 234 8 13 32 13 40 0z m-8278 -138 c114 -162 230 -290
580 -643 l373 -376 -99 -101 c-112 -115 -106 -114 -199 -50 -63 42 -302 277
-471 463 -127 139 -488 556 -505 583 -15 25 26 74 107 126 45 29 88 60 95 69
24 28 67 2 119 -71z m8838 38 c-9 -17 -19 -49 -23 -71 l-7 -39 -27 25 c-39 36
-36 61 11 84 21 11 42 28 46 38 4 11 9 13 12 6 2 -6 -3 -26 -12 -43z m-8665
-73 c35 -17 46 -28 48 -49 4 -32 1 -33 -38 -13 -41 21 -89 86 -62 85 4 -1 27
-11 52 -23z m8598 -240 c6 -30 -523 -582 -687 -718 -54 -45 -63 -49 -56 -28
20 67 67 120 210 234 115 91 274 258 395 413 71 92 100 122 115 120 11 -2 21
-11 23 -21z m189 -41 c21 -25 57 -55 80 -68 l42 -24 -121 -139 c-283 -327
-661 -667 -968 -872 -102 -67 -100 -66 -100 -50 0 13 25 49 123 175 19 24 27
47 27 73 0 44 0 45 -41 23 -46 -23 -48 -9 -5 35 24 24 44 37 55 34 10 -2 23 2
29 10 10 12 8 13 -15 9 l-26 -5 22 32 c24 34 48 37 43 5 -4 -23 476 452 587
581 43 50 103 125 135 168 65 88 67 88 133 13z m-8373 -108 c23 -33 21 -88 -3
-88 -40 0 -91 70 -91 126 l0 24 39 -20 c22 -11 47 -30 55 -42z m7516 -125 c13
-74 7 -140 -20 -217 -17 -49 -18 -51 -54 -50 -21 1 -43 7 -49 14 -10 10 -8 12
5 7 27 -10 47 40 63 156 23 178 36 199 55 90z m-261 -285 c1 -98 -16 -199 -30
-177 -24 38 -21 146 8 284 l6 30 8 -25 c4 -14 7 -64 8 -112z m-2555 -158 c-13
-115 -10 -154 10 -185 l19 -28 13 24 c17 31 17 78 -1 159 -26 117 -19 143 29
124 31 -12 40 -49 46 -175 4 -106 8 -130 24 -148 11 -12 27 -21 36 -21 35 0
39 55 10 132 -28 73 -27 108 3 108 13 0 38 -11 57 -25 18 -13 36 -22 41 -20
13 8 22 -103 16 -189 -8 -105 -28 -178 -78 -286 -40 -87 -41 -89 -24 -117 32
-54 100 -85 232 -108 l42 -7 10 39 c5 21 14 78 21 126 6 48 15 100 21 114 11
30 8 36 -14 27 -23 -9 -46 -75 -53 -157 -4 -39 -11 -78 -17 -85 -15 -19 -69
-7 -142 31 -33 18 -61 33 -63 33 -2 1 13 30 32 65 59 110 96 275 96 437 0 50
1 52 21 42 25 -14 58 -84 59 -124 0 -46 21 -103 46 -127 45 -42 62 7 28 81
-21 45 -33 120 -20 120 3 0 16 -4 30 -10 34 -12 52 -50 65 -139 6 -40 18 -85
25 -99 l13 -25 21 21 c20 20 20 23 6 82 -15 66 -13 80 15 80 32 0 52 -36 62
-109 10 -83 23 -114 47 -109 14 3 18 17 20 76 3 64 5 72 22 72 17 0 20 -7 20
-42 0 -55 32 -119 71 -142 l31 -19 -5 34 c-3 19 -11 53 -18 77 -12 37 -11 44
3 59 14 14 21 14 47 4 37 -16 44 -32 35 -97 -7 -56 -3 -61 51 -79 18 -6 32
-19 36 -35 6 -23 7 -23 14 -6 5 12 2 43 -8 79 -18 68 -16 77 18 77 30 0 37
-19 40 -114 2 -64 6 -82 21 -93 31 -23 39 -9 42 70 2 58 6 77 17 77 28 0 43
-31 50 -103 4 -41 11 -80 16 -88 15 -24 29 9 29 71 0 105 27 153 71 130 24
-13 24 -21 -1 -70 -24 -46 -25 -73 -5 -90 25 -21 54 -3 60 38 12 75 15 82 35
82 14 0 20 -7 20 -23 0 -13 5 -28 10 -33 17 -17 -58 -104 -121 -141 -30 -18
-119 -56 -199 -86 -157 -58 -213 -84 -275 -128 -48 -33 -112 -46 -270 -55
-136 -7 -250 -26 -293 -48 -31 -16 -92 -80 -92 -96 0 -6 -58 -10 -144 -10
l-144 0 -6 58 c-3 31 -8 307 -11 612 l-6 555 22 -25 c20 -23 21 -31 13 -100z
m-4009 -233 c389 -256 563 -351 1043 -571 138 -63 271 -125 296 -138 l45 -23
-45 -66 c-24 -37 -73 -96 -109 -132 l-65 -66 -83 38 c-325 150 -712 344 -905
454 -196 113 -475 300 -569 384 l-43 38 36 72 c20 39 61 100 92 133 54 60 56
61 71 42 9 -11 115 -85 236 -165z m527 12 l31 -30 -7 -97 c-4 -53 -9 -98 -11
-101 -10 -10 -45 34 -55 68 -14 49 -13 191 1 191 6 0 24 -14 41 -31z m5608
-244 c7 -8 16 -13 20 -10 15 10 45 -25 60 -70 24 -75 35 -77 140 -22 72 37
100 47 139 47 44 0 49 -2 44 -20 -6 -21 -31 -44 -93 -83 -19 -13 -41 -34 -48
-49 -9 -20 -36 -35 -115 -67 -56 -23 -179 -82 -272 -132 -370 -198 -516 -266
-660 -313 -79 -25 -239 -66 -261 -66 -6 0 -35 46 -64 103 -28 56 -57 108 -62
114 -6 7 -8 19 -5 26 7 18 240 136 367 185 461 178 625 253 725 332 56 43 67
47 85 25z m-4620 -393 c0 -64 0 -65 -20 -47 -19 17 -40 72 -40 106 0 12 7 14
30 11 30 -4 30 -5 30 -70z m3320 -180 c30 -30 44 -58 74 -149 20 -62 36 -117
36 -122 0 -6 -51 -26 -112 -45 -421 -131 -888 -206 -1380 -223 l-187 -6 -12
29 c-13 36 -13 170 1 243 5 29 10 55 10 56 0 1 73 5 163 8 383 16 925 111
1257 220 41 14 83 25 94 26 10 1 35 -16 56 -37z m-3231 13 c60 -9 219 -38 353
-66 573 -118 647 -129 953 -136 160 -4 242 -9 247 -17 14 -21 8 -91 -17 -194
-14 -57 -25 -112 -25 -123 0 -18 -8 -19 -158 -19 -248 0 -467 30 -907 125
-137 30 -309 65 -381 78 -180 33 -314 97 -314 150 0 49 97 217 125 217 8 0 64
-7 124 -15z"/>
<path d="M7131 12004 c-47 -20 -30 -33 50 -40 55 -5 68 -3 89 14 l24 20 -29 5
c-80 15 -102 15 -134 1z"/>
<path d="M6872 11968 c-36 -8 -43 -13 -40 -30 5 -37 30 -43 111 -30 41 7 87
10 101 6 33 -8 36 16 6 46 -22 22 -99 26 -178 8z"/>
<path d="M5155 11844 c-15 -15 -12 -19 42 -50 62 -36 94 -42 111 -21 9 10 7
19 -4 35 -33 48 -117 68 -149 36z"/>
<path d="M5030 11775 c0 -36 25 -80 58 -104 35 -24 42 -19 42 27 0 25 -9 43
-34 68 -41 41 -66 44 -66 9z"/>
<path d="M4788 11704 c-25 -8 -22 -41 5 -58 12 -7 46 -16 75 -18 59 -6 66 5
30 47 -23 26 -74 39 -110 29z"/>
<path d="M9365 11363 c33 -81 81 -121 128 -109 15 3 27 13 27 20 0 36 -77 99
-148 121 -23 7 -23 7 -7 -32z"/>
<path d="M9161 11359 c25 -38 103 -81 156 -86 l48 -5 -40 31 c-22 17 -52 40
-66 52 -14 11 -46 23 -70 26 l-44 6 16 -24z"/>
<path d="M6738 11212 c-37 -50 -88 -143 -88 -162 0 -5 7 -10 16 -10 66 0 151
131 129 199 -9 30 -16 27 -57 -27z"/>
<path d="M6994 11068 c-77 -79 -133 -148 -119 -148 3 0 32 18 63 39 83 57 152
135 152 173 0 10 -3 18 -8 18 -4 0 -44 -37 -88 -82z"/>
<path d="M7158 10762 c-52 -80 -87 -161 -101 -232 -7 -33 -22 -69 -32 -79 -11
-11 -55 -33 -97 -51 -49 -20 -87 -43 -104 -63 l-27 -32 30 -3 c41 -4 117 26
197 79 l66 43 0 71 c0 69 1 71 60 158 61 90 77 125 66 152 -9 25 -19 17 -58
-43z"/>
<path d="M5100 10798 c0 -7 51 -102 61 -114 6 -8 15 -14 20 -14 13 0 11 61 -2
99 -9 27 -16 31 -45 31 -19 0 -34 -1 -34 -2z"/>
<path d="M4821 10458 c-5 -18 -26 -98 -45 -178 -19 -80 -44 -168 -55 -197 -18
-47 -19 -52 -3 -46 79 29 121 113 154 311 l24 142 -32 0 c-28 0 -34 -5 -43
-32z"/>
<path d="M4344 10125 c-20 -30 -20 -34 -6 -49 24 -24 18 -107 -16 -213 -16
-51 -28 -93 -26 -93 2 0 13 9 25 21 11 11 26 18 32 16 18 -6 10 -61 -28 -180
-54 -167 -43 -175 23 -17 72 170 86 225 87 330 0 95 -16 152 -56 202 -13 15
-16 14 -35 -17z"/>
<path d="M7045 10104 c-139 -72 -240 -337 -176 -462 24 -46 46 -67 96 -88 39
-16 40 -16 24 2 -110 125 -73 347 87 523 30 34 33 41 18 41 -11 0 -32 -7 -49
-16z"/>
<path d="M7266 9973 c-49 -98 -45 -264 9 -323 19 -20 68 -35 85 -25 11 7 -20
74 -44 94 -20 17 -21 94 -1 175 15 63 7 106 -19 106 -9 0 -22 -12 -30 -27z"/>
<path d="M5066 9895 c-4 -14 -37 -56 -75 -93 -78 -76 -111 -125 -111 -165 0
-26 2 -27 23 -16 12 7 48 37 81 68 94 90 140 189 102 220 -11 9 -15 6 -20 -14z"/>
<path d="M5430 9627 c0 -123 14 -156 26 -61 8 64 -1 153 -16 168 -7 7 -10 -27
-10 -107z"/>
<path d="M6545 9220 c-3 -5 -28 -21 -55 -36 -27 -15 -52 -36 -56 -46 -17 -56
127 -106 170 -59 17 19 17 20 -6 23 -20 3 -23 9 -24 53 -1 28 -2 56 -3 63 -1
14 -17 16 -26 2z"/>
<path d="M3853 9173 c3 -21 15 -60 27 -86 18 -40 24 -46 36 -36 8 7 14 30 14
56 0 36 -6 50 -29 74 -41 40 -55 38 -48 -8z"/>
<path d="M3935 11270 c-4 -12 -29 -50 -56 -86 -94 -125 -88 -136 19 -35 74 72
89 105 58 130 -11 10 -16 8 -21 -9z"/>
<path d="M7989 11224 c-92 -124 -99 -137 -99 -169 0 -19 8 -39 19 -49 18 -17
20 -15 45 36 14 29 40 77 57 106 54 91 37 154 -22 76z"/>
<path d="M8310 11002 c-203 -91 -309 -196 -310 -307 l0 -40 18 30 c30 49 105
118 209 193 93 67 198 162 178 162 -6 0 -48 -17 -95 -38z"/>
<path d="M9002 10908 c-105 -10 -155 -26 -172 -57 -12 -23 -8 -26 19 -11 10 5
57 14 106 20 86 11 145 31 145 50 0 6 -1 9 -2 9 -2 -1 -45 -6 -96 -11z"/>
<path d="M8600 10794 c-273 -80 -454 -251 -468 -442 -6 -84 16 -166 55 -208
l27 -29 7 25 c4 14 8 86 8 160 1 138 20 264 43 286 24 23 210 117 347 175 109
47 129 59 101 58 -19 0 -73 -11 -120 -25z"/>
<path d="M9209 10660 l-11 -30 -96 0 c-313 -1 -554 -95 -661 -256 -37 -57 -65
-137 -57 -167 6 -25 77 -107 92 -107 5 0 9 44 9 98 0 71 5 109 18 141 50 122
160 198 335 232 61 11 312 8 357 -6 17 -5 24 4 43 49 13 30 21 60 17 65 -12
21 -36 11 -46 -19z"/>
<path d="M8851 10307 c-6 -16 -11 -90 -11 -165 l0 -137 78 -33 c73 -31 130
-40 166 -26 30 11 16 22 -73 59 -49 21 -104 50 -123 65 l-33 28 18 85 c21 102
21 108 3 133 -14 18 -15 18 -25 -9z"/>
<path d="M8919 10218 c-12 -58 -8 -73 30 -110 36 -34 68 -51 59 -30 -34 75
-85 156 -89 140z"/>
<path d="M8183 9994 c-12 -28 -17 -66 -18 -134 0 -92 1 -98 43 -183 69 -140
190 -246 303 -263 l44 -7 -35 38 c-19 20 -78 72 -130 115 -52 43 -108 92 -124
108 l-29 31 6 115 c6 122 -2 179 -27 204 -14 14 -17 12 -33 -24z"/>
<path d="M8567 9891 c-15 -27 -30 -70 -34 -96 l-6 -47 74 -75 c71 -72 122
-107 181 -124 22 -6 28 -4 28 8 0 29 -49 81 -126 134 -105 73 -113 94 -69 176
18 35 22 50 13 60 -19 23 -34 14 -61 -36z"/>
<path d="M9130 9909 c0 -51 30 -85 113 -125 81 -39 77 -38 77 -20 0 24 -49 75
-114 118 -33 23 -64 46 -68 52 -4 6 -8 -5 -8 -25z"/>
<path d="M7874 9755 c14 -200 57 -337 118 -375 33 -20 88 -27 88 -12 0 5 -23
35 -50 66 -70 80 -81 105 -91 220 -11 118 -22 157 -51 182 l-21 19 7 -100z"/>
<path d="M8860 9597 c0 -7 6 -21 13 -31 12 -17 19 -17 84 -6 39 7 78 10 86 7
8 -3 18 -25 22 -49 15 -89 73 -161 162 -199 54 -23 53 -23 53 -1 -1 24 -18 43
-75 82 -73 49 -76 55 -73 135 l3 70 -137 3 c-110 2 -138 0 -138 -11z"/>
<path d="M8620 9085 c0 -87 63 -157 235 -265 60 -38 111 -68 113 -66 10 11
-27 56 -72 88 -29 21 -59 50 -65 66 -9 22 -22 30 -54 38 -39 8 -45 14 -77 75
-56 107 -80 126 -80 64z"/>
<path d="M8156 8960 c32 -58 66 -89 202 -180 50 -34 105 -78 121 -97 16 -19
59 -107 96 -194 51 -121 78 -171 111 -208 71 -79 78 -140 39 -365 -39 -229
-32 -297 22 -199 42 75 64 186 70 355 l6 157 -48 53 c-96 107 -185 263 -225
396 -16 53 -27 72 -39 72 -29 0 -110 58 -195 139 -79 75 -114 100 -165 116
l-23 7 28 -52z"/>
<path d="M7929 8643 c10 -21 66 -83 124 -138 57 -55 113 -118 124 -139 l20
-39 7 27 c10 41 -18 125 -59 177 -50 65 -140 127 -208 143 l-28 7 20 -38z"/>
<path d="M9104 8208 c97 -179 118 -433 52 -631 l-23 -67 25 22 c36 35 69 105
86 191 34 162 8 343 -66 459 -25 40 -80 88 -101 88 -4 0 9 -28 27 -62z"/>
<path d="M7918 8033 c-34 -5 -36 -15 -5 -28 18 -8 22 -18 22 -58 0 -45 2 -50
33 -62 17 -8 32 -17 32 -20 0 -3 5 -38 11 -76 13 -86 -1 -205 -38 -323 -25
-81 -98 -237 -135 -288 -22 -32 -18 -34 20 -14 30 16 80 67 105 108 45 72 97
256 117 410 12 97 8 120 -28 193 -23 47 -100 167 -105 164 -1 -1 -14 -4 -29
-6z"/>
<path d="M8310 7967 c0 -13 18 -53 39 -88 57 -94 59 -119 21 -236 -26 -81 -29
-103 -21 -126 15 -40 32 -29 59 36 62 156 27 373 -69 422 -28 15 -29 15 -29
-8z"/>
<path d="M8694 7308 c3 -17 22 -68 42 -112 61 -138 59 -130 46 -194 -20 -95
-16 -155 11 -180 40 -38 44 -29 39 77 -3 71 0 120 12 174 l17 76 -81 96 c-45
52 -84 95 -87 95 -3 0 -3 -14 1 -32z"/>
<path d="M9225 6919 c11 -35 7 -115 -8 -150 -8 -19 -40 -74 -71 -123 -31 -50
-56 -99 -56 -110 1 -24 36 -69 67 -85 33 -17 34 -14 11 30 -19 38 -20 46 -9
87 6 25 32 78 56 116 81 130 88 166 44 228 -24 33 -43 37 -34 7z"/>
<path d="M8790 6745 c0 -63 -45 -126 -168 -235 -119 -106 -152 -167 -130 -244
l11 -41 12 52 c17 74 53 123 143 195 135 110 173 163 176 247 1 41 -2 46 -21
49 -19 3 -23 -1 -23 -23z"/>
<path d="M8140 6405 c-13 -39 -16 -108 -5 -125 5 -8 10 -8 21 1 17 14 19 90 2
107 -10 10 -10 17 0 32 7 11 8 20 3 20 -5 0 -15 -16 -21 -35z"/>
<path d="M10386 10564 c-18 -17 -21 -34 -6 -34 5 0 34 -20 63 -44 66 -54 108
-76 142 -76 20 0 25 5 25 24 0 34 -23 49 -69 44 -36 -3 -40 -1 -50 29 -12 33
-54 73 -77 73 -7 0 -20 -7 -28 -16z"/>
<path d="M1845 9383 c-70 -13 -69 -12 -20 -38 74 -40 139 -27 88 17 -23 19
-43 25 -68 21z"/>
<path d="M2157 8963 c-3 -2 2 -25 10 -49 16 -47 39 -68 86 -79 24 -7 27 -5 27
19 0 35 -24 82 -47 91 -36 14 -72 23 -76 18z"/>
<path d="M3235 8267 c-2 -7 -8 -27 -14 -44 l-10 -33 60 0 c59 0 65 4 53 35 -9
22 -84 58 -89 42z"/>
<path d="M2782 8189 c42 -49 203 -201 253 -239 19 -15 19 -15 0 10 -57 73
-127 147 -198 207 -99 85 -114 91 -55 22z"/>
<path d="M3385 7954 c-16 -8 -40 -26 -53 -40 -50 -53 -102 -68 -102 -29 0 8
-9 15 -21 15 -20 0 -20 -1 -2 -31 39 -67 94 -99 281 -163 144 -49 186 -68 219
-99 22 -19 22 -22 6 -39 -32 -36 31 -15 74 25 22 20 23 20 3 34 -11 8 -68 32
-126 54 -175 66 -202 85 -159 113 27 18 35 66 11 66 -7 0 -35 -9 -61 -21 -66
-29 -79 -14 -38 45 17 24 34 53 38 65 5 17 2 21 -17 21 -13 0 -36 -7 -53 -16z"/>
<path d="M3227 7733 c-4 -3 21 -22 56 -41 34 -19 125 -76 202 -127 78 -52 181
-114 230 -138 85 -43 194 -82 202 -73 2 2 -10 21 -28 41 -24 27 -73 56 -178
107 -81 39 -189 101 -244 140 -53 38 -113 76 -132 84 -36 15 -97 19 -108 7z"/>
<path d="M2570 10314 c0 -21 33 -54 54 -54 33 0 64 25 49 40 -14 15 -103 26
-103 14z"/>
<path d="M2450 10141 c-12 -24 -13 -118 -1 -125 31 -20 78 55 62 98 -6 13 -19
30 -30 36 -16 8 -22 7 -31 -9z"/>
<path d="M2330 9965 c0 -37 3 -45 18 -45 41 0 59 60 23 80 -34 18 -41 11 -41
-35z"/>
<path d="M10065 10023 c0 -63 -3 -73 -42 -132 -40 -60 -63 -124 -49 -138 12
-12 94 79 126 139 43 79 45 141 6 175 -15 12 -30 23 -34 23 -4 0 -7 -30 -7
-67z"/>
<path d="M10417 9913 c37 -72 29 -176 -26 -346 -43 -133 -62 -237 -43 -237 16
0 70 90 107 179 56 132 78 271 55 352 -12 41 -54 85 -92 94 l-26 7 25 -49z"/>
<path d="M10003 9405 c-89 -53 -143 -193 -143 -365 l1 -55 28 32 c22 23 33 52
46 110 27 131 35 152 81 220 62 90 59 101 -13 58z"/>
<path d="M10798 9257 c5 -64 -11 -106 -71 -185 -74 -96 -83 -132 -48 -185 l18
-28 18 48 c10 26 40 93 67 147 37 77 48 110 48 148 0 40 -21 108 -34 108 -1 0
-1 -24 2 -53z"/>
<path d="M10260 8953 c0 -16 -7 -65 -16 -110 l-17 -82 42 -40 c45 -43 78 -46
67 -7 -4 11 -11 59 -17 106 -10 84 -34 160 -51 160 -4 0 -8 -12 -8 -27z"/>
<path d="M10205 8635 c-13 -102 0 -252 29 -340 45 -134 109 -230 292 -437 55
-62 111 -126 126 -142 l27 -31 -10 42 c-35 161 -85 241 -189 309 -86 55 -138
116 -194 226 -53 103 -61 148 -43 248 14 81 9 143 -16 167 -14 14 -16 10 -22
-42z"/>
<path d="M9864 8617 c-2 -7 9 -76 26 -152 32 -147 77 -262 107 -271 10 -3 35
-14 55 -24 46 -25 48 -25 48 3 -1 14 -13 29 -33 42 -51 32 -84 112 -114 273
l-27 142 -28 0 c-16 0 -31 -6 -34 -13z"/>
<path d="M10994 8602 c-49 -36 -89 -93 -114 -165 -29 -83 -28 -88 40 -123 33
-17 60 -28 60 -24 0 4 -7 24 -15 43 -8 20 -15 53 -15 74 0 38 37 126 80 191
27 39 15 41 -36 4z"/>
<path d="M10629 8584 c-21 -22 -24 -35 -24 -92 1 -45 7 -79 19 -102 20 -39 55
-80 68 -80 12 0 -14 258 -30 286 -7 12 -13 9 -33 -12z"/>
<path d="M9800 8251 c-22 -53 2 -121 42 -121 19 0 20 5 16 56 -3 37 -11 62
-25 75 l-20 20 -13 -30z"/>
<path d="M9876 8094 c-4 -14 -4 -52 0 -85 l7 -59 66 -35 c105 -56 192 -127
376 -309 l173 -171 11 -80 c6 -44 25 -136 41 -205 41 -169 45 -227 26 -335
-19 -109 -20 -201 -2 -234 16 -29 13 -37 52 134 19 83 28 150 28 215 1 88 -1
99 -31 157 -32 61 -33 65 -33 193 0 182 -15 215 -124 273 -42 22 -111 81 -224
190 -143 137 -173 162 -242 195 -78 37 -79 37 -80 75 0 34 -23 107 -33 107 -3
0 -8 -12 -11 -26z"/>
<path d="M10990 7795 c0 -57 16 -101 45 -125 22 -18 35 1 35 51 0 36 -50 129
-70 129 -6 0 -10 -24 -10 -55z"/>
<path d="M9840 7670 c0 -15 42 -39 97 -55 35 -10 58 -25 76 -48 14 -18 62 -75
107 -127 106 -122 156 -200 181 -280 26 -81 28 -200 5 -293 -18 -76 -21 -144
-6 -167 14 -23 47 67 61 167 11 83 9 184 -8 366 -6 66 -7 69 -49 97 -23 17
-84 81 -135 142 -112 136 -142 164 -194 189 -42 20 -135 26 -135 9z"/>
<path d="M10834 7498 c3 -13 8 -54 11 -93 4 -38 24 -164 45 -280 44 -239 61
-403 51 -490 -9 -71 -32 -123 -133 -305 -42 -74 -88 -159 -103 -189 l-27 -54
41 32 c200 159 290 425 262 779 -17 213 -93 594 -122 613 -23 14 -30 10 -25
-13z"/>
<path d="M9800 7451 c0 -13 53 -66 111 -110 55 -43 107 -108 119 -152 14 -49
12 -148 -6 -260 -21 -132 -17 -146 24 -90 48 66 65 136 60 245 -3 80 -8 101
-39 166 -40 84 -99 149 -162 179 -54 25 -107 36 -107 22z"/>
<path d="M9798 6991 c2 -22 -8 -73 -27 -130 -17 -52 -31 -102 -31 -111 0 -17
27 -47 34 -39 21 25 89 153 97 183 14 53 6 76 -39 107 l-37 27 3 -37z"/>
<path d="M9982 6683 c-7 -27 -31 -78 -54 -116 -46 -76 -67 -129 -68 -169 0
-23 -5 -28 -24 -28 -29 0 -66 -42 -66 -75 0 -12 9 -30 19 -39 19 -17 20 -17
40 21 11 22 50 77 87 124 103 130 146 249 110 304 -9 14 -20 25 -24 25 -4 0
-14 -21 -20 -47z"/>
<path d="M10171 6460 c-121 -136 -155 -224 -117 -299 16 -29 44 -57 51 -49 2
2 11 47 19 99 18 116 24 133 73 189 63 73 73 91 62 112 -5 10 -13 18 -18 18
-4 0 -36 -31 -70 -70z"/>
<path d="M10465 6078 c-84 -46 -137 -159 -109 -233 6 -13 53 -45 68 -45 3 0 3
28 0 63 -5 57 -3 68 32 137 21 41 40 78 42 83 5 10 -10 8 -33 -5z"/>
<path d="M10951 5929 c-49 -66 -75 -144 -75 -225 -1 -61 3 -76 27 -112 15 -23
45 -51 67 -62 l40 -20 0 24 c0 17 -12 34 -37 53 -21 15 -42 32 -46 38 -13 16
2 84 34 159 33 77 48 169 31 180 -7 4 -24 -11 -41 -35z"/>
<path d="M6220 10459 c0 -6 -23 -49 -51 -95 -38 -61 -53 -96 -56 -131 l-4 -48
28 50 c16 28 42 70 58 95 26 41 48 140 31 140 -3 0 -6 -5 -6 -11z"/>
<path d="M2840 9607 c0 -2 8 -28 17 -58 25 -79 25 -294 -1 -369 -29 -87 -72
-154 -132 -209 -62 -57 -52 -66 31 -27 98 45 172 161 202 317 19 99 8 210 -28
297 -20 48 -24 52 -55 52 -19 0 -34 -1 -34 -3z"/>
<path d="M3150 9508 c0 -30 -14 -121 -31 -203 -28 -139 -32 -225 -10 -225 15
0 51 47 72 95 31 69 40 254 15 319 -9 25 -24 50 -32 56 -12 11 -14 4 -14 -42z"/>
<path d="M11381 9601 c-24 -15 32 -81 69 -81 27 0 28 2 20 28 -16 55 -22 62
-49 62 -14 0 -32 -4 -40 -9z"/>
<path d="M4490 8663 c0 -28 -72 -110 -142 -163 -43 -33 -82 -60 -86 -60 -4 0
-7 24 -7 52 0 60 -17 72 -60 44 -27 -18 -34 -60 -11 -69 7 -3 19 -29 26 -57
13 -54 35 -74 54 -48 6 8 37 32 69 52 32 21 63 48 69 61 6 14 15 22 20 19 20
-12 57 8 78 41 23 38 25 125 3 133 -7 2 -13 0 -13 -5z"/>
<path d="M4895 8403 c-31 -8 -38 -19 -26 -41 8 -15 8 -29 1 -48 -12 -31 -9
-37 13 -28 19 7 60 125 43 123 -6 -1 -20 -3 -31 -6z"/>
<path d="M4770 8265 c0 -9 7 -18 15 -21 32 -13 12 -23 -47 -26 l-63 -4 33 -13
c23 -10 32 -19 32 -37 0 -33 -27 -31 -78 6 -68 49 -97 38 -41 -16 26 -25 38
-29 89 -29 63 0 96 20 126 77 15 30 19 62 5 54 -4 -3 -17 1 -27 9 -25 19 -44
19 -44 0z"/>
<path d="M11546 8538 c-20 -72 -34 -192 -25 -217 12 -34 35 -46 56 -29 15 12
15 38 -2 129 -7 34 -5 38 21 50 40 20 42 44 5 63 -36 19 -51 20 -55 4z"/>
<path d="M11690 7905 c-36 -96 -52 -170 -48 -230 4 -72 11 -84 36 -69 28 18
44 61 58 163 7 53 16 106 19 117 5 18 1 23 -25 32 -28 10 -32 9 -40 -13z"/>
<path d="M11780 7362 c-69 -71 -98 -179 -101 -376 -1 -103 -1 -103 33 -148 19
-24 71 -109 115 -189 45 -79 98 -162 117 -184 l36 -40 -20 45 c-11 25 -20 62
-20 84 0 32 -8 47 -49 92 -89 98 -126 207 -125 374 1 117 13 186 54 308 17 49
24 82 17 82 -6 0 -31 -22 -57 -48z"/>
<path d="M11561 6577 c-80 -165 -33 -380 95 -433 18 -8 36 -14 39 -14 14 0 0
38 -50 141 -61 123 -67 161 -39 242 29 87 -8 140 -45 64z"/>
<path d="M11508 5978 c-7 -24 -13 -94 -13 -158 0 -100 3 -120 22 -157 42 -78
66 -70 38 13 -30 88 13 101 89 27 70 -68 102 -164 127 -384 7 -60 16 -106 20
-102 19 19 41 140 35 194 -11 114 -54 190 -198 356 -81 94 -87 103 -78 128 20
54 8 125 -22 125 -4 0 -13 -19 -20 -42z"/>
<path d="M12010 5892 c0 -17 48 -149 88 -242 22 -53 44 -108 47 -123 4 -15 12
-27 17 -27 7 0 9 28 6 78 -5 85 -26 135 -106 255 -44 66 -52 75 -52 59z"/>
<path d="M11745 5013 c-9 -27 -19 -88 -22 -138 -4 -79 -2 -94 16 -122 28 -45
39 -41 34 11 -4 29 3 78 17 137 21 86 22 93 7 125 -9 19 -21 34 -26 34 -5 0
-17 -21 -26 -47z"/>
<path d="M11390 4043 c0 -23 -5 -64 -12 -92 -12 -55 -7 -71 17 -51 17 14 21
145 5 170 -7 11 -10 4 -10 -27z"/>
<path d="M6925 7891 c-10 -48 11 -105 55 -145 37 -33 70 -47 70 -28 0 17 -28
110 -40 132 -18 35 -51 70 -66 70 -7 0 -15 -13 -19 -29z"/>
<path d="M6611 7532 c-133 -223 -161 -285 -161 -353 0 -22 7 -53 15 -70 15
-27 88 -89 106 -89 5 0 -7 32 -26 72 -47 96 -48 166 -6 224 15 22 40 48 55 57
14 10 26 23 26 30 0 6 16 46 35 87 25 54 31 78 23 87 -19 23 -32 14 -67 -45z"/>
<path d="M6207 7401 c-30 -94 -35 -141 -14 -141 32 0 52 41 55 113 2 40 0 81
-5 93 -6 17 -13 5 -36 -65z"/>
<path d="M6725 7345 c-14 -13 -25 -32 -25 -42 0 -10 -3 -28 -6 -40 -6 -20 -3
-23 25 -23 47 0 81 38 81 90 0 36 -2 40 -25 40 -14 0 -37 -11 -50 -25z"/>
<path d="M6101 7320 c0 -25 -8 -106 -17 -182 -14 -114 -15 -144 -4 -182 7 -25
18 -50 24 -55 21 -17 29 392 8 439 -10 23 -11 21 -11 -20z"/>
<path d="M7326 6505 c-6 -61 3 -105 22 -105 9 0 15 117 7 148 -10 41 -22 23
-29 -43z"/>
<path d="M12236 8014 c-10 -25 -7 -73 5 -97 14 -27 60 -77 71 -77 4 0 8 38 8
84 l0 84 -31 11 c-42 14 -46 14 -53 -5z"/>
<path d="M2416 7448 c-16 -111 -46 -446 -46 -513 0 -85 20 -186 46 -236 8 -17
17 -29 19 -27 2 2 -3 50 -11 107 -19 123 -15 148 24 153 l27 3 -2 125 c0 69
-5 190 -10 270 -7 124 -10 145 -25 148 -12 2 -18 -6 -22 -30z"/>
<path d="M2907 7138 c22 -518 33 -638 67 -768 15 -57 33 -110 38 -110 2 0 3
35 3 78 0 81 24 165 51 180 13 7 11 25 -16 123 -38 139 -47 253 -27 327 l14
53 -37 57 c-36 54 -83 112 -91 112 -2 0 -3 -24 -2 -52z"/>
<path d="M3121 6891 c-19 -161 -25 -431 -13 -568 11 -123 32 -194 64 -221 13
-10 16 1 22 95 4 60 14 171 23 248 23 199 21 413 -3 490 -18 55 -22 60 -50 61
l-31 1 -12 -106z"/>
<path d="M3341 6548 c-41 -295 -39 -478 7 -563 l17 -30 5 86 c3 55 11 94 22
111 15 22 16 40 8 149 -5 68 -10 171 -10 229 0 109 -8 180 -19 180 -4 0 -17
-73 -30 -162z"/>
<path d="M2350 6518 c1 -115 75 -638 91 -638 14 0 31 66 36 140 3 52 -2 110
-17 190 -11 63 -26 156 -33 207 -10 81 -14 93 -35 102 -30 14 -42 14 -42 -1z"/>
<path d="M2715 6355 c54 -244 76 -415 78 -602 1 -79 5 -143 8 -143 14 0 69
140 80 203 14 82 1 208 -32 307 -24 74 -89 204 -119 240 l-22 25 7 -30z"/>
<path d="M2154 6335 c3 -11 10 -54 16 -95 6 -41 16 -89 21 -107 13 -41 46 -83
66 -83 25 0 13 114 -19 180 -30 61 -93 139 -84 105z"/>
<path d="M3135 5668 c-1 -124 -3 -132 -100 -345 -37 -82 -48 -117 -52 -176 -7
-93 16 -182 52 -199 52 -23 145 20 145 68 0 13 -4 24 -10 24 -5 0 -10 -4 -10
-10 0 -21 -41 -32 -71 -19 -65 26 -62 79 18 314 61 180 83 278 83 369 0 58 -2
64 -25 74 -14 7 -27 12 -28 12 -1 0 -2 -51 -2 -112z"/>
<path d="M2416 5718 c-1 -7 -10 -44 -19 -83 -10 -43 -51 -140 -106 -250 -107
-217 -121 -260 -121 -381 l0 -92 33 -20 c17 -11 64 -29 102 -41 98 -29 111
-40 117 -100 7 -71 40 -113 175 -222 70 -56 127 -110 142 -136 14 -23 29 -43
34 -43 4 0 7 25 7 55 0 47 -4 59 -31 90 -18 20 -72 63 -120 96 -99 68 -128
106 -144 189 -11 53 -13 56 -66 84 -30 15 -78 42 -106 59 l-53 31 0 86 c0 114
18 177 99 350 82 173 91 201 94 276 2 49 -1 59 -16 62 -9 2 -19 -2 -21 -10z"/>
<path d="M2671 5494 c-7 -20 -48 -73 -90 -118 -95 -100 -100 -107 -111 -145
-8 -29 -4 -37 82 -139 50 -59 197 -213 328 -342 l237 -235 17 -77 c19 -83 42
-124 64 -109 11 7 11 18 -2 62 -9 29 -19 90 -22 134 l-7 81 -44 24 c-26 14
-94 76 -166 153 -108 115 -129 132 -199 165 -76 36 -77 38 -78 75 0 33 -8 46
-75 112 -41 41 -75 81 -75 90 0 9 27 41 61 72 82 76 117 148 101 207 l-7 27
-14 -37z"/>
<path d="M3337 5405 c-51 -69 -103 -174 -118 -239 -10 -48 -10 -58 7 -92 12
-24 32 -46 54 -56 49 -25 57 -11 36 59 -43 143 -44 128 13 242 61 120 65 162
8 86z"/>
<path d="M2236 4533 c-9 -18 -16 -48 -16 -68 0 -49 51 -97 170 -160 117 -62
164 -106 155 -144 -14 -56 -53 -108 -127 -170 -43 -35 -76 -66 -74 -68 7 -8
90 18 141 44 87 43 126 93 127 162 1 65 -25 96 -165 200 -137 101 -162 128
-182 196 l-12 40 -17 -32z"/>
<path d="M2786 4264 c-11 -83 -6 -216 10 -273 l15 -56 -64 -120 c-90 -167
-139 -220 -229 -246 -32 -9 -34 -2 -17 66 12 46 6 95 -11 95 -6 0 -10 -9 -10
-20 0 -12 -9 -38 -20 -60 -11 -22 -20 -55 -20 -73 0 -32 -3 -35 -38 -41 -48
-7 -103 -43 -120 -78 -6 -14 -15 -47 -18 -72 l-7 -46 57 0 c93 0 124 29 65 62
-24 14 -30 24 -27 45 3 25 11 30 133 68 239 76 287 117 334 285 11 41 34 94
51 118 30 42 30 43 14 75 -11 20 -20 73 -25 146 -6 88 -12 120 -26 139 -30 40
-40 37 -47 -14z"/>
<path d="M3086 3866 c11 -44 -15 -166 -49 -230 -44 -82 -112 -153 -252 -264
-249 -197 -267 -231 -200 -381 29 -64 64 -101 96 -101 23 0 24 8 5 29 -7 9
-25 53 -40 99 l-27 83 42 50 c23 28 117 117 208 198 92 81 186 171 209 198
l42 51 6 127 c5 111 3 129 -12 146 -23 26 -36 24 -28 -5z"/>
<path d="M2963 3163 c-4 -10 -21 -40 -39 -68 -74 -113 -61 -132 149 -221 89
-37 117 -58 117 -86 0 -11 -18 -56 -40 -100 -42 -84 -46 -103 -30 -128 7 -12
12 -11 30 5 33 30 56 82 83 188 l24 95 -153 77 c-92 46 -154 83 -154 92 0 8
14 40 32 72 32 58 33 91 3 91 -9 0 -19 -8 -22 -17z"/>
<path d="M1802 5918 c-7 -29 -15 -80 -18 -113 -3 -33 -14 -71 -23 -85 -47 -67
-64 -127 -49 -170 14 -40 36 -46 49 -12 60 155 73 208 73 309 1 120 -14 153
-32 71z"/>
<path d="M4270 6523 c-6 -21 -13 -56 -16 -79 -6 -40 -6 -41 56 -87 34 -26 66
-47 71 -47 15 0 31 52 24 78 -3 13 -19 36 -34 50 -16 15 -43 49 -59 75 l-31
49 -11 -39z"/>
<path d="M3767 6530 c-15 -37 -37 -274 -37 -386 0 -124 18 -247 45 -309 13
-28 13 -26 14 48 1 43 -4 87 -9 98 -9 16 -7 19 13 19 14 0 29 6 34 13 11 14
-2 310 -18 407 -12 77 -34 132 -42 110z"/>
<path d="M3900 6295 c1 -290 19 -441 69 -569 6 -16 13 -27 15 -25 3 2 -2 58
-11 124 -12 96 -13 129 -3 164 13 50 22 45 40 -22 15 -57 44 -97 71 -97 18 0
20 -5 34 -73 2 -10 0 -45 -5 -78 -5 -38 -5 -71 1 -87 9 -24 36 -51 52 -52 4 0
6 78 5 173 -2 122 1 178 9 192 11 18 12 16 13 -20 0 -25 13 -67 36 -112 24
-49 40 -101 50 -163 8 -50 19 -101 24 -115 10 -26 45 -65 58 -65 5 0 0 66 -10
148 -9 81 -21 218 -24 304 l-7 157 31 49 c18 27 32 58 32 68 0 21 -17 44 -33
44 -17 0 -47 -90 -62 -190 -31 -209 -45 -144 -22 103 7 71 9 131 5 133 -14 9
-46 -15 -68 -52 -16 -26 -26 -32 -34 -24 -8 8 -6 24 7 59 29 83 20 102 -25 54
-33 -37 -45 -70 -63 -177 -9 -49 -19 -95 -24 -104 -12 -21 -31 142 -31 262 0
95 0 97 -22 94 -17 -2 -27 -14 -37 -48 l-15 -45 -11 63 c-7 35 -19 71 -28 80
-16 15 -17 5 -17 -153z"/>
<path d="M5226 6220 c-15 -51 -18 -455 -7 -735 10 -225 10 -309 1 -372 -11
-71 -10 -85 5 -116 9 -20 23 -42 32 -48 13 -11 13 -4 6 52 -10 83 -10 395 1
724 9 251 2 400 -23 490 l-7 30 -8 -25z"/>
<path d="M5085 6087 c-9 -102 -21 -169 -39 -208 -14 -34 -14 -33 -15 47 -1
126 -33 148 -76 53 l-19 -41 -21 26 -21 27 -15 -168 c-27 -315 -14 -471 48
-584 46 -85 53 -59 28 96 -27 166 -15 365 23 365 5 0 10 -41 10 -91 1 -50 6
-107 13 -127 13 -42 38 -74 50 -66 5 3 6 59 2 124 -5 102 -4 123 11 144 25 39
34 31 25 -22 -4 -27 -6 -180 -4 -340 3 -284 4 -292 27 -334 15 -29 31 -44 47
-46 22 -3 23 -1 17 30 -20 108 -25 221 -26 543 0 198 -5 399 -10 445 -13 102
-31 189 -41 195 -4 3 -10 -28 -14 -68z"/>
<path d="M4421 6049 c-17 -77 -14 -264 4 -333 19 -71 46 -136 75 -176 18 -26
19 -33 8 -79 -10 -45 -9 -54 5 -68 35 -36 40 -6 48 304 4 164 12 313 17 331 8
25 8 32 -2 32 -23 0 -33 -22 -41 -85 -7 -62 -18 -85 -40 -85 -8 0 -14 27 -19
80 -6 78 -21 130 -37 130 -4 0 -12 -23 -18 -51z"/>
<path d="M4646 5909 c-11 -110 -6 -311 9 -377 19 -78 54 -148 95 -187 25 -24
33 -27 40 -15 17 27 32 154 27 217 -6 57 -38 153 -51 153 -3 0 -5 -21 -3 -46
3 -60 -14 -66 -31 -13 -12 40 -12 43 12 68 14 14 30 39 35 54 15 38 13 108 -3
129 -11 15 -14 14 -28 -10 -9 -15 -26 -36 -37 -46 -20 -18 -20 -18 -26 6 -4
14 -5 47 -3 74 2 38 0 49 -13 52 -13 2 -17 -9 -23 -59z"/>
<path d="M4046 5353 c-10 -82 -45 -178 -134 -369 -123 -262 -158 -400 -150
-590 3 -79 5 -85 36 -116 l32 -33 0 60 c0 33 7 150 16 260 l16 200 68 111
c119 194 160 298 160 401 0 57 -17 133 -30 133 -4 0 -10 -25 -14 -57z"/>
<path d="M4222 5103 c-33 -81 -102 -277 -120 -338 -46 -153 -53 -195 -59 -326
-5 -120 -3 -145 15 -206 20 -63 97 -191 109 -179 14 13 -13 117 -49 188 l-40
79 12 102 c23 208 88 449 166 615 l43 92 -33 0 c-27 0 -36 -5 -44 -27z"/>
<path d="M4471 4848 c-5 -13 -23 -59 -41 -103 -55 -138 -64 -174 -64 -280 l-1
-100 73 -97 c40 -53 104 -147 142 -209 38 -62 72 -114 74 -116 10 -10 87 40
117 76 43 50 69 118 76 203 6 64 4 72 -31 140 -46 91 -61 171 -47 239 14 64
14 64 -5 48 -55 -46 -60 -139 -14 -279 55 -169 50 -252 -20 -307 -44 -36 -60
-39 -60 -12 0 37 -30 79 -120 165 -100 97 -118 126 -128 201 -10 80 1 142 53
296 25 72 43 137 41 144 -8 21 -36 15 -45 -9z"/>
<path d="M4974 4634 c-37 -76 -36 -163 4 -344 40 -177 46 -235 32 -311 -15
-82 -44 -136 -125 -240 -94 -118 -118 -169 -117 -244 1 -33 6 -76 12 -95 5
-19 10 -59 10 -89 0 -53 0 -54 -69 -120 -51 -48 -73 -77 -82 -109 -7 -23 -10
-45 -7 -48 4 -3 21 2 40 11 135 69 200 198 200 395 0 58 -5 124 -10 147 -10
41 -9 42 29 69 22 15 57 53 78 85 116 174 132 464 39 697 l-21 53 32 68 c35
77 37 93 15 115 -24 25 -30 20 -60 -40z"/>
<path d="M5274 4526 c-9 -22 3 -91 22 -127 11 -21 22 -29 42 -29 26 1 26 1 8
15 -13 10 -22 34 -27 71 -8 63 -33 101 -45 70z"/>
<path d="M4271 3971 c-14 -34 -21 -70 -21 -113 1 -105 46 -192 200 -383 l73
-90 -6 48 c-8 56 -26 93 -118 240 -80 128 -114 222 -107 298 3 27 4 49 3 49
-2 0 -12 -22 -24 -49z"/>
<path d="M5384 3941 c12 -18 -23 -100 -74 -177 -70 -103 -84 -141 -67 -190 15
-45 32 -54 35 -18 3 36 31 97 80 172 57 88 67 123 52 178 -7 24 -17 44 -22 44
-5 0 -7 -4 -4 -9z"/>
<path d="M3869 3834 c18 -19 58 -90 90 -158 43 -88 70 -132 100 -159 23 -20
45 -37 50 -37 10 0 -33 134 -69 215 -50 110 -115 175 -175 175 l-27 0 31 -36z"/>
<path d="M5272 3270 c-2 -44 1 -71 9 -75 31 -20 42 100 12 128 -17 14 -18 11
-21 -53z"/>
<path d="M4182 3178 c-20 -20 -14 -36 18 -43 69 -15 83 -77 59 -269 -11 -87
-10 -88 14 -115 13 -14 49 -61 80 -103 54 -74 102 -113 133 -106 10 2 -5 34
-52 108 -116 183 -119 192 -119 359 l0 143 -35 19 c-41 21 -81 24 -98 7z"/>
<path d="M5023 3083 c-43 -55 -78 -113 -92 -153 -7 -23 -34 -54 -77 -90 -109
-92 -183 -195 -184 -255 0 -28 39 -90 50 -79 5 5 16 38 25 74 9 36 21 81 26
101 7 27 16 39 34 43 14 4 42 21 63 40 20 18 45 35 54 39 10 3 24 21 31 39 8
18 35 67 61 108 26 41 49 92 53 112 3 21 10 38 15 38 5 0 6 5 3 10 -12 19 -32
10 -62 -27z"/>
<path d="M3870 2923 c-20 -53 -39 -209 -40 -316 0 -52 60 -115 178 -186 l89
-54 -5 -44 c-5 -49 3 -64 85 -161 50 -59 53 -65 53 -118 0 -31 -9 -109 -20
-174 -17 -97 -19 -127 -10 -161 11 -39 49 -89 68 -89 5 0 12 53 15 118 3 64
13 177 22 250 l17 134 -65 66 c-77 81 -89 101 -90 159 l0 45 -102 68 c-172
116 -213 189 -170 311 29 82 36 128 25 170 -6 21 -15 39 -20 39 -5 0 -18 -26
-30 -57z"/>
<path d="M3862 1803 c4 -46 10 -61 32 -80 15 -13 39 -23 53 -23 24 0 25 1 18
46 -9 63 -23 90 -52 103 -49 22 -56 16 -51 -46z"/>
<path d="M5160 1667 c0 -10 -9 -36 -20 -58 -15 -29 -18 -42 -10 -52 7 -6 21
-30 34 -52 16 -30 28 -40 46 -40 22 0 25 5 28 37 5 54 -15 114 -48 151 -23 25
-29 28 -30 14z"/>
<path d="M6196 6559 c32 -36 139 -89 281 -140 75 -27 138 -47 140 -46 5 5 -19
82 -30 95 -7 9 -25 11 -62 7 -61 -8 -112 5 -241 64 -104 47 -114 49 -88 20z"/>
<path d="M5586 5953 c-8 -8 -8 -146 0 -167 13 -35 24 0 24 79 0 77 -7 104 -24
88z"/>
<path d="M5718 5483 c-13 -40 -14 -92 -7 -460 l4 -213 27 -27 c15 -15 30 -24
34 -21 3 4 -5 66 -17 140 -19 112 -23 171 -23 375 -1 134 -2 243 -3 243 -1 0
-7 -17 -15 -37z"/>
<path d="M6448 4853 c-4 -83 2 -125 19 -130 19 -7 27 65 13 121 -21 83 -28 85
-32 9z"/>
<path d="M6125 4826 c-7 -37 10 -132 26 -142 6 -3 9 29 7 82 -3 93 -21 125
-33 60z"/>
<path d="M5716 4623 c-4 -38 -10 -91 -14 -120 -11 -69 -1 -86 94 -153 136 -97
137 -157 3 -294 -77 -79 -89 -98 -69 -111 14 -9 116 55 167 105 59 56 83 107
83 174 0 66 -18 91 -112 155 -35 24 -75 59 -87 77 -23 33 -23 38 -12 104 6 38
11 74 11 79 0 13 -36 51 -49 51 -4 0 -11 -30 -15 -67z"/>
<path d="M6089 4538 c10 -24 36 -79 56 -123 96 -206 107 -328 41 -470 -28 -63
-72 -106 -196 -198 -94 -70 -180 -145 -180 -158 0 -12 96 18 151 47 71 38 168
137 213 217 148 265 116 572 -75 708 l-29 20 19 -43z"/>
<path d="M6544 4218 c13 -130 -20 -312 -76 -422 -32 -65 -102 -158 -152 -204
-83 -76 -241 -164 -351 -196 -11 -3 7 -3 40 -1 33 2 87 14 120 25 274 94 476
372 491 674 3 55 2 121 -3 146 -8 42 -11 45 -42 48 l-33 3 6 -73z"/>
<path d="M6846 3973 c-4 -21 -20 -103 -38 -183 -17 -80 -36 -177 -42 -217
l-11 -72 -62 -31 c-80 -40 -167 -126 -243 -243 -33 -50 -60 -94 -60 -98 0 -4
-17 -13 -37 -19 -106 -34 -358 -166 -450 -234 -48 -36 -93 -100 -93 -132 0
-21 3 -22 32 -14 43 13 86 43 198 140 81 70 119 94 255 160 160 78 196 103
210 150 23 76 116 180 222 246 67 42 83 59 83 90 0 12 18 80 41 151 45 143 60
269 37 312 -21 39 -36 36 -42 -6z"/>
<path d="M7200 3895 c-1 -76 -16 -130 -70 -242 -75 -158 -76 -188 -3 -144 87
54 148 338 88 417 -13 17 -14 15 -15 -31z"/>
<path d="M7130 3126 c0 -9 -24 -44 -54 -79 -29 -35 -59 -74 -66 -86 -12 -23
-11 -23 14 -17 15 4 46 20 68 36 23 17 46 30 52 30 16 0 15 122 -1 127 -7 3
-13 -2 -13 -11z"/>
<path d="M6474 2859 c-10 -12 -111 -82 -224 -157 -302 -200 -390 -296 -420
-461 -13 -73 -4 -152 23 -206 11 -22 49 -70 84 -107 61 -62 66 -65 82 -50 10
10 26 23 37 30 15 10 16 14 5 19 -29 12 -101 86 -132 134 -32 50 -32 51 -16
85 10 20 17 60 17 95 0 139 73 221 336 373 72 42 153 95 179 118 53 47 105
113 105 135 0 21 -55 16 -76 -8z"/>
<path d="M6340 2272 c-78 -79 -110 -127 -110 -167 0 -26 14 -43 93 -112 112
-99 133 -116 175 -137 75 -38 9 62 -89 134 -37 28 -84 69 -104 91 l-37 41 82
84 c61 62 81 89 78 105 -2 12 -7 23 -13 24 -5 1 -39 -27 -75 -63z"/>
<path d="M6826 2053 c3 -48 12 -110 19 -138 13 -47 67 -126 78 -115 12 11 -34
246 -56 289 -38 74 -48 65 -41 -36z"/>
<path d="M6090 1796 c0 -54 7 -68 71 -156 l22 -30 -115 -112 c-133 -130 -151
-164 -128 -241 l13 -42 12 51 c18 78 44 114 125 171 41 29 94 70 118 90 l42
38 -14 52 c-7 28 -25 75 -38 105 -25 54 -82 128 -99 128 -5 0 -9 -24 -9 -54z"/>
<path d="M7134 1733 c-3 -10 -14 -35 -24 -55 -35 -65 -18 -91 29 -47 42 40 52
92 21 109 -17 9 -21 8 -26 -7z"/>
<path d="M7022 1520 c-6 -19 -13 -53 -14 -75 -5 -62 13 -295 22 -295 16 0 49
52 56 84 6 32 3 53 -34 231 -18 90 -18 90 -30 55z"/>
<path d="M6547 1421 c-3 -15 -31 -59 -61 -97 -91 -112 -91 -112 -45 -208 50
-105 88 -241 96 -340 6 -77 6 -78 21 -50 24 45 27 154 7 237 -17 71 -73 196
-102 229 -14 16 -11 22 31 70 53 61 86 122 86 161 0 36 -26 35 -33 -2z"/>
<path d="M7245 980 c-29 -57 -15 -163 28 -198 12 -10 16 -8 21 12 17 68 18
142 3 179 -19 45 -32 47 -52 7z"/>
<path d="M8883 5142 c-1 -31 -9 -100 -18 -152 -19 -109 -22 -227 -6 -243 8 -8
11 -6 11 9 0 10 16 56 36 101 38 85 39 111 4 120 -24 6 -24 0 -3 95 13 61 14
83 5 103 -18 39 -27 30 -29 -33z"/>
<path d="M9006 5095 c-3 -8 4 -31 15 -50 27 -44 20 -85 -33 -220 -41 -104 -63
-235 -39 -235 6 0 11 6 11 13 0 8 20 66 44 130 53 140 76 235 76 316 l0 61
-34 0 c-21 0 -36 -6 -40 -15z"/>
<path d="M9175 5059 c-10 -17 -20 -76 -25 -139 -5 -60 -11 -126 -14 -147 -3
-21 5 0 18 47 13 47 40 112 60 144 42 69 43 79 16 106 -27 27 -37 25 -55 -11z"/>
<path d="M9346 4932 c-29 -89 -31 -122 -8 -130 8 -2 12 9 12 35 0 21 9 58 20
82 21 45 26 86 12 95 -5 3 -21 -34 -36 -82z"/>
<path d="M9513 4965 c-7 -22 -17 -70 -23 -108 -6 -39 -35 -127 -70 -211 -33
-79 -60 -152 -60 -162 0 -17 1 -17 18 1 11 11 24 40 31 65 7 25 30 86 51 135
54 129 72 195 68 262 l-3 58 -12 -40z"/>
<path d="M9652 4870 c-31 -78 -40 -129 -25 -143 8 -9 72 149 72 178 1 11 -3
26 -7 33 -6 8 -19 -15 -40 -68z"/>
<path d="M9810 4893 c0 -10 -10 -41 -21 -69 -20 -49 -21 -104 -1 -104 12 0 65
158 58 175 -8 21 -36 19 -36 -2z"/>
<path d="M9961 4853 c-39 -27 -69 -131 -43 -147 8 -5 75 154 68 161 -1 1 -13
-5 -25 -14z"/>
<path d="M10074 4795 c-15 -23 -33 -145 -21 -145 6 0 58 84 69 113 8 20 -6 57
-22 57 -5 0 -17 -11 -26 -25z"/>
<path d="M9092 4680 c-33 -48 -39 -80 -15 -87 10 -4 60 123 52 132 -2 2 -19
-19 -37 -45z"/>
<path d="M9236 4639 c-48 -104 -45 -151 7 -90 29 35 41 88 28 122 -8 23 -11
21 -35 -32z"/>
<path d="M9697 4562 c-48 -68 -85 -192 -59 -192 5 0 22 30 40 68 58 125 69
197 19 124z"/>
<path d="M9925 4395 c-12 -97 11 -100 55 -7 l29 62 -38 0 -39 0 -7 -55z"/>
<path d="M7913 2943 c-6 -17 -48 -85 -92 -150 -83 -123 -111 -183 -111 -237 0
-28 3 -24 34 35 19 37 52 96 75 131 53 84 113 215 109 236 -3 12 -7 7 -15 -15z"/>
<path d="M8021 2893 c-8 -21 -52 -117 -99 -213 -47 -96 -88 -179 -90 -185 -2
-5 15 9 36 33 54 57 116 180 148 290 26 93 30 145 5 75z"/>
<path d="M7727 2871 c-9 -16 -47 -67 -83 -113 -65 -81 -110 -155 -101 -165 3
-2 34 25 70 61 67 68 143 196 135 231 -2 12 -7 9 -21 -14z"/>
<path d="M8151 2822 c-32 -41 -87 -148 -141 -272 -18 -41 -36 -79 -41 -84 -21
-23 -7 -27 16 -6 42 40 84 113 132 232 25 62 51 125 59 141 20 38 11 34 -25
-11z"/>
<path d="M8232 2688 c-17 -40 -33 -91 -37 -113 -6 -39 -5 -38 34 30 43 75 60
130 43 147 -6 6 -20 -15 -40 -64z"/>
<path d="M8362 2624 c-30 -75 -55 -159 -58 -187 l-5 -52 19 55 c11 30 40 95
66 144 44 85 60 156 38 170 -4 2 -31 -56 -60 -130z"/>
<path d="M8816 2595 c-3 -9 -6 -25 -6 -36 0 -11 -23 -79 -51 -152 -52 -133
-76 -257 -51 -257 22 0 41 58 51 155 8 82 17 112 52 187 38 80 41 90 27 104
-14 14 -16 14 -22 -1z"/>
<path d="M8965 2548 c-16 -40 -50 -198 -44 -198 12 0 45 51 57 89 14 41 15 91
2 111 -8 12 -10 12 -15 -2z"/>
<path d="M8617 2495 c-4 -26 -21 -91 -38 -143 -16 -53 -29 -107 -27 -120 4
-34 28 -41 28 -9 0 13 16 72 35 130 38 116 42 144 22 172 -13 16 -15 13 -20
-30z"/>
<path d="M9087 2458 c-8 -19 -27 -89 -42 -154 -15 -65 -36 -150 -46 -187 -11
-38 -19 -73 -17 -79 6 -16 37 20 44 50 3 15 24 77 46 137 42 114 59 218 40
251 -9 16 -12 14 -25 -18z"/>
<path d="M9459 2414 c-39 -45 -66 -154 -49 -197 9 -22 9 -22 9 3 1 14 15 51
32 83 21 40 29 69 27 94 -3 34 -4 34 -19 17z"/>
<path d="M9216 2267 c-25 -81 -41 -159 -43 -202 l-4 -70 36 100 c21 55 43 123
51 150 15 53 19 155 7 155 -5 0 -26 -60 -47 -133z"/>
<path d="M9496 2091 c-4 -7 -10 -40 -13 -74 -3 -34 -10 -70 -15 -79 -10 -21 4
-24 21 -5 17 21 31 111 22 143 -5 19 -10 24 -15 15z"/>
<path d="M9657 2090 c-51 -133 -62 -204 -37 -235 21 -26 27 -17 22 36 -3 31 2
74 13 114 9 35 15 72 12 82 -3 15 -5 15 -10 3z"/>
<path d="M7720 5191 c-49 -70 -50 -207 -2 -258 l27 -28 3 35 c1 19 12 81 23
137 15 77 17 107 9 123 -15 28 -35 25 -60 -9z"/>
<path d="M8021 5086 c-41 -43 -45 -135 -12 -246 13 -43 14 -40 -3 -40 -23 0
-54 -48 -72 -111 -9 -32 -23 -64 -30 -70 -12 -10 -14 0 -14 54 0 80 -17 102
-44 56 -16 -27 -17 -47 -11 -177 5 -120 3 -171 -13 -277 -21 -141 -18 -224 11
-252 15 -15 17 -14 27 13 7 17 9 50 5 81 -7 58 2 123 18 123 6 0 8 -23 4 -66
-7 -69 3 -104 28 -104 24 0 28 39 20 249 -8 237 1 311 46 390 34 60 54 72 74
45 13 -18 14 -17 20 9 4 16 5 61 1 100 -3 40 -9 111 -13 160 -3 48 -9 87 -13
87 -3 0 -17 -11 -29 -24z"/>
<path d="M8050 4715 c-40 -48 -49 -159 -25 -315 19 -122 19 -201 0 -273 -19
-73 -19 -128 -1 -153 17 -22 15 -25 44 86 29 108 78 337 102 470 11 63 22 123
24 133 2 9 0 17 -4 17 -4 0 -18 -38 -31 -85 -24 -93 -48 -140 -48 -95 -1 14 8
65 19 114 11 49 19 90 17 91 -1 0 -21 6 -44 12 -32 8 -45 7 -53 -2z"/>
<path d="M7738 3922 c-105 -116 -121 -275 -33 -322 22 -12 28 -10 70 24 26 22
45 46 45 58 0 18 -4 19 -49 13 -77 -10 -80 17 -11 123 46 73 57 106 40 127
-18 22 -24 19 -62 -23z"/>
<path d="M10745 3787 c0 -226 7 -290 36 -321 5 -6 9 81 9 205 0 162 -4 229
-16 274 -8 33 -18 63 -22 67 -4 4 -7 -97 -7 -225z"/>
<path d="M10080 2599 c0 -19 3 -58 6 -87 5 -41 10 -50 20 -41 31 26 24 120
-12 149 -12 11 -14 7 -14 -21z"/>
<path d="M2470 2189 c0 -39 109 -164 127 -145 4 4 1 25 -7 48 -12 31 -27 49
-67 74 -29 19 -53 29 -53 23z"/>
<path d="M8290 1061 c0 -102 12 -139 48 -148 52 -13 67 61 34 172 -17 56 -20
60 -50 63 l-32 3 0 -90z"/>
<path d="M3205 1460 c-4 -27 -3 -46 5 -55 18 -22 26 -19 40 14 17 41 10 75
-17 79 -18 3 -22 -3 -28 -38z"/>
<path d="M3291 1411 c-6 -11 -11 -33 -11 -50 0 -24 4 -31 19 -31 27 0 43 24
39 62 -4 39 -31 50 -47 19z"/>
<path d="M7796 393 c-9 -40 -10 -98 -3 -110 4 -6 16 -13 27 -16 18 -5 20 0 20
58 0 44 -5 68 -16 79 -20 21 -21 21 -28 -11z"/>
<path d="M7930 385 c0 -43 25 -95 45 -95 17 0 29 17 15 22 -6 2 -13 21 -17 43
-10 68 -43 91 -43 30z"/>
<path d="M5462 457 c-12 -13 -22 -33 -22 -45 0 -22 32 -62 49 -62 13 0 31 57
31 96 0 41 -25 46 -58 11z"/>
<path d="M5588 411 c-43 -42 -37 -61 17 -61 43 0 45 1 45 28 0 16 -8 36 -17
45 -17 14 -20 13 -45 -12z"/>
</g>
</svg>
