<?xml version="1.0" standalone="no"?>
<!DOCTYPE svg PUBLIC "-//W3C//DTD SVG 20010904//EN"
 "http://www.w3.org/TR/2001/REC-SVG-20010904/DTD/svg10.dtd">
<svg version="1.0" xmlns="http://www.w3.org/2000/svg"
 width="1112.000000pt" height="1280.000000pt" viewBox="0 0 1112.000000 1280.000000"
 preserveAspectRatio="xMidYMid meet">
<metadata>
Created by potrace 1.15, written by Peter Selinger 2001-2017
</metadata>
<g transform="translate(0.000000,1280.000000) scale(0.100000,-0.100000)"
fill="#ffd700" stroke="none">
<path d="M7303 12779 c-95 -37 -173 -151 -173 -254 0 -96 63 -196 154 -242 41
-22 65 -27 121 -27 88 0 149 28 205 92 94 106 91 259 -7 363 -78 84 -192 110
-300 68z"/>
<path d="M6820 12471 c-79 -17 -156 -75 -192 -146 -26 -50 -35 -149 -18 -201
31 -93 107 -165 199 -187 l48 -11 -46 -22 c-91 -42 -161 -150 -161 -249 0
-173 179 -309 343 -261 149 43 237 198 194 338 l-15 48 41 -35 c23 -20 65 -43
96 -52 l55 -16 -36 -18 c-20 -10 -52 -37 -72 -60 -158 -185 -14 -466 228 -447
34 3 80 15 102 26 49 25 108 88 130 139 18 42 23 132 11 177 l-8 30 32 -32
c52 -50 111 -74 183 -74 195 0 323 180 259 367 -20 60 -94 137 -147 155 l-38
12 50 44 c192 168 76 480 -178 477 -78 -1 -127 -20 -185 -74 -61 -56 -88 -125
-83 -208 3 -36 8 -74 13 -84 4 -10 -17 6 -47 36 -82 82 -171 105 -277 70 -151
-48 -225 -213 -166 -368 6 -15 0 -13 -26 11 -41 39 -82 60 -133 69 l-38 8 40
17 c177 79 222 310 87 445 -63 62 -163 93 -245 76z m956 -521 l36 -12 -50 -44
c-62 -54 -94 -124 -94 -205 0 -31 3 -66 7 -77 5 -17 0 -15 -27 10 -38 36 -102
67 -138 68 -24 1 -24 2 -6 13 44 27 109 94 129 132 22 42 30 157 14 203 -6 15
6 8 42 -27 28 -27 67 -55 87 -61z"/>
<path d="M6545 11686 c-358 -130 -782 -383 -1130 -675 -49 -41 -164 -147 -254
-236 -115 -112 -158 -150 -146 -125 10 20 20 66 23 105 8 127 -57 239 -173
295 -72 36 -189 35 -260 -2 -215 -113 -233 -400 -33 -530 l51 -33 -37 -6 c-51
-8 -87 -37 -113 -89 -28 -55 -29 -92 -2 -146 22 -47 66 -79 122 -91 l37 -8
-31 -45 c-70 -105 -194 -319 -268 -467 -228 -456 -367 -946 -417 -1473 -19
-191 -15 -682 6 -836 12 -83 11 -93 -5 -118 -10 -15 -21 -23 -25 -19 -4 4 -27
58 -51 118 -92 232 -251 534 -402 760 -324 488 -723 887 -1204 1208 l-153 102
0 38 c0 22 -8 52 -17 68 -16 27 -83 69 -110 69 -6 0 4 15 22 33 44 44 53 93
29 143 -34 67 -103 96 -171 71 -21 -8 -21 -6 -13 24 25 86 -38 159 -136 159
-39 0 -51 -5 -79 -33 -44 -44 -53 -93 -29 -144 35 -70 108 -99 176 -69 15 7
16 4 8 -25 -21 -72 30 -151 106 -165 l35 -6 -30 -19 c-40 -24 -73 -11 -90 36
-16 45 -81 101 -132 115 -45 12 -97 7 -140 -15 -56 -29 -109 -114 -109 -175 0
-59 46 -136 103 -170 l28 -18 -37 -18 c-53 -26 -79 -66 -79 -119 0 -53 26 -93
79 -119 130 -64 248 123 136 217 l-29 25 44 11 c76 19 135 84 150 163 11 58
32 38 28 -25 -5 -64 18 -106 72 -131 44 -21 94 -15 138 16 l29 21 112 -77
c198 -134 489 -377 643 -537 l42 -44 -77 0 c-64 0 -87 -5 -134 -28 -104 -51
-169 -156 -169 -269 1 -106 28 -168 107 -237 54 -48 118 -71 194 -71 81 0 142
24 204 81 65 60 98 130 100 212 l1 58 23 -28 c130 -157 318 -433 423 -620 276
-492 442 -995 520 -1578 21 -150 23 -212 24 -530 0 -391 -14 -565 -70 -895
-13 -73 13 -3 39 105 102 435 123 967 56 1448 -22 156 -70 397 -100 501 -11
38 -19 71 -17 72 1 1 20 -2 42 -8 93 -25 193 21 235 107 47 97 8 221 -85 269
-51 27 -149 29 -187 4 l-26 -17 -6 72 c-28 366 -4 796 65 1162 69 367 211 790
374 1115 100 199 251 445 393 640 67 93 76 102 67 72 -27 -91 12 -192 93 -239
136 -80 302 16 302 174 0 146 -144 244 -277 188 -20 -8 -37 -14 -39 -12 -6 6
191 223 306 337 355 353 746 629 1228 867 210 104 218 111 77 59z m-1691
-1245 l-67 -81 -19 33 c-11 17 -31 41 -45 53 l-25 21 65 5 c43 4 80 14 109 30
23 14 44 24 46 22 2 -1 -27 -38 -64 -83z"/>
<path d="M1364 9930 c-11 -4 -33 -22 -47 -40 -21 -25 -27 -42 -27 -81 0 -42 5
-55 33 -85 28 -30 42 -37 83 -41 65 -6 113 24 134 85 13 37 13 47 0 84 -25 71
-105 107 -176 78z"/>
<path d="M1191 9692 c-85 -46 -93 -160 -15 -221 53 -42 158 -20 189 39 37 71
9 157 -61 186 -45 19 -73 18 -113 -4z"/>
<path d="M1233 9400 c-43 -26 -64 -61 -65 -107 -2 -133 166 -187 238 -78 74
114 -58 256 -173 185z"/>
<path d="M1759 9263 c-54 -33 -76 -115 -46 -173 17 -33 74 -70 109 -70 132 0
186 157 82 239 -33 26 -107 28 -145 4z"/>
<path d="M2951 6150 c-13 -3 -33 -18 -45 -33 -17 -23 -19 -32 -9 -57 6 -17 9
-30 7 -30 -2 0 -41 15 -87 34 -237 98 -426 111 -570 39 -170 -85 -237 -279
-145 -417 97 -148 316 -133 382 26 22 52 20 96 -6 148 -31 60 -77 90 -141 90
-85 0 -147 -58 -147 -140 0 -62 57 -130 109 -130 26 1 26 1 -5 14 -100 44
-100 183 1 216 77 25 155 -34 155 -118 0 -89 -64 -152 -154 -152 -178 0 -238
226 -94 356 73 66 116 79 258 78 110 0 135 -4 205 -28 172 -59 321 -137 459
-239 l69 -51 -64 -12 c-181 -34 -327 -141 -403 -296 -104 -214 3 -432 214
-433 123 0 211 79 218 199 5 77 -20 134 -76 170 -55 36 -101 42 -154 18 -50
-22 -84 -76 -72 -115 19 -64 100 -91 144 -47 22 22 28 84 8 96 -8 5 -9 2 -5
-10 7 -18 -8 -56 -27 -68 -18 -12 -44 -9 -60 8 -39 39 -1 94 65 94 33 0 47 -6
74 -33 19 -19 37 -46 41 -60 26 -105 -90 -210 -196 -178 -118 35 -169 162
-119 295 61 165 231 289 414 303 l71 6 78 -84 c88 -95 196 -250 251 -362 l38
-76 -27 -32 c-21 -24 -26 -39 -21 -58 8 -35 41 -61 75 -61 26 0 30 -5 44 -52
60 -198 75 -492 37 -708 -58 -331 -236 -670 -471 -895 l-42 -40 -29 35 c-44
52 -105 177 -130 266 -29 101 -31 267 -5 364 59 220 195 351 351 338 101 -8
165 -76 165 -172 0 -57 -43 -112 -95 -122 -62 -11 -125 37 -125 95 0 31 33 64
65 64 51 0 72 -56 35 -93 -20 -20 -20 -20 -1 -20 43 0 66 74 36 116 -57 82
-185 29 -185 -76 0 -122 149 -190 259 -117 68 45 102 161 71 243 -10 24 -8 30
17 49 36 29 38 89 4 116 -34 28 -86 25 -117 -6 -24 -24 -28 -25 -62 -14 -152
51 -338 -46 -425 -220 -32 -64 -34 -66 -58 -53 -29 15 -76 8 -101 -15 -20 -18
-24 -64 -8 -93 11 -20 64 -42 83 -34 11 4 12 -19 9 -109 -4 -92 0 -129 17
-198 28 -114 90 -236 155 -306 l53 -58 -26 -21 c-14 -12 -53 -35 -87 -52 -33
-17 -91 -51 -127 -76 -37 -25 -69 -46 -72 -46 -3 0 -5 8 -5 18 0 28 -42 62
-77 62 -45 0 -62 -9 -79 -42 -19 -37 -3 -76 42 -99 l32 -15 -68 -62 c-37 -34
-103 -103 -146 -154 -42 -51 -93 -104 -113 -119 -51 -37 -78 -69 -96 -112 -18
-44 -10 -48 23 -10 22 26 22 25 -3 -17 -14 -25 -42 -76 -61 -113 -34 -66 -35
-67 -57 -52 -42 30 -96 15 -121 -34 -15 -28 -15 -28 -78 -19 -82 12 -219 58
-308 103 -38 19 -70 36 -70 38 0 1 31 2 69 2 61 0 74 4 112 30 50 36 80 90 87
156 6 67 -34 149 -91 187 -35 23 -51 27 -117 27 -68 0 -80 -3 -113 -28 -20
-15 -44 -41 -52 -57 -53 -103 57 -211 156 -153 56 34 72 111 32 156 -23 24 2
23 45 -3 88 -54 96 -176 16 -239 -53 -42 -112 -46 -188 -15 -16 6 -18 4 -13
-10 11 -27 -46 17 -121 93 -113 116 -193 259 -238 426 -15 56 -19 102 -18 230
1 143 3 169 27 248 96 314 320 530 589 567 364 51 651 -284 503 -586 -73 -148
-264 -220 -413 -154 -135 59 -209 228 -151 347 25 52 58 79 112 94 54 14 121
-10 148 -55 25 -42 25 -60 0 -46 -53 28 -121 -8 -121 -64 0 -34 33 -76 61 -76
10 -1 9 -5 -5 -15 -25 -19 -4 -19 32 -1 52 27 75 62 80 120 5 67 -17 119 -67
151 -81 53 -169 41 -242 -34 -55 -57 -74 -114 -67 -204 15 -182 188 -320 381
-304 233 20 403 257 353 494 -50 242 -266 412 -526 413 -63 0 -65 1 -80 33
-29 61 -94 73 -141 26 -17 -17 -20 -30 -16 -59 l5 -38 -72 -35 c-88 -44 -189
-127 -256 -210 -58 -72 -153 -257 -172 -337 -12 -49 -18 -57 -53 -75 -62 -31
-187 -33 -253 -5 -29 12 -52 27 -52 32 0 5 -15 18 -33 28 -78 46 -118 192 -82
300 22 67 84 136 150 166 171 81 396 -50 330 -190 -55 -116 -225 -64 -225 69
0 66 77 105 102 50 9 -21 8 -28 -7 -45 -16 -18 -16 -20 -2 -20 21 0 39 34 35
67 -2 14 -15 35 -30 46 -62 46 -148 -18 -148 -110 0 -194 261 -254 341 -79 10
22 19 52 19 66 0 82 -64 171 -158 217 -49 24 -69 28 -142 28 -104 0 -175 -29
-245 -100 -71 -71 -100 -141 -100 -245 0 -87 10 -125 51 -191 21 -33 21 -38 7
-52 -24 -24 -21 -77 6 -99 31 -24 89 -23 116 2 19 18 23 18 65 4 59 -21 171
-13 231 15 23 12 43 21 43 21 1 0 1 -73 1 -162 0 -138 4 -176 23 -248 26 -95
93 -243 143 -317 47 -69 164 -188 235 -239 130 -93 319 -164 479 -180 52 -5
77 -13 98 -30 16 -13 37 -24 48 -24 10 0 19 -2 19 -3 0 -2 -18 -58 -39 -123
-47 -144 -78 -290 -93 -438 -11 -107 -12 -112 -49 -154 -45 -52 -69 -117 -69
-189 0 -63 12 -62 30 2 7 25 27 67 44 93 l31 47 2 -40 c31 -489 195 -900 501
-1252 29 -34 79 -83 110 -110 l57 -48 -38 45 c-168 197 -266 341 -350 513
-132 269 -197 519 -213 819 l-7 128 47 20 c53 24 132 36 171 26 25 -6 26 -8
11 -25 -25 -28 -20 -76 10 -100 33 -26 50 -26 90 -2 l31 19 19 -36 c22 -42 78
-80 134 -93 133 -30 266 107 231 237 -28 102 -108 160 -211 152 -71 -5 -121
-39 -159 -108 -20 -36 -25 -40 -33 -25 -28 49 -172 71 -273 40 -27 -8 -51 -12
-53 -10 -10 9 21 196 53 321 55 217 155 441 274 618 74 108 75 109 143 103
157 -14 282 -174 206 -262 -46 -53 -128 -26 -128 42 0 38 11 43 25 10 7 -15
20 -23 41 -25 39 -4 56 16 52 60 -2 27 -10 36 -40 51 -37 18 -39 18 -75 0 -81
-39 -94 -136 -28 -199 62 -58 147 -53 208 15 43 48 53 95 33 165 -30 102 -138
189 -258 206 l-53 7 130 129 c188 186 343 290 520 350 97 32 261 44 346 24
142 -33 267 -127 325 -245 25 -53 29 -71 29 -150 0 -78 -4 -97 -28 -147 -91
-185 -333 -226 -459 -78 -74 86 -79 211 -10 283 39 42 75 57 130 57 91 0 158
-71 149 -159 -6 -58 -32 -90 -97 -124 -49 -25 -51 -27 -20 -21 84 16 140 74
148 153 12 124 -110 220 -237 187 -67 -17 -114 -55 -145 -118 -75 -150 19
-344 191 -394 54 -16 149 -15 199 1 19 6 22 2 26 -45 13 -135 159 -218 283
-161 71 32 125 113 125 189 0 22 3 23 33 15 17 -4 66 -8 107 -8 93 0 170 34
229 101 145 164 56 425 -144 425 -92 0 -161 -48 -186 -130 -29 -97 37 -197
141 -215 32 -6 30 -4 -16 18 -61 28 -95 72 -101 129 -16 158 203 217 297 81
32 -47 39 -137 16 -199 -37 -95 -147 -161 -258 -153 -294 19 -377 410 -129
607 108 84 215 116 371 108 230 -11 443 -124 697 -371 73 -71 133 -132 133
-137 0 -5 -16 -9 -35 -9 -87 0 -197 -69 -245 -154 -72 -125 -9 -270 119 -270
86 0 146 62 138 142 -8 76 -73 123 -139 100 -44 -16 -65 -77 -36 -106 27 -27
97 -5 99 31 0 7 5 1 10 -12 19 -48 -39 -98 -94 -79 -135 47 -17 261 157 284
77 11 88 4 165 -115 135 -207 237 -450 286 -685 23 -107 42 -246 34 -246 -2 0
-26 7 -53 15 -63 19 -166 19 -211 1 -19 -8 -46 -27 -59 -41 l-23 -25 -12 29
c-27 63 -105 111 -183 111 -125 0 -221 -128 -188 -251 16 -58 81 -123 139
-139 90 -24 191 22 231 105 12 26 25 43 29 37 9 -13 47 -32 65 -32 8 0 27 10
42 23 31 27 35 68 9 97 -17 18 -16 19 10 26 39 10 118 -2 170 -25 l45 -20 0
-69 c0 -188 -38 -409 -106 -612 -92 -275 -231 -514 -444 -761 l-55 -64 55 46
c77 65 189 196 271 318 189 280 318 654 336 973 l6 111 24 -29 c13 -16 32 -54
43 -84 12 -30 23 -62 26 -70 5 -11 8 -9 15 9 21 53 -21 175 -84 242 -20 23
-25 41 -31 115 -12 153 -73 413 -133 572 -3 7 4 12 19 12 14 0 35 11 47 24 18
19 36 25 97 30 356 32 681 275 815 611 53 134 72 248 66 405 l-5 136 49 -24
c63 -31 165 -39 231 -19 44 14 48 13 64 -4 26 -28 88 -25 119 6 30 29 32 55 6
86 -18 22 -18 23 10 66 60 96 64 227 10 337 -53 109 -156 179 -278 192 -188
20 -364 -134 -323 -284 35 -131 195 -177 293 -84 41 39 57 74 57 127 0 107
-84 169 -154 114 -28 -22 -34 -56 -16 -90 6 -10 18 -19 26 -19 13 0 13 2 0 22
-20 28 -20 33 0 52 40 40 94 1 94 -68 0 -49 -24 -87 -70 -111 -37 -19 -64 -19
-105 1 -102 48 -69 190 56 244 63 27 172 25 231 -4 93 -45 149 -132 156 -244
4 -66 2 -78 -28 -138 -22 -46 -43 -72 -66 -86 -19 -11 -34 -23 -34 -28 0 -4
-22 -17 -49 -29 -63 -27 -175 -28 -241 -3 -44 17 -46 20 -71 97 -37 112 -62
165 -114 247 -84 129 -204 237 -329 294 -50 23 -55 28 -50 50 14 54 -27 104
-85 104 -28 0 -72 -40 -74 -67 -1 -22 -6 -23 -72 -23 -212 -1 -402 -115 -491
-296 -39 -77 -39 -79 -39 -198 0 -116 1 -124 32 -187 84 -172 276 -264 449
-215 154 44 254 171 254 321 0 86 -21 136 -78 187 -129 116 -316 35 -299 -130
4 -38 13 -62 29 -79 28 -30 70 -53 95 -52 13 0 11 3 -7 10 l-25 10 32 15 c57
28 64 92 14 131 -20 15 -66 16 -92 3 -26 -14 -25 3 1 46 29 46 96 71 149 55
153 -45 178 -256 45 -383 -116 -111 -299 -111 -425 0 -20 17 -51 60 -70 94
-33 60 -34 67 -34 168 0 98 2 110 32 171 87 176 291 278 499 249 232 -32 422
-184 537 -430 70 -148 82 -208 82 -395 0 -137 -3 -172 -23 -240 -49 -169 -161
-350 -279 -452 -69 -59 -96 -77 -73 -48 14 17 13 18 -2 12 -90 -33 -152 -28
-207 19 -76 64 -60 193 29 239 40 21 57 20 38 -2 -35 -41 -26 -106 20 -146 32
-29 91 -32 130 -8 84 54 59 183 -45 227 -41 18 -124 18 -166 0 -67 -28 -114
-95 -124 -176 -8 -67 30 -145 89 -186 36 -25 51 -29 110 -29 37 0 68 -1 68 -2
0 -2 -35 -20 -78 -42 -87 -44 -218 -87 -305 -100 -55 -8 -59 -7 -67 14 -19 49
-84 70 -126 41 -20 -14 -23 -11 -62 62 -23 42 -51 93 -63 112 l-21 35 26 -29
c34 -36 43 -28 21 18 -15 31 -37 54 -126 132 -13 11 -51 53 -84 93 -32 40 -95
106 -138 147 -47 44 -72 74 -62 74 9 0 30 14 47 30 24 25 29 36 24 58 -16 64
-106 86 -145 36 -12 -15 -21 -33 -21 -40 0 -20 -2 -19 -72 30 -35 24 -97 62
-140 85 -110 60 -110 60 -45 131 65 73 121 181 149 292 16 64 19 104 17 198
l-4 117 27 0 c14 0 38 7 52 17 21 13 26 25 26 56 0 66 -57 95 -130 66 -11 -4
-24 12 -49 60 -89 173 -272 266 -423 215 -34 -11 -38 -10 -62 14 -60 60 -168
1 -136 -75 6 -15 22 -33 35 -40 22 -12 22 -14 9 -46 -18 -43 -18 -115 0 -157
17 -39 71 -92 109 -106 68 -26 159 3 195 61 62 101 -20 227 -120 185 -48 -20
-67 -66 -45 -111 8 -18 25 -36 36 -39 26 -6 26 -2 1 23 -55 55 22 127 80 75
28 -25 26 -76 -4 -108 -45 -48 -102 -48 -157 1 -65 58 -46 175 38 232 31 21
48 25 112 25 64 0 83 -4 122 -27 95 -56 167 -164 206 -308 23 -87 23 -262 0
-350 -21 -81 -95 -233 -136 -280 l-31 -35 -81 85 c-215 228 -354 496 -426 821
-14 67 -18 127 -18 299 0 218 3 247 47 413 19 74 21 77 50 77 32 0 78 38 78
65 0 21 -19 57 -38 71 -12 9 -8 23 27 94 73 143 153 257 264 376 56 61 62 64
106 64 171 0 351 -115 427 -274 56 -117 45 -218 -32 -285 -73 -65 -167 -63
-230 5 -57 59 -53 148 7 199 59 49 153 24 147 -38 -7 -69 -98 -54 -98 15 0 17
-4 27 -10 23 -5 -3 -10 -21 -10 -39 0 -68 91 -104 137 -53 31 33 36 61 19 102
-20 46 -89 80 -145 70 -95 -17 -157 -101 -149 -205 5 -74 40 -128 105 -167 99
-58 239 -28 310 66 50 64 69 141 55 220 -34 201 -214 374 -432 413 l-74 14 94
68 c108 77 314 182 440 223 74 24 101 28 205 28 111 0 124 -2 177 -28 141 -69
199 -224 125 -336 -64 -96 -218 -96 -277 1 -64 105 35 240 142 195 92 -39 95
-153 5 -207 -29 -18 -30 -20 -9 -20 12 0 39 15 58 33 31 28 37 42 41 83 9 94
-46 154 -143 154 -65 0 -111 -29 -141 -90 -41 -79 -20 -168 52 -227 109 -90
270 -54 337 76 88 168 -28 369 -245 427 -133 35 -359 -5 -537 -96 -22 -11 -40
-16 -40 -11 0 5 5 13 10 16 17 10 11 51 -11 79 -16 21 -29 26 -64 26 -35 0
-48 -5 -64 -26 -12 -15 -21 -35 -21 -46 0 -27 53 -78 81 -78 15 0 -5 -16 -61
-50 -90 -54 -172 -113 -235 -170 -22 -20 -60 -42 -85 -49 -140 -41 -277 -154
-319 -263 -7 -19 12 -4 67 51 47 46 101 90 138 109 34 18 64 32 68 32 3 0 -24
-37 -61 -82 -72 -89 -113 -150 -168 -251 -36 -65 -36 -66 -56 -46 -26 26 -92
26 -119 -1 -24 -24 -26 -67 -5 -97 13 -19 13 -20 -10 -20 -61 0 -100 -63 -70
-110 24 -36 60 -49 98 -35 17 6 32 11 33 9 2 -1 -6 -34 -17 -72 -55 -199 -64
-530 -20 -733 69 -321 212 -590 439 -823 l83 -87 -58 14 c-79 19 -254 18 -327
-1 -143 -37 -286 -146 -341 -259 l-28 -57 -28 50 c-63 116 -158 198 -285 248
-58 22 -89 27 -194 31 -88 3 -143 0 -187 -11 l-63 -14 98 102 c237 246 390
561 442 910 27 179 11 446 -39 633 -17 66 -18 73 -3 66 47 -20 71 -16 102 14
36 37 38 65 5 97 -23 24 -42 30 -75 25 -12 -2 -12 2 3 17 23 26 22 78 -3 103
-27 27 -93 27 -120 0 -20 -20 -20 -20 -46 33 -40 80 -125 206 -188 280 -31 37
-54 67 -50 67 3 0 37 -16 75 -36 49 -26 91 -59 139 -111 39 -41 70 -72 70 -69
0 21 -49 97 -92 142 -64 68 -127 108 -216 138 -51 18 -89 40 -135 79 -72 61
-168 128 -240 168 l-48 26 30 6 c16 3 39 16 50 28 52 57 -8 138 -88 119z m808
-1016 c-7 -8 -12 -13 -13 -12 -1 2 -7 10 -14 19 -11 14 -9 16 13 11 21 -3 23
-7 14 -18z m579 7 c-10 -16 -15 -18 -26 -8 -12 10 -11 13 9 18 13 4 25 7 27 8
1 1 -3 -8 -10 -18z m-2620 -2399 c7 -2 11 4 10 19 -4 29 18 36 32 9 24 -45
-43 -99 -81 -64 -24 21 -24 42 -2 74 l18 25 5 -29 c3 -16 11 -31 18 -34z
m4692 3 c0 -12 -9 -30 -21 -41 -19 -17 -23 -17 -47 -3 -21 12 -27 22 -27 49 0
24 5 35 15 35 10 0 14 -8 13 -22 -2 -13 2 -23 7 -23 14 0 28 32 22 50 -4 11 1
10 17 -4 11 -11 21 -29 21 -41z m-2360 -47 c0 -5 -7 -8 -15 -8 -17 0 -18 2 -9
25 5 13 8 14 15 3 5 -7 9 -16 9 -20z m-1244 -189 c11 -18 -13 -34 -31 -19 -8
7 -15 16 -15 21 0 13 38 11 46 -2z m2504 7 c0 -16 -14 -36 -25 -36 -17 0 -28
17 -20 30 6 10 45 15 45 6z m-2864 -993 c-10 -10 -19 5 -10 18 6 11 8 11 12 0
2 -7 1 -15 -2 -18z m3194 7 c0 -5 -4 -10 -10 -10 -5 0 -10 5 -10 10 0 6 5 10
10 10 6 0 10 -4 10 -10z"/>
<path d="M3661 3584 c-26 -34 -27 -68 -1 -94 42 -42 116 -33 139 16 16 37 14
52 -14 79 -35 36 -96 35 -124 -1z"/>
<path d="M4292 3593 c-12 -10 -24 -30 -28 -45 -5 -22 0 -34 25 -59 28 -27 37
-31 69 -26 68 11 95 82 49 125 -29 27 -86 29 -115 5z"/>
<path d="M1634 3332 c-135 -64 -116 -265 25 -265 95 0 144 102 79 163 -48 44
-131 -3 -109 -62 9 -24 38 -44 49 -34 2 3 -3 13 -12 22 -19 19 -17 33 7 48 27
17 54 -16 39 -48 -15 -33 -47 -42 -77 -22 -52 34 -20 124 51 142 65 16 165
-35 246 -124 97 -109 144 -244 135 -392 -8 -121 -39 -203 -132 -344 l-19 -29
21 11 c65 35 157 180 183 292 19 76 16 203 -4 275 -42 144 -150 286 -265 349
-70 38 -158 45 -217 18z"/>
<path d="M6255 3330 c-127 -49 -257 -210 -300 -370 -19 -71 -19 -210 0 -283
22 -87 70 -172 130 -235 30 -30 57 -53 60 -50 3 3 -15 35 -39 71 -153 228
-138 499 39 694 61 67 156 123 209 123 68 0 126 -63 106 -115 -20 -52 -89 -55
-105 -4 -10 29 19 58 42 43 24 -15 26 -29 7 -48 -21 -21 -12 -31 14 -17 31 17
37 49 15 80 -38 50 -111 30 -127 -35 -8 -30 16 -84 45 -102 26 -17 89 -18 118
-3 59 32 79 131 38 192 -48 73 -152 97 -252 59z"/>
<path d="M696 3050 c-41 -13 -94 -68 -106 -109 -13 -49 3 -104 41 -135 69 -58
179 -16 179 69 0 69 -75 110 -120 65 -25 -25 -26 -52 -2 -73 28 -25 50 -22 27
3 -18 19 -18 22 -2 37 16 16 18 16 33 1 32 -32 -8 -78 -55 -63 -24 7 -41 53
-30 82 22 60 126 71 193 19 47 -35 93 -104 118 -174 22 -63 34 -180 20 -200
-5 -8 -42 -18 -83 -23 -214 -27 -420 -117 -583 -257 -67 -57 -71 -59 -85 -40
-25 30 -81 34 -114 8 -45 -36 -31 -114 24 -132 11 -4 8 -14 -12 -44 -44 -66
-86 -155 -111 -234 -32 -105 -33 -274 -1 -375 61 -194 227 -341 417 -368 241
-35 465 120 507 351 13 68 6 133 -23 210 -30 79 -122 172 -198 198 -165 56
-329 -14 -366 -157 -28 -109 38 -212 146 -226 52 -7 122 27 151 73 25 41 36
108 20 118 -7 5 -11 -4 -11 -26 0 -39 -29 -90 -64 -113 -32 -21 -110 -21 -142
0 -91 59 -81 197 18 262 37 25 51 28 127 28 76 0 92 -3 132 -27 52 -31 89 -71
122 -132 18 -34 22 -57 22 -136 0 -115 -21 -167 -100 -245 -152 -153 -388
-151 -558 5 -52 48 -109 137 -128 203 -34 113 -28 255 15 378 72 206 277 421
500 524 89 42 223 81 304 91 60 6 61 6 56 -17 l-6 -24 21 24 c21 23 24 24 139
18 279 -12 542 -147 740 -377 55 -65 142 -194 142 -212 0 -3 -17 -4 -37 -1
-52 7 -93 -25 -93 -72 0 -18 7 -38 15 -45 19 -15 19 -30 2 -30 -20 0 -57 -44
-57 -67 0 -35 11 -53 41 -68 42 -22 67 -18 101 15 24 25 29 36 23 58 -3 15
-14 35 -22 45 -14 14 -14 17 -1 17 27 0 58 39 58 73 0 47 -58 182 -115 267
-167 251 -460 425 -777 461 l-104 11 4 83 c9 162 -63 310 -184 381 -46 27
-123 38 -168 24z"/>
<path d="M7247 3046 c-81 -30 -157 -113 -199 -216 -18 -44 -22 -76 -22 -162
l-1 -106 -70 -7 c-338 -32 -633 -204 -809 -470 -57 -86 -116 -220 -116 -264 0
-29 36 -71 60 -71 9 0 8 -6 -5 -20 -58 -64 24 -157 103 -116 31 16 42 34 42
70 0 26 -34 66 -55 66 -19 0 -19 8 0 26 8 9 15 31 15 49 0 47 -41 79 -93 72
l-37 -5 31 58 c17 32 60 94 96 139 194 244 504 400 791 401 78 0 84 -2 108
-27 l24 -28 -10 29 -11 29 62 -7 c309 -35 633 -256 769 -526 53 -104 72 -185
73 -300 0 -161 -46 -274 -152 -373 -157 -147 -394 -152 -548 -13 -139 125
-150 350 -24 476 107 107 288 108 369 2 23 -30 27 -45 27 -99 0 -62 -2 -66
-37 -99 -85 -78 -228 -19 -228 94 0 22 -4 31 -11 26 -16 -9 -3 -81 22 -120 22
-37 91 -74 135 -74 43 1 108 33 131 66 104 146 -18 337 -215 338 -102 1 -165
-25 -238 -98 -76 -77 -106 -146 -107 -256 -4 -270 261 -478 536 -421 138 29
279 135 345 259 110 207 92 457 -50 692 -22 35 -35 66 -29 68 91 30 57 163
-38 148 -20 -3 -43 -14 -51 -24 -14 -17 -18 -15 -88 44 -178 149 -351 221
-624 260 -32 4 -38 9 -43 37 -14 76 30 222 91 302 38 50 101 85 153 85 34 0
49 -6 73 -30 24 -25 29 -36 23 -58 -11 -48 -58 -67 -89 -36 -21 21 -20 41 3
53 14 8 22 7 31 -4 10 -13 9 -19 -5 -35 -16 -17 -16 -20 -2 -20 21 0 47 27 47
51 0 27 -35 59 -65 59 -39 0 -75 -42 -75 -85 0 -56 44 -95 105 -95 40 0 52 5
80 33 46 46 54 93 25 151 -12 26 -36 54 -55 66 -44 27 -119 34 -168 16z"/>
<path d="M3017 59 c-210 -9 -273 -21 -171 -33 297 -33 2081 -33 2378 0 106 12
37 23 -215 33 -283 13 -1700 12 -1992 0z"/>
</g>
</svg>
