<?xml version="1.0" standalone="no"?>
<!DOCTYPE svg PUBLIC "-//W3C//DTD SVG 20010904//EN"
 "http://www.w3.org/TR/2001/REC-SVG-20010904/DTD/svg10.dtd">
<svg version="1.0" xmlns="http://www.w3.org/2000/svg"
 width="1280.000000pt" height="640.000000pt" viewBox="0 0 1280.000000 640.000000"
 preserveAspectRatio="xMidYMid meet">
<metadata>
Created by potrace 1.15, written by Peter Selinger 2001-2017
</metadata>
<g transform="translate(0.000000,640.000000) scale(0.100000,-0.100000)"
fill="#ffc107" stroke="none">
<path d="M4955 4859 c-673 -53 -1199 -171 -2130 -477 -99 -33 -392 -154 -528
-220 -160 -77 -296 -151 -667 -365 -366 -211 -481 -288 -591 -398 -83 -82
-118 -137 -166 -259 -8 -20 -37 -36 -144 -79 -165 -67 -350 -161 -466 -236
-106 -68 -263 -186 -263 -196 0 -4 26 -16 58 -25 86 -27 253 -25 358 5 89 25
278 113 387 179 74 46 72 47 81 -33 8 -66 63 -178 116 -238 87 -98 236 -184
431 -248 129 -42 387 -99 450 -99 60 0 45 22 -27 40 -98 25 -220 96 -301 176
-43 41 -73 80 -73 91 0 30 38 73 64 73 38 0 145 -90 253 -212 142 -161 220
-207 387 -228 91 -11 223 -3 391 25 50 8 94 15 100 15 5 0 5 4 -1 10 -5 5 -44
14 -87 20 -165 23 -294 90 -435 224 -55 52 -86 98 -75 110 34 33 319 -86 595
-250 273 -162 389 -198 645 -198 134 -1 176 4 162 18 -2 2 -63 11 -135 19
-147 18 -173 26 -276 93 -151 97 -275 250 -463 569 -178 302 -328 499 -433
566 -24 15 -39 29 -35 32 4 2 40 13 78 22 l71 18 68 -33 c81 -40 202 -150 278
-251 28 -38 53 -69 55 -69 2 0 -15 28 -39 63 -65 95 -203 227 -276 266 -35 18
-62 34 -60 36 2 2 53 17 113 33 97 27 118 30 181 23 40 -5 92 -19 118 -32 64
-31 166 -140 271 -289 113 -160 251 -317 490 -556 215 -216 320 -298 484 -381
l113 -58 -69 -9 c-56 -7 -98 -4 -209 14 -236 38 -373 88 -538 198 -95 63 -255
218 -334 324 -63 86 -92 116 -57 61 150 -233 351 -417 581 -532 87 -43 198
-83 285 -103 l54 -12 -70 -7 c-38 -4 -105 -10 -148 -14 -129 -11 -76 -25 96
-25 111 0 184 5 232 16 39 9 96 18 128 21 38 4 57 10 57 19 0 15 43 13 209
-13 71 -10 132 -13 195 -9 240 17 311 18 385 5 115 -21 262 -16 339 10 37 13
73 19 85 15 11 -4 104 -10 206 -14 102 -5 241 -17 308 -28 81 -14 165 -20 251
-20 77 0 137 -4 149 -11 51 -27 146 -42 303 -47 136 -4 177 -10 235 -29 73
-24 192 -49 285 -60 30 -4 102 -22 160 -40 58 -19 130 -40 160 -48 30 -8 73
-26 94 -41 52 -35 117 -54 253 -73 80 -11 127 -12 160 -6 37 7 59 5 98 -7 28
-10 118 -29 200 -44 164 -29 186 -34 290 -66 51 -16 119 -24 255 -32 235 -14
319 -13 364 6 29 12 52 13 120 6 87 -10 259 1 294 19 9 5 63 14 118 20 182 21
387 81 500 147 24 14 86 34 141 45 90 19 170 51 283 112 81 45 137 67 167 67
70 0 255 81 347 152 40 31 144 122 219 191 25 24 61 42 110 57 134 41 294 132
422 239 33 28 91 76 128 107 37 30 84 78 104 105 21 27 62 65 93 85 30 21 77
55 104 78 65 53 165 181 173 218 3 16 19 38 37 50 105 74 194 171 254 278 77
138 126 324 107 409 -7 34 -25 42 -25 12 0 -27 -151 -167 -251 -234 -150 -100
-299 -162 -594 -249 l-170 -50 -220 -5 c-614 -15 -1150 58 -1665 228 -268 88
-692 248 -715 270 -5 5 -17 9 -26 9 -9 0 -110 38 -225 84 -203 82 -508 198
-726 277 -60 21 -145 56 -190 79 -80 38 -216 80 -264 80 -12 0 -29 6 -36 14
-8 8 -41 19 -74 26 -96 19 -338 91 -354 105 -8 7 -40 15 -70 19 -30 4 -134 27
-230 51 -96 24 -269 62 -385 85 -115 23 -211 46 -213 51 -2 5 -25 9 -50 9 -88
0 -356 40 -364 54 -6 10 -92 13 -450 13 -244 0 -488 -3 -543 -8z m580 -37 c-6
-5 -41 -19 -80 -32 -92 -31 -178 -68 -415 -177 -107 -50 -249 -114 -315 -143
-222 -97 -354 -170 -468 -257 -70 -54 -151 -136 -184 -184 l-23 -36 -167 -26
c-91 -15 -168 -26 -170 -24 -2 2 32 44 76 93 238 268 663 554 990 668 229 80
453 124 636 125 71 1 125 -3 120 -7z m-670 -48 c-286 -112 -618 -302 -835
-478 -94 -77 -241 -222 -303 -302 -47 -60 -48 -61 -120 -74 -114 -20 -409 -78
-487 -96 -39 -9 -74 -13 -77 -11 -8 9 79 135 147 212 139 158 300 283 674 525
l220 141 119 25 c66 13 125 24 131 24 6 0 -22 -18 -62 -40 -101 -55 -168 -102
-339 -237 -81 -64 -206 -162 -277 -217 -213 -166 -322 -291 -301 -344 6 -15
10 -13 32 13 130 153 203 231 288 307 177 159 372 298 578 412 37 21 67 36 67
34 0 -3 -21 -20 -47 -39 -95 -67 -166 -144 -117 -125 10 4 76 44 148 90 158
101 229 137 321 165 75 23 225 48 290 49 37 1 32 -2 -50 -34z m1105 23 l85
-12 -75 -14 c-184 -33 -503 -129 -738 -222 -232 -93 -441 -210 -584 -327 -105
-86 -150 -138 -56 -64 307 241 723 440 1053 502 33 6 100 20 148 30 200 42
333 47 570 19 99 -12 131 -29 55 -29 -62 0 -263 -35 -408 -70 -214 -53 -769
-220 -860 -259 -164 -71 -251 -136 -290 -217 -12 -24 -24 -44 -27 -44 -43 0
-716 -85 -758 -96 -38 -10 155 165 261 236 127 84 278 162 579 295 276 123
478 197 670 246 164 42 228 46 375 26z m649 -103 c2 -2 -10 -4 -27 -4 -18 0
-32 5 -32 10 0 9 47 4 59 -6z m276 -58 c59 -16 48 -22 -55 -30 -116 -9 -234
-31 -500 -97 -135 -33 -315 -76 -400 -95 -317 -70 -487 -150 -544 -256 l-19
-35 -211 -12 c-116 -6 -230 -15 -253 -18 -27 -3 -43 -2 -43 5 0 6 26 37 59 70
116 118 267 186 634 286 449 123 698 165 1097 185 91 4 170 9 175 9 6 1 33 -4
60 -12z m-3016 -10 c-2 -3 -40 -28 -84 -57 -237 -154 -626 -494 -715 -624 -19
-27 -47 -72 -61 -99 l-27 -49 -131 -32 c-72 -18 -131 -29 -131 -26 0 31 171
240 292 357 83 80 294 264 303 264 3 0 -18 -28 -45 -62 -47 -59 -58 -78 -44
-78 4 0 49 41 101 90 164 157 288 240 436 291 74 26 117 36 106 25z m3412 -93
c55 -15 99 -31 99 -34 0 -3 -30 -7 -67 -8 -100 -3 -253 -26 -473 -72 -230 -47
-297 -60 -488 -94 -220 -39 -332 -84 -416 -169 l-41 -41 -255 5 -255 5 60 48
c160 126 291 170 945 311 301 65 357 71 624 74 156 2 176 0 267 -25z m-3821
-4 c-50 -30 -150 -112 -350 -285 -255 -221 -343 -318 -416 -459 l-31 -60 -134
-37 c-74 -21 -137 -37 -142 -38 -12 0 89 157 166 260 92 122 267 298 380 382
133 99 288 183 397 217 156 47 182 51 130 20z m3840 -115 c-152 -32 -235 -58
-235 -75 0 -16 6 -16 225 11 313 39 457 37 610 -11 l75 -24 -80 -6 c-44 -4
-208 -10 -365 -14 -347 -7 -676 -22 -790 -35 -187 -22 -331 -74 -409 -148
l-43 -40 -146 19 c-81 10 -165 19 -187 19 -46 0 -42 5 39 54 66 40 156 76 266
106 101 27 606 125 750 144 169 23 165 23 290 24 l115 1 -115 -25z m-4411 -81
c-47 -32 -212 -199 -279 -283 -74 -93 -191 -269 -236 -355 l-28 -53 -114 -37
c-63 -20 -116 -34 -119 -31 -9 8 83 173 162 292 69 103 244 302 287 325 10 5
-11 -26 -46 -70 -71 -88 -91 -119 -81 -129 4 -4 65 54 136 129 71 75 152 152
180 170 78 50 209 90 138 42z m5367 -120 c122 -45 200 -80 192 -84 -21 -11
-294 -30 -361 -24 -34 3 -143 12 -242 21 -218 20 -589 15 -732 -10 -111 -19
-238 -58 -315 -97 l-58 -29 -202 35 c-112 19 -207 35 -211 35 -17 0 7 23 58
56 73 46 187 82 319 101 87 12 190 15 476 13 632 -5 640 -4 722 13 42 9 91 23
110 31 18 8 34 15 36 15 1 1 95 -34 208 -76z m-5776 -49 c-122 -114 -267 -316
-361 -506 l-53 -107 -151 -52 c-82 -29 -157 -55 -165 -58 -8 -3 6 19 31 49 25
30 92 121 149 202 115 166 188 249 287 330 86 71 290 198 316 198 4 0 -19 -25
-53 -56z m5448 -93 c298 -40 435 -38 570 9 l59 20 192 -76 c106 -42 191 -78
189 -79 -2 -2 -39 1 -83 5 -44 5 -226 16 -405 25 -179 9 -388 20 -465 24 -252
15 -446 -9 -601 -75 l-81 -35 -254 46 c-139 26 -255 48 -258 50 -12 12 201 72
319 90 147 23 159 23 420 20 175 -2 289 -9 398 -24z m-1917 4 c175 -17 526
-65 649 -90 41 -8 89 -17 105 -19 43 -6 440 -73 505 -87 192 -38 521 -100 554
-104 23 -3 42 -1 46 6 11 16 276 13 395 -5 55 -8 186 -31 290 -50 410 -75 596
-71 766 14 l60 31 82 -32 c45 -18 156 -58 247 -91 l165 -58 -225 4 c-146 2
-288 12 -405 26 -219 27 -412 23 -542 -9 -62 -16 -89 -18 -109 -11 -87 33
-685 175 -707 167 -5 -1 28 -11 74 -21 137 -29 325 -75 479 -117 157 -43 532
-161 527 -166 -2 -2 -129 26 -283 61 -655 151 -1624 344 -2034 405 -192 29
-475 58 -690 72 -229 15 -758 7 -1030 -16 -696 -56 -1441 -194 -2160 -400
-124 -35 -292 -82 -375 -103 -82 -22 -267 -74 -410 -115 -536 -156 -716 -232
-1059 -451 -382 -243 -522 -304 -711 -309 -85 -2 -175 9 -175 22 0 4 35 32 77
63 168 119 373 229 602 323 218 89 1373 495 1641 576 741 225 1860 431 2632
483 280 19 816 20 1019 1z m-3895 -97 c-106 -107 -198 -227 -324 -423 l-89
-138 -119 -42 c-187 -66 -170 -67 -133 7 72 143 195 306 302 399 84 74 220
165 341 229 61 33 112 60 113 60 0 0 -40 -42 -91 -92z m3748 -29 c194 -36 365
-255 495 -631 44 -129 68 -236 87 -388 l13 -105 -3 135 c-3 106 -10 157 -31
239 -55 213 -167 447 -281 589 -34 42 -60 79 -58 81 9 10 107 -60 172 -123
197 -190 303 -445 412 -986 35 -176 72 -319 102 -394 59 -150 147 -294 235
-381 31 -31 41 -45 28 -42 -11 3 -49 11 -85 17 -79 13 -182 49 -174 61 3 5 -6
9 -21 9 -53 0 -223 102 -323 195 -82 76 -142 155 -198 260 -63 118 -104 244
-164 509 -28 126 -65 277 -82 335 -79 283 -198 502 -316 585 -85 59 -87 56 32
50 61 -3 132 -10 160 -15z m2207 6 c85 -9 249 -30 364 -47 187 -28 236 -32
447 -33 l238 -2 100 -39 c55 -21 100 -42 100 -45 0 -3 -48 -17 -107 -30 -91
-20 -134 -24 -273 -24 -141 1 -198 6 -390 37 -124 20 -269 42 -322 48 -110 14
-389 9 -428 -8 -20 -8 -69 -1 -225 29 -110 21 -202 39 -205 39 -14 1 32 22 90
41 145 49 346 60 611 34z m-2486 -34 c101 -48 175 -134 251 -294 72 -154 120
-321 194 -677 54 -261 117 -423 227 -589 68 -102 192 -234 270 -288 l56 -38
-59 -3 c-121 -7 -180 6 -292 64 -183 95 -300 190 -407 332 -124 165 -189 330
-288 727 -62 246 -100 362 -159 480 -70 141 -154 235 -251 280 -42 20 -45 23
-25 29 154 41 368 -107 477 -328 68 -138 94 -235 175 -651 37 -191 62 -285 75
-285 14 0 -26 307 -66 500 -78 387 -230 655 -428 756 l-50 26 120 -7 c102 -5
129 -11 180 -34z m651 14 c264 -28 406 -51 471 -78 166 -68 306 -205 401 -393
70 -139 122 -318 197 -684 58 -279 96 -431 136 -546 63 -179 165 -339 266
-417 111 -85 111 -79 3 -72 -100 7 -170 20 -170 34 0 16 -99 60 -225 100 -201
63 -295 136 -397 308 -93 158 -133 280 -198 608 -64 319 -118 507 -200 682
-108 233 -276 402 -453 458 -40 13 -41 13 -11 14 17 1 98 -6 180 -14z m-1177
-40 c122 -41 207 -126 286 -290 61 -124 95 -235 160 -513 25 -107 59 -235 76
-285 88 -266 264 -537 429 -663 27 -21 48 -39 46 -41 -2 -2 -58 19 -125 48
-211 89 -363 194 -486 336 -135 154 -212 294 -354 646 -56 137 -122 290 -148
340 -95 184 -217 315 -349 374 -35 15 -64 31 -64 34 0 3 80 14 178 23 97 10
181 19 187 20 17 4 119 -14 164 -29z m7666 -133 c-14 -37 -37 -97 -52 -134
-20 -52 -45 -89 -107 -157 -189 -210 -360 -315 -581 -357 -75 -14 -124 -15
-290 -10 -110 3 -218 10 -240 14 -39 8 -37 9 55 26 52 10 136 21 185 26 162
13 361 89 435 165 19 19 32 37 29 39 -3 3 -49 -20 -102 -50 -135 -77 -188 -94
-352 -109 -77 -8 -221 -28 -320 -45 -223 -38 -390 -47 -605 -30 -254 18 -269
23 -120 39 304 31 443 64 588 142 82 44 99 49 155 49 315 1 706 84 960 205
148 69 314 201 364 286 l18 31 3 -31 c2 -17 -8 -62 -23 -99z m-8211 88 c184
-63 338 -234 450 -498 24 -59 70 -174 101 -257 131 -351 271 -585 464 -774 70
-68 196 -155 271 -186 58 -24 72 -37 35 -31 -208 33 -231 40 -374 102 -80 35
-177 85 -216 111 -83 56 -323 293 -419 413 -67 84 -227 321 -362 535 -184 294
-318 430 -492 501 -34 13 -51 25 -42 28 33 11 438 74 481 75 25 1 72 -8 103
-19z m2561 -36 c228 -42 264 -56 363 -149 131 -121 211 -267 280 -510 31 -105
57 -234 102 -503 44 -267 66 -365 105 -490 57 -179 144 -329 250 -432 l66 -63
-43 7 c-60 10 -291 92 -361 129 -77 40 -176 133 -230 215 -119 179 -177 348
-252 728 -30 152 -66 322 -80 378 -88 346 -219 572 -405 700 -48 33 -51 37
-25 32 17 -3 120 -22 230 -42z m-5419 -66 c-74 -92 -140 -194 -190 -298 -31
-63 -60 -121 -64 -129 -8 -14 -218 -94 -233 -89 -10 4 148 258 202 324 60 74
115 118 217 175 48 26 89 48 91 49 2 0 -8 -15 -23 -32z m2313 -33 c177 -81
314 -233 536 -595 138 -223 203 -319 312 -455 170 -213 364 -385 537 -477 l71
-37 -53 -1 c-29 0 -96 9 -149 21 -332 72 -642 253 -914 536 -121 125 -187 212
-352 460 -203 304 -306 416 -457 490 -53 27 -69 39 -55 41 11 2 70 14 131 26
l111 23 67 -23 c103 -34 210 -101 304 -189 137 -128 198 -217 475 -686 100
-170 210 -320 296 -404 33 -33 61 -56 61 -52 0 4 -23 35 -51 69 -68 85 -153
215 -293 446 -329 546 -498 724 -791 837 -18 7 -17 9 10 15 38 8 134 -13 204
-45z m3626 -10 c99 -19 194 -43 210 -52 67 -36 158 -119 215 -194 113 -150
170 -299 269 -695 33 -133 76 -290 96 -349 45 -137 164 -382 245 -505 82 -122
203 -243 295 -293 l70 -38 -94 5 c-52 3 -115 6 -140 7 -44 1 -45 2 -18 12 25
10 17 13 -80 29 -131 22 -210 58 -281 129 -99 99 -175 296 -232 599 -17 91
-43 208 -57 260 -26 97 -79 227 -89 218 -3 -3 8 -62 24 -129 17 -68 46 -201
66 -295 100 -476 211 -696 394 -781 28 -13 52 -26 52 -28 0 -6 -117 24 -173
45 -127 48 -244 169 -335 347 -84 166 -119 294 -197 723 -70 385 -114 548
-193 705 -62 126 -121 202 -222 289 -27 22 -37 36 -25 33 11 -3 101 -22 200
-42z m-4153 -54 c91 -39 182 -105 263 -193 63 -68 129 -162 330 -473 95 -147
177 -245 332 -395 229 -224 456 -375 653 -435 86 -26 88 -28 40 -36 -64 -11
-168 -11 -174 0 -4 5 -39 14 -79 21 -240 39 -444 120 -606 240 -165 122 -281
247 -536 575 -300 386 -457 529 -662 600 l-66 23 42 12 c80 21 366 88 381 89
8 0 45 -12 82 -28z m4708 -52 l245 -52 38 -40 c67 -72 220 -313 397 -627 195
-344 280 -482 379 -614 200 -265 464 -437 736 -480 l80 -12 -75 -31 c-251
-105 -425 -125 -630 -72 -170 43 -302 121 -425 250 -153 161 -263 377 -418
819 -111 315 -175 465 -255 590 -43 68 -142 193 -149 187 -2 -3 19 -40 46 -82
78 -118 156 -288 301 -650 72 -181 162 -393 200 -470 151 -312 323 -510 535
-617 56 -29 180 -68 214 -68 11 0 21 -4 21 -10 0 -12 3 -12 -161 1 -158 12
-232 29 -314 72 -123 65 -266 242 -371 461 -80 168 -118 282 -204 616 -102
398 -146 516 -244 665 -52 77 -114 143 -181 192 -16 12 -25 23 -20 23 6 0 120
-23 255 -51z m-6811 -41 c-27 -35 -89 -127 -137 -205 l-87 -142 -103 -37 c-57
-20 -105 -34 -108 -31 -9 9 44 107 89 166 55 72 157 158 285 242 57 38 106 69
108 69 2 0 -19 -28 -47 -62z m7936 11 c270 -40 495 -48 612 -25 l81 17 114
-34 c62 -19 128 -38 147 -42 44 -10 29 -18 -70 -38 -161 -33 -319 -40 -524
-23 -383 33 -461 38 -525 32 -61 -5 -77 -1 -250 58 -200 68 -202 70 -72 86 99
13 251 3 487 -31z m-6331 -29 c159 -40 329 -156 477 -323 44 -50 148 -180 230
-289 166 -218 278 -348 390 -452 146 -135 319 -251 452 -303 109 -42 109 -44
2 -39 -279 13 -522 95 -719 243 -160 120 -447 420 -757 792 -103 124 -207 240
-231 258 -49 35 -110 63 -141 63 -43 0 1 18 103 43 58 14 108 26 111 26 3 1
40 -8 83 -19z m5704 -51 c240 -53 376 -90 412 -112 187 -112 340 -270 625
-642 135 -176 236 -300 310 -380 50 -55 14 -7 -111 146 -55 68 -158 203 -229
299 -211 289 -310 402 -460 526 l-49 41 264 -66 c247 -62 270 -69 335 -112 97
-63 241 -180 435 -353 273 -243 426 -352 600 -427 123 -53 209 -72 328 -73 91
-1 101 -3 83 -15 -12 -7 -21 -19 -21 -27 0 -7 -26 -32 -57 -57 l-57 -43 -215
52 c-119 29 -250 65 -291 79 -198 72 -344 171 -437 298 -39 53 -55 50 -27 -5
57 -112 165 -211 314 -287 155 -80 358 -138 543 -157 37 -4 67 -10 67 -13 0
-9 -105 -74 -176 -109 -96 -48 -175 -65 -279 -59 -49 3 -101 8 -115 11 -22 6
-22 5 -5 -3 11 -6 40 -16 65 -22 l45 -12 -50 -15 c-27 -8 -57 -20 -65 -27 -8
-7 -53 -22 -99 -34 -76 -21 -90 -22 -150 -11 -159 30 -333 104 -468 199 -97
69 -232 205 -322 324 -77 103 -101 120 -57 41 52 -93 141 -206 232 -294 156
-151 321 -245 494 -280 l85 -18 -49 -7 c-83 -13 -232 1 -321 30 -140 46 -223
100 -358 233 -157 153 -301 368 -522 772 -148 272 -224 397 -315 517 -36 47
-71 94 -79 105 -18 24 -16 24 147 -13z m1890 -70 c45 -7 82 -16 82 -19 0 -10
-185 -66 -295 -89 -55 -12 -181 -32 -280 -45 l-180 -23 -135 29 c-180 38 -591
138 -610 149 -31 18 146 8 407 -22 221 -25 296 -30 428 -27 172 5 240 20 313
72 l33 23 77 -18 c42 -10 114 -23 160 -30z m287 -39 c61 -6 178 -14 260 -18
l150 -7 -55 -22 c-30 -12 -93 -37 -140 -57 -120 -49 -181 -63 -370 -80 -91 -9
-179 -20 -195 -25 -32 -9 -277 15 -425 42 l-75 14 90 7 c147 12 256 26 322 41
85 20 210 69 253 100 19 13 44 23 55 21 11 -3 70 -10 130 -16z m-8702 -71
c122 -62 240 -216 437 -569 106 -190 175 -301 238 -380 20 -25 40 -51 46 -59
14 -18 -123 51 -207 105 -130 84 -216 185 -375 439 -148 239 -263 343 -432
395 l-55 17 110 36 c129 42 180 45 238 16z m-335 -100 c170 -45 268 -131 416
-364 126 -198 173 -260 273 -356 123 -119 266 -213 418 -275 73 -29 118 -54
112 -60 -7 -8 -143 39 -208 71 -36 18 -105 56 -153 84 -103 61 -276 148 -361
181 -73 29 -273 140 -335 185 -25 19 -101 91 -170 161 -124 127 -260 229 -337
255 -18 6 -33 15 -33 20 0 5 1 9 3 9 2 0 68 25 147 55 80 30 146 55 148 55 1
0 37 -9 80 -21z m8152 -25 c188 -35 322 -54 374 -54 24 0 46 -4 48 -9 2 -6 39
-17 83 -26 111 -23 235 -64 485 -160 369 -143 472 -168 680 -168 129 0 155 3
233 27 49 14 102 33 118 41 31 16 37 10 16 -15 -18 -23 -87 -63 -87 -51 0 6
-33 -11 -72 -36 -194 -126 -436 -193 -693 -193 -216 0 -398 44 -550 132 -92
54 -107 66 -192 150 -40 40 -73 67 -73 61 0 -23 84 -135 138 -183 65 -58 196
-129 296 -159 279 -86 644 -60 913 64 40 18 73 32 73 31 0 -11 -246 -189 -295
-213 -169 -85 -383 -84 -605 2 -229 88 -368 183 -690 475 -147 133 -228 199
-330 270 -68 48 -72 52 -40 46 19 -4 96 -18 170 -32z m2383 -13 c-88 -138
-346 -316 -518 -357 -140 -34 -404 -16 -604 42 -46 14 -185 65 -308 115 -123
49 -261 101 -306 115 l-82 25 90 -6 c228 -14 612 -18 675 -7 53 10 79 9 135
-3 284 -60 625 -33 853 68 42 19 79 35 80 36 2 1 -4 -12 -15 -28z m-10910
-127 c165 -83 209 -116 335 -245 67 -70 149 -146 182 -170 50 -37 60 -48 60
-74 0 -40 42 -129 87 -183 62 -76 225 -181 335 -217 37 -12 -101 -27 -213 -23
-84 3 -104 8 -165 37 -116 57 -235 189 -444 490 -186 270 -244 334 -317 354
-23 6 -43 14 -43 17 0 6 86 47 103 49 4 1 40 -15 80 -35z m-120 -72 c28 -15
70 -50 95 -78 43 -49 216 -323 209 -331 -2 -2 -21 4 -43 13 -26 11 -59 15
-105 12 l-67 -4 -12 41 c-40 134 -136 259 -233 305 l-57 28 42 26 c52 32 97
29 171 -12z m-213 -57 c97 -34 164 -118 243 -305 89 -211 138 -285 223 -337
10 -6 -15 -2 -56 9 -329 90 -529 248 -585 463 -22 86 -20 102 17 125 22 13 36
16 44 9 7 -5 52 -76 100 -156 62 -101 110 -167 157 -215 74 -74 108 -92 55
-28 -18 22 -92 127 -165 233 -118 171 -130 193 -116 205 21 16 31 15 83 -3z"/>
</g>
</svg>
