<?xml version="1.0" standalone="no"?>
<!DOCTYPE svg PUBLIC "-//W3C//DTD SVG 20010904//EN"
 "http://www.w3.org/TR/2001/REC-SVG-20010904/DTD/svg10.dtd">
<svg version="1.0" xmlns="http://www.w3.org/2000/svg"
 width="1280.000000pt" height="640.000000pt" viewBox="0 0 1280.000000 640.000000"
 preserveAspectRatio="xMidYMid meet">
<metadata>
Created by potrace 1.15, written by Peter Selinger 2001-2017
</metadata>
<g transform="translate(0.000000,640.000000) scale(0.100000,-0.100000)"
fill="#000000" stroke="none">
<path d="M9706 5550 c-22 -11 -52 -20 -67 -20 -15 0 -53 -14 -85 -31 l-59 -31
-250 6 c-210 5 -942 9 -1205 7 -73 -1 -76 -2 -94 -31 -12 -22 -15 -40 -10 -63
10 -46 111 -234 147 -275 10 -11 34 -57 53 -103 19 -46 43 -93 52 -104 10 -11
44 -73 77 -137 32 -64 66 -119 75 -121 9 -2 21 -22 28 -44 6 -21 35 -77 63
-124 28 -46 66 -114 85 -151 18 -37 47 -88 64 -114 16 -26 30 -60 30 -75 0
-15 6 -34 14 -41 20 -21 42 -67 56 -118 6 -25 20 -54 29 -65 18 -20 98 -230
121 -315 14 -52 17 -149 7 -202 -7 -32 -14 -40 -55 -58 -25 -11 -49 -24 -52
-28 -3 -4 -14 -12 -25 -18 -32 -17 -83 -91 -96 -136 -20 -75 4 -151 37 -118 5
5 51 13 102 16 83 6 92 5 92 -10 0 -29 -37 -73 -67 -80 -16 -4 -82 -9 -148
-12 -66 -3 -129 -9 -140 -14 -11 -4 -69 -14 -130 -21 -60 -6 -117 -15 -125
-19 -8 -5 -71 -9 -139 -11 l-125 -3 -65 79 -66 80 -6 530 c-7 570 -12 632 -63
769 -27 72 -44 101 -94 163 -33 42 -33 45 -35 145 -1 60 6 143 16 198 16 93
28 201 30 268 1 39 -50 92 -87 92 -13 0 -39 7 -59 15 -38 16 -170 45 -202 44
-34 -1 -107 8 -175 21 -81 16 -618 17 -845 3 -273 -18 -519 -74 -572 -131 -25
-27 -25 -29 -20 -152 4 -85 10 -135 21 -155 21 -40 22 -231 1 -280 -8 -20 -37
-60 -66 -90 -40 -42 -63 -58 -104 -70 -95 -27 -113 -22 -245 70 -87 60 -141
90 -187 100 -18 3 -33 10 -33 13 0 8 -49 32 -66 32 -7 0 -45 16 -86 35 -40 19
-107 42 -148 51 -41 8 -84 21 -95 28 -11 7 -58 16 -104 19 -98 8 -202 26 -216
38 -5 5 -25 9 -45 9 -19 0 -51 4 -70 10 -19 5 -107 16 -194 24 -88 9 -182 22
-210 30 -141 40 -243 36 -331 -13 -66 -37 -109 -45 -145 -26 -48 25 -162 31
-215 11 -24 -10 -49 -14 -56 -11 -6 4 -36 13 -66 20 -63 15 -97 7 -149 -32
-17 -12 -36 -23 -41 -23 -6 0 -16 -13 -23 -30 -7 -16 -28 -39 -46 -51 -30 -18
-41 -20 -82 -11 -98 20 -151 14 -232 -26 -53 -27 -76 -44 -78 -59 -4 -26 -28
-48 -117 -106 -38 -26 -81 -54 -95 -64 -13 -10 -32 -21 -42 -25 -10 -4 -32
-28 -50 -53 -17 -25 -35 -45 -40 -45 -4 0 -30 -19 -57 -42 -28 -24 -73 -61
-102 -83 -62 -49 -144 -115 -184 -151 -16 -14 -35 -29 -40 -33 -6 -3 -22 -22
-35 -41 -13 -19 -63 -87 -111 -151 -48 -64 -99 -137 -113 -161 -14 -24 -45
-59 -70 -77 -24 -18 -50 -45 -57 -59 -16 -32 -27 -45 -123 -144 -68 -70 -78
-77 -132 -88 -33 -7 -79 -18 -104 -25 -25 -7 -69 -16 -99 -20 -30 -4 -70 -14
-89 -22 -20 -8 -77 -23 -127 -32 -136 -27 -399 -136 -479 -200 -21 -17 -44
-31 -50 -32 -6 0 -29 -23 -50 -51 -35 -47 -39 -58 -40 -113 -1 -57 2 -65 42
-118 26 -35 50 -57 62 -57 10 0 23 -6 27 -14 10 -16 61 -43 168 -86 131 -53
207 -80 226 -80 11 0 19 -4 19 -10 0 -5 18 -10 39 -10 22 0 42 -4 45 -9 6 -9
51 -21 96 -27 13 -2 106 -19 206 -39 100 -19 206 -39 237 -43 54 -7 57 -9 104
-71 26 -36 67 -78 90 -95 23 -17 60 -54 82 -82 22 -29 68 -69 105 -92 69 -44
213 -155 257 -198 47 -46 450 -244 506 -248 10 -1 32 -9 50 -19 18 -9 42 -17
53 -17 12 0 36 -6 53 -13 37 -16 188 -56 262 -69 28 -5 70 -16 95 -24 54 -16
127 -27 360 -54 329 -37 352 -38 598 -30 134 5 250 6 258 3 8 -3 65 0 127 6
61 6 168 16 237 22 115 10 206 26 365 66 33 9 80 17 104 20 25 2 50 8 56 13 6
5 46 18 90 30 43 12 83 24 89 28 18 11 110 41 127 42 9 0 22 6 28 14 7 8 28
17 47 21 20 3 83 28 141 56 58 27 112 49 119 49 8 0 14 5 14 10 0 6 12 16 28
22 15 7 43 26 62 43 61 52 121 99 159 125 20 14 45 33 56 43 42 37 107 87 115
87 5 0 21 -5 37 -11 57 -21 252 -34 493 -31 253 3 687 27 752 41 48 11 80 -7
59 -33 -7 -9 -20 -16 -28 -16 -7 0 -40 -13 -73 -30 -33 -16 -73 -30 -89 -30
-17 0 -61 -12 -98 -26 -37 -14 -97 -35 -132 -46 -35 -12 -87 -36 -115 -55 -28
-18 -68 -41 -89 -50 -25 -12 -40 -26 -44 -43 -3 -14 -12 -35 -20 -48 -23 -37
25 -110 105 -162 86 -55 151 -87 195 -95 20 -4 41 -13 48 -21 6 -8 21 -14 33
-14 11 0 61 -11 111 -25 49 -14 104 -25 122 -25 17 0 44 -5 59 -10 15 -6 60
-15 100 -21 58 -8 85 -18 126 -46 29 -19 73 -44 98 -55 82 -36 327 -128 341
-128 8 0 43 -9 77 -20 35 -11 78 -20 96 -20 17 0 41 -6 52 -14 11 -8 58 -20
104 -26 47 -6 105 -18 129 -26 25 -8 60 -14 80 -14 53 0 204 -21 223 -31 10
-5 69 -9 132 -9 71 0 117 -4 121 -11 4 -6 13 -8 20 -5 8 3 30 0 50 -5 20 -6
44 -7 53 -3 23 9 62 11 62 3 0 -4 13 -4 28 1 17 4 36 3 47 -3 12 -6 63 -7 149
-2 72 5 154 9 181 10 91 3 209 16 275 30 64 14 158 28 275 40 33 4 65 11 71
16 9 8 127 35 249 58 22 4 50 13 62 19 12 7 33 12 46 12 14 0 30 7 37 15 7 8
22 15 33 15 24 0 130 31 137 41 3 3 37 18 75 34 39 15 76 32 83 37 6 6 12 7
12 3 0 -3 15 3 34 14 18 12 41 21 50 21 10 0 33 12 53 27 27 21 49 28 96 31
34 2 67 8 72 12 6 5 39 14 75 20 67 12 144 32 218 56 23 8 48 14 55 14 6 0 63
25 125 56 135 66 166 101 166 188 1 73 -40 120 -156 177 -48 23 -90 49 -93 57
-7 19 23 80 45 92 21 11 208 61 218 57 6 -2 48 12 97 34 11 4 70 25 130 45 61
21 123 48 138 61 16 12 35 23 44 23 22 0 241 168 248 191 4 10 21 39 38 62 18
24 40 59 50 78 10 20 31 43 48 53 16 9 29 26 29 36 0 11 14 33 30 50 54 56 31
134 -62 205 -67 50 -79 96 -76 290 2 139 1 153 -20 190 -12 22 -22 44 -22 50
0 16 -110 121 -145 138 -84 42 -222 46 -298 8 -37 -18 -43 -19 -71 -6 -17 8
-61 16 -97 19 -36 2 -77 10 -90 17 -18 10 -91 13 -289 15 l-265 1 -55 28
c-138 70 -176 114 -168 197 5 43 12 55 62 106 31 31 68 81 83 110 14 28 29 52
35 52 5 0 18 21 29 47 11 25 35 64 54 85 19 21 35 46 35 56 0 10 16 41 35 68
19 27 35 53 35 59 0 6 9 16 20 23 11 7 20 17 20 23 0 17 79 171 99 194 10 11
22 30 25 42 4 12 22 45 41 72 19 27 47 77 63 112 16 35 44 87 64 114 45 65
128 212 169 300 18 39 46 86 62 104 64 75 82 167 38 190 -10 6 -103 10 -207
10 -104 1 -200 1 -214 2 -209 6 -274 8 -320 7 -30 0 -147 0 -260 0 -113 0
-213 1 -222 1 -10 0 -44 -1 -75 -1 -32 0 -94 0 -138 1 -44 1 -89 2 -100 2 -11
0 -92 1 -180 2 -88 2 -170 -1 -183 -5 -13 -4 -42 -3 -65 3 -23 6 -116 13 -207
15 -148 3 -169 1 -204 -16z m404 -49 c8 1 242 4 520 6 363 3 527 1 583 -7 60
-10 80 -10 92 0 10 8 30 10 67 4 29 -4 69 -6 88 -4 40 4 35 4 156 -5 58 -4 94
-3 98 3 4 7 18 7 39 1 17 -5 94 -9 169 -9 159 0 160 -1 108 -83 -17 -26 -37
-63 -45 -82 -7 -19 -18 -35 -23 -35 -5 0 -19 -26 -31 -59 -11 -32 -32 -73 -46
-92 -13 -19 -35 -56 -48 -84 -13 -27 -34 -58 -45 -69 -11 -10 -24 -31 -27 -47
-4 -15 -24 -56 -47 -90 -22 -35 -53 -90 -69 -122 -16 -33 -35 -67 -43 -76 -8
-9 -33 -54 -56 -101 -23 -47 -62 -113 -87 -148 -24 -34 -53 -82 -64 -106 -10
-24 -26 -49 -35 -56 -8 -8 -22 -27 -31 -44 -8 -17 -23 -40 -33 -51 -9 -11 -22
-35 -29 -54 -15 -45 -93 -152 -157 -215 -29 -28 -55 -63 -58 -78 -3 -15 -12
-40 -18 -55 -7 -15 -17 -66 -23 -113 l-10 -85 -55 -3 -56 -3 -17 107 c-21 136
-54 207 -142 304 -37 41 -81 102 -97 135 -41 82 -103 189 -148 255 -21 30 -54
87 -74 125 -21 39 -51 93 -69 122 -56 89 -72 116 -91 152 -10 20 -31 51 -47
69 -16 18 -29 38 -29 44 0 6 -28 56 -61 111 -34 55 -82 139 -106 186 -24 47
-69 133 -100 191 -31 58 -59 117 -63 132 -8 26 -7 26 37 26 24 0 48 3 51 7 4
4 41 4 82 1 41 -4 82 -6 90 -5z m-696 -71 l399 -3 16 -29 c9 -17 28 -46 44
-65 15 -20 27 -43 27 -51 0 -8 16 -44 37 -80 35 -64 46 -123 25 -144 -17 -17
-301 -23 -1045 -23 l-749 0 -57 105 c-32 58 -74 132 -94 164 -43 70 -48 113
-14 121 48 11 344 12 1411 5z m-2649 -170 c24 -5 44 -5 51 0 6 6 14 7 17 3 4
-3 75 -10 159 -14 221 -12 312 -20 323 -29 6 -4 44 -11 85 -14 155 -14 227
-50 218 -109 -2 -17 -19 -26 -92 -49 -48 -16 -116 -31 -150 -34 -33 -3 -72
-10 -86 -14 -14 -5 -72 -12 -130 -15 -58 -3 -161 -10 -230 -14 -140 -8 -456
-6 -570 4 -41 4 -106 9 -145 11 -219 14 -443 82 -433 131 5 25 56 51 136 68
39 8 80 19 89 24 22 12 335 41 459 42 49 1 100 5 114 9 35 11 137 11 185 0z
m-882 -260 c37 -10 74 -24 82 -30 8 -7 15 -9 15 -5 0 4 6 2 13 -4 8 -6 16 -8
19 -5 3 3 70 -3 149 -13 119 -15 216 -18 564 -17 268 1 442 5 480 12 33 7 101
16 150 22 50 6 97 14 105 17 8 4 25 8 37 9 12 2 42 10 68 18 56 20 61 20 46 2
-17 -20 -127 -56 -170 -56 -20 0 -78 -10 -129 -22 -81 -20 -92 -26 -90 -43 3
-23 2 -23 133 4 55 12 105 19 113 16 7 -2 29 2 49 10 19 8 43 15 53 15 10 0
23 7 30 15 17 21 30 19 30 -5 0 -27 -21 -70 -35 -70 -6 0 -20 -8 -31 -18 -10
-10 -39 -24 -64 -31 -25 -7 -67 -22 -95 -32 -104 -39 -181 -50 -395 -60 -118
-5 -222 -9 -230 -9 -8 1 -73 3 -145 5 -226 7 -309 12 -335 18 -14 4 -52 9 -85
11 -85 6 -232 34 -263 50 -15 7 -43 17 -62 21 -19 4 -52 18 -73 31 -31 20 -38
30 -35 52 3 26 5 27 52 24 27 -2 59 -10 70 -18 28 -19 126 -19 126 1 0 15 -11
18 -162 57 -71 18 -88 26 -88 41 0 14 4 17 18 12 9 -4 48 -15 85 -25z m2990
-44 l17 -21 21 28 c20 27 56 35 92 21 13 -5 12 -9 -4 -25 -24 -24 -20 -43 9
-47 15 -2 22 2 23 15 1 10 2 25 3 33 0 8 9 16 18 18 15 3 17 -3 15 -35 -3 -49
24 -53 34 -5 4 18 10 36 14 40 9 10 178 15 220 8 31 -6 34 -9 29 -35 -4 -17
-1 -32 6 -36 15 -9 47 20 54 50 5 21 11 24 39 19 51 -9 57 -12 57 -33 0 -35
44 -15 52 24 5 21 8 17 23 -30 6 -21 32 -8 39 21 6 24 7 24 141 24 133 0 135
0 135 -22 0 -13 -9 -36 -20 -53 -11 -16 -20 -38 -20 -49 0 -10 -18 -36 -40
-58 -22 -23 -43 -52 -47 -67 -12 -51 -33 -81 -56 -81 -44 0 -62 -42 -30 -65
17 -12 17 -14 -2 -35 -15 -17 -26 -20 -52 -15 -25 4 -34 2 -42 -14 -17 -31
-13 -51 9 -51 24 0 25 -15 4 -66 -18 -42 -103 -196 -113 -204 -4 -3 -15 -24
-25 -47 -10 -23 -28 -50 -39 -60 -11 -10 -32 -46 -47 -79 -16 -34 -33 -65 -39
-69 -6 -3 -27 -37 -46 -74 -20 -42 -52 -84 -79 -108 -61 -53 -91 -123 -108
-248 l-14 -100 -45 -3 -45 -3 -11 110 c-13 118 -26 154 -79 213 -27 31 -32 43
-28 67 6 27 3 30 -22 33 -36 4 -55 48 -35 80 11 18 11 22 -5 31 -11 6 -36 27
-56 47 -39 39 -50 84 -27 107 17 17 0 35 -28 30 -22 -4 -33 9 -109 122 -55 82
-84 136 -84 153 0 31 10 34 40 16 15 -10 22 -10 32 0 10 10 9 16 -5 29 -12 12
-20 14 -28 6 -7 -7 -22 -7 -52 2 -31 9 -43 18 -48 39 -4 14 -28 62 -54 106
-26 44 -49 98 -52 120 -5 36 -8 40 -34 40 -23 0 -29 4 -29 23 0 12 7 32 15 43
17 26 11 34 -27 34 -15 0 -28 5 -28 12 0 24 36 88 50 89 31 3 55 -3 70 -17 12
-12 17 -11 38 9 l23 22 19 -25 19 -25 23 22 c19 18 34 21 83 21 38 -1 67 -7
78 -16 16 -14 20 -14 39 6 19 18 29 20 87 15 51 -4 70 -10 84 -27z m1227 -52
c17 -25 39 -62 49 -82 11 -20 31 -48 45 -61 14 -14 26 -29 26 -35 0 -6 27 -56
60 -110 33 -55 60 -104 60 -109 0 -4 11 -23 23 -40 22 -29 82 -131 116 -196 8
-14 29 -47 48 -72 18 -26 54 -91 79 -145 31 -68 62 -115 101 -158 98 -106 109
-136 73 -206 -16 -31 -32 -45 -78 -65 -31 -14 -82 -39 -112 -55 l-55 -28 -300
-11 c-165 -6 -340 -16 -390 -21 -49 -6 -133 -12 -185 -15 -52 -2 -127 -7 -166
-11 -72 -7 -72 -6 -120 30 -84 64 -113 131 -93 211 11 43 182 349 219 390 10
11 48 83 86 160 38 77 83 161 101 186 19 26 53 89 77 141 25 52 51 100 60 107
9 8 16 20 16 27 0 7 10 20 23 29 13 8 33 32 45 53 28 50 116 132 141 132 12 0
31 -17 51 -46z m-6390 -73 c0 -19 23 -35 34 -24 3 4 6 15 6 26 0 15 5 18 23
14 12 -3 45 -9 72 -13 28 -3 55 -10 60 -14 6 -4 21 -6 35 -5 14 1 30 -1 36 -6
6 -5 60 -12 120 -16 106 -8 109 -9 109 -32 1 -34 23 -38 31 -6 6 24 9 26 53
20 82 -12 83 -12 64 -41 -12 -18 -13 -28 -5 -36 17 -17 44 10 36 35 -5 17 -3
19 17 13 13 -3 46 -9 72 -13 54 -7 62 -14 48 -42 -8 -14 -7 -22 3 -30 16 -14
26 -4 26 25 0 31 14 37 65 30 33 -5 44 -12 49 -28 5 -20 6 -21 23 -6 17 15 24
15 99 -4 79 -20 80 -21 76 -49 -3 -22 0 -29 12 -29 9 0 16 8 16 20 0 24 11 25
50 5 34 -17 38 -30 14 -43 -19 -11 -10 -32 13 -32 8 0 26 9 40 20 30 24 45 18
37 -16 -5 -18 -2 -24 9 -24 9 0 20 7 25 15 7 14 14 13 56 -6 27 -12 51 -29 53
-40 4 -15 14 -19 44 -19 38 0 38 -1 32 -31 -6 -30 -5 -31 28 -27 29 3 34 0 37
-20 3 -20 8 -22 31 -17 38 8 62 -18 31 -35 -17 -9 -19 -14 -9 -26 15 -18 28
-18 50 2 17 15 20 14 48 -6 56 -39 105 -146 81 -175 -19 -22 -28 -18 -22 10 4
22 1 25 -22 25 -27 0 -34 -18 -15 -37 7 -7 9 -19 5 -28 -5 -13 -18 -15 -68
-13 -55 3 -63 5 -60 22 7 37 -7 65 -27 59 -16 -4 -21 -15 -23 -52 l-3 -46 -19
38 c-21 39 -36 46 -55 23 -10 -11 -8 -16 5 -24 10 -6 15 -16 11 -25 -5 -13
-22 -16 -90 -15 -68 1 -93 -3 -128 -20 -32 -16 -46 -19 -56 -10 -20 16 -40 -7
-48 -55 -7 -39 -18 -56 -39 -57 -4 0 -6 11 -4 25 7 32 -16 53 -37 35 -14 -12
-14 -15 1 -31 10 -11 15 -22 11 -25 -10 -10 -80 21 -84 38 -6 19 -37 30 -51
16 -6 -6 -15 -2 -25 12 -11 15 -22 21 -36 17 -12 -3 -54 12 -105 37 -47 24
-88 40 -91 38 -3 -3 -5 -13 -5 -22 0 -11 -17 -22 -53 -33 -69 -22 -70 -22 -63
8 5 18 2 27 -9 32 -24 9 -41 -12 -26 -31 16 -19 6 -36 -19 -36 -30 0 -56 -44
-80 -132 -27 -102 -35 -118 -60 -118 -15 0 -20 -7 -20 -28 0 -40 -17 -56 -83
-76 -58 -17 -59 -17 -74 3 -21 30 -53 28 -53 -4 0 -20 -5 -25 -23 -25 -29 0
-53 25 -68 69 -10 27 -9 34 6 45 20 15 14 46 -8 46 -8 0 -22 17 -31 38 -10 22
-29 43 -44 50 -15 7 -38 19 -52 28 -57 37 -150 -24 -150 -98 0 -46 -83 -83
-130 -58 -19 10 -25 10 -34 -2 -24 -32 -56 -32 -102 2 l-44 31 0 -36 c0 -32
-2 -35 -19 -25 -11 5 -35 10 -53 10 -39 0 -66 14 -49 24 19 12 12 35 -13 42
-31 7 -52 -4 -37 -19 19 -19 12 -28 -16 -25 -24 2 -28 7 -25 29 3 29 -20 54
-43 45 -12 -4 -14 -10 -5 -25 24 -45 -1 -42 -29 3 -21 34 -21 39 -11 234 9
170 9 206 -3 234 -21 48 -64 101 -72 89 -3 -6 -20 -11 -36 -11 -23 0 -43 -13
-88 -60 -85 -87 -155 -112 -190 -68 -21 25 -51 19 -51 -12 0 -32 -26 -34 -84
-6 -45 22 -66 26 -144 26 l-92 0 -2 33 c0 17 0 40 0 50 1 10 -5 20 -13 23 -23
9 -18 22 16 39 30 16 31 16 24 -4 -5 -17 -2 -21 14 -21 28 0 37 21 16 36 -17
13 -16 16 18 48 52 49 171 130 164 112 -7 -18 1 -46 13 -46 15 0 20 33 8 47
-10 13 -5 22 29 54 48 45 64 48 78 17 6 -13 20 -24 33 -26 26 -4 28 5 6 36
-15 22 -15 22 32 22 40 0 45 -2 34 -15 -10 -12 -10 -18 1 -31 12 -14 14 -14
26 2 9 13 10 21 2 31 -9 10 -6 13 13 13 13 0 29 -5 35 -11 19 -19 64 6 133 76
l64 64 23 -26 c29 -30 52 -19 34 15 -16 31 -15 32 34 32 39 0 48 -4 72 -35 34
-42 57 -44 80 -7 25 39 32 42 94 42 41 0 63 -5 82 -20 38 -30 116 -27 167 6
39 26 60 25 60 -2 0 -27 35 -11 38 18 2 18 10 28 25 31 47 9 57 7 57 -12z
m2300 -86 c41 -7 82 -16 90 -19 25 -9 168 -28 290 -37 178 -15 385 -18 552 -8
156 9 181 10 221 8 29 -2 249 47 292 66 41 17 44 13 55 -66 6 -40 15 -65 29
-77 11 -9 31 -38 44 -63 13 -26 50 -79 82 -118 53 -66 60 -80 81 -169 35 -148
47 -268 42 -427 -2 -79 -7 -147 -11 -151 -11 -11 -83 24 -116 56 -29 30 -33
31 -54 18 -63 -41 -117 -67 -162 -78 -44 -11 -55 -10 -82 4 -43 22 -66 20
-121 -9 -63 -34 -99 -32 -146 6 l-38 32 -56 -17 c-107 -32 -133 -39 -136 -35
-2 2 -7 102 -10 222 -6 186 -5 217 7 217 8 0 21 7 28 16 27 32 -9 40 -202 43
-100 1 -193 7 -206 12 -13 5 -52 9 -86 9 -34 0 -93 7 -132 16 -38 8 -118 21
-177 28 -63 8 -118 20 -132 30 -14 9 -36 16 -49 16 -36 0 -178 38 -203 55 -30
19 -22 44 32 102 24 25 44 50 44 54 0 5 13 23 29 42 29 33 52 103 66 200 6 47
8 49 33 42 15 -4 61 -13 102 -20z m-3860 -461 c0 -13 -4 -24 -10 -24 -5 0 -10
14 -10 31 0 17 4 28 10 24 6 -3 10 -17 10 -31z m660 -39 c-13 -14 -26 -23 -28
-20 -3 3 5 16 18 30 13 14 26 23 28 20 3 -3 -5 -16 -18 -30z m3127 -37 c23 -7
45 -17 49 -21 4 -4 22 -7 39 -7 17 0 56 -4 86 -10 61 -10 233 -34 359 -50 47
-6 132 -12 190 -14 58 -2 113 -6 122 -10 24 -11 28 -54 30 -326 l2 -245 -42
-127 c-24 -69 -48 -128 -55 -131 -7 -2 -42 3 -79 12 -64 15 -69 19 -99 66 -17
27 -34 57 -38 66 -11 30 -101 119 -127 125 -16 4 -34 25 -56 66 -17 32 -40 63
-49 69 -10 5 -49 36 -86 70 -44 38 -82 63 -108 69 -22 6 -48 15 -57 20 -10 6
-39 10 -66 10 -54 0 -132 42 -132 71 0 24 -46 87 -101 141 -29 27 -49 56 -49
68 0 13 22 43 55 75 l55 53 58 -14 c31 -7 76 -19 99 -26z m-3057 5 c0 -19 -44
-93 -55 -93 -8 0 -21 -10 -30 -22 -18 -28 -113 -98 -176 -132 -25 -13 -51 -31
-58 -40 -7 -8 -25 -18 -41 -21 -15 -3 -36 -15 -46 -26 -9 -10 -23 -19 -30 -19
-16 0 -154 -91 -173 -114 -7 -9 -22 -16 -33 -16 -10 0 -21 -7 -25 -15 -3 -9
-29 -31 -57 -50 -28 -19 -77 -54 -109 -79 -54 -42 -119 -67 -135 -51 -8 8 49
56 96 82 19 10 57 40 85 66 29 27 63 54 77 60 14 7 37 20 50 30 45 31 193 127
197 127 3 0 23 13 46 29 23 15 85 52 137 81 52 29 111 67 131 84 20 17 44 38
55 47 10 9 31 30 46 48 24 29 48 41 48 24z m-154 -62 c-16 -18 -170 -114 -289
-181 -99 -56 -127 -73 -165 -104 -21 -15 -67 -47 -104 -71 -36 -24 -83 -59
-105 -78 -21 -19 -53 -42 -72 -51 -18 -10 -53 -36 -78 -59 l-44 -41 7 30 c4
16 13 44 20 62 17 42 136 166 175 182 16 7 29 16 29 21 0 5 9 9 19 9 11 0 22
4 26 9 3 5 22 15 43 22 20 7 64 29 98 51 34 21 71 38 83 38 12 0 33 11 47 25
14 14 35 27 48 31 14 3 47 26 76 50 28 24 58 44 66 44 25 0 114 32 121 43 5 8
8 7 11 -2 2 -6 -3 -20 -12 -30z m-492 6 c-2 -7 -25 -23 -50 -36 -25 -14 -54
-35 -64 -48 -10 -13 -45 -41 -77 -63 -62 -41 -239 -222 -275 -281 -12 -19 -30
-56 -40 -84 -11 -27 -27 -58 -35 -67 -26 -30 -12 -127 28 -189 31 -50 32 -52
14 -65 -22 -16 -59 -18 -84 -4 -16 8 -17 16 -10 57 5 26 9 70 8 97 -2 63 27
184 49 211 10 11 28 42 42 69 29 57 230 273 277 299 18 9 33 22 33 27 0 6 7
10 16 10 8 0 34 13 57 29 23 15 52 31 65 35 12 4 22 11 22 16 0 5 6 7 14 4 8
-3 13 -11 10 -17z m136 -16 c0 -14 -117 -109 -183 -147 -10 -7 -35 -27 -55
-46 -33 -31 -89 -71 -102 -73 -10 -2 -105 -100 -136 -141 -48 -63 -84 -138
-84 -176 1 -21 10 -44 26 -62 23 -27 29 -28 77 -23 l52 6 -37 -34 c-51 -47
-103 -62 -150 -42 -48 20 -58 64 -34 150 33 118 58 156 198 295 73 73 155 148
182 167 27 19 55 44 63 55 8 11 22 20 31 20 9 0 37 14 62 30 43 29 90 40 90
21z m110 -21 c0 -6 -14 -19 -31 -28 -17 -9 -40 -25 -51 -34 -31 -26 -41 -22
-21 8 28 43 103 82 103 54z m-581 -109 c-63 -60 -130 -132 -149 -160 -36 -51
-67 -73 -35 -24 10 14 27 42 38 62 32 55 87 121 102 121 7 0 35 25 60 55 35
40 54 55 73 55 22 0 10 -15 -89 -109z m3725 73 c9 -3 46 -42 82 -86 48 -58 72
-98 90 -150 29 -82 29 -154 1 -172 -23 -15 -37 6 -37 57 0 22 -10 53 -24 75
-12 20 -26 48 -31 62 -11 37 -64 118 -91 139 -30 23 -44 81 -21 81 8 0 22 -3
31 -6z m-3868 -109 c-25 -31 -46 -62 -46 -69 0 -7 -9 -21 -21 -32 -12 -10 -29
-35 -40 -55 -16 -33 -72 -70 -85 -57 -6 7 116 198 126 198 4 0 29 21 56 47 62
61 68 40 10 -32z m3672 43 c6 -18 22 -73 36 -122 27 -91 33 -156 16 -156 -6 0
-15 12 -21 28 -6 15 -27 60 -46 101 -49 102 -67 162 -51 173 30 18 57 9 66
-24z m-138 8 c0 -21 -29 -86 -39 -86 -5 0 -21 -20 -35 -44 -36 -62 -193 -206
-266 -245 -34 -17 -65 -30 -68 -27 -14 14 22 58 66 80 109 55 259 216 277 295
6 28 11 31 58 40 4 0 7 -5 7 -13z m-120 -29 c0 -38 -65 -127 -119 -163 -27
-19 -54 -39 -58 -46 -15 -24 -102 -63 -113 -52 -13 13 13 44 36 44 49 0 170
109 215 194 26 51 39 58 39 23z m345 -54 c10 -37 26 -84 35 -103 45 -88 60
-129 66 -185 l7 -60 -27 24 c-31 29 -66 133 -66 197 0 25 -8 61 -19 82 -21 42
-38 128 -24 119 6 -4 18 -37 28 -74z m-2757 -19 c-13 -88 -17 -97 -37 -84 -12
7 -13 19 -3 71 10 53 37 107 49 96 2 -2 -2 -39 -9 -83z m132 62 c0 -25 -41
-66 -66 -66 -33 0 -30 12 11 49 39 34 55 39 55 17z m2753 -82 c51 -87 48 -101
-14 -68 -32 16 -79 100 -79 141 0 21 1 22 28 6 15 -9 44 -44 65 -79z m-993 56
c7 -13 7 -39 1 -78 -6 -38 -6 -75 0 -103 12 -50 -4 -267 -21 -299 -16 -30
-128 -120 -150 -120 -31 0 -113 30 -135 50 -11 10 -35 25 -52 34 -25 13 -33
23 -33 44 0 26 1 25 43 -20 81 -88 168 -87 220 4 44 76 58 143 64 308 3 85 10
165 14 178 10 27 35 29 49 2z m-300 1 c0 -35 -15 -70 -32 -74 -27 -7 -33 15
-13 52 14 28 45 43 45 22z m196 -186 c-3 -66 -12 -147 -21 -180 -18 -68 -57
-131 -87 -141 -30 -9 -97 25 -104 53 -8 32 1 39 31 25 48 -22 73 -15 106 31
30 41 31 44 25 132 -3 50 -8 109 -12 132 -5 34 -1 50 23 92 l28 51 8 -37 c5
-21 6 -92 3 -158z m185 48 c3 -282 -7 -368 -50 -455 -22 -45 -35 -57 -81 -80
-32 -16 -81 -31 -116 -34 -72 -8 -174 3 -174 18 0 5 -16 37 -37 69 -20 33 -34
61 -32 64 3 2 43 -15 89 -39 78 -40 119 -51 176 -47 29 2 129 95 162 149 l27
47 0 205 c0 113 4 211 8 218 20 31 27 4 28 -115z m628 59 c35 -78 40 -119 14
-124 -14 -3 -22 12 -40 72 -40 134 -25 162 26 52z m-2685 31 c-3 -16 -6 -46
-7 -68 -2 -32 -6 -41 -23 -43 -20 -3 -20 0 -13 53 7 54 22 85 40 85 5 0 6 -12
3 -27z m2144 -20 c32 -61 18 -358 -22 -476 -64 -190 -140 -319 -261 -442 -27
-29 -68 -73 -90 -99 l-39 -48 -18 22 c-23 28 -14 46 53 102 28 24 66 70 86
103 19 33 46 73 60 90 14 16 34 50 45 75 11 24 34 62 52 85 47 57 66 98 73
156 3 27 10 52 14 55 5 3 9 76 9 162 0 208 11 268 38 215z m-1928 -24 c0 -5
-12 -9 -27 -9 -27 1 -27 1 -9 15 19 14 36 12 36 -6z m-60 -3 c0 -2 -7 -6 -15
-10 -8 -3 -15 -1 -15 4 0 6 7 10 15 10 8 0 15 -2 15 -4z m2460 -22 c14 -35 12
-77 -2 -96 -7 -9 -30 -20 -50 -23 -34 -6 -38 -5 -43 18 -9 34 0 60 35 96 34
38 48 39 60 5z m-882 -33 c9 -93 -44 -188 -127 -231 -31 -16 -76 -49 -101 -75
-25 -25 -68 -56 -96 -69 -52 -24 -200 -128 -343 -241 -42 -34 -92 -72 -111
-85 -19 -13 -55 -43 -79 -67 -42 -42 -128 -100 -136 -92 -9 10 27 70 47 78 13
5 46 30 73 55 78 71 79 72 98 79 33 12 136 87 147 107 6 11 17 20 25 20 8 0
25 10 37 22 12 12 29 23 38 25 8 1 24 13 35 27 12 15 28 26 36 26 8 0 31 16
50 36 18 20 91 83 161 141 99 81 128 111 134 136 5 25 2 34 -15 48 -40 33 -25
71 34 87 69 18 90 12 93 -27z m1526 -11 c20 0 36 -4 36 -8 0 -8 -13 -9 -85 -4
-15 1 -25 8 -25 17 0 12 4 13 19 5 11 -5 36 -10 55 -10z m-3026 -12 c3 -15 -3
-16 -46 -11 -40 4 -69 -1 -153 -30 -57 -19 -141 -54 -186 -77 -82 -42 -143
-52 -68 -11 22 11 47 25 55 30 32 20 107 51 138 57 17 4 32 10 32 15 0 5 10 9
23 9 12 0 38 9 57 20 46 25 143 24 148 -2z m3092 -8 c0 -5 -2 -10 -4 -10 -3 0
-8 5 -11 10 -3 6 -1 10 4 10 6 0 11 -4 11 -10z m-3605 -37 c-3 -21 -17 -76
-31 -123 -13 -46 -24 -101 -24 -121 0 -32 4 -39 34 -53 39 -19 115 -9 145 18
10 9 27 16 39 16 39 0 207 95 287 163 76 63 95 72 95 42 0 -13 -93 -115 -105
-115 -7 0 -13 -5 -70 -52 -93 -77 -308 -133 -408 -105 -81 22 -88 183 -13 282
14 18 26 43 26 53 0 17 9 27 29 31 2 1 0 -16 -4 -36z m155 32 c0 -8 -62 -37
-67 -31 -3 3 10 12 28 20 42 18 39 17 39 11z m3548 -25 c17 -11 32 -23 32 -26
0 -3 -11 1 -25 10 -13 9 -33 16 -44 16 -11 0 -23 5 -26 10 -11 17 28 11 63
-10z m-3250 -27 c-6 -30 -64 -61 -131 -68 -34 -3 -73 -11 -87 -17 -14 -5 -41
-17 -60 -25 -19 -8 -52 -23 -73 -33 -24 -12 -37 -15 -35 -7 2 7 17 19 34 27
16 8 40 23 54 33 13 9 34 17 45 17 11 0 29 6 40 14 11 7 52 24 90 36 39 13 74
27 80 32 17 15 47 9 43 -9z m936 0 c7 -17 -26 -52 -50 -53 -5 0 -61 -29 -123
-64 -140 -80 -167 -90 -192 -72 -18 12 -18 14 -2 28 10 9 29 19 42 23 13 4 50
24 83 45 32 21 90 51 128 65 39 15 72 31 76 36 9 15 31 10 38 -8z m2225 -10
c47 -14 93 -35 103 -45 10 -10 23 -18 28 -18 6 0 10 -5 10 -11 0 -6 -21 2 -47
17 -41 24 -62 29 -138 32 -51 3 -93 9 -97 16 -29 44 22 47 141 9z m-1769 9 c0
-11 -20 -34 -44 -52 -21 -16 -20 -14 14 38 15 22 30 29 30 14z m-2604 -58 c-9
-27 -20 -65 -25 -84 l-9 -35 -1 31 c-1 27 7 59 34 133 3 8 8 11 11 9 3 -3 -2
-28 -10 -54z m3800 34 c50 -14 104 -56 104 -81 0 -13 -17 -9 -86 18 -95 37
-111 36 -176 -16 -18 -15 -39 -22 -63 -21 -30 1 -39 -4 -55 -31 -18 -30 -45
-49 -131 -96 -20 -11 -39 -27 -42 -36 -4 -8 -12 -15 -18 -15 -6 0 -33 -16 -60
-36 -27 -20 -57 -34 -68 -32 -20 3 -20 3 -1 46 10 23 25 42 32 42 8 0 60 35
117 78 119 89 199 136 291 168 77 27 94 28 156 12z m2229 -28 c26 -23 57 -40
70 -40 41 0 49 -39 46 -211 -1 -65 -1 -66 -26 -61 -20 3 -25 0 -25 -17 0 -16
6 -21 24 -21 23 0 24 -4 28 -62 3 -68 -9 -383 -17 -434 -5 -26 -9 -31 -25 -27
-34 9 -38 -27 -5 -53 l28 -22 -7 -138 c-11 -223 -27 -275 -129 -414 -23 -30
-42 -56 -43 -58 -2 -4 -215 -45 -319 -62 -38 -7 -80 -14 -92 -17 -18 -4 -22 0
-25 24 -2 22 -9 29 -30 31 -31 4 -33 0 -18 -29 17 -30 -23 -39 -176 -39 l-134
0 0 26 c0 19 -4 25 -17 22 -11 -2 -18 -13 -18 -28 0 -18 -6 -26 -23 -28 -23
-4 -29 7 -12 24 14 14 -14 38 -35 30 -13 -5 -13 -9 -3 -25 7 -11 9 -24 4 -28
-13 -13 -389 -10 -393 3 -2 7 -12 10 -22 7 -12 -3 -26 5 -39 21 -23 30 -37 33
-50 10 -7 -12 -17 -15 -36 -10 -20 5 -26 12 -26 35 0 23 14 41 66 87 l67 58
166 3 c130 2 188 7 267 25 l101 23 58 67 c32 37 68 84 79 104 18 31 32 41 86
59 36 12 89 34 117 49 29 14 63 26 75 26 13 0 46 16 73 36 28 19 64 44 82 55
17 11 48 40 67 64 30 36 36 51 36 90 0 25 -7 60 -16 78 -26 50 -115 140 -158
160 -37 17 -38 18 -21 37 23 25 15 45 -18 45 -22 1 -27 -4 -27 -22 0 -28 -10
-29 -60 -3 -22 11 -62 26 -90 33 -71 18 -156 93 -170 150 -6 23 -17 57 -25 75
-9 20 -15 64 -15 117 0 94 7 108 68 125 20 6 46 17 56 25 29 22 53 19 108 -15
60 -37 98 -38 163 -4 43 23 53 25 80 15 70 -25 192 -3 251 45 16 13 30 23 31
24 1 0 23 -18 48 -40z m-3227 -66 c-20 -34 -41 -43 -53 -24 -4 6 8 36 26 68
l33 57 7 -34 c5 -25 2 -42 -13 -67z m-2914 55 c-10 -11 -31 -28 -45 -36 -15
-9 -36 -32 -47 -52 -11 -20 -33 -47 -47 -61 -29 -27 -155 -274 -155 -304 0
-10 -8 -31 -17 -47 -13 -22 -15 -34 -7 -47 16 -25 44 -28 44 -4 0 40 104 298
119 295 4 -1 17 16 27 39 22 50 113 148 137 148 31 0 17 -31 -42 -93 -32 -34
-66 -78 -76 -97 -10 -19 -27 -48 -39 -65 -21 -28 -88 -214 -101 -277 -7 -35
-34 -37 -62 -5 -14 14 -22 41 -26 77 -5 62 9 173 24 178 5 2 9 13 9 24 0 11
17 41 38 67 22 25 47 60 57 76 20 32 163 177 192 194 29 17 37 12 17 -10z
m746 4 c0 -9 -5 -45 -11 -80 -21 -122 30 -214 126 -227 63 -9 184 15 280 55
38 16 76 29 83 29 8 0 35 11 61 24 70 36 154 51 281 50 143 -1 298 -16 327
-32 12 -7 38 -12 57 -12 39 0 45 -10 21 -30 -18 -15 -191 -8 -223 9 -11 6 -89
12 -174 13 -131 2 -166 -1 -243 -20 -49 -12 -112 -33 -140 -47 -79 -38 -244
-86 -315 -92 -131 -11 -191 27 -198 127 -4 57 19 190 40 233 11 22 28 22 28 0z
m930 -21 c0 -4 -18 -25 -40 -47 -34 -33 -42 -37 -62 -28 -23 10 -23 10 14 47
23 23 45 36 62 36 14 0 26 -4 26 -8z m150 -7 c0 -29 -25 -67 -53 -82 -24 -12
-34 -12 -58 -3 -16 7 -29 16 -29 20 0 4 18 24 40 44 42 38 100 51 100 21z
m2679 2 c41 -14 63 -43 42 -56 -9 -6 -33 0 -66 15 -56 26 -124 32 -165 16 -14
-5 -42 -24 -64 -41 -21 -17 -49 -31 -62 -31 -77 0 43 77 161 103 39 9 121 6
154 -6z m-2989 -11 c0 -34 -115 -94 -137 -72 -8 8 46 66 72 76 32 14 65 11 65
-4z m712 -21 c-41 -36 -104 -68 -162 -80 -54 -11 -26 10 79 60 51 24 95 46 98
49 4 3 10 6 15 6 4 0 -9 -16 -30 -35z m-1598 -72 c-18 -90 -17 -138 1 -174 23
-44 90 -87 156 -101 l59 -12 0 -38 c0 -27 -5 -41 -16 -45 -9 -3 -57 7 -106 23
-122 40 -124 43 -120 243 1 93 7 160 13 168 22 25 26 3 13 -64z m3226 51 c0
-15 -19 -63 -42 -107 -34 -63 -69 -107 -164 -203 -67 -68 -128 -124 -136 -124
-7 0 -18 -4 -23 -9 -24 -23 -133 -51 -197 -51 -37 0 -69 -4 -72 -9 -8 -12 -46
-1 -46 13 0 21 23 36 57 36 18 0 33 4 33 8 0 5 30 14 66 21 89 16 170 58 246
129 35 31 86 77 113 102 44 39 125 144 125 162 0 18 21 58 30 58 5 0 10 -12
10 -26z m890 0 c16 -40 13 -44 -33 -44 -47 0 -96 -27 -177 -95 -71 -60 -118
-77 -182 -66 -69 12 -170 48 -180 64 -16 24 -7 26 39 6 25 -11 71 -22 102 -25
48 -5 63 -2 106 21 27 15 65 39 85 54 48 38 136 81 165 81 14 0 30 7 37 15 19
21 27 18 38 -11z m-984 -37 c-11 -46 -236 -255 -321 -298 -68 -35 -106 -44
-99 -24 4 8 15 15 26 15 30 0 58 18 123 80 33 31 67 61 75 66 9 5 35 39 58 75
31 47 53 69 77 78 18 6 39 18 45 27 17 19 24 11 16 -19z m214 12 c0 -24 -43
-80 -85 -110 -24 -18 -49 -43 -55 -58 -6 -14 -24 -48 -40 -76 -16 -27 -34 -60
-41 -72 -7 -13 -19 -25 -28 -28 -9 -3 -27 -21 -41 -40 -22 -31 -101 -95 -117
-95 -3 0 -43 -18 -88 -40 l-82 -40 -148 -4 c-143 -4 -147 -3 -129 14 14 14 41
20 109 24 183 12 305 58 391 148 27 28 77 79 111 112 41 40 79 91 109 146 69
128 71 130 104 130 17 0 30 -5 30 -11z m489 2 c12 -8 12 -12 2 -25 -10 -12
-23 -14 -51 -10 -27 4 -48 0 -78 -15 -23 -12 -53 -21 -67 -21 -25 0 -25 0 -9
25 9 14 29 32 43 40 29 16 138 20 160 6z m-3905 -116 c-8 -103 -23 -100 -31 8
-5 68 -4 75 13 79 11 2 20 3 22 2 2 -1 0 -41 -4 -89z m1786 80 c0 -8 -19 -29
-42 -46 -24 -16 -64 -54 -90 -83 -26 -30 -59 -57 -72 -60 -14 -3 -53 -28 -88
-54 -75 -57 -164 -82 -214 -60 -75 32 -114 83 -114 147 0 40 2 43 23 37 12 -3
28 -6 36 -6 7 0 11 -6 8 -14 -3 -8 4 -33 16 -54 19 -35 27 -41 65 -46 63 -9
90 1 149 53 107 94 136 115 196 143 34 15 73 34 87 42 33 19 40 19 40 1z
m7835 -29 c87 -2 162 -7 178 -14 16 -7 46 -12 68 -12 53 0 79 -15 79 -45 0
-29 30 -35 50 -10 7 8 18 15 25 15 7 0 42 14 78 31 59 27 70 29 104 20 21 -6
52 -11 70 -11 17 0 35 -5 38 -11 4 -6 13 -8 21 -5 25 10 138 -112 157 -168 21
-63 23 -184 2 -212 -8 -12 -12 -24 -9 -27 3 -3 0 -31 -8 -63 -11 -49 -22 -66
-73 -116 -33 -33 -76 -68 -95 -78 -19 -10 -53 -27 -75 -39 -22 -11 -85 -30
-140 -41 -101 -22 -128 -34 -229 -104 -41 -29 -56 -45 -56 -62 0 -30 12 -30
50 -2 44 32 55 15 40 -55 l-13 -55 -65 -13 c-60 -11 -66 -10 -79 6 -15 22 -17
102 -3 141 10 26 30 53 98 134 35 41 79 60 142 60 22 0 79 22 160 63 156 78
239 152 257 232 22 95 25 116 15 128 -6 7 -18 42 -27 78 l-16 65 -75 39 c-74
38 -76 38 -135 27 -33 -6 -83 -22 -112 -36 -88 -42 -100 -42 -119 -2 -12 24
-25 36 -45 40 -82 15 -183 19 -423 16 -146 -2 -278 -3 -295 -3 -454 4 -615 2
-735 -5 -80 -5 -244 -8 -365 -7 -121 2 -263 -1 -315 -6 -52 -6 -141 -13 -197
-17 -82 -6 -108 -12 -132 -29 -27 -20 -37 -22 -135 -16 -59 3 -108 9 -110 12
-2 3 -37 4 -78 1 -83 -6 -138 0 -141 15 -1 6 23 13 53 16 30 4 71 12 90 18 19
6 60 14 89 17 30 3 58 7 61 9 13 8 276 34 340 34 75 -1 143 5 157 14 5 3 67 8
138 11 72 3 204 9 295 13 144 7 590 7 675 0 17 -1 53 3 80 9 33 7 135 9 295 6
135 -2 313 -5 395 -6z m-5294 -42 c55 -52 107 -148 116 -213 3 -22 2 -41 -2
-41 -4 0 -29 16 -55 36 -41 31 -48 42 -52 79 -3 25 -20 67 -42 101 -59 97 -45
112 35 38z m-104 -11 c44 -55 63 -97 63 -138 0 -39 -6 -41 -65 -21 -35 12 -43
21 -62 67 -29 71 -29 103 0 117 32 15 31 16 64 -25z m-4763 11 c4 -10 -9 -40
-34 -76 -22 -33 -40 -66 -40 -73 0 -35 -97 -175 -121 -175 -23 0 44 152 119
267 47 73 65 86 76 57z m4630 0 c3 -9 6 -25 6 -37 0 -12 7 -42 16 -66 16 -47
9 -65 -22 -59 -17 3 -22 13 -43 102 -10 43 -10 50 6 62 23 18 30 17 37 -2z
m-684 -14 c0 -5 -5 -10 -11 -10 -5 0 -7 5 -4 10 3 6 8 10 11 10 2 0 4 -4 4
-10z m-3440 -200 c50 -202 59 -332 25 -390 -26 -44 -124 -99 -177 -100 -21 0
-61 -10 -90 -23 -68 -30 -100 -38 -116 -28 -23 14 40 46 116 59 83 14 115 28
191 84 l53 40 -4 82 c-4 56 -16 115 -41 192 -20 60 -41 139 -46 175 -9 59 -8
65 12 82 16 14 22 15 28 5 4 -7 26 -87 49 -178z m3610 170 c16 -16 19 -31 17
-85 -1 -36 -3 -65 -5 -65 -1 0 -18 7 -37 14 -30 13 -35 20 -35 47 0 39 20 109
32 109 4 0 17 -9 28 -20z m-2622 -77 c-4 -66 -15 -118 -44 -208 -34 -105 -39
-132 -39 -216 l0 -96 77 -102 c47 -62 80 -116 84 -137 7 -40 7 -40 -27 -49
-24 -6 -28 -2 -53 55 -14 34 -46 85 -70 112 -37 42 -46 62 -61 131 -24 110
-25 222 -1 266 16 31 74 221 91 299 5 23 12 32 27 32 19 0 20 -5 16 -87z
m2000 73 c-7 -8 -15 -12 -17 -11 -5 6 10 25 20 25 5 0 4 -6 -3 -14z m-2098
-24 c0 -39 -19 -100 -33 -109 -7 -5 -25 -29 -40 -54 -39 -69 -132 -148 -233
-200 -137 -71 -204 -85 -204 -45 0 27 27 42 107 59 59 13 101 30 158 65 66 40
83 56 117 112 21 36 48 94 59 130 17 56 23 66 44 68 21 1 25 -3 25 -26z m256
-4 c10 -45 6 -311 -7 -375 -6 -28 -21 -67 -35 -85 -13 -18 -32 -46 -41 -62
-10 -16 -30 -43 -45 -60 l-27 -31 -9 25 c-11 30 0 75 27 104 10 12 42 69 71
128 l51 107 -7 140 c-4 95 -3 141 3 141 6 0 14 -15 19 -32z m332 10 c-14 -41
-118 -74 -146 -46 -25 25 -13 38 36 39 26 1 58 5 72 9 37 12 42 11 38 -2z
m2572 -10 c0 -13 3 -40 6 -60 6 -35 5 -36 -17 -31 -37 9 -49 23 -49 58 0 23 6
35 23 43 32 16 37 14 37 -10z m-3274 -3 c13 -33 -29 -120 -88 -181 -51 -54
-70 -66 -144 -93 -48 -17 -106 -31 -130 -31 -40 0 -44 2 -44 25 0 26 5 28 109
39 31 3 52 13 75 35 18 17 37 31 43 31 15 0 91 86 110 125 30 59 58 79 69 50z
m2152 -27 c-21 -25 -45 -43 -58 -44 -12 -1 -34 -10 -48 -21 -37 -27 -82 -38
-82 -19 0 8 13 17 28 21 15 3 62 28 103 55 40 26 78 49 83 49 5 1 -7 -18 -26
-41z m-863 24 c14 -10 75 -153 75 -175 0 -10 14 -50 30 -89 17 -38 30 -77 30
-87 0 -9 9 -30 19 -48 11 -17 25 -50 31 -72 8 -30 30 -58 96 -119 79 -74 84
-81 68 -96 -14 -15 -58 -30 -81 -28 -5 1 -10 11 -13 24 -4 13 -15 24 -27 26
-14 2 -35 31 -72 102 -62 119 -107 244 -130 365 -10 50 -25 104 -33 120 -33
66 -30 104 7 77z m1315 -2 c0 -5 -8 -10 -17 -10 -15 0 -16 2 -3 10 19 12 20
12 20 0z m-3836 -41 c7 -41 -7 -72 -57 -124 -34 -37 -136 -189 -158 -237 -18
-40 -26 -48 -49 -48 -15 0 -35 8 -44 19 -16 18 -15 21 33 70 72 74 116 130
143 182 27 55 110 178 119 179 4 0 9 -18 13 -41z m9231 11 l23 -22 41 24 40
23 37 -20 c33 -18 37 -18 48 -3 7 9 28 17 51 18 67 3 75 1 75 -20 0 -25 26
-26 39 -2 13 25 70 18 94 -12 17 -20 18 -21 32 -2 8 10 16 22 17 26 2 4 22 10
45 14 40 6 43 5 57 -26 11 -23 13 -42 8 -63 -8 -27 -13 -31 -57 -36 -40 -4
-49 -2 -52 12 -8 31 -31 29 -54 -2 -19 -26 -26 -30 -52 -25 -17 3 -38 13 -47
21 -21 19 -30 19 -30 1 0 -10 -17 -15 -60 -18 -50 -2 -60 0 -60 13 0 23 -24
41 -44 33 -9 -3 -16 -17 -16 -30 0 -20 -5 -24 -33 -24 -18 0 -56 6 -85 13 -47
13 -53 12 -68 -5 -10 -10 -26 -18 -37 -18 -16 0 -19 5 -14 29 8 37 -12 56 -38
38 -14 -11 -15 -17 -6 -35 16 -29 14 -32 -16 -32 -25 0 -39 9 -85 57 -28 29
-50 14 -41 -28 7 -36 -12 -39 -52 -7 -26 20 -29 20 -40 5 -7 -9 -24 -17 -39
-17 -26 0 -35 13 -16 25 18 11 11 25 -17 36 -16 6 -36 17 -45 26 -18 16 -38
10 -38 -11 0 -8 11 -21 25 -30 42 -28 32 -48 -22 -44 -44 3 -49 6 -73 48 -29
49 -50 60 -71 34 -12 -14 -10 -19 9 -35 22 -17 22 -18 4 -28 -23 -12 -38 -3
-51 32 -17 44 0 64 56 69 37 4 53 0 69 -14 19 -17 22 -17 54 -2 26 14 41 15
70 7 24 -6 44 -6 58 0 29 13 35 6 22 -27 -8 -22 -7 -28 7 -33 9 -4 21 1 29 12
12 16 11 21 -3 37 -22 25 -13 30 21 13 37 -19 55 -19 79 2 18 17 19 17 17 -7
-4 -41 -1 -50 15 -50 22 0 29 24 15 50 -16 31 -8 34 25 8 l27 -21 17 20 c9 11
23 23 31 26 27 11 82 -2 105 -23z m746 4 c14 -13 18 -12 29 1 21 25 47 18 53
-14 6 -27 8 -29 31 -18 14 7 28 22 31 35 8 31 29 23 33 -12 4 -31 -19 -53 -75
-72 -38 -13 -51 -7 -49 26 1 19 -5 26 -21 28 -25 4 -30 -16 -13 -49 9 -16 7
-19 -8 -19 -29 0 -43 23 -36 60 6 28 4 32 -12 28 -15 -2 -20 -13 -22 -51 -3
-42 -6 -47 -27 -47 -23 0 -24 2 -13 26 9 20 9 27 -1 33 -19 12 -9 44 19 58 27
14 56 9 81 -13z m-6030 -27 c-8 -8 -11 -5 -11 9 0 27 14 41 18 19 2 -9 -1 -22
-7 -28z m237 28 c2 -2 2 -29 0 -61 l-3 -59 -27 27 c-22 21 -28 37 -28 68 0 39
1 40 28 34 15 -4 28 -8 30 -9z m6092 -2 c0 -10 3 -29 6 -43 l6 -25 -20 22
c-19 22 -20 22 -37 3 -10 -11 -27 -20 -37 -20 -19 0 -19 1 1 26 12 15 21 33
21 40 0 9 11 14 30 14 22 0 30 -5 30 -17z m-9956 -9 c3 -9 6 -28 6 -42 0 -15
7 -40 16 -57 20 -38 74 -250 74 -291 0 -24 -9 -40 -35 -63 -66 -57 -82 -63
-268 -94 -9 -2 -34 -20 -55 -40 -41 -40 -58 -45 -86 -24 -17 13 -17 16 14 50
18 20 41 37 51 37 10 0 27 8 37 18 11 11 38 22 62 25 53 7 167 62 180 87 25
46 22 105 -9 231 -31 127 -36 160 -24 172 11 12 31 7 37 -9z m8146 -57 c0 -27
-2 -29 -27 -22 -34 8 -32 5 -39 42 -5 27 -3 32 17 35 30 5 49 -17 49 -55z
m1884 48 c-4 -8 -8 -15 -10 -15 -2 0 -4 7 -4 15 0 8 4 15 10 15 5 0 7 -7 4
-15z m-8814 -138 c0 -61 -25 -126 -43 -108 -16 16 -14 186 3 226 l13 30 13
-50 c8 -27 14 -72 14 -98z m929 106 c12 -40 14 -70 6 -61 -11 10 -33 98 -24
98 4 0 13 -17 18 -37z m1816 -4 c8 -49 3 -56 -30 -41 -20 9 -25 19 -25 47 0
30 3 35 24 35 21 0 25 -6 31 -41z m125 20 c15 -28 7 -45 -25 -51 -20 -4 -30 0
-42 19 -9 13 -14 25 -12 27 12 10 46 25 56 26 7 0 17 -9 23 -21z m3958 -12 c3
-24 0 -27 -27 -27 -35 0 -39 14 -14 42 22 24 37 18 41 -15z m-5954 -29 c3 -16
4 -28 1 -28 -9 0 -34 57 -28 64 9 9 19 -5 27 -36z m-2201 15 c-15 -42 -97
-173 -107 -173 -12 0 -127 -229 -142 -279 -7 -27 -41 -60 -61 -61 -19 0 -16
25 7 70 11 22 20 49 20 61 0 12 6 27 14 33 8 6 32 47 55 91 23 44 60 99 81
123 22 23 50 62 62 86 18 38 45 63 70 65 4 1 4 -7 1 -16z m3690 -14 c22 -6 72
-25 109 -41 96 -43 77 -58 -39 -30 -48 11 -107 24 -131 27 -40 7 -72 33 -72
61 0 12 49 6 133 -17z m3628 22 c27 16 414 -8 579 -37 14 -2 72 -9 130 -15 58
-5 134 -17 170 -25 36 -9 106 -21 155 -27 104 -12 1046 -17 1145 -5 36 4 110
10 165 13 179 10 203 12 275 30 39 10 84 15 100 12 16 -4 73 5 130 18 104 26
140 30 140 18 0 -4 -24 -57 -54 -118 -57 -118 -71 -155 -81 -225 -3 -24 -10
-49 -14 -55 -5 -5 -11 -30 -14 -55 -3 -27 -12 -49 -23 -55 -82 -48 -137 -144
-157 -275 l-13 -85 -49 -7 c-28 -3 -93 -9 -145 -12 -140 -8 -243 -17 -257 -21
-50 -16 -1244 -21 -1272 -6 -10 6 -65 12 -123 14 -58 3 -111 8 -117 12 -7 3
-18 1 -26 -5 -11 -9 -15 -9 -15 -1 0 7 -19 11 -49 11 l-49 0 -44 71 c-24 38
-64 95 -90 126 -30 35 -50 69 -53 92 -4 20 -13 54 -22 76 -8 22 -30 80 -48
129 -19 49 -50 113 -70 142 -44 64 -137 153 -162 156 -32 2 -38 4 -60 16 -27
15 -134 16 -188 1 -22 -6 -77 -24 -122 -41 -45 -16 -87 -28 -94 -26 -14 5 47
78 65 78 7 0 37 13 67 30 40 21 76 31 127 36 40 4 75 10 77 14 3 5 20 4 39 0
19 -4 40 -4 47 1z m-7971 -30 c0 -11 -29 -42 -72 -77 -71 -58 -128 -132 -128
-165 0 -20 -49 -99 -62 -99 -12 0 -10 78 2 85 6 3 10 14 10 24 0 22 103 155
150 194 18 16 46 31 61 34 16 3 29 9 29 14 0 5 2 9 5 9 3 0 5 -8 5 -19z
m11271 -11 c9 -14 21 -48 24 -77 l7 -52 -63 -41 c-67 -43 -97 -48 -152 -25
-101 42 -32 188 103 216 50 10 61 7 81 -21z m-9933 -27 c-3 -48 -3 -48 -40
-51 -38 -3 -38 -3 -38 35 0 46 14 63 53 63 27 0 28 -1 25 -47z m-819 10 c-5
-15 -32 -57 -59 -94 -28 -36 -50 -71 -50 -76 0 -5 -15 -30 -34 -54 -38 -49
-71 -131 -81 -202 -8 -54 -12 -58 -45 -50 -21 6 -22 10 -17 64 7 81 49 164
144 289 44 58 85 115 92 128 7 13 21 22 36 22 22 0 24 -2 14 -27z m2286 9 c15
-10 37 -126 30 -154 -3 -13 6 -79 20 -147 43 -202 89 -304 162 -357 21 -15 42
-31 46 -35 20 -16 -26 -39 -78 -39 -53 0 -53 0 -91 53 -21 28 -52 90 -70 137
-27 73 -32 103 -38 210 -6 127 -25 227 -52 267 -17 27 -18 45 -2 61 13 13 57
16 73 4z m2275 -9 c-13 -3 -58 -18 -98 -34 -63 -25 -83 -29 -131 -24 -31 4
-85 2 -120 -3 -36 -5 -76 -6 -90 -2 -24 6 -24 7 -6 15 11 4 43 7 70 6 28 -1
75 5 105 15 30 9 80 19 110 23 59 9 202 11 160 4z m145 -10 c52 -6 111 -40
122 -72 4 -9 15 -27 25 -40 19 -26 24 -61 8 -61 -5 0 -10 5 -10 10 0 6 -6 10
-14 10 -8 0 -17 9 -21 20 -7 21 -55 60 -74 60 -13 0 -121 77 -121 86 0 4 8 3
18 -1 9 -4 40 -10 67 -12z m-4525 -48 c0 -31 -7 -44 -93 -169 -15 -21 -32 -56
-38 -76 -9 -31 -18 -40 -50 -50 -22 -7 -42 -10 -46 -6 -10 10 58 146 93 186
17 19 44 55 59 80 54 87 75 98 75 35z m3533 -40 c49 -80 50 -100 7 -93 -18 2
-31 21 -57 81 -32 74 -35 103 -10 94 7 -2 34 -39 60 -82z m-4503 25 c0 -31
-10 -73 -25 -110 -30 -71 -33 -143 -7 -165 9 -8 43 -37 74 -65 32 -27 75 -58
96 -69 52 -26 290 -95 322 -92 34 2 120 -18 147 -35 12 -8 38 -14 57 -14 19 0
38 -4 41 -10 3 -5 19 -10 34 -10 15 0 47 -6 72 -14 24 -8 98 -19 164 -25 66
-7 149 -17 185 -23 36 -5 128 -14 205 -18 77 -5 156 -13 175 -18 48 -14 250
-25 390 -22 63 1 126 2 140 1 110 -2 780 -10 800 -8 14 1 86 1 160 0 124 -1
244 -2 345 -2 22 0 58 0 80 -1 22 -1 119 3 215 9 304 18 327 19 341 11 7 -5
20 -5 29 0 9 5 108 16 221 25 322 24 402 33 434 45 17 7 57 13 90 15 65 4 97
9 345 56 91 17 184 40 208 51 24 10 58 21 75 25 29 5 52 15 142 61 17 8 52 33
79 54 27 21 52 38 57 38 16 0 28 68 27 159 0 93 0 96 28 118 46 37 110 53 192
48 40 -3 89 -12 110 -21 20 -10 40 -16 45 -15 4 0 24 -6 43 -14 20 -8 44 -15
53 -15 19 -1 148 -64 211 -104 56 -36 107 -87 120 -121 6 -15 10 -44 10 -66 0
-33 -6 -46 -32 -70 -18 -16 -45 -40 -59 -54 -15 -14 -31 -25 -36 -25 -5 0 -24
-11 -43 -25 -19 -14 -47 -25 -63 -25 -16 0 -50 -11 -76 -24 -54 -28 -76 -36
-241 -87 -69 -21 -137 -39 -153 -39 -15 0 -35 -4 -45 -9 -21 -12 -228 -57
-302 -67 -30 -4 -59 -10 -65 -14 -5 -4 -30 -10 -55 -13 -25 -2 -74 -10 -110
-16 -109 -18 -536 -69 -713 -85 -32 -3 -61 -7 -65 -10 -4 -2 -70 -5 -147 -7
-77 -2 -145 -6 -150 -10 -6 -4 -76 -9 -155 -10 -92 -1 -148 -6 -153 -13 -6 -8
-10 -7 -14 1 -3 9 -10 10 -22 4 -9 -5 -100 -13 -201 -16 -200 -8 -196 -8 -255
-7 -22 0 -121 -1 -220 -2 -199 -3 -357 -5 -395 -5 -14 1 -108 1 -210 0 -268
-1 -579 5 -625 11 -22 4 -118 9 -214 13 -96 3 -179 9 -184 12 -6 3 -51 8 -101
9 -100 4 -291 18 -461 33 -60 6 -119 11 -130 11 -11 0 -55 7 -99 16 -43 9 -88
13 -99 10 -12 -3 -26 -1 -32 4 -6 5 -69 14 -140 20 -72 7 -142 18 -157 26 -15
8 -54 14 -87 14 -37 0 -82 8 -113 20 -29 11 -68 20 -86 20 -18 0 -68 9 -112
21 -44 11 -88 19 -97 18 -10 -1 -25 1 -33 4 -8 4 -76 27 -150 52 -74 25 -144
50 -155 55 -11 5 -30 12 -43 15 -62 18 -153 69 -207 118 -60 54 -60 55 -60
110 0 48 4 60 30 87 61 65 187 141 290 177 55 19 103 39 106 45 3 5 8 9 10 8
2 -1 11 1 19 4 43 14 338 85 358 86 20 0 22 -5 22 -50z m2419 41 c43 -28 -89
-415 -170 -496 -20 -20 -20 -20 -34 -1 -17 23 -10 40 45 106 62 75 97 162 109
272 6 54 11 104 11 113 0 17 17 19 39 6z m740 -45 c6 -25 11 -53 11 -63 -1
-31 -26 26 -34 75 -8 56 8 47 23 -12z m517 37 c-29 -76 -192 -273 -215 -258
-23 14 -9 52 39 108 28 32 50 63 50 68 0 5 7 9 15 9 8 0 24 18 35 39 11 22 28
42 37 44 37 10 45 7 39 -10z m219 7 c3 -5 -1 -10 -9 -10 -9 0 -16 5 -16 10 0
6 4 10 9 10 6 0 13 -4 16 -10z m-2502 -76 c115 -36 125 -49 109 -145 -7 -38
-12 -78 -12 -89 0 -11 -15 -43 -34 -71 -19 -27 -37 -58 -41 -68 -7 -24 -105
-127 -127 -134 -29 -10 -21 20 12 49 63 57 150 238 150 313 0 59 -27 85 -122
116 -90 30 -98 36 -98 78 l0 27 38 -24 c20 -13 77 -37 125 -52z m2161 64 c-14
-23 -114 -147 -123 -153 -5 -3 -16 7 -24 22 -13 27 -12 30 42 86 42 43 62 57
84 57 20 0 26 -4 21 -12z m1310 -7 c12 -5 16 -10 9 -14 -11 -7 -63 8 -63 18 0
7 31 5 54 -4z m-1880 -61 c29 -53 30 -57 30 -210 0 -131 -3 -167 -23 -236 -22
-80 -23 -82 -82 -122 -55 -38 -59 -40 -59 -19 0 12 21 64 47 115 33 68 48 110
51 150 6 68 -14 243 -34 295 -8 20 -14 49 -14 63 0 22 4 25 28 22 21 -2 33
-14 56 -58z m2461 30 c14 -13 30 -39 36 -59 6 -20 20 -51 31 -69 22 -36 18
-106 -8 -116 -8 -3 -14 -12 -14 -19 0 -25 -41 -67 -90 -92 -37 -19 -47 -29
-43 -43 3 -14 -4 -21 -31 -29 -25 -8 -36 -8 -36 -1 0 12 71 82 140 138 40 33
43 39 43 83 -1 28 -9 59 -21 79 -32 52 -94 105 -129 113 -39 8 -42 18 -10 33
34 18 104 8 132 -18z m-2915 -25 c0 -40 -13 -81 -84 -265 -11 -31 -31 -66 -42
-79 -12 -12 -31 -48 -43 -80 -23 -63 -52 -97 -76 -88 -23 9 -18 40 9 66 30 28
96 159 96 190 0 12 14 49 31 82 17 34 35 89 40 123 14 89 17 96 45 96 22 0 24
-4 24 -45z m2080 25 c42 -42 52 -100 17 -100 -24 0 -42 22 -62 81 -13 37 -13
39 5 39 11 0 29 -9 40 -20z m-4350 -23 c0 -31 -3 -34 -52 -48 -29 -9 -55 -15
-57 -13 -10 9 87 94 107 94 1 0 2 -15 2 -33z m1725 -38 c-12 -47 -16 -94 -13
-174 4 -123 20 -169 97 -275 22 -30 43 -66 46 -80 6 -24 4 -25 -47 -25 -52 0
-53 0 -58 35 -4 19 -28 89 -55 155 -46 113 -48 125 -48 210 0 50 5 103 12 119
11 28 72 105 79 100 2 -1 -4 -30 -13 -65z m2421 36 c22 -33 13 -40 -25 -20
-31 15 -37 26 -24 38 13 14 33 6 49 -18z m360 -26 c20 -35 17 -49 -10 -49 -47
0 -97 66 -70 93 11 10 67 -20 80 -44z m3471 37 c11 -11 15 -120 4 -135 -6 -9
-33 -16 -70 -19 l-61 -4 0 70 c0 101 2 105 66 100 30 -3 57 -8 61 -12z m-3007
-26 c113 -18 200 -87 200 -158 0 -41 -5 -51 -35 -70 -11 -7 -34 -22 -52 -33
-17 -11 -38 -31 -47 -44 -8 -13 -24 -26 -33 -29 -10 -3 -27 -22 -37 -41 -24
-44 -41 -46 -32 -4 3 17 6 45 6 61 0 22 7 33 31 46 71 38 89 61 89 109 0 60
-11 77 -62 92 -24 8 -64 20 -89 28 -75 23 -104 72 -34 59 16 -3 59 -10 95 -16z
m-338 -14 c15 -22 9 -56 -10 -56 -39 0 -79 50 -57 72 9 8 59 -4 67 -16z m96
-1 c18 -40 15 -77 -5 -73 -21 4 -54 64 -46 84 9 23 39 16 51 -11z m-2116 -56
c40 -152 13 -352 -63 -469 -37 -57 -40 -60 -79 -60 -38 0 -41 2 -35 23 9 30
53 97 64 97 14 0 71 233 71 291 0 30 -5 81 -10 114 -7 45 -7 61 3 67 22 14 32
2 49 -63z m-1867 41 c4 -6 4 -33 0 -60 -6 -47 -10 -51 -60 -80 -29 -16 -55
-30 -59 -30 -9 0 18 52 63 122 37 59 45 66 56 48z m3338 -6 c18 -9 40 -23 49
-32 48 -41 192 -65 253 -42 15 6 31 8 36 5 4 -3 70 -8 146 -10 127 -5 142 -7
204 -36 98 -45 114 -71 114 -186 l0 -93 -29 -10 c-16 -5 -44 -10 -63 -10 l-34
0 2 55 c2 48 -1 59 -25 84 -36 38 -73 45 -238 42 -100 -1 -151 2 -189 13 -29
9 -71 16 -93 16 -28 0 -45 5 -52 18 -10 16 -5 17 76 16 48 0 91 -3 96 -6 5 -3
87 -5 182 -4 l173 3 37 -27 c20 -14 45 -29 55 -33 16 -6 19 -17 22 -112 1 -40
31 -46 45 -10 28 73 5 121 -93 192 l-51 38 -261 1 c-240 1 -264 3 -300 22 -22
11 -56 23 -75 27 -38 8 -70 31 -70 51 0 11 36 44 48 44 2 0 17 -7 35 -16z
m743 -18 c20 -13 71 -34 114 -47 44 -12 82 -29 84 -36 8 -21 -14 -60 -41 -72
-37 -17 -58 -13 -72 13 -7 13 -37 39 -67 57 -38 24 -54 40 -54 56 0 12 -3 28
-6 37 -8 22 1 20 42 -8z m509 -36 c14 -27 34 -51 45 -55 27 -9 26 -47 -4 -91
-23 -34 -120 -94 -132 -81 -4 3 5 20 19 37 39 45 53 101 39 149 -15 48 -16
104 -2 96 6 -4 21 -28 35 -55z m-4233 14 c39 -18 50 -40 39 -81 l-7 -27 -22
35 c-23 37 -51 56 -92 61 -15 2 -26 10 -28 22 -4 16 0 18 35 12 21 -4 54 -14
75 -22z m-1062 -14 c9 -17 7 -20 -17 -26 -16 -4 -44 -15 -63 -24 -50 -25 -100
-33 -100 -16 0 24 49 59 102 71 70 17 66 18 78 -5z m2895 1 c3 -6 17 -67 31
-137 39 -197 48 -208 219 -271 62 -23 129 -4 197 56 18 15 44 32 58 36 14 4
36 16 50 25 36 25 178 79 226 86 23 4 44 2 47 -4 4 -5 -11 -12 -36 -14 -62 -8
-134 -46 -189 -100 -27 -26 -52 -48 -58 -48 -5 0 -36 -27 -70 -60 l-61 -60
-62 0 c-42 0 -74 6 -97 19 -19 10 -46 22 -60 26 -14 4 -38 18 -53 31 -16 13
-34 24 -42 24 -20 0 -104 177 -120 255 -16 76 -19 128 -8 138 9 10 21 9 28 -2z
m-1325 -51 c0 -30 -67 -140 -86 -140 -15 0 -97 -107 -126 -165 -12 -22 -24
-42 -28 -45 -4 -3 -9 -14 -11 -25 -5 -22 -29 -30 -66 -20 -23 5 -25 10 -20 45
8 64 72 184 115 219 22 17 54 52 73 79 22 33 49 57 84 74 54 27 65 23 65 -22z
m860 -58 c0 -46 5 -103 11 -126 10 -40 8 -49 -18 -102 -31 -65 -47 -76 -59
-42 -18 51 5 272 37 356 17 43 29 8 29 -86z m540 92 c0 -8 -4 -12 -10 -9 -5 3
-10 10 -10 16 0 5 5 9 10 9 6 0 10 -7 10 -16z m990 -28 c16 -25 39 -47 49 -51
11 -3 25 -13 33 -22 12 -14 8 -16 -37 -11 -36 3 -66 15 -108 43 -31 21 -57 40
-57 43 0 17 37 42 61 42 22 0 35 -10 59 -44z m-2945 -18 c17 -8 29 -24 36 -52
26 -96 -33 -191 -61 -98 -6 20 -18 54 -27 74 -17 41 -11 88 12 88 8 0 26 -5
40 -12z m2804 -15 c15 -16 38 -36 50 -47 19 -14 21 -20 10 -27 -20 -12 -57
-11 -65 2 -3 6 -31 22 -61 35 -74 33 -67 48 30 63 5 0 21 -11 36 -26z m4276
-13 c4 -24 15 -46 28 -56 21 -14 21 -16 5 -28 -10 -7 -18 -20 -18 -29 0 -27
22 -31 41 -9 24 30 29 28 29 -13 0 -23 6 -38 15 -41 12 -5 13 -10 5 -20 -13
-14 -2 -42 24 -63 12 -10 13 -18 4 -37 -9 -18 -8 -28 0 -36 15 -15 16 -122 2
-113 -6 4 -10 -7 -10 -25 0 -30 -2 -31 -37 -28 -35 3 -38 6 -41 36 -2 17 -6
32 -8 32 -3 0 -20 -11 -38 -25 -33 -25 -60 -31 -90 -19 -17 7 -22 34 -6 34 17
0 11 19 -10 30 -16 9 -22 6 -35 -20 -19 -37 -39 -35 -43 4 -3 21 -8 27 -25 24
-14 -2 -22 -10 -22 -23 -1 -11 -7 -19 -14 -17 -21 4 -104 24 -151 36 l-45 12
3 42 c3 33 0 42 -12 42 -17 0 -32 -42 -21 -59 12 -21 -25 -11 -104 27 -91 44
-136 89 -127 126 11 46 121 115 249 156 37 12 69 26 73 31 3 5 18 9 34 9 16 0
32 5 35 10 3 6 34 10 68 10 34 1 91 9 127 20 99 28 107 27 115 -20z m2933 23
c26 -3 55 -10 65 -15 18 -9 18 -11 2 -28 -10 -11 -33 -24 -51 -30 -19 -7 -34
-16 -34 -21 0 -5 -10 -9 -23 -9 -13 0 -28 -5 -34 -11 -15 -15 -43 27 -43 64 0
46 18 70 46 63 13 -4 45 -9 72 -13z m-11014 -34 c3 -17 6 -44 6 -60 0 -27 -2
-28 -25 -17 -21 9 -25 18 -25 54 0 38 7 50 31 53 4 1 9 -13 13 -30z m3604 11
c15 -12 38 -30 52 -40 l25 -19 -28 -1 c-27 0 -107 53 -107 72 0 15 31 8 58
-12z m-1279 -22 c0 -18 -6 -67 -14 -108 -10 -58 -10 -89 -2 -135 6 -33 11 -80
11 -105 1 -41 -1 -45 -25 -48 -15 -2 -33 4 -42 12 -22 22 -31 111 -24 240 l6
111 38 32 c21 18 41 33 46 33 4 0 7 -15 6 -32z m1187 -9 c56 -41 65 -56 39
-65 -27 -11 -62 5 -106 46 -24 22 -49 40 -57 40 -31 0 0 17 33 18 28 1 49 -8
91 -39z m-495 -67 c17 -42 42 -90 55 -105 30 -36 31 -50 2 -42 -59 18 -100 89
-115 200 -6 45 -5 49 10 37 9 -7 30 -48 48 -90z m-1723 30 c-51 -53 -118 -190
-118 -242 l0 -33 -52 6 c-28 4 -56 11 -61 16 -5 5 5 24 27 49 20 22 36 43 36
48 0 5 15 31 34 57 19 27 40 71 47 98 9 35 18 49 30 49 10 0 21 -5 24 -10 4
-7 11 -8 18 -2 13 11 50 20 56 15 3 -2 -16 -25 -41 -51z m-1388 38 c0 -5 -5
-10 -11 -10 -5 0 -7 5 -4 10 3 6 8 10 11 10 2 0 4 -4 4 -10z m7590 1 c0 -5
-25 -24 -55 -41 -33 -19 -67 -49 -86 -76 -16 -24 -36 -44 -43 -44 -7 0 -23
-12 -37 -26 -54 -58 -68 -63 -150 -53 -75 9 -297 66 -312 79 -5 4 -4 17 2 29
13 23 131 64 218 76 29 4 55 11 59 16 3 5 27 9 54 9 27 0 61 5 77 11 15 6 75
14 133 18 58 5 113 9 123 10 9 0 17 -3 17 -8z m-7391 -32 c28 -10 32 -15 29
-43 -4 -45 -41 -49 -63 -6 -9 18 -14 38 -11 46 6 17 5 17 45 3z m1459 -42 c2
-9 -13 -33 -34 -54 -20 -20 -55 -74 -76 -120 -35 -75 -42 -83 -67 -83 -25 0
-28 3 -23 25 6 33 55 109 122 189 54 65 72 75 78 43z m614 -93 c0 -60 4 -129
8 -154 9 -51 -3 -78 -26 -59 -10 8 -13 41 -10 143 6 203 27 258 28 70z m1913
84 c14 -6 25 -15 25 -20 0 -4 8 -8 18 -8 11 0 40 -24 66 -52 43 -47 46 -55 35
-73 -7 -11 -15 -36 -18 -55 -6 -32 -10 -35 -42 -38 -44 -4 -55 15 -39 64 15
44 -13 110 -64 150 -20 16 -36 32 -36 37 0 11 25 9 55 -5z m7359 -18 c22 -17
47 -30 56 -30 21 0 40 -40 40 -85 0 -32 -4 -36 -77 -74 -43 -23 -83 -41 -89
-41 -7 0 -31 -9 -55 -20 -24 -11 -50 -20 -56 -20 -16 0 -18 76 -3 85 13 8 13
26 0 45 -9 13 -11 13 -20 0 -5 -8 -10 -27 -10 -41 0 -14 -3 -29 -7 -33 -4 -4
-6 -23 -4 -42 2 -33 1 -34 -31 -34 -30 0 -34 3 -33 27 0 18 -6 29 -17 31 -13
3 -18 -3 -18 -20 0 -13 5 -29 11 -35 12 -12 -32 -30 -86 -35 -25 -2 -31 1 -33
20 -4 23 -16 29 -27 12 -13 -20 -23 -9 -28 31 -3 23 -11 45 -17 49 -8 5 -4 16
14 36 l25 29 1 -27 c0 -27 16 -46 28 -34 3 4 1 20 -5 37 -11 28 -10 31 13 40
33 12 34 12 34 -9 0 -10 8 -25 19 -34 10 -8 20 -21 22 -27 6 -17 39 -2 39 16
0 8 -9 17 -21 20 -40 11 -18 45 51 80 78 39 76 38 83 12 8 -30 27 -13 27 24 0
40 30 63 60 47 15 -8 21 -6 30 10 15 28 38 25 84 -10z m-10510 4 c3 -9 6 -26
6 -39 0 -13 4 -27 10 -30 13 -8 -15 -61 -39 -75 -16 -8 -21 -5 -30 22 -6 17
-11 45 -11 62 0 55 48 100 64 60z m3095 -53 c60 -56 61 -57 61 -111 0 -64 -6
-77 -39 -81 -26 -4 -25 -6 -56 105 -18 66 -64 117 -96 109 -11 -3 -29 3 -40
13 -19 17 -19 19 -2 25 10 4 39 4 65 2 39 -5 55 -14 107 -62z m396 45 c215 -2
235 -12 235 -113 l0 -41 -69 -16 c-82 -19 -111 -20 -111 -5 0 9 17 48 26 58 2
2 18 -9 36 -24 l33 -28 12 29 c16 38 16 64 1 65 -7 0 -42 2 -78 4 -161 7 -241
23 -280 57 l-35 30 40 -7 c22 -5 108 -9 190 -9z m-2835 -66 c0 -34 -83 -180
-102 -180 -25 0 -23 34 6 95 42 90 96 138 96 85z m2240 14 c0 -8 -4 -24 -10
-34 -14 -26 -137 -120 -157 -120 -10 0 -32 -9 -49 -19 -25 -15 -40 -17 -80
-11 -67 11 -84 19 -84 40 0 15 7 17 45 12 56 -6 99 14 200 93 52 40 79 55 103
55 22 0 32 -5 32 -16z m-191 -20 c-29 -32 -71 -54 -100 -54 -19 0 -20 2 -8 17
14 16 105 63 123 63 5 0 -1 -12 -15 -26z m-2800 -21 c19 -68 16 -76 -25 -70
-45 7 -44 7 -51 50 -5 31 -2 36 23 45 42 15 42 15 53 -25z m3108 -32 c15 -23
23 -49 23 -78 0 -43 -1 -44 -31 -41 -28 3 -32 9 -54 73 -19 53 -22 71 -12 77
23 15 51 3 74 -31z m-3229 5 c6 -29 -10 -35 -60 -25 -53 12 -59 20 -25 37 34
17 81 11 85 -12z m3615 18 c13 -5 13 -11 -1 -55 -14 -43 -19 -49 -44 -49 -30
0 -39 24 -13 34 9 3 15 19 15 41 0 35 10 42 43 29z m-2239 -121 c-7 -55 -12
-61 -32 -41 -17 17 -15 56 5 114 l17 49 8 -35 c4 -19 5 -59 2 -87z m2330 111
c16 -6 21 -39 10 -68 -4 -10 -18 -16 -35 -16 -22 0 -29 5 -29 19 0 11 5 23 10
26 6 3 10 15 10 26 0 20 8 23 34 13z m-1654 -84 c17 -33 30 -64 30 -70 0 -5
-13 -10 -29 -10 -40 0 -61 32 -61 91 0 79 16 76 60 -11z m1083 -15 c2 -34 -1
-39 -23 -45 -60 -16 -82 42 -32 85 34 30 51 17 55 -40z m3148 46 c27 -12 91
-24 169 -31 191 -18 213 -24 259 -76 21 -24 50 -68 64 -97 32 -69 121 -150
221 -202 45 -24 76 -46 76 -56 0 -22 -60 -75 -95 -84 -16 -4 -136 -11 -265
-16 -294 -11 -537 -26 -549 -33 -5 -3 -43 -11 -85 -16 -73 -11 -77 -10 -122
16 -51 30 -70 64 -84 148 -17 111 29 366 67 366 9 0 26 9 38 20 20 19 198 78
241 79 12 1 41 -8 65 -18z m-3284 -97 c-3 -3 -16 -4 -29 -2 l-23 5 25 10 c23
10 41 1 27 -13z m-1707 0 c0 -8 -4 -12 -10 -9 -5 3 -10 10 -10 16 0 5 5 9 10
9 6 0 10 -7 10 -16z m668 -12 c2 -7 -6 -12 -17 -12 -21 0 -27 11 -14 24 9 9
26 2 31 -12z m4885 -12 c14 -11 39 -20 55 -20 17 0 34 -4 37 -10 3 -5 25 -10
48 -10 23 0 51 -7 61 -15 11 -8 35 -15 53 -15 18 0 52 -6 75 -14 24 -8 83 -16
131 -19 49 -4 94 -10 100 -15 10 -8 116 -20 210 -25 9 -1 17 -4 17 -8 0 -4 35
-10 78 -13 42 -2 93 -7 112 -9 19 -2 82 -6 140 -7 58 -2 116 -7 130 -12 14 -5
93 -11 175 -12 83 -2 200 -4 260 -5 61 -1 112 -2 115 -1 20 6 69 5 87 -1 13
-5 25 -4 29 2 4 7 10 7 18 0 7 -6 15 -9 18 -6 6 6 188 15 418 20 91 2 165 4
165 5 0 2 74 8 170 14 195 12 261 19 270 26 6 5 51 8 101 9 49 0 103 5 120 12
16 6 58 15 94 20 230 30 335 50 370 69 30 16 137 40 145 32 18 -18 -21 -152
-44 -152 -7 0 -26 -15 -120 -97 -34 -29 -148 -91 -231 -126 -97 -40 -144 -57
-161 -57 -11 0 -19 -4 -19 -10 0 -5 -10 -10 -23 -10 -13 0 -27 -4 -33 -9 -5
-5 -30 -11 -56 -13 -26 -2 -51 -7 -54 -11 -4 -4 -15 -7 -24 -7 -10 0 -37 -9
-61 -19 -24 -11 -73 -22 -109 -25 -36 -3 -87 -10 -115 -16 -27 -6 -90 -14
-138 -19 -49 -5 -91 -12 -94 -14 -3 -3 -27 3 -54 14 -28 10 -73 19 -102 19
-29 1 -81 8 -117 16 -36 8 -103 19 -150 24 -87 9 -142 16 -195 26 -49 9 -260
24 -410 30 -77 3 -151 9 -165 14 -25 9 -277 19 -586 24 -124 2 -165 6 -185 19
-13 8 -52 23 -87 32 -34 10 -65 22 -68 26 -3 5 -15 9 -28 9 -12 0 -26 4 -32
10 -5 5 -34 22 -64 38 -59 30 -96 50 -120 64 -8 5 -28 15 -45 22 -37 18 -107
90 -128 131 -20 40 -31 95 -19 95 5 0 21 -9 35 -20z m-1965 -105 c4 -33 -34
-85 -63 -85 -14 0 -38 -6 -53 -14 -25 -12 -61 -17 -269 -32 -88 -6 -111 2 -94
33 11 22 112 63 157 64 16 0 79 13 139 29 129 33 179 35 183 5z m-809 -202
c43 -22 57 -35 63 -58 7 -26 3 -35 -35 -73 -23 -24 -64 -60 -92 -80 -27 -20
-86 -66 -130 -101 -129 -104 -352 -241 -391 -241 -11 0 -37 -12 -59 -27 -21
-14 -55 -30 -74 -34 -41 -8 -187 -57 -213 -70 -100 -51 -622 -154 -763 -151
-33 1 -82 -2 -110 -8 -42 -8 -97 -10 -320 -11 -267 -1 -512 4 -520 11 -6 5
-76 14 -156 20 -177 12 -263 24 -309 43 -19 8 -64 18 -99 21 -35 4 -71 11 -80
15 -25 13 -86 31 -104 31 -8 0 -28 5 -44 12 -15 6 -38 10 -50 9 -13 -1 -23 2
-23 8 0 6 -9 11 -19 11 -11 0 -40 9 -66 20 -26 11 -55 20 -66 20 -11 0 -43 14
-72 30 -30 17 -62 30 -73 30 -45 0 -394 211 -494 299 -37 32 -42 41 -32 54 14
17 6 47 -13 47 -16 0 -37 -25 -28 -33 3 -4 2 -7 -3 -7 -6 0 -29 20 -53 44 -55
56 -52 80 16 116 26 14 52 24 57 22 4 -2 32 2 60 7 69 13 170 29 233 37 l52 6
-6 -36 c-6 -39 3 -45 37 -24 18 12 18 13 2 31 -17 19 -15 19 63 14 44 -3 114
-9 155 -13 81 -7 113 -9 350 -18 85 -4 193 -11 239 -17 46 -5 125 -7 176 -3
61 4 94 3 99 -4 4 -7 17 -7 37 -2 16 5 78 5 137 1 59 -4 179 -7 267 -6 92 2
165 -1 172 -7 8 -6 24 -6 47 2 19 6 61 11 93 10 111 -1 569 8 708 15 77 3 201
7 277 9 88 1 141 6 151 14 8 7 40 12 73 11 33 0 67 -1 77 0 9 1 23 1 30 1 43
-2 244 13 261 19 12 4 73 9 136 10 63 2 116 4 117 4 1 1 59 1 129 0 118 -2
133 -5 183 -30z m3916 -169 c66 -4 134 -8 150 -9 17 -1 46 -4 65 -8 19 -4 89
-9 155 -11 128 -6 340 -23 365 -31 8 -2 49 -7 90 -11 41 -3 95 -10 120 -15 25
-5 79 -14 120 -19 104 -13 180 -26 231 -41 24 -7 62 -14 84 -15 39 -2 60 -6
190 -38 67 -16 215 -72 229 -87 6 -5 17 -9 26 -9 9 0 25 -9 35 -20 10 -11 24
-20 32 -20 22 0 53 -62 53 -106 0 -25 -7 -51 -19 -65 -23 -29 -185 -111 -266
-134 -33 -9 -80 -23 -105 -30 -51 -15 -135 -35 -165 -39 -11 -1 -39 -8 -63
-15 -23 -6 -47 -9 -53 -6 -5 4 -15 2 -22 -3 -7 -5 -36 -12 -65 -15 -29 -3 -58
-9 -65 -14 -6 -4 -30 -8 -52 -10 -22 -2 -89 -11 -150 -20 -136 -20 -261 -31
-430 -38 -71 -3 -157 -10 -190 -15 -33 -5 -148 -12 -255 -16 -107 -4 -233 -9
-280 -11 -298 -13 -600 -14 -663 -3 -42 7 -72 8 -80 3 -7 -5 -30 -8 -52 -7
-22 2 -138 8 -258 13 -120 6 -271 15 -335 21 -64 6 -160 13 -212 16 -52 2
-115 8 -140 13 -25 5 -54 9 -65 9 -11 0 -47 5 -80 11 -33 6 -81 11 -107 11
-25 0 -75 9 -110 20 -34 11 -87 20 -116 20 -29 0 -69 7 -89 15 -19 8 -48 15
-63 15 -37 0 -173 30 -184 41 -6 5 -17 9 -25 9 -32 -1 -191 55 -191 68 0 7
-13 12 -29 12 -16 0 -35 7 -42 16 -7 9 -36 31 -65 49 -33 22 -55 44 -62 64
-10 29 -8 33 34 73 24 23 59 50 77 58 17 9 43 23 57 32 37 24 294 108 329 108
17 0 50 6 73 14 24 8 72 20 108 26 36 6 74 15 85 20 36 14 226 40 400 55 94 8
183 18 200 21 16 4 50 8 75 10 25 2 70 6 100 9 120 10 205 14 442 22 136 5
249 11 253 15 8 8 817 1 970 -8z m895 -852 c0 -37 -107 -89 -133 -63 -16 16
-27 14 -27 -8 0 -12 -11 -23 -27 -29 -16 -5 -35 -13 -43 -16 -11 -5 -23 5 -39
34 -22 39 -43 50 -56 30 -4 -6 1 -22 10 -36 20 -32 8 -49 -44 -64 -29 -8 -38
-7 -47 5 -17 22 -33 18 -40 -10 -5 -21 -12 -25 -40 -25 -30 0 -34 3 -34 25 0
14 -3 25 -7 25 -20 -1 -34 -19 -31 -40 3 -21 -3 -25 -46 -36 -52 -13 -58 -10
-98 50 -13 20 -33 -13 -29 -50 2 -31 0 -35 -16 -30 -10 3 -34 2 -53 -2 -50
-11 -70 -5 -70 23 0 26 -28 41 -44 25 -7 -7 -7 -17 3 -32 17 -28 5 -35 -79
-44 -36 -4 -75 -10 -87 -15 -23 -9 -533 -11 -761 -3 -76 2 -192 15 -270 28
-75 14 -186 32 -247 41 -130 20 -135 22 -135 44 0 29 -12 32 -34 12 -28 -26
-53 -14 -37 17 16 29 14 34 -11 30 -17 -2 -22 -9 -21 -26 2 -16 -2 -22 -17
-22 -21 0 -33 14 -37 45 -6 36 -22 41 -29 8 -3 -18 -11 -30 -18 -28 -6 2 -37
9 -68 15 -41 8 -55 15 -52 25 3 7 -2 26 -12 42 -10 15 -19 29 -20 31 0 1 -9 0
-18 -4 -13 -5 -16 -13 -11 -31 5 -22 3 -24 -17 -18 -50 16 -53 21 -26 48 19
18 34 25 55 23 15 -2 36 -4 45 -5 10 -1 25 -20 37 -46 19 -43 42 -57 57 -34 3
6 1 16 -5 22 -14 14 -14 47 0 47 6 0 13 -9 16 -20 7 -26 40 -26 48 0 7 21 39
27 50 10 3 -5 1 -10 -4 -10 -14 0 -14 -37 0 -46 13 -8 29 7 33 32 4 27 51 26
51 -1 1 -45 45 -66 45 -21 0 19 7 26 30 31 16 3 37 2 46 -3 14 -8 10 -12 -22
-28 -46 -22 -59 -59 -22 -61 12 -1 25 3 29 9 4 5 27 13 53 15 36 4 46 10 46
24 0 10 -8 22 -17 28 -33 18 -6 22 78 12 111 -13 177 -16 184 -9 4 3 21 2 38
-3 18 -5 53 -9 78 -9 42 0 48 -3 53 -26 8 -30 39 -30 45 1 6 37 61 51 61 16 0
-42 56 -53 67 -13 3 12 15 19 39 20 31 2 35 0 29 -17 -4 -14 0 -23 14 -30 17
-10 20 -8 23 17 3 23 8 27 39 30 30 3 37 -1 47 -23 14 -31 30 -32 34 -2 2 17
11 23 35 25 l32 3 3 -53 c2 -39 7 -53 18 -53 12 0 14 11 12 53 l-3 52 46 0
c38 0 45 -3 45 -19 0 -11 8 -27 17 -37 13 -13 14 -19 5 -22 -17 -5 -15 -29 4
-36 29 -11 44 -6 44 14 0 12 -7 20 -16 20 -13 0 -15 7 -10 32 3 18 11 37 16
42 5 5 65 10 132 12 68 1 168 5 223 9 55 3 141 7 192 9 101 3 105 0 107 -69 1
-23 6 -31 24 -33 16 -3 22 2 22 17 0 11 -5 23 -10 26 -7 4 -7 13 0 25 6 11 9
25 8 32 -2 9 24 15 97 20 55 3 130 9 168 12 l67 6 -6 -25 c-5 -21 -3 -25 14
-25 27 0 37 17 22 35 -17 21 34 32 66 15 18 -10 30 -11 47 -2 45 22 97 29 97
14z"/>
<path d="M7043 4900 c-13 -5 -23 -16 -23 -24 0 -12 15 -13 83 -9 45 3 84 7 86
9 2 2 1 10 -2 19 -5 11 -21 15 -64 14 -32 0 -68 -4 -80 -9z"/>
<path d="M8527 4963 c-8 -8 -9 -47 -1 -55 11 -11 44 5 44 21 0 28 -28 50 -43
34z"/>
<path d="M9707 4959 c-26 -15 -4 -54 22 -39 25 13 35 50 13 50 -10 0 -25 -5
-35 -11z"/>
<path d="M8740 4926 c0 -15 -7 -26 -20 -29 -25 -6 -26 -33 -1 -46 22 -12 31
-5 31 26 0 14 6 23 15 23 9 0 15 9 15 25 0 18 -5 25 -20 25 -14 0 -20 -7 -20
-24z"/>
<path d="M9781 4931 c-24 -45 -1 -93 26 -55 16 22 14 66 -4 71 -6 2 -16 -5
-22 -16z"/>
<path d="M8316 4931 c-9 -13 3 -39 21 -45 20 -8 43 11 43 35 0 14 -7 19 -29
19 -17 0 -32 -4 -35 -9z"/>
<path d="M8423 4923 c-7 -2 -13 -16 -13 -29 0 -17 6 -24 20 -24 16 0 20 7 20
30 0 30 -4 33 -27 23z"/>
<path d="M8610 4910 c-15 -28 0 -45 30 -35 14 5 20 13 18 28 -4 29 -34 33 -48
7z"/>
<path d="M8830 4900 c0 -23 5 -30 19 -30 19 0 31 18 31 46 0 8 -10 14 -25 14
-21 0 -25 -5 -25 -30z"/>
<path d="M9424 4886 c-7 -19 2 -46 15 -46 15 0 42 31 38 44 -6 18 -46 19 -53
2z"/>
<path d="M9644 4890 c-25 -10 -39 -39 -25 -53 5 -5 19 -7 32 -5 19 2 25 10 27
36 3 34 0 36 -34 22z"/>
<path d="M8944 4882 c-19 -12 -23 -40 -9 -52 19 -16 41 -7 48 19 6 23 -21 45
-39 33z"/>
<path d="M9532 4874 c-25 -18 -29 -42 -7 -50 21 -9 45 14 45 42 0 28 -7 30
-38 8z"/>
<path d="M8476 4864 c-20 -19 -20 -28 -1 -44 13 -11 19 -9 35 10 24 28 25 36
4 44 -21 8 -20 8 -38 -10z"/>
<path d="M9013 4855 c-18 -20 -16 -42 4 -49 16 -6 22 -1 43 35 17 29 -24 41
-47 14z"/>
<path d="M9282 4840 c-28 -38 -28 -50 2 -50 24 0 36 16 36 50 0 31 -16 31 -38
0z"/>
<path d="M8368 4843 c-14 -4 -16 -8 -8 -24 11 -20 35 -25 44 -10 7 11 -3 42
-13 40 -3 -1 -14 -3 -23 -6z"/>
<path d="M8565 4836 c-25 -18 -13 -46 20 -46 25 0 31 13 19 44 -7 20 -15 20
-39 2z"/>
<path d="M8785 4833 c-21 -21 -14 -37 18 -41 23 -3 27 0 27 21 0 31 -24 41
-45 20z"/>
<path d="M8662 4809 c-10 -16 -10 -24 -1 -35 6 -8 15 -14 19 -14 14 0 20 45 7
57 -10 10 -15 8 -25 -8z"/>
<path d="M9710 4805 c-11 -20 -11 -28 -1 -38 10 -9 15 -8 27 8 8 11 13 26 12
34 -5 25 -24 23 -38 -4z"/>
<path d="M8430 4779 c0 -24 4 -30 18 -27 10 2 18 14 20 31 3 22 -1 27 -17 27
-17 0 -21 -6 -21 -31z"/>
<path d="M9372 4798 c-16 -16 -15 -48 2 -48 20 0 39 27 32 45 -7 18 -18 19
-34 3z"/>
<path d="M8851 4768 c-10 -27 0 -41 25 -36 12 2 20 13 22 31 3 22 -1 27 -18
27 -12 0 -24 -9 -29 -22z"/>
<path d="M9556 4774 c-10 -26 -7 -34 13 -34 17 0 31 18 31 41 0 16 -38 10 -44
-7z"/>
<path d="M9452 4768 c-17 -17 -15 -38 4 -38 24 0 54 19 54 35 0 18 -41 20 -58
3z"/>
<path d="M8486 4754 c-8 -22 1 -34 28 -34 31 0 37 9 23 31 -14 23 -43 25 -51
3z"/>
<path d="M8732 4752 c-18 -16 -20 -22 -9 -37 13 -16 14 -16 30 0 18 17 23 55
9 55 -5 0 -19 -8 -30 -18z"/>
<path d="M8613 4753 c-21 -8 -15 -50 7 -56 25 -6 34 7 26 39 -6 24 -11 27 -33
17z"/>
<path d="M8922 4742 c-17 -11 -4 -42 18 -42 26 0 43 23 28 38 -14 14 -28 15
-46 4z"/>
<path d="M8377 4726 c-3 -8 1 -20 9 -27 13 -10 17 -10 25 2 5 8 9 20 9 27 0
17 -37 15 -43 -2z"/>
<path d="M9200 4720 c-14 -25 -5 -41 18 -33 24 9 33 25 20 40 -15 18 -26 16
-38 -7z"/>
<path d="M9630 4715 c-17 -21 -5 -45 24 -45 31 0 43 30 20 47 -23 17 -29 16
-44 -2z"/>
<path d="M9283 4699 c-29 -11 -31 -49 -4 -49 20 0 51 24 51 40 0 13 -24 18
-47 9z"/>
<path d="M8445 4686 c-25 -18 -13 -49 17 -44 17 2 24 11 26 31 4 30 -12 36
-43 13z"/>
<path d="M8775 4690 c-11 -18 6 -52 22 -46 8 3 19 6 24 6 5 0 9 11 9 25 0 20
-5 25 -24 25 -14 0 -28 -5 -31 -10z"/>
<path d="M9487 4693 c-4 -3 -7 -15 -7 -25 0 -13 8 -18 30 -18 25 0 30 4 30 25
0 20 -5 25 -23 25 -13 0 -27 -3 -30 -7z"/>
<path d="M8548 4683 c-10 -2 -18 -13 -18 -24 0 -17 6 -20 33 -17 24 2 32 8 32
23 0 20 -16 27 -47 18z"/>
<path d="M8665 4670 c-16 -17 -16 -20 -2 -26 27 -10 52 0 55 24 4 29 -28 30
-53 2z"/>
<path d="M9384 4672 l-21 -18 32 -37 c37 -43 65 -49 65 -13 0 13 -7 26 -15 30
-8 3 -15 17 -15 31 0 29 -16 32 -46 7z"/>
<path d="M8862 4658 c-16 -16 -15 -33 1 -47 11 -8 18 -6 32 9 30 33 -2 69 -33
38z"/>
<path d="M9206 4635 c-12 -32 -7 -42 20 -37 19 3 24 10 22 26 -4 25 -33 33
-42 11z"/>
<path d="M8720 4622 c-27 -22 -19 -43 13 -38 15 2 23 11 25 29 4 32 -7 34 -38
9z"/>
<path d="M8947 4624 c-19 -19 -6 -35 26 -32 39 4 45 32 7 36 -14 2 -29 0 -33
-4z"/>
<path d="M9554 4604 c-21 -31 -7 -52 24 -35 14 7 18 17 15 36 -7 32 -18 32
-39 -1z"/>
<path d="M8597 4609 c-19 -11 -23 -34 -7 -44 15 -9 50 4 50 19 0 22 -23 36
-43 25z"/>
<path d="M8470 4575 c0 -18 5 -25 19 -25 26 0 36 17 21 35 -19 23 -40 18 -40
-10z"/>
<path d="M8650 4544 c-23 -23 -24 -25 -7 -41 17 -17 19 -17 33 1 15 21 19 52
7 59 -5 2 -19 -6 -33 -19z"/>
<path d="M8770 4545 c-15 -18 -6 -45 14 -45 17 0 48 39 40 52 -8 13 -41 9 -54
-7z"/>
<path d="M8877 4545 c-22 -16 -19 -48 5 -53 10 -2 23 8 32 26 21 42 1 57 -37
27z"/>
<path d="M8983 4547 c-26 -14 -17 -39 16 -44 15 -2 21 3 21 17 0 11 0 23 1 27
1 13 -15 13 -38 0z"/>
<path d="M8533 4543 c-30 -12 -4 -54 28 -46 14 4 19 13 17 27 -3 21 -22 29
-45 19z"/>
<path d="M9482 4508 c-6 -6 -12 -22 -12 -34 0 -14 -8 -25 -19 -29 -25 -8 -33
-31 -16 -45 22 -18 43 -5 47 27 2 20 9 29 26 31 19 3 23 9 20 30 -3 29 -26 40
-46 20z"/>
<path d="M8812 4464 c-24 -16 -29 -39 -11 -49 14 -9 49 24 49 47 0 22 -9 23
-38 2z"/>
<path d="M8920 4466 c-6 -8 -10 -25 -8 -37 3 -21 3 -21 27 -2 16 13 22 26 18
36 -8 21 -21 22 -37 3z"/>
<path d="M9052 4468 c-7 -7 -12 -22 -12 -34 0 -21 2 -22 30 -13 17 6 30 16 30
23 0 12 -20 36 -30 36 -3 0 -11 -5 -18 -12z"/>
<path d="M8681 4443 c-7 -15 -5 -22 11 -32 24 -15 42 -3 36 25 -5 25 -34 29
-47 7z"/>
<path d="M9302 4428 c-7 -7 -12 -17 -12 -24 0 -19 32 -26 48 -10 13 12 13 18
2 30 -15 19 -22 20 -38 4z"/>
<path d="M9534 4405 c-4 -18 -2 -30 7 -36 24 -15 30 -10 27 23 -4 40 -25 48
-34 13z"/>
<path d="M8746 4394 c-11 -28 -6 -44 13 -44 21 0 33 22 25 45 -8 20 -30 19
-38 -1z"/>
<path d="M8978 4403 c-28 -7 -23 -43 6 -43 24 0 41 23 30 41 -5 9 -8 10 -36 2z"/>
<path d="M8612 4384 c-22 -15 -31 -54 -12 -54 26 0 70 32 70 50 0 24 -27 26
-58 4z"/>
<path d="M8851 4381 c-31 -24 -23 -50 13 -44 21 4 26 11 26 34 0 34 -6 35 -39
10z"/>
<path d="M9040 4365 c-16 -20 -6 -45 19 -45 22 0 46 34 36 50 -9 15 -41 12
-55 -5z"/>
<path d="M9180 4352 c0 -5 9 -17 19 -26 10 -10 17 -25 14 -35 -3 -13 2 -20 21
-23 20 -4 27 0 36 23 13 31 5 53 -16 45 -8 -3 -14 1 -14 9 0 10 -10 15 -30 15
-16 0 -30 -4 -30 -8z"/>
<path d="M8666 4323 c-12 -13 -6 -63 8 -63 14 0 26 21 26 45 0 14 -25 27 -34
18z"/>
<path d="M9370 4315 c-16 -19 -5 -47 17 -43 22 4 29 43 9 51 -8 3 -20 -1 -26
-8z"/>
<path d="M8888 4306 c-24 -18 -23 -46 1 -46 24 0 45 25 37 45 -7 18 -16 19
-38 1z"/>
<path d="M8760 4291 c0 -20 32 -37 50 -26 5 3 10 15 10 26 0 14 -7 19 -30 19
-23 0 -30 -5 -30 -19z"/>
<path d="M8972 4298 c-22 -22 -14 -48 13 -48 18 0 28 7 35 26 6 14 10 27 10
30 0 9 -47 3 -58 -8z"/>
<path d="M9456 4293 c-9 -9 -7 -36 4 -53 9 -13 11 -13 20 0 14 22 12 47 -4 53
-8 3 -17 3 -20 0z"/>
<path d="M9111 4254 c-26 -33 -27 -54 -2 -54 10 0 21 -9 24 -20 9 -34 49 -23
61 17 8 25 -10 41 -27 24 -19 -19 -29 -12 -22 18 8 39 -9 47 -34 15z"/>
<path d="M8706 4242 c-3 -5 1 -18 9 -28 11 -15 17 -17 32 -8 10 6 18 17 18 25
0 16 -50 25 -59 11z"/>
<path d="M8792 4208 c-21 -21 -14 -48 12 -48 23 0 36 16 36 46 0 17 -31 19
-48 2z"/>
<path d="M8895 4198 c-23 -13 -35 -28 -35 -45 0 -20 38 -15 61 8 32 32 14 59
-26 37z"/>
<path d="M9020 4170 c0 -5 -7 -10 -15 -10 -9 0 -15 -9 -15 -25 0 -19 5 -25 21
-25 29 0 50 29 38 52 -10 19 -29 24 -29 8z"/>
<path d="M9372 4163 c-13 -24 -4 -43 19 -43 19 0 24 16 13 44 -8 21 -21 20
-32 -1z"/>
<path d="M9083 4115 c-29 -21 -31 -55 -3 -55 23 0 33 18 28 50 -3 19 -4 20
-25 5z"/>
<path d="M8800 4090 c-24 -24 -18 -40 15 -40 24 0 42 30 30 50 -9 15 -23 12
-45 -10z"/>
<path d="M8891 4054 c-25 -25 -23 -54 3 -54 20 0 50 46 42 65 -7 20 -16 18
-45 -11z"/>
<path d="M9165 4050 c-4 -6 -14 -10 -23 -8 -24 4 -42 -10 -42 -33 0 -20 34
-27 45 -9 3 6 17 10 30 10 21 0 35 17 35 41 0 12 -37 11 -45 -1z"/>
<path d="M8962 4008 c-31 -31 5 -59 45 -33 13 9 22 22 20 28 -5 17 -50 20 -65
5z"/>
<path d="M9032 3938 c2 -15 10 -23 23 -23 13 0 21 8 23 23 3 18 -1 22 -23 22
-22 0 -26 -4 -23 -22z"/>
<path d="M8891 3920 c-26 -22 -22 -50 8 -50 20 0 31 18 31 51 0 24 -9 24 -39
-1z"/>
<path d="M8945 3886 c-24 -17 -13 -46 19 -46 23 0 36 16 36 46 0 18 -30 18
-55 0z"/>
<path d="M9072 3888 c-16 -16 -15 -48 1 -48 19 0 50 37 42 49 -8 14 -28 14
-43 -1z"/>
<path d="M8962 3759 c4 -31 63 -34 63 -3 0 14 -8 20 -33 22 -30 3 -33 1 -30
-19z"/>
<path d="M3269 4773 c-11 -13 -10 -17 5 -29 22 -16 36 -10 36 16 0 24 -25 33
-41 13z"/>
<path d="M3521 4751 c-19 -12 -6 -43 16 -39 21 4 31 48 11 48 -7 0 -19 -4 -27
-9z"/>
<path d="M3113 4733 c-15 -6 -17 -39 -3 -48 6 -3 17 0 25 8 11 12 11 18 2 30
-7 8 -18 13 -24 10z"/>
<path d="M3393 4724 c-3 -8 -1 -20 6 -27 14 -14 47 15 37 32 -10 16 -36 13
-43 -5z"/>
<path d="M2990 4706 c0 -7 7 -19 16 -26 12 -11 18 -11 31 2 8 9 12 21 9 27
-10 16 -56 14 -56 -3z"/>
<path d="M2890 4690 c0 -24 35 -28 44 -4 9 23 8 24 -19 24 -18 0 -25 -5 -25
-20z"/>
<path d="M3555 4692 c-6 -16 10 -32 33 -32 6 0 12 8 12 19 0 24 -36 35 -45 13z"/>
<path d="M4006 4668 c-15 -21 -7 -48 14 -48 7 0 30 53 30 66 0 13 -32 0 -44
-18z"/>
<path d="M4232 4682 c-21 -7 -13 -31 12 -38 28 -7 46 1 46 20 0 14 -37 25 -58
18z"/>
<path d="M4410 4659 c0 -4 -3 -14 -6 -23 -5 -13 1 -16 25 -16 26 0 31 4 31 25
0 20 -4 24 -25 23 -14 -1 -25 -6 -25 -9z"/>
<path d="M4603 4663 c-7 -2 -13 -14 -13 -24 0 -31 54 -22 58 9 3 22 -14 28
-45 15z"/>
<path d="M4751 4649 c-13 -11 -21 -25 -17 -34 11 -30 56 -9 56 26 0 27 -13 29
-39 8z"/>
<path d="M2840 4625 c0 -20 5 -25 25 -25 26 0 29 7 19 34 -10 27 -44 20 -44
-9z"/>
<path d="M2937 4643 c-4 -3 -7 -15 -7 -25 0 -29 44 -20 48 10 3 16 -2 22 -16
22 -10 0 -22 -3 -25 -7z"/>
<path d="M3430 4630 c0 -11 3 -20 8 -20 4 0 17 -3 30 -6 19 -5 22 -2 22 20 0
22 -4 26 -30 26 -23 0 -30 -4 -30 -20z"/>
<path d="M2762 4607 c-13 -15 1 -43 16 -33 6 4 12 -5 14 -21 2 -20 9 -29 26
-31 29 -4 30 23 1 38 -13 7 -18 17 -14 27 10 27 -25 42 -43 20z"/>
<path d="M4179 4613 c-19 -5 -32 -40 -18 -48 13 -9 49 14 49 30 0 17 -10 23
-31 18z"/>
<path d="M2517 4603 c-28 -7 -16 -38 16 -41 25 -3 28 0 25 19 -3 24 -13 29
-41 22z"/>
<path d="M4660 4591 c-9 -18 -5 -51 7 -51 11 0 32 35 33 53 0 23 -27 22 -40
-2z"/>
<path d="M3060 4580 c0 -14 7 -20 24 -20 23 0 41 22 29 34 -4 3 -17 6 -30 6
-16 0 -23 -6 -23 -20z"/>
<path d="M4540 4585 c-11 -13 -11 -19 4 -33 15 -15 18 -15 26 -2 22 33 -6 64
-30 35z"/>
<path d="M2674 4575 c-7 -18 3 -35 21 -35 15 0 28 27 19 41 -8 14 -34 11 -40
-6z"/>
<path d="M4837 4579 c-13 -8 -15 -14 -7 -29 12 -23 40 -16 40 10 0 24 -11 31
-33 19z"/>
<path d="M4293 4564 c-3 -8 1 -22 9 -30 13 -13 16 -13 27 0 7 9 11 23 7 31 -7
20 -35 19 -43 -1z"/>
<path d="M3504 4559 c-3 -6 -2 -15 4 -21 15 -15 46 -5 50 15 3 12 -3 17 -22
17 -14 0 -28 -5 -32 -11z"/>
<path d="M2987 4548 c-18 -10 -23 -43 -7 -53 15 -10 50 14 50 34 0 23 -20 32
-43 19z"/>
<path d="M2570 4535 c-11 -13 -10 -19 5 -35 26 -29 37 -25 33 12 -3 36 -19 46
-38 23z"/>
<path d="M2897 4543 c-12 -11 -7 -41 7 -46 8 -3 22 0 32 8 15 11 16 15 5 29
-14 17 -33 21 -44 9z"/>
<path d="M3406 4535 c-8 -23 -1 -32 26 -31 16 1 23 7 23 21 0 25 -40 33 -49
10z"/>
<path d="M2630 4515 c0 -24 31 -51 44 -38 3 3 6 19 6 35 0 23 -4 28 -25 28
-20 0 -25 -5 -25 -25z"/>
<path d="M2732 4518 c4 -27 33 -36 42 -13 8 22 -1 35 -25 35 -15 0 -20 -6 -17
-22z"/>
<path d="M3556 4508 c-9 -35 -8 -38 14 -38 20 0 25 15 14 44 -9 23 -21 20 -28
-6z"/>
<path d="M4956 4512 c-3 -5 -2 -19 1 -31 7 -26 36 -24 41 3 5 25 -29 48 -42
28z"/>
<path d="M2505 4502 c-12 -8 -35 -58 -35 -75 0 -12 53 -37 78 -37 7 0 12 11
12 25 0 16 -6 25 -15 25 -13 0 -15 7 -9 35 6 35 -6 46 -31 27z"/>
<path d="M3046 4494 c-8 -21 1 -34 25 -34 14 0 19 7 19 25 0 29 -34 36 -44 9z"/>
<path d="M2394 4485 c-4 -8 -1 -22 6 -29 12 -16 -2 -56 -20 -56 -16 0 -11 -30
5 -36 27 -11 46 15 39 53 -4 23 -2 38 5 42 15 10 3 41 -15 41 -8 0 -17 -7 -20
-15z"/>
<path d="M4720 4484 c0 -3 5 -14 10 -25 9 -15 15 -17 30 -9 31 17 25 40 -10
40 -16 0 -30 -3 -30 -6z"/>
<path d="M4820 4484 c0 -16 22 -44 35 -44 16 0 38 34 28 44 -8 8 -63 8 -63 0z"/>
<path d="M5072 4448 c-17 -17 -15 -58 4 -65 24 -9 37 11 29 46 -7 34 -14 38
-33 19z"/>
<path d="M2777 4443 c-12 -3 -17 -12 -15 -26 4 -31 32 -32 46 -2 18 38 15 40
-31 28z"/>
<path d="M2863 4443 c-7 -2 -13 -14 -13 -25 0 -14 6 -19 23 -16 14 2 22 10 22
22 0 21 -12 28 -32 19z"/>
<path d="M2287 4420 c7 -25 36 -23 41 3 3 12 -3 17 -21 17 -20 0 -24 -4 -20
-20z"/>
<path d="M2700 4420 c0 -15 7 -20 26 -20 20 0 25 4 20 16 -3 9 -6 18 -6 20 0
2 -9 4 -20 4 -13 0 -20 -7 -20 -20z"/>
<path d="M2933 4424 c-3 -8 1 -22 8 -29 12 -11 17 -12 32 -1 21 17 12 46 -14
46 -11 0 -22 -7 -26 -16z"/>
<path d="M3667 4433 c-10 -10 -8 -53 2 -53 30 0 40 12 29 36 -11 25 -20 29
-31 17z"/>
<path d="M5150 4416 c0 -16 41 -29 53 -17 14 14 -2 31 -29 31 -14 0 -24 -6
-24 -14z"/>
<path d="M3362 4403 c5 -25 28 -28 28 -4 0 12 -6 21 -16 21 -9 0 -14 -7 -12
-17z"/>
<path d="M2588 4389 c-31 -18 -22 -41 15 -37 24 2 33 8 35 26 4 24 -19 30 -50
11z"/>
<path d="M3022 4378 c2 -15 10 -23 23 -23 13 0 21 8 23 23 3 18 -1 22 -23 22
-22 0 -26 -4 -23 -22z"/>
<path d="M4555 4380 c-4 -6 -1 -17 5 -25 15 -17 50 -3 50 20 0 17 -45 21 -55
5z"/>
<path d="M4967 4383 c-4 -3 -7 -15 -7 -25 0 -23 45 -25 54 -1 9 23 -29 45 -47
26z"/>
<path d="M4371 4371 c-17 -11 -7 -41 13 -41 13 0 26 20 26 41 0 11 -21 11 -39
0z"/>
<path d="M4470 4360 c0 -20 32 -44 44 -33 3 3 6 17 6 30 0 18 -5 23 -25 23
-18 0 -25 -5 -25 -20z"/>
<path d="M5143 4373 c-21 -8 -16 -53 6 -53 28 0 47 26 31 45 -13 16 -17 17
-37 8z"/>
<path d="M2452 4353 c2 -10 14 -19 26 -21 19 -3 23 1 20 15 -2 10 -14 19 -26
21 -19 3 -23 -1 -20 -15z"/>
<path d="M5234 4356 c-9 -24 3 -46 26 -46 17 0 21 5 18 27 -3 31 -34 44 -44
19z"/>
<path d="M2661 4347 c-17 -17 -13 -37 9 -37 11 0 23 0 28 -1 16 -1 11 27 -6
38 -15 9 -22 9 -31 0z"/>
<path d="M3530 4342 c-15 -12 -21 -25 -17 -35 9 -23 36 -11 43 20 9 33 1 37
-26 15z"/>
<path d="M4852 4338 c2 -18 9 -22 27 -20 31 3 33 5 25 26 -3 9 -17 16 -31 16
-20 0 -24 -4 -21 -22z"/>
<path d="M5306 4347 c-21 -15 -12 -47 14 -47 18 0 30 19 30 46 0 17 -21 18
-44 1z"/>
<path d="M2270 4320 c0 -15 7 -20 25 -20 18 0 25 5 25 20 0 15 -7 20 -25 20
-18 0 -25 -5 -25 -20z"/>
<path d="M4270 4325 c-10 -12 -10 -18 0 -30 23 -28 50 -12 50 31 0 19 -34 18
-50 -1z"/>
<path d="M2386 4322 c-13 -13 -5 -40 14 -45 24 -6 42 13 30 33 -9 14 -35 22
-44 12z"/>
<path d="M4652 4318 c-15 -15 3 -38 29 -38 23 0 26 35 3 44 -20 8 -18 8 -32
-6z"/>
<path d="M4727 4323 c-4 -3 -7 -15 -7 -25 0 -13 8 -18 30 -18 35 0 41 23 11
40 -23 12 -26 12 -34 3z"/>
<path d="M5043 4323 c-13 -5 -18 -35 -7 -46 12 -12 34 6 34 29 0 24 -4 27 -27
17z"/>
<path d="M2504 4299 c-7 -12 12 -29 32 -29 10 0 24 21 24 36 0 9 -49 3 -56 -7z"/>
<path d="M2612 4291 c-23 -14 -10 -46 18 -43 32 3 42 14 34 35 -7 18 -31 22
-52 8z"/>
<path d="M3670 4281 c0 -21 28 -37 42 -23 14 14 -2 42 -23 42 -12 0 -19 -7
-19 -19z"/>
<path d="M4530 4285 c-16 -19 -6 -45 19 -45 24 0 32 21 16 43 -15 21 -19 21
-35 2z"/>
<path d="M4944 4286 c-9 -22 2 -46 21 -46 12 0 15 8 13 27 -3 30 -25 42 -34
19z"/>
<path d="M4330 4271 c0 -26 17 -36 35 -21 23 19 18 40 -10 40 -18 0 -25 -5
-25 -19z"/>
<path d="M3003 4272 c-10 -7 -10 -12 1 -27 16 -22 49 -13 44 12 -4 20 -27 27
-45 15z"/>
<path d="M3354 4265 c-4 -9 -2 -21 4 -27 15 -15 44 -1 40 19 -4 23 -36 29 -44
8z"/>
<path d="M3798 4273 c-24 -6 -23 -30 1 -43 19 -10 51 -4 51 9 -1 8 -26 41 -31
40 -2 -1 -12 -3 -21 -6z"/>
<path d="M5114 4265 c3 -9 6 -19 6 -21 0 -2 9 -4 21 -4 29 0 21 34 -10 38 -19
3 -22 0 -17 -13z"/>
<path d="M5197 4273 c-4 -3 -7 -19 -7 -35 0 -37 37 -40 46 -4 9 37 -17 62 -39
39z"/>
<path d="M5357 4258 c-7 -26 -8 -24 21 -32 19 -7 22 -4 22 23 0 24 -4 31 -19
31 -11 0 -21 -9 -24 -22z"/>
<path d="M5447 4273 c-4 -3 -7 -17 -7 -30 0 -20 5 -24 23 -21 30 4 39 58 9 58
-10 0 -22 -3 -25 -7z"/>
<path d="M3111 4261 c-16 -10 -1 -51 18 -51 20 0 41 19 41 36 0 13 -43 24 -59
15z"/>
<path d="M4154 4259 c-3 -6 0 -18 9 -26 18 -18 37 -9 37 18 0 21 -34 27 -46 8z"/>
<path d="M4427 4263 c-4 -3 -7 -15 -7 -25 0 -12 7 -18 24 -18 29 0 39 12 30
34 -6 16 -35 22 -47 9z"/>
<path d="M4043 4244 c-7 -19 20 -49 36 -40 6 4 11 18 11 32 0 17 -5 24 -20 24
-11 0 -23 -7 -27 -16z"/>
<path d="M4827 4238 c-9 -34 3 -70 22 -66 18 4 25 29 17 64 -8 30 -32 31 -39
2z"/>
<path d="M4628 4239 c-22 -12 -23 -32 -2 -49 21 -18 46 6 38 38 -7 25 -11 26
-36 11z"/>
<path d="M5268 4234 c-3 -3 -4 -13 -1 -23 6 -25 43 -16 43 10 0 18 -29 27 -42
13z"/>
<path d="M4713 4214 c-3 -8 -1 -20 5 -26 16 -16 42 -2 42 22 0 24 -38 28 -47
4z"/>
<path d="M3507 4213 c-9 -8 -9 -48 -1 -56 14 -13 34 7 34 34 0 27 -17 39 -33
22z"/>
<path d="M4920 4200 c-23 -18 -24 -20 -8 -36 22 -22 48 -11 48 20 0 34 -11 38
-40 16z"/>
<path d="M4245 4202 c-13 -13 -3 -40 17 -45 27 -7 38 -1 38 22 0 18 -42 35
-55 23z"/>
<path d="M4504 4195 c-9 -22 22 -53 37 -38 15 15 7 47 -14 51 -9 2 -20 -4 -23
-13z"/>
<path d="M5098 4199 c-23 -13 -23 -35 -1 -47 20 -12 46 10 41 35 -4 21 -18 25
-40 12z"/>
<path d="M3186 4191 c-11 -18 6 -41 30 -41 26 0 32 18 12 38 -14 14 -35 16
-42 3z"/>
<path d="M4315 4179 c-10 -29 24 -55 42 -32 9 11 9 21 2 34 -13 25 -36 24 -44
-2z"/>
<path d="M5430 4182 c-21 -17 -21 -19 -5 -35 19 -19 24 -20 43 -9 9 7 10 15 3
35 -12 32 -13 32 -41 9z"/>
<path d="M3641 4168 c-11 -31 16 -54 39 -32 11 11 12 19 4 31 -16 26 -33 27
-43 1z"/>
<path d="M3922 4163 c3 -29 16 -37 37 -24 19 12 4 51 -20 51 -16 0 -20 -6 -17
-27z"/>
<path d="M5000 4175 c-16 -19 -4 -35 26 -35 19 0 24 5 24 25 0 29 -29 35 -50
10z"/>
<path d="M5164 4165 c-8 -20 4 -35 27 -35 14 0 19 7 19 25 0 18 -5 25 -20 25
-11 0 -23 -7 -26 -15z"/>
<path d="M2994 4156 c-15 -12 -16 -16 -5 -30 20 -24 41 -20 41 8 0 32 -12 39
-36 22z"/>
<path d="M4160 4161 c0 -23 14 -41 30 -41 17 0 34 33 22 44 -9 10 -52 7 -52
-3z"/>
<path d="M3330 4135 c0 -18 5 -25 19 -25 23 0 37 30 19 42 -24 14 -38 8 -38
-17z"/>
<path d="M4400 4141 c0 -32 11 -51 30 -51 27 0 37 40 14 57 -26 19 -44 16 -44
-6z"/>
<path d="M3060 4130 c0 -29 30 -38 46 -15 11 15 11 20 1 27 -23 15 -47 9 -47
-12z"/>
<path d="M4060 4132 c0 -22 24 -52 41 -52 18 0 5 42 -18 58 -21 13 -23 13 -23
-6z"/>
<path d="M4677 4143 c-12 -11 -7 -40 8 -53 22 -18 39 1 31 34 -6 25 -25 34
-39 19z"/>
<path d="M3802 4128 c-19 -19 -14 -28 18 -28 23 0 30 4 30 20 0 23 -29 27 -48
8z"/>
<path d="M3395 4110 c-9 -15 4 -50 20 -50 21 0 27 17 15 40 -12 22 -25 26 -35
10z"/>
<path d="M4580 4111 c0 -15 31 -42 44 -38 6 2 12 13 14 25 3 19 -1 22 -27 22
-17 0 -31 -4 -31 -9z"/>
<path d="M4780 4111 c0 -5 -2 -15 -5 -23 -3 -7 4 -19 15 -25 16 -11 21 -10 30
6 5 11 7 27 4 35 -6 17 -44 22 -44 7z"/>
<path d="M4881 4098 c-12 -31 -5 -39 27 -32 35 9 35 9 22 33 -14 28 -38 27
-49 -1z"/>
<path d="M3166 4091 c-9 -13 3 -38 21 -45 21 -8 30 0 29 26 -1 24 -38 38 -50
19z"/>
<path d="M4242 4063 c2 -31 7 -39 26 -41 20 -3 22 1 22 37 0 37 -2 41 -26 41
-23 0 -25 -3 -22 -37z"/>
<path d="M3271 4081 c-7 -5 -11 -19 -10 -32 2 -13 0 -29 -3 -35 -4 -6 0 -21 8
-33 15 -21 17 -21 35 -5 18 16 18 17 -3 34 l-22 17 22 7 c12 4 22 14 22 21 0
19 -33 36 -49 26z"/>
<path d="M3875 4061 c-9 -15 13 -51 31 -51 11 0 14 8 12 27 -3 28 -30 43 -43
24z"/>
<path d="M3492 4043 c2 -12 12 -18 28 -18 16 0 26 6 28 18 3 13 -3 17 -28 17
-25 0 -31 -4 -28 -17z"/>
<path d="M4174 4045 c-8 -20 4 -35 27 -35 21 0 25 20 7 38 -16 16 -27 15 -34
-3z"/>
<path d="M3003 4043 c-20 -8 -15 -40 7 -46 23 -6 45 16 36 38 -5 15 -20 18
-43 8z"/>
<path d="M3065 4041 c-11 -18 8 -51 30 -51 18 0 21 4 18 24 -5 23 -38 42 -48
27z"/>
<path d="M3670 4038 c0 -24 16 -39 34 -32 9 4 16 14 14 23 -4 20 -48 28 -48 9z"/>
<path d="M3980 4031 c0 -10 7 -24 15 -31 12 -10 16 -9 21 4 3 9 4 23 0 31 -8
21 -36 19 -36 -4z"/>
<path d="M3582 4028 c-14 -14 -16 -44 -3 -52 13 -9 44 31 38 49 -8 18 -19 19
-35 3z"/>
<path d="M4082 4007 c4 -36 16 -43 43 -23 16 11 17 17 7 29 -7 8 -22 17 -33
20 -17 5 -20 1 -17 -26z"/>
<path d="M3364 3995 c-4 -9 -2 -21 4 -27 15 -15 44 -1 40 19 -4 23 -36 29 -44
8z"/>
<path d="M3160 3970 c0 -16 7 -20 30 -20 23 0 30 4 30 20 0 16 -7 20 -30 20
-23 0 -30 -4 -30 -20z"/>
<path d="M3770 3971 c0 -22 25 -51 45 -51 18 0 27 28 15 51 -14 26 -60 26 -60
0z"/>
<path d="M3435 3960 c-11 -18 15 -50 40 -50 27 0 34 27 13 48 -14 14 -45 16
-53 2z"/>
<path d="M4167 3953 c-4 -3 -7 -15 -7 -25 0 -14 6 -19 23 -16 29 4 38 48 9 48
-10 0 -22 -3 -25 -7z"/>
<path d="M4084 3936 c-10 -26 1 -51 23 -54 14 -2 23 3 28 18 12 37 -38 71 -51
36z"/>
<path d="M3335 3919 c-4 -13 -2 -25 6 -29 20 -13 39 0 39 26 0 31 -36 33 -45
3z"/>
<path d="M3896 3924 c-8 -21 1 -34 24 -34 10 0 21 4 24 9 10 16 -5 41 -24 41
-10 0 -21 -7 -24 -16z"/>
<path d="M2980 3912 c0 -21 18 -42 37 -42 8 0 13 12 13 30 0 25 -4 30 -25 30
-17 0 -25 -5 -25 -18z"/>
<path d="M3066 3914 c-7 -19 10 -44 30 -44 15 0 28 35 19 50 -10 16 -42 12
-49 -6z"/>
<path d="M3246 3914 c-4 -10 1 -25 10 -35 16 -18 16 -19 0 -19 -28 0 -16 -44
13 -48 29 -5 43 15 28 39 -9 14 -7 22 6 37 17 19 17 20 0 25 -10 2 -25 8 -34
11 -11 5 -19 1 -23 -10z"/>
<path d="M3986 3865 c-8 -32 -1 -45 26 -45 16 0 19 5 14 23 -3 12 -6 28 -6 35
0 23 -28 12 -34 -13z"/>
<path d="M3149 3863 c-10 -11 -8 -18 10 -36 19 -19 23 -20 31 -7 24 38 -13 77
-41 43z"/>
<path d="M3417 3873 c-12 -11 -8 -61 6 -66 19 -7 37 4 37 23 0 20 -33 53 -43
43z"/>
<path d="M4146 3845 c-3 -9 3 -19 14 -25 15 -8 21 -6 29 9 6 10 7 21 4 25 -12
11 -41 6 -47 -9z"/>
<path d="M4070 3832 c0 -23 19 -42 43 -42 13 0 17 6 15 23 -5 34 -58 52 -58
19z"/>
<path d="M3330 3810 c0 -22 35 -46 45 -30 3 6 3 19 0 30 -8 26 -45 27 -45 0z"/>
<path d="M3901 3801 c-21 -13 -5 -41 24 -41 18 0 25 5 25 19 0 10 -7 22 -16
25 -19 7 -16 8 -33 -3z"/>
<path d="M3977 3773 c-4 -3 -7 -15 -7 -25 0 -28 34 -19 38 10 3 21 -16 31 -31
15z"/>
<path d="M4040 3735 c-15 -18 -6 -45 14 -45 23 0 42 40 25 51 -19 12 -25 11
-39 -6z"/>
<path d="M7630 3531 c0 -20 18 -31 51 -31 21 0 26 -16 7 -22 -21 -7 0 -40 24
-36 17 2 23 10 24 28 1 14 5 37 9 53 l7 27 -61 0 c-53 0 -61 -2 -61 -19z"/>
<path d="M7285 3533 c-11 -2 -39 -11 -62 -20 -23 -8 -46 -12 -52 -8 -16 9 -13
-26 3 -47 19 -26 61 -22 91 8 24 24 30 25 78 18 86 -13 111 -11 115 9 2 12 -3
17 -18 17 -12 0 -29 4 -38 9 -23 12 -92 20 -117 14z"/>
<path d="M7540 3527 c0 -8 9 -22 19 -31 18 -17 20 -17 30 2 7 13 7 22 -1 30
-16 16 -48 15 -48 -1z"/>
<path d="M6923 3513 c-36 -5 -37 -6 -23 -32 13 -26 85 -14 85 14 0 21 -11 24
-62 18z"/>
<path d="M7042 3513 c-15 -3 -22 -10 -20 -21 5 -24 83 -30 92 -7 12 32 -8 40
-72 28z"/>
<path d="M7482 3448 c4 -28 39 -36 57 -14 18 21 5 36 -30 36 -26 0 -30 -3 -27
-22z"/>
<path d="M7605 3450 c-9 -15 13 -49 30 -46 18 3 19 8 12 36 -5 21 -31 27 -42
10z"/>
<path d="M6944 3426 c-8 -20 18 -102 31 -98 6 1 10 26 9 55 0 40 -4 53 -17 55
-9 2 -20 -4 -23 -12z"/>
<path d="M7244 3405 c-9 -24 22 -53 38 -37 9 9 10 17 2 29 -15 24 -33 27 -40
8z"/>
<path d="M7666 3378 c-9 -35 -8 -38 20 -38 22 0 25 4 22 27 -4 35 -33 43 -42
11z"/>
<path d="M7055 3376 c-16 -12 -17 -16 -6 -30 19 -22 38 -20 44 6 10 38 -6 48
-38 24z"/>
<path d="M7565 3360 c-14 -15 -16 -23 -7 -32 17 -17 42 -1 42 27 0 30 -11 32
-35 5z"/>
<path d="M7428 3318 c-7 -18 2 -38 16 -38 18 0 35 21 29 36 -6 17 -39 18 -45
2z"/>
<path d="M6976 3284 c-10 -27 -7 -34 18 -34 27 0 40 22 23 39 -16 16 -34 14
-41 -5z"/>
<path d="M7667 3273 c-4 -3 -7 -15 -7 -25 0 -13 7 -18 25 -18 14 0 28 -7 31
-15 4 -8 15 -15 26 -15 14 0 19 6 16 23 -2 16 -9 22 -25 21 -13 0 -23 5 -23
12 0 6 -7 15 -16 18 -19 7 -19 7 -27 -1z"/>
<path d="M7090 3246 c0 -31 8 -36 38 -25 19 7 21 12 12 29 -16 29 -50 26 -50
-4z"/>
<path d="M7258 3263 c-11 -3 -18 -14 -18 -29 0 -19 5 -24 25 -24 21 0 25 5 25
30 0 17 -3 29 -7 29 -5 -1 -16 -3 -25 -6z"/>
<path d="M7513 3233 c-17 -6 -16 -18 3 -37 25 -26 46 -20 42 11 -3 27 -20 37
-45 26z"/>
<path d="M7400 3135 c-11 -13 -9 -20 9 -38 11 -13 21 -30 21 -38 0 -21 9 -29
26 -22 19 7 18 39 -1 47 -9 3 -15 18 -15 36 0 33 -19 40 -40 15z"/>
<path d="M7625 3140 c-7 -11 12 -50 24 -50 10 0 21 24 21 46 0 16 -36 19 -45
4z"/>
<path d="M7711 3092 c-12 -22 3 -42 31 -42 20 0 21 4 12 38 -8 27 -30 29 -43
4z"/>
<path d="M7590 3021 c0 -31 27 -51 36 -27 6 17 -12 56 -26 56 -6 0 -10 -13
-10 -29z"/>
<path d="M7480 2925 c0 -29 25 -44 43 -26 14 14 -2 44 -27 49 -11 3 -16 -4
-16 -23z"/>
<path d="M7684 2926 c-9 -22 4 -36 32 -36 21 0 25 4 22 23 -4 26 -45 37 -54
13z"/>
<path d="M7604 2886 c-9 -24 0 -51 19 -54 14 -3 17 4 17 32 0 26 -4 36 -15 36
-9 0 -18 -6 -21 -14z"/>
<path d="M7492 2838 c2 -15 11 -24 26 -26 24 -4 30 16 10 36 -20 20 -40 14
-36 -10z"/>
<path d="M7474 2755 c-4 -8 -3 -22 0 -30 8 -22 46 -1 46 25 0 24 -38 28 -46 5z"/>
<path d="M7587 2763 c-4 -3 -7 -17 -7 -30 0 -35 34 -26 38 10 3 26 -14 37 -31
20z"/>
<path d="M7433 2644 c-6 -16 11 -34 33 -34 14 0 26 28 18 41 -9 15 -44 10 -51
-7z"/>
<path d="M7552 2648 c-20 -20 -14 -38 12 -38 30 0 42 16 26 35 -15 18 -22 19
-38 3z"/>
<path d="M7322 2628 c-20 -20 -14 -38 14 -38 20 0 25 4 22 22 -4 26 -19 33
-36 16z"/>
<path d="M7662 2588 c-13 -13 -16 -41 -6 -51 3 -3 17 -1 30 5 17 8 24 18 22
32 -4 24 -28 32 -46 14z"/>
<path d="M7320 2506 c0 -33 20 -44 36 -21 10 14 11 22 3 32 -18 21 -39 15 -39
-11z"/>
<path d="M7486 2515 c-6 -16 2 -45 13 -45 15 1 41 29 41 44 0 21 -46 22 -54 1z"/>
<path d="M7042 2488 c-16 -16 -15 -48 1 -48 22 0 39 17 35 35 -4 23 -20 29
-36 13z"/>
<path d="M7625 2477 c-9 -21 -3 -49 12 -54 19 -7 27 37 9 55 -14 14 -16 14
-21 -1z"/>
<path d="M7200 2455 c-15 -19 -11 -24 21 -27 18 -2 25 2 27 20 3 16 -2 22 -16
22 -11 0 -25 -7 -32 -15z"/>
<path d="M7452 2378 c-18 -18 -15 -36 8 -48 17 -9 20 -7 26 14 10 39 -9 59
-34 34z"/>
<path d="M7574 2365 c-19 -30 -12 -55 16 -55 16 0 20 6 20 34 0 45 -15 53 -36
21z"/>
<path d="M7337 2363 c-12 -11 -7 -53 6 -53 14 1 48 25 49 35 0 18 -42 32 -55
18z"/>
<path d="M7645 2356 c-11 -8 -16 -19 -12 -30 9 -22 41 -17 45 8 6 27 -11 38
-33 22z"/>
<path d="M7009 2319 c-14 -28 3 -48 26 -29 19 16 19 36 0 44 -9 3 -19 -3 -26
-15z"/>
<path d="M7121 2296 c-9 -11 -8 -18 5 -30 16 -17 46 -19 45 -3 -1 4 -1 16 -1
27 0 24 -31 27 -49 6z"/>
<path d="M7427 2233 c-25 -24 22 -55 49 -32 11 9 12 15 3 25 -12 15 -41 19
-52 7z"/>
<path d="M7567 2212 c-10 -10 -17 -26 -17 -35 0 -35 53 -10 65 31 5 17 2 22
-13 22 -10 0 -26 -8 -35 -18z"/>
<path d="M6847 2213 c-12 -3 -16 -10 -13 -20 3 -8 6 -17 6 -19 0 -13 59 -2 64
12 4 9 5 18 4 19 -8 7 -45 12 -61 8z"/>
<path d="M6242 2165 c2 -14 8 -26 13 -26 6 0 11 12 13 26 2 18 -1 25 -13 25
-12 0 -15 -7 -13 -25z"/>
<path d="M6482 2148 c2 -15 10 -23 23 -23 30 0 27 39 -3 43 -20 3 -23 0 -20
-20z"/>
<path d="M6353 2144 c-7 -18 11 -39 26 -30 17 11 13 46 -4 46 -9 0 -18 -7 -22
-16z"/>
<path d="M7290 2115 c0 -23 4 -26 28 -23 19 2 27 9 27 23 0 14 -8 21 -27 23
-24 3 -28 0 -28 -23z"/>
<path d="M6946 2093 c-13 -14 -5 -42 15 -48 23 -8 45 7 35 24 -10 16 -42 31
-50 24z"/>
<path d="M6355 2080 c-4 -6 -1 -17 5 -25 16 -19 52 -2 44 20 -7 17 -40 20 -49
5z"/>
<path d="M6810 2059 c0 -15 5 -20 22 -17 34 5 37 38 4 38 -20 0 -26 -5 -26
-21z"/>
<path d="M6494 2059 c-3 -6 0 -17 8 -25 12 -12 17 -12 37 2 18 13 20 18 10 25
-19 12 -47 11 -55 -2z"/>
<path d="M10755 3327 c-23 -18 -16 -51 13 -55 19 -3 22 1 22 27 0 36 -11 45
-35 28z"/>
<path d="M10902 3313 c4 -37 38 -45 38 -10 0 21 -16 37 -36 37 -3 0 -4 -12 -2
-27z"/>
<path d="M11074 3315 c-8 -21 3 -45 20 -45 22 0 28 17 16 40 -13 24 -28 26
-36 5z"/>
<path d="M11190 3295 c0 -20 5 -25 24 -25 27 0 43 35 19 44 -30 12 -43 6 -43
-19z"/>
<path d="M11340 3295 c0 -28 21 -33 40 -10 15 18 5 35 -21 35 -14 0 -19 -7
-19 -25z"/>
<path d="M10840 3280 c0 -11 7 -23 15 -27 21 -8 28 1 20 26 -8 27 -35 27 -35
1z"/>
<path d="M9192 2848 c2 -15 10 -23 23 -23 13 0 21 8 23 23 3 18 -1 22 -23 22
-22 0 -26 -4 -23 -22z"/>
<path d="M9019 2834 c-11 -14 -10 -18 6 -30 26 -19 39 -13 43 19 3 21 -1 27
-16 27 -11 0 -26 -7 -33 -16z"/>
<path d="M8858 2810 c-17 -10 -14 -50 4 -50 24 0 46 21 41 40 -6 22 -19 25
-45 10z"/>
<path d="M9090 2776 c0 -13 6 -29 14 -35 11 -9 15 -6 20 15 5 18 3 30 -6 35
-21 14 -28 10 -28 -15z"/>
<path d="M9217 2793 c-12 -11 -8 -40 8 -53 12 -10 16 -8 24 11 13 37 -9 66
-32 42z"/>
<path d="M9147 2743 c-13 -12 -7 -32 13 -43 18 -10 20 -8 20 20 0 28 -17 40
-33 23z"/>
<path d="M8721 2722 c-6 -12 -5 -23 4 -36 17 -22 35 -13 35 19 0 29 -26 40
-39 17z"/>
<path d="M8920 2721 c0 -22 23 -34 38 -19 15 15 3 38 -19 38 -12 0 -19 -7 -19
-19z"/>
<path d="M9287 2734 c-15 -16 -6 -43 16 -46 16 -2 22 -10 22 -30 1 -33 9 -42
30 -35 20 8 21 67 1 67 -8 0 -16 10 -18 23 -3 22 -36 36 -51 21z"/>
<path d="M9080 2650 c0 -24 25 -27 34 -4 9 23 8 24 -14 24 -13 0 -20 -7 -20
-20z"/>
<path d="M9193 2655 c-7 -19 13 -36 37 -32 8 1 15 11 15 22 0 26 -42 34 -52
10z"/>
<path d="M8972 2621 c-20 -12 -10 -46 15 -49 14 -2 23 3 28 17 11 35 -12 52
-43 32z"/>
<path d="M9275 2610 c-7 -23 1 -40 20 -40 18 0 24 21 13 43 -12 23 -25 22 -33
-3z"/>
<path d="M9120 2580 c0 -35 23 -41 40 -11 16 31 12 41 -15 41 -21 0 -25 -5
-25 -30z"/>
<path d="M9206 2553 c-9 -22 22 -49 38 -33 7 7 7 16 0 27 -15 24 -31 27 -38 6z"/>
<path d="M9345 2550 c-10 -17 20 -44 40 -36 9 3 15 14 13 23 -4 21 -43 30 -53
13z"/>
<path d="M12140 2910 c0 -13 7 -20 20 -20 13 0 20 7 20 20 0 13 -7 20 -20 20
-13 0 -20 -7 -20 -20z"/>
<path d="M12575 2780 c-10 -16 14 -50 30 -44 8 4 15 12 15 20 0 18 -37 38 -45
24z"/>
<path d="M12500 2711 c0 -23 25 -47 35 -31 10 16 -4 50 -21 50 -8 0 -14 -8
-14 -19z"/>
<path d="M12691 2712 c-13 -24 -5 -52 15 -52 16 0 19 37 5 59 -7 11 -11 10
-20 -7z"/>
<path d="M12392 2689 c2 -19 8 -33 13 -31 15 3 12 55 -3 60 -10 3 -13 -5 -10
-29z"/>
<path d="M12613 2703 c-7 -2 -13 -16 -13 -29 0 -19 5 -24 24 -24 28 0 42 26
25 46 -12 15 -16 16 -36 7z"/>
<path d="M12527 2628 c-8 -28 10 -49 23 -28 12 18 9 42 -6 47 -6 2 -14 -6 -17
-19z"/>
<path d="M12356 2624 c-8 -21 1 -34 25 -34 21 0 25 20 7 38 -16 16 -25 15 -32
-4z"/>
<path d="M12230 2566 c0 -27 28 -43 36 -21 6 16 -12 45 -27 45 -5 0 -9 -11 -9
-24z"/>
<path d="M1817 2176 c-7 -19 1 -26 30 -26 16 0 23 6 23 20 0 14 -7 20 -24 20
-13 0 -26 -6 -29 -14z"/>
<path d="M1750 2155 c-10 -11 -10 -19 -2 -27 15 -15 44 -2 40 19 -4 23 -22 27
-38 8z"/>
<path d="M2072 2138 c2 -12 10 -23 18 -23 22 0 19 39 -3 43 -15 3 -18 -1 -15
-20z"/>
<path d="M2210 2135 c0 -20 4 -26 18 -23 9 2 17 12 17 23 0 11 -8 21 -17 23
-14 3 -18 -3 -18 -23z"/>
<path d="M1896 2143 c-3 -4 -6 -15 -6 -25 0 -15 6 -19 28 -16 15 2 27 9 27 17
0 15 -39 34 -49 24z"/>
<path d="M1663 2133 c-7 -2 -13 -13 -13 -24 0 -14 7 -19 30 -19 23 0 30 5 30
19 0 15 -23 35 -33 30 -1 0 -8 -3 -14 -6z"/>
<path d="M2369 2136 c0 -1 -2 -11 -3 -23 -3 -25 12 -34 43 -26 23 6 25 11 12
32 -7 11 -45 23 -52 17z"/>
<path d="M2010 2104 c-10 -11 -11 -20 -3 -32 17 -27 38 -20 38 12 0 34 -16 44
-35 20z"/>
<path d="M2780 2106 c0 -18 27 -39 40 -31 5 3 10 15 10 26 0 14 -7 19 -25 19
-15 0 -25 -6 -25 -14z"/>
<path d="M1800 2077 c0 -18 5 -23 20 -22 47 3 51 45 4 45 -18 0 -24 -5 -24
-23z"/>
<path d="M1590 2065 c0 -20 4 -26 18 -23 9 2 17 12 17 23 0 11 -8 21 -17 23
-14 3 -18 -3 -18 -23z"/>
<path d="M2560 2065 c0 -18 5 -25 20 -25 15 0 20 7 20 25 0 18 -5 25 -20 25
-15 0 -20 -7 -20 -25z"/>
<path d="M1720 2040 c0 -33 19 -40 40 -15 10 12 10 18 0 30 -21 25 -40 18 -40
-15z"/>
<path d="M1951 2057 c-8 -11 -7 -18 7 -31 22 -19 32 -12 32 21 0 25 -21 31
-39 10z"/>
<path d="M2106 2044 c-4 -9 -1 -23 5 -30 15 -18 39 -1 39 27 0 24 -35 26 -44
3z"/>
<path d="M2320 2017 c0 -28 29 -45 42 -25 13 21 4 43 -20 46 -18 3 -22 -1 -22
-21z"/>
<path d="M1870 2000 c0 -13 7 -20 20 -20 13 0 20 7 20 20 0 13 -7 20 -20 20
-13 0 -20 -7 -20 -20z"/>
<path d="M2786 1964 c-10 -26 -7 -34 14 -34 15 0 20 7 20 25 0 28 -24 34 -34
9z"/>
<path d="M1794 1955 c-6 -15 2 -35 14 -35 18 1 32 18 26 33 -8 21 -33 22 -40
2z"/>
<path d="M1984 1955 c-7 -17 12 -45 31 -45 22 0 28 33 9 47 -23 17 -33 16 -40
-2z"/>
<path d="M2267 1954 c-15 -15 -7 -45 11 -42 9 2 17 12 17 22 0 20 -16 31 -28
20z"/>
<path d="M2450 1924 c0 -21 4 -25 23 -22 14 2 23 11 25 26 3 18 -1 22 -22 22
-21 0 -26 -5 -26 -26z"/>
<path d="M3024 1928 c-7 -22 20 -53 37 -42 16 10 9 43 -10 54 -16 8 -21 6 -27
-12z"/>
<path d="M2610 1905 c0 -8 10 -25 23 -37 l22 -23 3 29 c4 28 -10 46 -35 46 -7
0 -13 -7 -13 -15z"/>
<path d="M2145 1902 c-13 -13 -4 -42 13 -42 18 0 42 18 42 31 0 8 -48 18 -55
11z"/>
<path d="M1850 1876 c0 -8 10 -22 23 -31 21 -15 23 -14 40 6 14 18 15 24 5 30
-22 14 -68 10 -68 -5z"/>
<path d="M2040 1824 c0 -21 4 -25 23 -22 14 2 23 11 25 26 3 18 -1 22 -22 22
-21 0 -26 -5 -26 -26z"/>
<path d="M2348 1832 c-10 -2 -18 -12 -18 -23 0 -14 7 -19 30 -19 23 0 30 5 30
19 0 21 -16 29 -42 23z"/>
<path d="M2600 1752 c0 -22 22 -34 45 -25 25 9 13 38 -18 41 -21 3 -27 -1 -27
-16z"/>
<path d="M2150 1725 c0 -20 5 -25 24 -25 26 0 51 24 41 40 -3 5 -19 10 -36 10
-24 0 -29 -4 -29 -25z"/>
<path d="M2863 1724 c-7 -20 11 -38 31 -31 23 9 20 34 -5 40 -13 3 -22 0 -26
-9z"/>
<path d="M2425 1710 c-8 -26 1 -40 26 -40 28 0 36 28 13 45 -25 19 -32 18 -39
-5z"/>
<path d="M2700 1575 c0 -21 34 -37 48 -23 21 21 13 38 -18 38 -20 0 -30 -5
-30 -15z"/>
<path d="M9555 1841 c-3 -5 -2 -12 3 -15 14 -8 131 -25 223 -31 47 -3 96 -8
110 -11 13 -3 44 -7 69 -10 72 -8 110 -16 116 -25 3 -5 27 -9 54 -9 27 0 51
-4 55 -10 3 -5 11 -7 18 -4 7 2 39 -7 70 -21 56 -26 67 -43 49 -72 -10 -15
-75 -43 -101 -43 -17 0 -41 -26 -41 -44 0 -11 46 -6 95 8 98 30 131 97 78 154
-33 34 -93 56 -200 72 -43 7 -87 16 -98 21 -29 11 -68 17 -165 25 -47 3 -93
10 -102 15 -22 12 -225 12 -233 0z"/>
<path d="M8453 1776 c-18 -6 -35 -15 -39 -19 -4 -4 -14 -7 -22 -7 -13 0 -108
-72 -123 -93 -20 -27 31 -97 70 -97 9 0 26 -6 37 -14 11 -8 41 -17 67 -21 26
-4 50 -11 53 -16 3 -5 27 -9 55 -9 27 0 49 -4 49 -8 0 -5 32 -10 71 -11 39 -1
82 -6 95 -12 14 -5 65 -9 113 -9 49 0 110 -4 138 -9 59 -12 349 -18 359 -9 4
4 15 3 25 -2 12 -7 19 -6 21 2 4 10 11 10 29 2 16 -7 47 -8 94 -1 39 5 101 8
138 8 38 -1 74 2 80 6 6 4 23 7 37 7 38 1 39 33 1 41 -17 3 -36 3 -42 -1 -26
-15 -561 -18 -742 -4 -82 7 -134 7 -145 1 -11 -6 -24 -6 -33 0 -7 5 -35 9 -60
9 -25 0 -68 6 -95 14 -27 8 -96 22 -153 30 -103 16 -199 55 -209 83 -5 17 73
65 151 94 58 21 76 34 77 52 0 10 -60 6 -97 -7z"/>
<path d="M10384 1115 c-7 -18 3 -35 21 -35 18 0 28 32 13 42 -19 11 -28 10
-34 -7z"/>
<path d="M10094 1095 c-8 -21 3 -34 26 -28 27 7 27 43 0 43 -11 0 -23 -7 -26
-15z"/>
<path d="M8634 1085 c-4 -10 -1 -21 7 -26 23 -14 31 -10 27 13 -4 27 -26 35
-34 13z"/>
<path d="M8750 1085 c-16 -19 -4 -35 26 -35 25 0 28 7 18 34 -8 20 -28 21 -44
1z"/>
<path d="M10009 1084 c-11 -14 -10 -18 6 -30 28 -21 35 -17 35 16 0 33 -19 40
-41 14z"/>
<path d="M8536 1081 c-11 -17 6 -41 29 -41 30 0 41 16 25 35 -14 17 -46 20
-54 6z"/>
<path d="M10302 1068 c2 -12 10 -23 18 -23 22 0 19 39 -3 43 -15 3 -18 -1 -15
-20z"/>
<path d="M9810 1068 c1 -30 15 -38 38 -22 30 21 27 34 -8 34 -17 0 -30 -5 -30
-12z"/>
<path d="M9926 1053 c-9 -22 7 -36 33 -28 30 9 28 45 -3 45 -13 0 -27 -8 -30
-17z"/>
<path d="M9621 1041 c-17 -11 -2 -41 20 -41 12 0 19 7 19 19 0 21 -21 33 -39
22z"/>
<path d="M9737 1043 c-19 -18 3 -56 26 -47 21 8 22 40 1 48 -19 7 -19 7 -27
-1z"/>
</g>
</svg>
