<?xml version="1.0" standalone="no"?>
<!DOCTYPE svg PUBLIC "-//W3C//DTD SVG 20010904//EN"
 "http://www.w3.org/TR/2001/REC-SVG-20010904/DTD/svg10.dtd">
<svg version="1.0" xmlns="http://www.w3.org/2000/svg"
 width="1240.000000pt" height="1280.000000pt" viewBox="0 0 1240.000000 1280.000000"
 preserveAspectRatio="xMidYMid meet">
<metadata>
Created by potrace 1.15, written by Peter Selinger 2001-2017
</metadata>
<g transform="translate(0.000000,1280.000000) scale(0.100000,-0.100000)"
fill="#000000" stroke="none">
<path d="M2390 12790 c-895 -11 -1931 -29 -2046 -36 l-100 -6 -27 -191 c-80
-567 -109 -1015 -110 -1687 0 -517 11 -819 64 -1805 24 -450 24 -449 33 -190
9 237 4 761 -15 1675 -18 873 2 1368 78 1907 l27 192 60 5 c34 3 151 8 261 11
1963 54 3522 71 4980 56 1964 -21 3290 -64 4948 -161 491 -29 1452 -93 1568
-106 l55 -6 12 -1216 c7 -669 17 -1701 23 -2292 12 -1149 6 -3335 -10 -4040
-44 -1818 -122 -3120 -264 -4374 l-12 -108 -65 -25 c-300 -113 -549 -138
-1240 -129 -540 7 -1402 -9 -2930 -54 -3316 -98 -4819 -103 -6465 -20 -413 21
-1061 71 -1070 82 -3 5 -34 565 -47 868 -8 173 -13 639 -12 1260 0 937 6 1318
44 2515 35 1112 42 1595 35 2460 -5 782 -17 1301 -23 1050 -8 -315 -34 -1270
-42 -1550 -6 -187 -17 -563 -25 -835 -86 -2862 -96 -4379 -37 -5765 l7 -160
160 -12 c517 -38 937 -60 1620 -85 425 -15 6430 -13 7150 2 1216 27 1995 97
2740 246 188 38 428 93 443 103 29 18 130 1194 167 1936 34 692 37 892 45
2880 4 1128 13 2401 20 2830 29 1844 -17 3195 -146 4314 -13 118 -26 216 -27
218 -5 4 -372 28 -822 53 -444 25 -550 30 -740 40 -1274 63 -2447 104 -3915
135 -817 18 -3437 27 -4350 15z"/>
<path d="M703 12024 c4 -98 10 -534 13 -969 8 -960 -7 -2174 -46 -3800 -5
-225 -14 -599 -20 -830 -6 -231 -15 -602 -20 -825 -31 -1263 -42 -2078 -43
-3185 0 -660 3 -1311 7 -1446 l8 -246 77 -7 c464 -37 668 -51 1046 -71 692
-35 923 -40 1970 -40 1041 0 1353 6 2115 41 599 27 720 33 1080 55 344 21 361
21 545 5 338 -30 502 -36 932 -36 447 0 682 8 1198 40 473 30 730 51 1465 120
179 17 360 33 403 37 42 3 77 7 77 8 0 1 7 46 15 101 102 686 165 1465 207
2554 17 432 17 2387 0 3050 -46 1851 -76 3446 -66 3564 3 40 1 54 -4 41 -9
-21 -10 -41 -39 -710 -22 -531 -24 -2278 -3 -3230 19 -852 20 -2731 2 -3145
-21 -492 -40 -820 -62 -1095 -38 -463 -93 -962 -106 -974 -22 -19 -1490 -130
-2529 -191 -2147 -125 -4690 -143 -7282 -50 -530 19 -888 32 -890 34 -5 4 -24
818 -34 1431 -12 769 -7 2660 11 3580 14 786 38 1874 60 2810 27 1127 60 2901
60 3228 l0 227 2388 0 c2307 0 3517 -8 4397 -30 1353 -33 2356 -77 3519 -155
403 -27 418 -31 407 -98 -1 -5 5 -47 13 -95 18 -108 23 -175 36 -422 6 -107
17 -251 26 -320 17 -133 65 -305 72 -260 2 14 2 176 -1 360 -7 417 -25 567
-98 813 -17 56 -33 112 -36 125 -3 13 -11 25 -17 27 -21 7 -1047 54 -1626 75
-1584 56 -2598 69 -6254 77 l-2979 6 6 -179z"/>
<path d="M6175 11634 c-479 -8 -1212 -26 -1590 -39 -587 -21 -829 -31 -1522
-65 -112 -6 -296 -15 -410 -20 -512 -25 -1337 -71 -1341 -74 -2 -2 -8 -316
-12 -698 -10 -782 -26 -1701 -40 -2413 -79 -3858 -90 -4544 -99 -6005 -3 -624
-5 -1137 -4 -1138 1 -2 203 3 450 12 714 26 1187 35 2323 46 2648 25 3345 40
4335 90 585 30 1446 99 1860 150 489 60 768 99 776 108 11 12 64 461 99 827
108 1144 135 2410 111 5145 -18 2047 -31 2470 -91 3085 -25 245 -101 772 -115
793 -4 5 -567 60 -830 82 -961 79 -1726 108 -2940 114 -429 2 -861 2 -960 0z
m3530 -178 c368 -29 899 -91 973 -114 20 -6 6 -25 -160 -202 -492 -525 -939
-950 -2033 -1935 -1064 -958 -1470 -1337 -1885 -1763 -192 -197 -242 -243
-258 -238 -11 4 -66 49 -122 101 -67 60 -122 102 -156 117 -30 13 -53 26 -51
30 5 15 242 276 406 447 256 268 606 599 1141 1081 1029 927 1453 1350 1863
1860 l117 144 -43 13 c-167 50 -449 97 -687 114 -372 28 -1003 -16 -1595 -111
-90 -15 -95 -14 -95 18 0 39 -31 84 -84 122 -47 34 -76 81 -76 122 0 27 -2 26
219 74 267 58 712 111 1121 134 236 13 1175 4 1405 -14z m-3442 -51 c408 -74
757 -285 875 -529 32 -66 52 -145 52 -204 0 -49 -25 -145 -52 -199 l-21 -41
-161 162 c-165 166 -297 279 -421 359 -374 240 -688 235 -977 -15 l-58 -49
-22 25 c-13 15 -61 42 -108 61 -100 41 -119 62 -120 127 0 43 3 49 52 93 137
123 302 195 513 224 95 13 341 6 448 -14z m-2978 -30 c154 -13 356 -38 539
-65 127 -19 430 -81 591 -122 390 -97 766 -228 1217 -424 79 -34 83 -44 42
-134 -14 -32 -24 -67 -22 -79 3 -20 7 -19 68 22 36 23 119 82 186 129 214 154
337 210 469 212 70 1 88 -3 145 -30 36 -17 82 -47 104 -66 l39 -34 -114 -85
c-162 -122 -300 -236 -659 -544 -403 -345 -413 -354 -539 -453 l-106 -84 -38
44 c-59 68 -82 123 -82 198 0 126 66 214 319 429 83 71 164 142 179 158 l28
30 -101 7 c-259 17 -560 83 -1010 221 -783 242 -1040 307 -1422 361 -126 17
-598 32 -598 18 0 -5 27 -64 60 -132 147 -304 313 -501 790 -942 368 -340 539
-526 666 -725 44 -69 94 -158 94 -167 0 -2 -16 -12 -35 -22 -19 -10 -55 -45
-80 -77 -56 -71 -90 -96 -141 -104 l-39 -7 -141 159 c-78 87 -179 199 -225
248 -46 50 -231 248 -410 440 -707 759 -997 1096 -1282 1492 l-66 92 57 6 c31
3 93 10 137 15 73 8 317 26 475 34 143 8 745 -5 905 -19z m1805 -50 c47 -9
102 -21 122 -27 l37 -11 -16 -31 c-20 -41 -52 -75 -85 -92 -42 -22 -146 -18
-225 9 -99 34 -273 109 -273 119 0 12 42 31 100 45 68 16 222 10 340 -12z
m-3349 -305 c1082 -1229 2425 -2673 3456 -3721 192 -194 203 -207 203 -243 0
-58 -26 -100 -88 -144 -79 -55 -101 -82 -110 -130 l-7 -42 -100 77 c-518 398
-916 793 -1860 1848 -527 589 -880 956 -1190 1240 l-130 118 -21 -214 c-78
-784 -84 -871 -85 -1252 0 -327 6 -396 47 -592 59 -279 75 -381 76 -486 1
-162 -33 -257 -126 -348 l-44 -43 -70 45 c-105 68 -177 174 -220 322 -37 131
-42 170 -72 659 -6 88 -10 364 -10 615 0 427 9 694 45 1441 9 168 18 498 22
733 l6 428 22 -23 c12 -13 127 -142 256 -288z m9128 88 c55 -555 65 -688 86
-1098 18 -349 19 -558 5 -850 -40 -828 -188 -1408 -467 -1830 -217 -329 -507
-532 -880 -618 -62 -14 -115 -23 -119 -20 -13 14 -21 136 -12 193 19 123 81
187 256 265 230 103 239 108 325 190 255 241 384 600 437 1220 16 178 13 748
-5 1022 -20 307 -43 579 -50 586 -9 10 -172 -75 -275 -142 -194 -127 -325
-249 -635 -586 -218 -238 -340 -359 -465 -459 -97 -77 -221 -161 -297 -200
l-43 -21 0 30 c0 47 -23 81 -100 150 -39 35 -78 76 -86 92 l-15 29 168 176
c182 191 606 605 851 831 331 306 1290 1162 1303 1162 3 0 11 -55 18 -122z
m-2349 -198 c161 -20 460 -107 460 -134 0 -21 -85 -155 -154 -242 -171 -214
-409 -359 -693 -420 -99 -21 -309 -23 -425 -5 l-87 14 6 31 c11 60 57 139 101
173 53 40 113 58 262 78 63 8 144 25 180 36 66 21 140 64 148 87 2 7 -23 25
-65 45 -58 27 -81 32 -158 35 -77 3 -100 0 -158 -22 -86 -32 -163 -83 -251
-166 -86 -81 -206 -241 -269 -358 l-49 -89 -36 7 c-48 9 -72 22 -145 80 -33
27 -73 52 -88 55 -36 8 -36 20 -5 111 47 139 112 239 227 350 124 118 275 206
463 268 75 25 241 61 316 69 78 8 341 6 420 -3z m-4942 -232 c47 2 52 0 52
-18 0 -43 -29 -76 -99 -114 -81 -45 -102 -71 -103 -127 0 -21 -2 -39 -5 -39
-17 0 -98 69 -152 130 -35 39 -81 83 -103 97 -36 24 -37 27 -22 44 28 31 81
38 234 31 80 -3 169 -5 198 -4z m595 -33 c77 -16 165 -54 214 -91 43 -33 85
-106 98 -171 l11 -53 94 61 c138 90 170 101 260 97 55 -3 91 -11 134 -31 57
-26 58 -28 52 -60 -21 -108 -145 -275 -266 -357 -291 -198 -728 -248 -1003
-117 -100 49 -159 103 -199 185 -44 89 -51 206 -18 295 70 186 359 298 623
242z m2662 -171 c10 -4 30 -35 45 -70 31 -68 56 -88 101 -82 39 6 39 -22 2
-52 -22 -17 -38 -21 -73 -18 -85 9 -201 82 -236 149 l-15 29 35 0 c26 0 40 7
53 25 18 24 53 32 88 19z m-222 -223 c223 -57 456 -195 734 -434 144 -123 473
-438 473 -452 0 -6 -14 -27 -30 -47 -34 -41 -205 -152 -224 -145 -6 3 -110 78
-231 167 -528 389 -848 571 -1242 706 -46 15 -83 30 -82 33 1 13 112 99 161
126 121 66 292 84 441 46z m-1644 -371 c42 -52 140 -185 219 -296 268 -377
421 -519 639 -592 71 -24 92 -26 233 -26 133 0 163 3 212 21 90 34 159 84 239
174 121 137 184 196 236 223 54 27 154 44 221 38 l42 -4 0 -47 c-1 -83 -37
-222 -85 -319 -56 -112 -137 -203 -239 -266 -416 -260 -1176 -101 -1621 339
-179 177 -270 355 -282 556 -6 106 6 199 38 286 l21 55 25 -24 c14 -13 60 -66
102 -118z m2694 -37 c119 -33 452 -21 637 23 23 5 22 3 -10 -22 -19 -16 -81
-72 -136 -125 -56 -54 -119 -109 -141 -123 l-39 -26 -119 53 c-152 67 -173 78
-213 118 -34 33 -54 65 -67 108 -6 20 -4 23 9 18 9 -4 45 -14 79 -24z m2703
-179 c64 -396 67 -948 7 -1399 -8 -66 -19 -126 -23 -134 -13 -25 -32 108 -37
263 -3 88 2 261 12 425 20 316 16 474 -16 602 -24 92 -57 174 -89 219 l-21 30
21 0 c38 0 90 29 108 59 9 16 18 28 20 26 2 -1 10 -43 18 -91z m-4123 48 c106
-36 220 -106 304 -186 l64 -61 -12 -35 c-45 -130 -176 -233 -357 -282 -113
-30 -299 -30 -407 1 -149 42 -262 121 -314 222 l-24 46 40 54 c102 138 217
222 354 259 106 29 236 22 352 -18z m-1680 -119 c-11 -10 -47 -51 -79 -91 -58
-74 -137 -132 -179 -132 -32 0 -57 53 -63 132 l-5 68 36 -15 c54 -22 95 -18
167 16 60 28 130 50 139 43 2 -2 -5 -11 -16 -21z m-1992 -480 c342 -345 528
-555 666 -748 97 -137 146 -215 134 -215 -24 0 -85 -69 -123 -137 -22 -40 -48
-83 -57 -95 l-18 -21 -64 30 c-76 36 -139 89 -234 196 -120 136 -219 227 -246
227 -4 0 -5 -62 -2 -137 12 -304 -51 -592 -192 -880 -65 -133 -125 -237 -316
-538 -195 -309 -296 -530 -346 -760 -14 -63 -18 -127 -18 -296 l0 -217 -26
-14 c-34 -20 -71 -71 -99 -138 -37 -91 -62 -140 -69 -140 -20 0 -124 290 -152
422 -16 76 -21 139 -21 243 -1 307 73 517 369 1045 196 349 288 544 352 740
104 320 126 600 76 982 -33 257 -40 409 -26 528 14 110 49 270 60 270 4 0 163
-156 352 -347z m2196 311 c38 -22 123 -130 123 -156 0 -6 -37 -58 -82 -116
-107 -138 -308 -338 -428 -428 -90 -68 -233 -164 -243 -164 -3 0 -25 33 -50
73 -25 39 -57 83 -71 96 -14 14 -26 28 -26 32 0 9 171 252 263 374 83 109 221
244 287 279 94 51 150 54 227 10z m5260 -86 c-35 -143 -42 -241 -41 -553 0
-185 7 -402 17 -539 26 -355 21 -573 -18 -731 -19 -76 -86 -213 -119 -244
l-26 -24 -42 19 c-62 28 -140 109 -176 184 -86 176 -101 411 -52 794 11 83 20
154 20 157 0 10 -78 -19 -165 -62 -156 -76 -358 -248 -544 -464 -47 -55 -177
-213 -289 -351 -111 -139 -238 -293 -282 -342 -44 -50 -80 -93 -80 -97 0 -3
19 -15 43 -25 37 -17 66 -20 260 -20 234 0 269 -6 301 -51 24 -34 20 -69 -14
-122 -36 -57 -37 -64 -8 -73 22 -6 21 -8 -17 -41 -61 -53 -152 -92 -251 -110
-113 -19 -361 -12 -549 16 -388 59 -490 72 -602 78 l-123 6 47 66 c599 851
1396 1633 2458 2412 247 181 258 189 263 185 2 -3 -3 -33 -11 -68z m-2746
-356 c-21 -43 -67 -116 -102 -162 -105 -143 -207 -238 -668 -621 -262 -218
-357 -310 -488 -477 l-18 -23 -225 202 c-328 295 -475 436 -581 555 -108 122
-200 246 -237 321 -33 67 -25 98 36 131 23 13 42 30 42 38 0 16 26 19 35 3 4
-5 -1 -19 -11 -30 -27 -30 -6 -43 39 -24 71 29 86 23 151 -65 70 -95 197 -220
284 -279 86 -58 229 -125 337 -158 83 -25 104 -27 275 -27 183 -1 186 -1 277
31 209 73 347 165 596 398 138 127 290 265 294 265 2 0 -14 -35 -36 -78z
m1187 -72 c83 -37 213 -157 292 -269 23 -33 23 -34 5 -68 -11 -19 -58 -70
-105 -113 -47 -43 -95 -95 -105 -114 -11 -20 -23 -36 -27 -36 -10 0 -92 72
-126 111 -16 19 -62 79 -102 134 -40 55 -84 112 -98 127 -24 26 -25 30 -13 70
50 167 141 218 279 158z m-3732 -374 c247 -222 860 -836 1197 -1198 147 -158
267 -290 267 -293 0 -3 -8 -5 -17 -5 -33 0 -81 -38 -137 -109 -31 -39 -65 -75
-75 -81 -16 -8 -42 8 -157 95 -374 284 -751 623 -1092 979 -261 273 -342 386
-357 501 -7 55 13 131 47 175 22 30 120 111 129 107 4 -1 92 -78 195 -171z
m3334 43 c54 -28 85 -58 149 -144 l59 -80 -36 -50 c-172 -238 -327 -413 -582
-654 -91 -86 -268 -253 -393 -371 -222 -210 -389 -385 -500 -524 l-55 -69 111
-141 c509 -647 964 -1115 2217 -2276 324 -301 758 -716 993 -951 409 -408 418
-416 429 -390 19 49 38 118 55 202 22 108 23 449 2 669 -8 87 -14 265 -14 405
0 229 2 257 22 327 58 200 151 320 313 406 34 18 63 32 64 32 2 0 6 -44 9 -97
4 -54 13 -186 21 -293 32 -416 40 -619 40 -1010 1 -497 -20 -779 -85 -1149
-18 -105 -77 -371 -84 -379 -5 -5 -304 241 -580 477 -1032 882 -2056 1888
-3225 3171 -525 576 -891 993 -885 1008 11 28 136 210 201 291 192 239 370
410 894 861 343 295 554 501 710 693 51 62 57 67 85 61 17 -4 46 -15 65 -25z
m-4535 -398 c17 -10 57 -57 89 -104 49 -73 65 -90 107 -109 56 -26 56 -23 3
-137 -42 -89 -97 -168 -225 -321 -116 -139 -187 -245 -223 -335 -30 -76 -56
-188 -56 -245 0 -37 -1 -38 -43 -44 -53 -8 -111 -1 -192 24 -33 10 -75 22 -92
25 -32 6 -33 8 -27 48 42 302 131 542 294 792 112 171 303 425 320 425 8 0 29
-8 45 -19z m-615 -300 c36 -38 73 -71 84 -75 13 -4 16 -11 11 -24 -17 -39 -55
-164 -84 -272 -72 -273 -127 -385 -215 -439 -44 -28 -49 -26 -32 7 47 90 88
308 111 587 22 267 25 285 43 285 9 0 46 -31 82 -69z m6213 -55 c103 -43 181
-225 227 -534 32 -222 30 -625 -5 -822 -8 -47 -15 -85 -15 -86 0 -7 -124 14
-184 32 -51 15 -105 24 -150 24 l-71 0 -2 193 c-1 105 -9 253 -17 327 -12 112
-65 542 -80 657 -4 26 3 40 41 84 100 118 180 157 256 125z m-5145 -280 c117
-98 229 -208 481 -479 118 -125 227 -238 244 -251 l31 -24 -37 -45 c-102 -125
-332 -246 -572 -302 -494 -114 -1250 -61 -1750 124 -138 51 -165 64 -165 79 0
8 20 46 44 86 25 39 48 90 52 114 l7 42 109 0 c125 0 166 -5 493 -66 400 -73
553 -86 720 -59 117 18 184 39 269 83 l68 36 -5 47 c-12 98 -54 149 -220 272
-214 157 -224 236 -50 417 l75 79 59 -40 c33 -22 99 -73 147 -113z m6950 -129
c58 -62 78 -196 62 -422 -6 -88 -15 -203 -20 -255 -14 -140 -12 -250 5 -306
16 -55 11 -64 -42 -64 -51 0 -95 48 -180 198 -42 75 -96 158 -120 183 l-43 46
51 89 c29 49 74 122 101 162 84 125 148 282 148 364 0 34 10 35 38 5z m-7303
-261 c68 -46 104 -83 126 -131 25 -54 25 -85 -1 -85 -11 0 -50 -12 -87 -27
-79 -32 -177 -38 -194 -13 -5 8 -8 43 -7 77 3 54 10 70 53 137 28 41 52 75 55
76 3 0 28 -15 55 -34z m-2105 -111 c19 -25 45 -48 58 -52 22 -5 24 -10 19 -44
-3 -22 -26 -73 -51 -116 -25 -42 -47 -81 -49 -87 -2 -6 -14 -4 -30 7 -37 24
-36 74 3 167 33 75 32 105 -1 115 -13 4 -18 12 -15 22 3 8 6 19 6 24 0 23 29
5 60 -36z m4070 -86 c61 -26 114 -83 131 -139 59 -197 -231 -608 -852 -1210
-665 -644 -812 -801 -901 -962 -24 -43 -45 -77 -48 -77 -3 0 -72 79 -153 174
l-148 174 122 148 c385 468 699 816 1477 1640 298 315 269 296 372 252z m4810
-294 c24 -38 98 -144 165 -235 167 -227 201 -279 250 -384 56 -118 75 -196 82
-333 12 -226 -39 -430 -150 -593 -49 -72 -166 -189 -242 -240 -206 -140 -429
-203 -715 -202 -271 1 -521 68 -746 200 l-71 41 7 44 c3 24 16 59 28 78 37 58
72 133 72 155 0 21 2 21 98 -12 166 -57 238 -69 427 -69 187 0 254 11 397 66
315 122 492 423 423 717 -27 115 -82 199 -246 377 -50 55 -111 126 -135 159
-50 66 -104 173 -104 205 0 39 79 104 202 165 64 32 123 65 130 73 11 13 18 4
49 -63 20 -44 55 -110 79 -149z m-4085 -485 c49 -52 224 -237 390 -410 165
-173 336 -353 380 -400 229 -241 482 -531 663 -759 112 -141 115 -145 95 -160
-12 -9 -43 -33 -70 -54 -26 -21 -67 -61 -90 -90 -24 -29 -50 -62 -60 -74 l-18
-21 -120 94 c-289 228 -585 515 -1050 1019 -316 342 -527 560 -699 723 -159
150 -157 145 -105 243 36 66 113 144 228 231 l85 64 140 -155 c78 -86 181
-199 231 -251z m3642 228 c11 -13 44 -59 74 -103 29 -44 75 -101 102 -128 38
-37 45 -48 33 -53 -39 -15 -90 6 -301 125 -68 38 -132 66 -167 73 -32 7 -58
15 -58 20 0 17 52 40 126 54 44 8 95 19 114 23 53 13 55 13 77 -11z m-1377
-23 c772 -63 1377 -259 1698 -550 59 -54 62 -59 62 -104 0 -69 -15 -105 -88
-208 l-66 -92 -55 48 c-328 279 -815 452 -1482 526 -148 17 -679 33 -679 21 0
-19 46 -93 82 -132 22 -24 93 -79 157 -123 64 -43 135 -94 158 -113 54 -43
116 -125 138 -183 l18 -45 -36 -39 c-20 -22 -55 -69 -77 -105 l-41 -65 -57 31
c-301 166 -482 341 -857 828 -87 113 -167 215 -178 227 -11 13 -19 25 -16 27
10 9 333 47 509 59 140 10 655 5 810 -8z m-6162 -19 c15 -8 41 -29 59 -48 32
-33 32 -34 15 -60 -28 -42 -86 -84 -199 -140 -59 -30 -124 -71 -148 -94 l-43
-41 -14 25 c-21 41 -16 150 10 200 55 104 151 172 245 172 26 0 60 -6 75 -14z
m563 -84 l136 -5 6 -76 c4 -42 23 -170 42 -286 33 -192 61 -468 50 -486 -3 -4
-14 -5 -24 -2 -32 8 -89 -27 -127 -78 -40 -55 -78 -79 -123 -79 -27 0 -31 6
-59 73 -17 39 -51 152 -76 250 -25 98 -56 203 -70 233 l-26 56 -77 -63 c-325
-264 -566 -629 -722 -1097 -96 -285 -144 -533 -172 -877 -12 -152 -6 -631 9
-743 l7 -53 60 36 c169 102 308 230 585 540 109 121 212 233 229 250 28 26 30
30 14 37 -31 12 -102 8 -140 -7 -58 -25 -118 -80 -220 -204 -104 -126 -163
-191 -174 -191 -3 0 -16 24 -29 53 -16 37 -23 80 -27 152 -5 106 5 174 66 465
17 80 31 164 31 188 0 36 3 42 23 44 12 1 162 2 332 3 304 0 311 0 362 24 43
19 56 21 68 11 20 -17 19 -39 -4 -91 -18 -40 -19 -45 -4 -61 9 -10 22 -18 29
-18 8 0 43 35 79 79 63 76 111 111 153 111 21 0 102 -56 135 -94 10 -12 30
-45 44 -75 22 -46 25 -63 21 -126 -13 -194 -169 -389 -673 -841 -313 -279
-372 -345 -685 -764 -277 -369 -378 -486 -502 -578 -71 -52 -167 -106 -175
-98 -18 17 -53 824 -53 1199 1 1459 292 2372 901 2830 127 96 334 195 502 242
l57 16 0 75 0 74 42 -21 c36 -18 65 -23 179 -27z m1535 -5 c8 -8 -269 -413
-394 -577 -515 -675 -997 -945 -1759 -986 -72 -3 -161 -3 -197 1 l-66 7 -16
55 c-22 74 -13 130 32 221 l37 72 71 0 c92 0 319 25 421 45 486 100 845 331
990 636 34 73 35 79 22 110 -30 73 -83 83 -237 45 -58 -14 -115 -26 -128 -26
l-22 0 2 177 3 178 70 13 c197 37 274 41 723 38 243 -2 445 -6 448 -9z m988
-208 c44 -12 137 -100 199 -188 l38 -53 -114 -142 c-413 -511 -799 -931 -1767
-1921 -792 -810 -938 -962 -1170 -1211 -298 -320 -687 -760 -679 -769 2 -2 54
-13 114 -25 804 -155 1706 -27 2659 377 530 225 1121 566 1366 789 113 103
197 167 265 202 40 21 65 26 120 27 78 0 119 -15 182 -69 l38 -33 -50 -58
c-182 -213 -478 -469 -785 -677 -698 -475 -1469 -756 -2460 -898 -484 -69
-1194 -107 -1763 -94 l-299 7 7 36 c13 72 75 241 123 337 112 223 251 406 627
825 71 80 196 219 276 310 212 238 519 568 963 1034 870 911 1161 1224 1502
1615 120 138 334 394 424 507 62 78 67 82 105 83 22 0 57 -5 79 -11z m3461
-266 c51 -16 104 -25 147 -25 l68 0 -6 -26 c-56 -255 -125 -408 -333 -744
-126 -204 -125 -203 -196 -174 -19 8 -63 38 -97 66 -35 28 -76 54 -93 59 -29
7 -30 10 -29 62 3 113 36 199 183 474 67 123 111 247 111 308 0 23 5 26 38 29
63 5 124 -3 207 -29z m796 -349 c84 -25 143 -59 183 -105 50 -59 48 -79 -7
-79 -24 0 -97 -7 -162 -16 -131 -17 -294 -14 -357 7 l-38 12 0 77 c0 75 1 78
28 88 89 36 261 43 353 16z m-3488 -367 c352 -353 556 -548 884 -846 187 -169
202 -185 191 -205 -23 -43 -52 -76 -115 -128 -36 -29 -79 -74 -96 -100 -16
-27 -32 -48 -34 -48 -3 0 -104 62 -226 137 -469 291 -733 395 -1087 425 -93 8
-157 8 -251 -1 -215 -20 -305 -55 -528 -204 -136 -91 -250 -145 -324 -153
l-59 -7 60 94 c83 129 220 311 337 449 77 90 900 920 913 920 2 0 152 -150
335 -333z m-2758 -241 c71 -42 175 -169 235 -285 19 -39 21 -49 11 -82 -22
-73 -53 -131 -92 -170 -35 -35 -44 -39 -89 -39 -63 0 -117 26 -176 86 -55 55
-133 173 -164 248 -21 52 -22 61 -9 98 19 58 78 138 119 160 44 24 106 18 165
-16z m5870 -332 c394 -130 434 -139 670 -139 154 0 203 4 258 19 38 10 71 16
74 13 3 -3 12 -50 21 -104 22 -132 21 -541 -1 -741 -8 -79 -18 -146 -21 -149
-13 -13 -210 170 -611 569 -414 411 -535 523 -637 590 -43 28 -55 38 -45 38 2
0 134 -43 292 -96z m-1287 -163 c49 -25 112 -78 112 -95 0 -6 -27 -52 -59
-101 -168 -254 -378 -463 -633 -629 -71 -46 -303 -176 -315 -176 -2 0 -3 5 -3
10 0 24 -53 88 -95 114 l-45 29 87 91 c49 50 158 181 243 291 238 307 395 453
525 486 48 13 138 3 183 -20z m-2216 -221 c425 -82 907 -387 1254 -793 95
-111 188 -240 243 -338 l31 -56 -41 -47 c-23 -26 -67 -60 -98 -76 -57 -28
-208 -77 -215 -69 -2 2 -29 54 -59 114 -241 474 -655 832 -1094 946 -73 19
-113 23 -238 23 -133 -1 -160 -4 -240 -27 -163 -49 -320 -141 -441 -259 l-51
-49 -29 29 c-16 15 -48 54 -72 85 -23 32 -56 66 -73 76 l-31 19 104 104 c289
293 636 398 1050 318z m2520 -182 c262 -220 434 -383 1153 -1098 402 -399 765
-756 807 -794 l78 -68 -53 -38 c-409 -293 -1079 -445 -1872 -427 -743 18
-1418 170 -1946 438 -191 97 -477 301 -466 332 6 18 96 76 135 87 67 18 164
12 248 -16 94 -32 110 -40 326 -160 299 -167 362 -195 543 -244 667 -178 1440
-168 1989 27 61 21 225 90 234 99 6 4 -111 174 -182 263 -130 165 -306 348
-636 661 -313 296 -474 460 -596 605 -79 95 -144 182 -144 196 0 11 233 249
244 249 3 0 65 -50 138 -112z m-4079 -58 c353 -245 792 -596 1315 -1054 115
-101 115 -99 19 -133 -50 -18 -92 -51 -113 -88 -11 -19 -13 -19 -85 9 -176 68
-408 207 -589 353 -95 76 -257 225 -472 430 -79 76 -183 173 -231 217 -49 44
-87 86 -87 97 0 19 138 229 150 229 4 0 46 -27 93 -60z m1825 -358 c77 -30
135 -66 199 -126 l56 -52 -33 -58 c-47 -83 -136 -174 -280 -287 -69 -55 -141
-113 -161 -130 l-37 -31 -139 120 c-169 145 -257 239 -311 329 -63 107 -65
102 36 147 100 46 239 92 315 106 88 15 294 5 355 -18z m-2018 -58 c0 -25 8
-34 102 -122 29 -26 57 -87 46 -98 -2 -1 -48 9 -103 22 -67 17 -132 26 -197
27 -54 1 -98 3 -98 5 0 2 18 30 40 62 57 84 119 128 183 129 23 1 27 -3 27
-25z m4035 -138 c101 -27 174 -86 228 -184 l28 -51 -23 -6 c-13 -3 -138 -9
-278 -14 -332 -12 -444 -35 -529 -107 l-34 -29 7 30 c55 231 373 422 601 361z
m-4277 -141 c91 -19 225 -81 230 -108 7 -36 -9 -86 -37 -115 -41 -45 -94 -55
-276 -53 -186 2 -248 -11 -289 -60 -29 -35 -49 -96 -44 -142 3 -28 11 -36 70
-66 59 -30 77 -34 140 -34 152 0 245 69 493 363 149 176 190 216 233 225 31 6
37 3 87 -49 30 -31 61 -56 69 -56 35 0 20 -137 -25 -228 -142 -289 -685 -550
-1044 -501 -105 14 -183 50 -239 109 -53 57 -73 100 -87 190 -21 136 16 246
115 346 150 150 391 221 604 179z m4422 -285 c288 -30 501 -140 577 -299 38
-79 44 -214 14 -284 -57 -133 -187 -222 -405 -280 -69 -18 -108 -21 -256 -21
-160 1 -182 3 -265 28 -164 50 -282 132 -339 236 l-28 52 28 30 c55 57 108 81
182 80 69 0 101 -9 302 -88 125 -49 205 -52 266 -11 46 31 88 83 79 97 -3 6
-52 11 -108 11 l-102 1 80 16 c44 8 82 17 84 19 12 9 -82 88 -139 116 -61 30
-71 32 -175 32 -148 0 -217 -23 -544 -184 -319 -157 -372 -176 -506 -176 -85
0 -107 4 -147 24 -27 13 -48 30 -48 37 0 33 57 123 118 187 251 260 845 428
1332 377z m-3327 -170 c20 -11 81 -53 136 -94 54 -40 113 -80 130 -87 36 -16
36 -17 15 -48 -21 -30 -71 -51 -106 -44 -36 7 -96 59 -159 141 -29 37 -66 81
-82 99 -48 52 -8 72 66 33z m-357 -31 c138 -58 224 -162 224 -271 -1 -116 -86
-208 -193 -208 -48 0 -131 45 -175 95 -48 55 -106 161 -96 178 4 6 33 51 66
99 32 48 63 99 68 113 5 14 14 25 20 25 6 0 45 -14 86 -31z m-1509 -387 c37
-76 113 -151 193 -190 183 -90 436 -87 936 13 99 19 190 38 204 40 24 5 24 5
6 -9 -32 -25 -167 -93 -241 -121 -252 -95 -512 -139 -1230 -210 -143 -15 -320
-34 -393 -44 l-132 -17 6 21 c12 40 65 131 108 186 24 30 106 109 182 174 163
140 233 210 277 278 l31 48 13 -56 c7 -30 25 -81 40 -113z m3309 -446 c28 -13
67 -38 87 -56 l37 -32 -18 -30 c-68 -118 -305 -246 -544 -295 -105 -22 -387
-24 -468 -4 -145 35 -256 90 -328 162 -52 52 -107 142 -99 162 3 7 29 26 58
42 49 27 63 30 144 30 77 0 103 -5 180 -34 166 -62 240 -83 285 -82 64 1 165
30 315 91 153 62 173 68 245 69 38 1 70 -6 106 -23z m730 -301 c93 -19 200
-37 237 -41 l68 -7 -23 -24 c-13 -14 -35 -31 -50 -39 -39 -20 -162 -18 -298 6
-154 27 -264 34 -327 22 -29 -5 -53 -6 -53 -1 0 16 94 89 133 103 65 23 130
19 313 -19z"/>
<path d="M4001 10379 c-41 -9 -81 -37 -101 -72 -14 -25 -13 -28 8 -42 15 -11
22 -26 22 -49 0 -32 2 -34 46 -40 66 -9 176 -7 261 4 106 14 168 50 191 111
l10 25 -57 -4 c-46 -3 -80 3 -167 31 -126 40 -166 47 -213 36z"/>
</g>
</svg>
